<svg width="542" height="320" viewBox="0 0 542 320" fill="none" xmlns="http://www.w3.org/2000/svg">
<g clip-path="url(#clip0_3_96)">
<path d="M524.731 271.041C519.54 289.122 504.384 301.778 488.575 312.53C486.367 314.032 484.159 315.499 481.95 316.931C481.935 316.938 481.92 316.952 481.905 316.958C481.798 317.027 481.692 317.096 481.593 317.165C481.137 317.46 480.681 317.755 480.229 318.047L480.477 318.159C480.477 318.159 480.721 318.289 480.454 318.18C480.375 318.146 480.292 318.116 480.212 318.083C471.028 314.363 461.68 310.37 454.642 303.402C447.341 296.167 443.074 284.818 447.027 275.313C447.547 274.068 448.203 272.885 448.984 271.786C449.305 271.325 449.65 270.884 450.01 270.452C452.191 267.779 455.041 265.738 458.268 264.538C461.495 263.338 464.982 263.023 468.37 263.625C471.759 264.227 474.926 265.724 477.547 267.963C480.168 270.202 482.148 273.101 483.284 276.363C484.445 265.504 475.528 256.408 466.946 249.697C458.361 242.989 448.606 235.684 446.946 224.886C446.019 218.877 448.1 213.055 451.89 208.381C452.007 208.239 452.124 208.097 452.245 207.959C456.859 202.515 463.349 199.02 470.417 198.17C483.582 196.796 496.369 203.793 505.933 212.984C521.326 227.771 530.632 250.483 524.731 271.041Z" fill="#F2F2F2"/>
<path d="M499.986 247.392C502.513 251.339 504.453 255.635 505.744 260.144C506.837 264.174 507.323 268.345 507.187 272.52C506.834 281.11 504.433 289.489 500.184 296.953C496.983 302.616 493.082 307.85 488.575 312.53C486.367 314.032 484.159 315.499 481.95 316.931C481.935 316.938 481.92 316.952 481.905 316.958C481.798 317.027 481.692 317.096 481.593 317.165C481.137 317.46 480.681 317.755 480.229 318.047C480.229 318.047 480.721 318.289 480.454 318.18C480.375 318.146 480.292 318.116 480.212 318.083C481.036 311.306 480.229 304.43 477.861 298.031C475.492 291.632 471.631 285.896 466.6 281.304C461.557 276.782 455.521 273.521 448.984 271.786C449.305 271.325 449.65 270.884 450.01 270.452C452.535 271.162 454.992 272.096 457.353 273.241C465.792 277.311 472.702 284 477.06 292.32C480.971 299.874 482.655 308.392 481.912 316.874C482.29 316.53 482.668 316.18 483.034 315.832C490.013 309.299 496.212 301.799 500.407 293.145C504.047 285.815 505.836 277.7 505.616 269.513C505.274 260.586 501.731 252.317 496.603 245.119C490.981 237.439 484.341 230.567 476.865 224.694C469.332 218.636 461.088 213.525 452.318 209.477C452.12 209.385 451.966 209.219 451.886 209.015C451.806 208.811 451.808 208.584 451.89 208.381C451.948 208.199 452.076 208.047 452.245 207.959C452.332 207.921 452.427 207.904 452.522 207.908C452.616 207.912 452.709 207.937 452.792 207.982C453.875 208.483 454.95 208.99 456.017 209.52C464.901 213.929 473.206 219.429 480.739 225.894C488.016 232.124 494.867 239.241 499.986 247.392Z" fill="white"/>
<path d="M314.334 163.834C315.409 163.443 316.384 162.82 317.193 162.009C318.002 161.198 318.623 160.219 319.014 159.141C319.406 158.063 319.556 156.912 319.457 155.769C319.357 154.626 319.008 153.519 318.436 152.526L336.593 131.419L322.28 129.548L307.232 149.878C305.634 150.954 304.484 152.581 304.001 154.451C303.518 156.321 303.734 158.303 304.61 160.024C305.485 161.744 306.959 163.082 308.751 163.784C310.543 164.486 312.53 164.504 314.334 163.834H314.334Z" fill="#FFB8B8"/>
<path d="M416.677 168.294C417.431 167.431 417.987 166.413 418.306 165.311C418.625 164.209 418.7 163.051 418.524 161.917C418.349 160.783 417.929 159.702 417.292 158.749C416.656 157.796 415.819 156.994 414.841 156.401L420.613 129.119L407.174 134.41L403.754 159.506C402.87 161.222 402.644 163.204 403.119 165.076C403.594 166.948 404.735 168.581 406.328 169.664C407.921 170.747 409.855 171.206 411.762 170.953C413.67 170.701 415.418 169.754 416.677 168.294Z" fill="#FFB8B8"/>
<path d="M351.645 310.477L342.115 310.476L337.582 273.569L351.647 273.57L351.645 310.477Z" fill="#FFB8B8"/>
<path d="M354.075 319.752L323.348 319.751V319.361C323.348 317.784 323.657 316.222 324.258 314.765C324.859 313.308 325.74 311.984 326.851 310.869C327.961 309.754 329.28 308.87 330.731 308.266C332.182 307.663 333.737 307.352 335.308 307.352H335.308L354.076 307.353L354.075 319.752Z" fill="#2F2E41"/>
<path d="M398.283 310.477L388.753 310.476L384.22 273.569L398.285 273.57L398.283 310.477Z" fill="#FFB8B8"/>
<path d="M400.714 319.752L369.986 319.751V319.361C369.986 317.784 370.296 316.222 370.897 314.765C371.498 313.308 372.379 311.984 373.489 310.869C374.6 309.754 375.918 308.87 377.369 308.266C378.82 307.663 380.376 307.352 381.946 307.352H381.947L400.714 307.353L400.714 319.752Z" fill="#2F2E41"/>
<path d="M352.638 291.205L339.148 290.663C338.227 290.623 337.36 290.222 336.732 289.545C336.104 288.868 335.766 287.971 335.791 287.046L339.592 161.873L339.84 161.783C363.483 153.195 383.042 153.844 399.635 163.765L399.821 163.876L402.098 285.79C402.106 286.257 402.022 286.721 401.851 287.155C401.679 287.588 401.423 287.983 401.097 288.317C400.771 288.65 400.383 288.915 399.954 289.095C399.525 289.276 399.065 289.369 398.6 289.369H387.225C386.415 289.367 385.63 289.084 385.004 288.567C384.379 288.051 383.95 287.332 383.793 286.534L368.297 207.386C368.244 207.112 368.095 206.867 367.877 206.694C367.659 206.52 367.388 206.431 367.11 206.441C366.833 206.452 366.568 206.561 366.364 206.75C366.159 206.938 366.029 207.194 365.996 207.471L356.25 288.119C356.143 288.969 355.731 289.751 355.092 290.32C354.453 290.888 353.629 291.203 352.776 291.207C352.73 291.207 352.684 291.206 352.638 291.205Z" fill="#2F2E41"/>
<path d="M365.761 52.099C376.305 52.099 384.853 43.5165 384.853 32.9294C384.853 22.3424 376.305 13.7599 365.761 13.7599C355.217 13.7599 346.67 22.3424 346.67 32.9294C346.67 43.5165 355.217 52.099 365.761 52.099Z" fill="#FFB8B8"/>
<path d="M320.786 148.597C320.124 148.335 319.557 147.876 319.161 147.281L315.472 141.739C315.074 141.138 314.87 140.428 314.886 139.707C314.903 138.985 315.14 138.286 315.565 137.704L330.436 117.437L339.753 72.5499C340.288 71.1637 341.091 69.897 342.115 68.8224C343.138 67.7478 344.363 66.8863 345.718 66.2873C347.073 65.6882 348.533 65.3632 350.014 65.331C351.494 65.2988 352.967 65.5599 354.347 66.0994C355.727 66.639 356.987 67.4463 358.056 68.4754C359.125 69.5044 359.982 70.735 360.577 72.0966C361.172 73.4582 361.493 74.9243 361.524 76.411C361.554 77.8976 361.292 79.3757 360.753 80.7606L356.35 109.328C355.015 117.998 350.589 125.887 343.895 131.525L324.318 148.021C323.941 148.337 323.503 148.571 323.03 148.707C322.558 148.842 322.062 148.876 321.576 148.807C321.305 148.769 321.04 148.698 320.786 148.597Z" fill="#0A4DB1"/>
<path d="M415.863 150.631C415.193 150.873 414.465 150.905 413.777 150.721L407.361 149.008C406.666 148.821 406.046 148.424 405.584 147.872C405.121 147.319 404.839 146.637 404.775 145.918L402.602 120.839L380.058 80.9645C379.549 79.5687 379.318 78.0856 379.379 76.6002C379.441 75.1148 379.793 73.6561 380.417 72.3075C381.04 70.9589 381.922 69.7468 383.012 68.7407C384.102 67.7345 385.379 66.9539 386.769 66.4434C388.16 65.933 389.637 65.7028 391.116 65.7659C392.596 65.829 394.048 66.1842 395.391 66.8113C396.733 67.4384 397.939 68.325 398.94 69.4204C399.942 70.5158 400.718 71.7986 401.225 73.1954L416.717 97.56C421.421 104.954 423.289 113.812 421.975 122.486L418.134 147.855C418.06 148.343 417.885 148.809 417.619 149.224C417.354 149.64 417.004 149.994 416.593 150.265C416.365 150.415 416.12 150.538 415.863 150.631Z" fill="#0A4DB1"/>
<path d="M344.879 66.9722C348.159 63.3614 352.203 60.5359 356.715 58.7042C361.227 56.8725 366.091 56.0814 370.948 56.3891C371.267 56.4089 371.585 56.4313 371.902 56.4562H371.902C376.506 56.8217 380.978 58.1697 385.021 60.4103C389.064 62.6509 392.584 65.7323 395.345 69.4486C398.153 73.2168 400.127 77.5434 401.136 82.1391C402.145 86.7348 402.165 91.4938 401.195 96.098C397.493 113.693 398.43 131.954 403.913 149.074L409.034 165.042C409.198 165.554 409.243 166.097 409.166 166.629C409.088 167.16 408.89 167.667 408.586 168.11C408.283 168.553 407.882 168.92 407.415 169.183C406.948 169.445 406.427 169.597 405.892 169.625L379.709 171.039L373.008 159.418V171.401L341.184 173.119C341.121 173.122 341.058 173.124 340.995 173.124C340.513 173.124 340.035 173.023 339.593 172.828C339.15 172.634 338.753 172.349 338.426 171.993C338.098 171.637 337.848 171.216 337.69 170.758C337.533 170.299 337.471 169.813 337.51 169.33L341.107 124.544L336.595 94.1261C335.865 89.2661 336.23 84.3034 337.664 79.6039C339.098 74.9043 341.563 70.5877 344.879 66.9722Z" fill="#0A4DB1"/>
<path d="M379.03 51.2295C377.262 52.2507 370.276 52.9279 369.778 50.9421L369.767 50.8985C369.421 49.4436 369.708 47.9243 369.808 46.4317C369.907 44.9391 369.762 43.2994 368.749 42.2019C366.862 40.1562 363.504 41.2406 360.775 40.7234C359.177 40.3651 357.763 39.4342 356.799 38.105C355.835 36.7757 355.386 35.1391 355.536 33.5016C355.575 33.1913 355.636 32.8808 355.704 32.5703C355.875 31.7839 355.862 30.9684 355.666 30.1879C355.47 29.4074 355.096 28.6832 354.575 28.072C354.053 27.4609 353.397 26.9795 352.659 26.6656C351.921 26.3517 351.12 26.2139 350.32 26.263C347.562 26.4213 344.585 27.2604 342.303 25.2092C340.539 23.6231 340.108 19.4942 340.884 17.2472C342.187 13.471 350.533 11.4941 354.177 10.4073C358.684 9.09973 363.425 8.81704 368.054 9.57978C372.683 10.3425 377.085 12.1315 380.94 14.8167C383.242 16.4457 385.391 18.4927 386.372 21.1431C387.353 23.7936 386.88 27.1375 384.668 28.8872C386.383 30.7101 387.59 32.9536 388.169 35.3928C388.749 37.8319 388.679 40.3811 387.968 42.7849C386.876 46.3201 381.661 49.7094 379.03 51.2295Z" fill="#2F2E41"/>
<path d="M206.764 107.707H34.9787C34.7726 107.707 34.5749 107.625 34.4291 107.479C34.2833 107.332 34.2014 107.134 34.2014 106.927C34.2014 106.72 34.2833 106.521 34.4291 106.375C34.5749 106.229 34.7726 106.146 34.9787 106.146H206.764C206.97 106.146 207.167 106.229 207.313 106.375C207.459 106.521 207.541 106.72 207.541 106.927C207.541 107.134 207.459 107.332 207.313 107.479C207.167 107.625 206.97 107.707 206.764 107.707Z" fill="#E6E6E6"/>
<path d="M169.141 107.707H71.5122C71.306 107.707 71.1083 107.625 70.9625 107.479C70.8168 107.332 70.7349 107.134 70.7349 106.927C70.7349 106.72 70.8168 106.521 70.9625 106.375C71.1083 106.229 71.306 106.146 71.5122 106.146H169.141C169.347 106.146 169.545 106.229 169.69 106.375C169.836 106.521 169.918 106.72 169.918 106.927C169.918 107.134 169.836 107.332 169.69 107.479C169.545 107.625 169.347 107.707 169.141 107.707Z" fill="#3F3D56"/>
<path d="M121.26 107.707C121.054 107.707 120.856 107.625 120.71 107.479C120.564 107.332 120.482 107.134 120.482 106.927V57.7561C120.482 57.5491 120.564 57.3506 120.71 57.2042C120.856 57.0579 121.054 56.9756 121.26 56.9756C121.466 56.9756 121.664 57.0579 121.809 57.2042C121.955 57.3506 122.037 57.5491 122.037 57.7561V106.927C122.037 107.134 121.955 107.332 121.809 107.479C121.664 107.625 121.466 107.707 121.26 107.707Z" fill="#3F3D56"/>
<path d="M170.23 107.707C170.024 107.707 169.826 107.625 169.681 107.479C169.535 107.332 169.453 107.134 169.453 106.927V8.58536C169.453 8.37836 169.535 8.17984 169.681 8.03347C169.826 7.8871 170.024 7.80487 170.23 7.80487C170.436 7.80487 170.634 7.8871 170.78 8.03347C170.926 8.17984 171.007 8.37836 171.007 8.58536V106.927C171.007 107.134 170.926 107.332 170.78 107.479C170.634 107.625 170.436 107.707 170.23 107.707Z" fill="#3F3D56"/>
<path d="M8.55037 17.1707C13.2726 17.1707 17.1007 13.3269 17.1007 8.58537C17.1007 3.8438 13.2726 0 8.55037 0C3.82813 0 0 3.8438 0 8.58537C0 13.3269 3.82813 17.1707 8.55037 17.1707Z" fill="#E6E6E6"/>
<path d="M8.55037 66.3414C13.2726 66.3414 17.1007 62.4976 17.1007 57.7561C17.1007 53.0145 13.2726 49.1707 8.55037 49.1707C3.82813 49.1707 0 53.0145 0 57.7561C0 62.4976 3.82813 66.3414 8.55037 66.3414Z" fill="#E6E6E6"/>
<path d="M8.55037 115.512C13.2726 115.512 17.1007 111.668 17.1007 106.927C17.1007 102.185 13.2726 98.3415 8.55037 98.3415C3.82813 98.3415 0 102.185 0 106.927C0 111.668 3.82813 115.512 8.55037 115.512Z" fill="#E6E6E6"/>
<path d="M206.764 9.36585H34.9787C34.7726 9.36585 34.5749 9.28361 34.4291 9.13724C34.2833 8.99087 34.2014 8.79236 34.2014 8.58536C34.2014 8.37836 34.2833 8.17984 34.4291 8.03347C34.5749 7.8871 34.7726 7.80487 34.9787 7.80487H206.764C206.97 7.80487 207.167 7.8871 207.313 8.03347C207.459 8.17984 207.541 8.37836 207.541 8.58536C207.541 8.79236 207.459 8.99087 207.313 9.13724C207.167 9.28361 206.97 9.36585 206.764 9.36585Z" fill="#E6E6E6"/>
<path d="M206.764 58.5366H34.9787C34.7726 58.5366 34.5749 58.4544 34.4291 58.308C34.2833 58.1616 34.2014 57.9631 34.2014 57.7561C34.2014 57.5491 34.2833 57.3506 34.4291 57.2042C34.5749 57.0579 34.7726 56.9756 34.9787 56.9756H206.764C206.97 56.9756 207.167 57.0579 207.313 57.2042C207.459 57.3506 207.541 57.5491 207.541 57.7561C207.541 57.9631 207.459 58.1616 207.313 58.308C207.167 58.4544 206.97 58.5366 206.764 58.5366Z" fill="#E6E6E6"/>
<path d="M71.901 115.512C76.6232 115.512 80.4513 111.668 80.4513 106.927C80.4513 102.185 76.6232 98.3415 71.901 98.3415C67.1787 98.3415 63.3506 102.185 63.3506 106.927C63.3506 111.668 67.1787 115.512 71.901 115.512Z" fill="#0A4DB1"/>
<path d="M121.26 66.3414C125.982 66.3414 129.81 62.4976 129.81 57.7561C129.81 53.0145 125.982 49.1707 121.26 49.1707C116.538 49.1707 112.709 53.0145 112.709 57.7561C112.709 62.4976 116.538 66.3414 121.26 66.3414Z" fill="#0A4DB1"/>
<path d="M121.26 115.512C125.982 115.512 129.81 111.668 129.81 106.927C129.81 102.185 125.982 98.3415 121.26 98.3415C116.538 98.3415 112.709 102.185 112.709 106.927C112.709 111.668 116.538 115.512 121.26 115.512Z" fill="#0A4DB1"/>
<path d="M170.23 17.1707C174.952 17.1707 178.78 13.3269 178.78 8.58537C178.78 3.8438 174.952 0 170.23 0C165.508 0 161.68 3.8438 161.68 8.58537C161.68 13.3269 165.508 17.1707 170.23 17.1707Z" fill="#0A4DB1"/>
<path d="M170.23 66.3414C174.952 66.3414 178.78 62.4976 178.78 57.7561C178.78 53.0145 174.952 49.1707 170.23 49.1707C165.508 49.1707 161.68 53.0145 161.68 57.7561C161.68 62.4976 165.508 66.3414 170.23 66.3414Z" fill="#0A4DB1"/>
<path d="M170.23 115.512C174.952 115.512 178.78 111.668 178.78 106.927C178.78 102.185 174.952 98.3415 170.23 98.3415C165.508 98.3415 161.68 102.185 161.68 106.927C161.68 111.668 165.508 115.512 170.23 115.512Z" fill="#0A4DB1"/>
<path d="M541.223 320H199.985C199.779 320 199.581 319.918 199.435 319.771C199.29 319.625 199.208 319.427 199.208 319.22C199.208 319.013 199.29 318.814 199.435 318.668C199.581 318.521 199.779 318.439 199.985 318.439H541.223C541.429 318.439 541.627 318.521 541.772 318.668C541.918 318.814 542 319.013 542 319.22C542 319.427 541.918 319.625 541.772 319.771C541.627 319.918 541.429 320 541.223 320Z" fill="#3F3D56"/>
<path d="M252.625 250.578C252.11 250.551 251.591 250.537 251.07 250.537C243.236 250.537 235.723 253.661 230.184 259.223C224.644 264.785 221.532 272.329 221.532 280.195H252.625V250.578Z" fill="#0A4DB1"/>
<path d="M258.843 320C250.806 319.991 243.1 316.781 237.417 311.075C231.734 305.368 228.537 297.631 228.528 289.561C228.528 289.354 228.61 289.155 228.756 289.009C228.902 288.863 229.099 288.78 229.305 288.78H259.62V259.944C259.62 259.838 259.642 259.733 259.683 259.636C259.725 259.538 259.786 259.451 259.862 259.378C259.938 259.304 260.029 259.247 260.128 259.21C260.227 259.173 260.332 259.158 260.438 259.164C268.329 259.582 275.746 263.076 281.108 268.904C286.471 274.731 289.355 282.431 289.148 290.362C288.94 298.293 285.656 305.83 279.995 311.366C274.335 316.902 266.745 320 258.843 320ZM230.093 290.341C230.243 295.918 231.999 301.331 235.148 305.927C238.297 310.523 242.704 314.105 247.837 316.24C252.97 318.375 258.609 318.971 264.072 317.957C269.535 316.943 274.589 314.361 278.622 310.525C282.655 306.688 285.496 301.761 286.8 296.338C288.104 290.916 287.816 285.23 285.971 279.968C284.125 274.706 280.801 270.094 276.401 266.688C272.001 263.282 266.712 261.229 261.175 260.777V289.561C261.175 289.768 261.093 289.966 260.947 290.113C260.802 290.259 260.604 290.341 260.398 290.341H230.093Z" fill="#3F3D56"/>
</g>
<defs>
<clipPath id="clip0_3_96">
<rect width="542" height="320" fill="white"/>
</clipPath>
</defs>
</svg>
