<svg width="85" height="85" viewBox="0 0 85 85" fill="none" xmlns="http://www.w3.org/2000/svg">
<path d="M71.1131 38.7427C72.3602 37.1848 73.0469 35.2272 73.0469 33.231C73.0469 30.2733 71.578 27.5294 69.1183 25.8891L68.1368 25.2344H62.4219V23.9062C62.4219 19.2313 58.9502 15.3624 54.4505 14.7156V13.2812C54.4505 11.2758 52.9563 9.62891 51.0266 9.35398C51.5047 8.55711 51.7969 7.63539 51.7969 6.64062C51.7969 3.71078 49.4142 1.32812 46.4844 1.32812C43.5545 1.32812 41.1719 3.71078 41.1719 6.64062C41.1719 7.63539 41.4641 8.55578 41.9409 9.35266C40.0084 9.62625 38.513 11.2745 38.513 13.2812V14.7156C34.0133 15.3624 30.5416 19.2313 30.5416 23.9062L30.5429 25.2344H24.8333L23.8518 25.8891C21.3908 27.528 19.9219 30.272 19.9219 33.231C19.9219 35.2272 20.6085 37.1848 21.8556 38.7427L22.2062 39.181C22.7269 39.8305 23.1771 40.5277 23.5702 41.2555C12.6305 42.1109 3.98438 51.267 3.98438 62.4219C3.98438 74.1386 13.5177 83.6719 25.2344 83.6719C26.597 83.6719 27.9252 83.5311 29.2161 83.2841V83.6719H65.0755V79.6875C65.0755 77.9583 63.9612 76.4973 62.4192 75.9475V71.7188C62.4192 69.522 60.6316 67.7344 58.4348 67.7344H57.108L57.1054 62.9305L55.8131 62.2824C53.5009 61.127 52.0227 58.8745 51.8341 56.3284C58.5663 50.1872 62.4219 41.4986 62.4219 32.3664V27.8906H67.332L67.6441 28.0991C69.364 29.2453 70.3906 31.1631 70.3906 33.231C70.3906 34.6269 69.9112 35.9948 69.0386 37.0826L68.6866 37.5222C66.3598 40.4321 65.0781 44.0858 65.0781 47.8125C65.0781 50.0092 66.8658 51.7969 69.0625 51.7969C71.2592 51.7969 73.0469 50.0092 73.0469 47.8125V46.4844H70.3906V47.8125C70.3906 48.5456 69.7943 49.1406 69.0625 49.1406C68.3307 49.1406 67.7344 48.5456 67.7344 47.8125C67.7344 44.6861 68.8102 41.6221 70.7612 39.181L71.1131 38.7427ZM46.4844 3.98438C47.9493 3.98438 49.1406 5.1757 49.1406 6.64062C49.1406 8.10555 47.9493 9.29688 46.4844 9.29688C45.0195 9.29688 43.8281 8.10555 43.8281 6.64062C43.8281 5.1757 45.0195 3.98438 46.4844 3.98438ZM42.4973 11.9531H50.4661C51.1979 11.9531 51.7942 12.5495 51.7942 13.2812V14.6094H41.1692V13.2812C41.1692 12.5495 41.7655 11.9531 42.4973 11.9531ZM39.8384 17.2656H53.125C56.3311 17.2656 59.0139 19.5513 59.6315 22.5781H33.3492C33.9681 19.554 36.6337 17.2656 39.8384 17.2656ZM25.3247 28.0991L25.6368 27.8906H30.5442L30.5469 32.3664C30.5469 35.785 31.0768 39.1252 32.1194 42.338C30.3423 41.727 28.4617 41.3525 26.5094 41.2356C25.9303 39.9062 25.1905 38.6564 24.2821 37.5209L23.9302 37.0812C23.0589 35.9922 22.5781 34.6242 22.5781 33.2297C22.5781 31.1631 23.6048 29.2453 25.3247 28.0991ZM6.64062 62.4219C6.64062 52.1688 14.9812 43.8281 25.2344 43.8281C35.4875 43.8281 43.8281 52.1688 43.8281 62.4219C43.8281 72.675 35.4875 81.0156 25.2344 81.0156C14.9812 81.0156 6.64062 72.675 6.64062 62.4219ZM62.4192 81.0156H35.4995C36.8475 80.2692 38.0946 79.3701 39.2434 78.3594H61.0924C61.8242 78.3594 62.4205 78.9544 62.4205 79.6875V81.0156H62.4192ZM59.763 71.7188V75.7031H41.7961C43.0804 74.1041 44.1362 72.3177 44.9198 70.3906H58.4348C59.1666 70.3906 59.763 70.9856 59.763 71.7188ZM54.4518 64.5681L54.4531 67.7344H45.7858C46.2254 66.0331 46.4844 64.2587 46.4844 62.4219C46.4844 60.5851 46.2254 58.8107 45.7845 57.1094H49.2309C49.652 60.2836 51.5671 63.0567 54.4518 64.5681ZM49.9641 54.4531H44.9198C43.083 49.9322 39.7415 46.1842 35.5101 43.8348C33.9854 40.1864 33.2031 36.3348 33.2031 32.3664V25.2344H59.7656V32.3664C59.7656 40.7907 56.1983 48.8126 49.9641 54.4531Z" fill="#203847"/>
<path d="M37.1875 64.5283L35.0824 62.4219C33.3705 60.71 30.3809 60.71 28.6689 62.4219L27.8229 63.2692C27.5108 63.5787 27.0991 63.75 26.6608 63.75H26.4642C26.0259 63.75 25.6142 63.5787 25.3048 63.2706L24.387 62.3528C24.0762 62.0421 23.9062 61.6303 23.9062 61.1921C23.9062 60.6914 24.1307 60.2239 24.5212 59.9117L25.2822 59.3021C26.0963 58.6527 26.5625 57.6845 26.5625 56.6419C26.5625 55.7441 26.1986 54.8675 25.5651 54.234L23.1293 51.7969C21.4173 50.085 18.4264 50.085 16.7158 51.7969L14.9122 53.6005C13.8603 54.6524 13.2812 56.0509 13.2812 57.5676C13.2812 58.326 13.4327 59.0644 13.7315 59.7603C16.2111 65.5483 20.7466 70.1436 26.5014 72.7029L29.1842 73.8942C29.9014 74.213 30.6624 74.375 31.4473 74.375C32.9362 74.375 34.3347 73.7946 35.3839 72.7428L37.1875 70.9405C38.0441 70.0825 38.5156 68.9443 38.5156 67.7344C38.5156 66.5245 38.0441 65.3849 37.1875 64.5283ZM35.3095 69.0625L33.5059 70.8661C32.6666 71.7042 31.3491 71.9499 30.264 71.4664L27.5812 70.2751C22.44 67.9894 18.3892 63.8842 16.1739 58.7138C16.0172 58.3499 15.9375 57.9647 15.9375 57.5371C15.9375 56.7601 16.2403 56.0283 16.7902 55.4771L18.5938 53.6749C18.9484 53.3189 19.4198 53.125 19.9219 53.125C20.4239 53.125 20.8954 53.3189 21.25 53.6749L23.6871 56.112C23.8266 56.2514 23.9062 56.4453 23.9062 56.6419C23.9062 56.8717 23.804 57.0842 23.6247 57.2263L22.8623 57.8359C21.8384 58.6567 21.25 59.8799 21.25 61.1921C21.25 62.3396 21.6976 63.4193 22.5077 64.2295L23.4255 65.1472C24.2383 65.96 25.3167 66.4063 26.4642 66.4063H26.6608C27.8083 66.4063 28.8867 65.96 29.6995 65.1485L30.5469 64.2999C31.2548 63.5893 32.4926 63.5893 33.2031 64.2999L35.3082 66.4063C35.6641 66.7622 35.8594 67.2324 35.8594 67.7344C35.8594 68.2364 35.6641 68.7066 35.3095 69.0625Z" fill="#EFB829"/>
<path d="M47.4194 49.5364L49.312 51.4011C54.1105 46.5282 56.8744 40.0815 57.0962 33.2456L54.4412 33.1606C54.2407 39.3258 51.7465 45.1417 47.4194 49.5364Z" fill="#EFB829"/>
<path d="M57.1094 27.8906H54.4531V30.5469H57.1094V27.8906Z" fill="#EFB829"/>
<path d="M78.3594 13.2812H75.7031V15.9375H78.3594V13.2812Z" fill="#203847"/>
<path d="M78.3594 18.5938H75.7031V21.25H78.3594V18.5938Z" fill="#203847"/>
<path d="M81.0156 15.9375H78.3594V18.5938H81.0156V15.9375Z" fill="#203847"/>
<path d="M75.7031 15.9375H73.0469V18.5938H75.7031V15.9375Z" fill="#203847"/>
<path d="M63.75 1.32812H61.0938V3.98438H63.75V1.32812Z" fill="#203847"/>
<path d="M63.75 6.64062H61.0938V9.29688H63.75V6.64062Z" fill="#203847"/>
<path d="M66.4062 3.98438H63.75V6.64062H66.4062V3.98438Z" fill="#203847"/>
<path d="M61.0938 3.98438H58.4375V6.64062H61.0938V3.98438Z" fill="#203847"/>
<path d="M30.5469 1.32812H27.8906V3.98438H30.5469V1.32812Z" fill="#203847"/>
<path d="M30.5469 6.64062H27.8906V9.29688H30.5469V6.64062Z" fill="#203847"/>
<path d="M33.2031 3.98438H30.5469V6.64062H33.2031V3.98438Z" fill="#203847"/>
<path d="M27.8906 3.98438H25.2344V6.64062H27.8906V3.98438Z" fill="#203847"/>
<path d="M17.2656 9.29688H14.6094V11.9531H17.2656V9.29688Z" fill="#203847"/>
<path d="M17.2656 14.6094H14.6094V17.2656H17.2656V14.6094Z" fill="#203847"/>
<path d="M19.9219 11.9531H17.2656V14.6094H19.9219V11.9531Z" fill="#203847"/>
<path d="M14.6094 11.9531H11.9531V14.6094H14.6094V11.9531Z" fill="#203847"/>
<path d="M14.6094 23.9062H11.9531V26.5625H14.6094V23.9062Z" fill="#203847"/>
<path d="M14.6094 29.2188H11.9531V31.875H14.6094V29.2188Z" fill="#203847"/>
<path d="M17.2656 26.5625H14.6094V29.2188H17.2656V26.5625Z" fill="#203847"/>
<path d="M11.9531 26.5625H9.29688V29.2188H11.9531V26.5625Z" fill="#203847"/>
</svg>
