<svg width="918" height="264" viewBox="0 0 918 264" fill="none" xmlns="http://www.w3.org/2000/svg">
<path d="M351.354 162.508L354.028 233.719H347.519V241.78H365.713V233.719H360.406L360.785 162.508H351.354Z" fill="#3F3D56"/>
<path d="M344.333 222.298H344.333C347.103 222.298 349.348 224.554 349.348 227.337V248.163C349.348 250.945 347.103 253.201 344.333 253.201H344.333C341.564 253.201 339.319 250.945 339.319 248.163V227.337C339.319 224.554 341.564 222.298 344.333 222.298Z" fill="#3F3D56"/>
<path d="M369.741 222.298H369.741C372.51 222.298 374.755 224.554 374.755 227.337V248.163C374.755 250.945 372.51 253.201 369.741 253.201H369.741C366.971 253.201 364.726 250.945 364.726 248.163V227.337C364.726 224.554 366.971 222.298 369.741 222.298Z" fill="#3F3D56"/>
<path d="M410.526 118.14L307.56 113.437L323.607 106.047L413.869 107.391L410.526 118.14Z" fill="#3274D7"/>
<path d="M0 128.582L12.4351 123.88L398.491 133.957L414.538 126.567L407.851 172.249L101.19 139.416L0 128.582Z" fill="#3274D7"/>
<path d="M99.2883 155.118L101.19 139.416L407.851 172.249L406.18 195.426L99.2883 155.118Z" fill="#3F3D56"/>
<path d="M305.554 201.472C323.094 201.472 337.313 186.283 337.313 167.547C337.313 148.81 323.094 133.621 305.554 133.621C288.014 133.621 273.795 148.81 273.795 167.547C273.795 186.283 288.014 201.472 305.554 201.472Z" fill="#3F3D56"/>
<path d="M305.554 185.013C318.479 185.013 328.956 174.486 328.956 161.5C328.956 148.514 318.479 137.987 305.554 137.987C292.63 137.987 282.153 148.514 282.153 161.5C282.153 174.486 292.63 185.013 305.554 185.013Z" fill="#3274D7"/>
<path d="M566.646 162.508L563.971 233.719H570.481V241.78H552.287V233.719H557.593L557.214 162.508H566.646Z" fill="#3F3D56"/>
<path d="M573.666 222.298H573.666C570.897 222.298 568.652 224.554 568.652 227.337V248.163C568.652 250.945 570.897 253.201 573.666 253.201H573.666C576.436 253.201 578.681 250.945 578.681 248.163V227.337C578.681 224.554 576.436 222.298 573.666 222.298Z" fill="#3F3D56"/>
<path d="M548.259 222.298H548.259C545.49 222.298 543.245 224.554 543.245 227.337V248.163C543.245 250.945 545.49 253.201 548.259 253.201H548.259C551.029 253.201 553.274 250.945 553.274 248.163V227.337C553.274 224.554 551.029 222.298 548.259 222.298Z" fill="#3F3D56"/>
<path d="M507.474 118.14L610.44 113.437L594.393 106.047L504.131 107.391L507.474 118.14Z" fill="#3274D7"/>
<path d="M470.62 103.666L465.94 0.20874L458.585 16.3319L459.923 107.025L470.62 103.666Z" fill="#3274D7"/>
<path d="M918 128.582L905.565 123.88L519.509 133.957L503.462 126.567L510.148 172.249L816.81 139.416L918 128.582Z" fill="#3274D7"/>
<path d="M818.711 155.118L816.81 139.416L510.148 172.249L511.82 195.426L818.711 155.118Z" fill="#3F3D56"/>
<path d="M612.446 201.472C629.986 201.472 644.205 186.283 644.205 167.547C644.205 148.81 629.986 133.621 612.446 133.621C594.906 133.621 580.687 148.81 580.687 167.547C580.687 186.283 594.906 201.472 612.446 201.472Z" fill="#3F3D56"/>
<path d="M612.446 185.013C625.37 185.013 635.847 174.486 635.847 161.5C635.847 148.514 625.37 137.987 612.446 137.987C599.522 137.987 589.044 148.514 589.044 161.5C589.044 174.486 599.522 185.013 612.446 185.013Z" fill="#3274D7"/>
<path d="M517.336 105.253L515.818 116.49L515.029 176.979C514.969 181.48 514.428 185.927 513.411 190.24C510.483 202.803 503.643 214.23 493.54 222.513C484.374 230.038 471.871 235.734 455.323 234.727C411.194 232.04 407.296 194.305 407.296 194.305L408.961 125.875L409.189 116.49L411.194 99.5559C411.194 99.5559 416.543 51.8581 466.02 53.2017C515.497 54.5453 517.336 105.253 517.336 105.253Z" fill="#3274D7"/>
<path d="M421.892 89.4787L431.921 73.3555L444.625 69.3247H488.084L498.782 73.3555L508.49 89.4787L490.759 81.4171H441.019L421.892 89.4787Z" fill="#E6E6E6"/>
<path d="M458.671 205.394L460.387 251.077H456.211V256.248H467.883V251.077H464.478L464.722 205.394H458.671Z" fill="#3F3D56"/>
<path d="M454.167 243.75C455.944 243.75 457.384 245.197 457.384 246.982V260.342C457.384 262.128 455.944 263.575 454.167 263.575C452.391 263.575 450.95 262.128 450.95 260.342V246.982C450.95 245.197 452.391 243.75 454.167 243.75Z" fill="#3F3D56"/>
<path d="M470.466 243.75C472.243 243.75 473.683 245.197 473.683 246.982V260.342C473.683 262.128 472.243 263.575 470.466 263.575C468.69 263.575 467.249 262.128 467.249 260.342V246.982C467.249 245.197 468.69 243.75 470.466 243.75Z" fill="#3F3D56"/>
<path d="M446.225 59.4227L436.988 92.8381L438.768 93.3349L448.005 59.9194L446.225 59.4227Z" fill="#3274D7"/>
<path d="M488.113 64.754L486.299 65.1121L492.954 99.1419L494.768 98.7838L488.113 64.754Z" fill="#3274D7"/>
</svg>
