<svg width="452" height="354" viewBox="0 0 452 354" fill="none" xmlns="http://www.w3.org/2000/svg">
<g clip-path="url(#clip0_1_2319)">
<path d="M397.386 340.83C402.328 349.674 413.129 353.625 413.129 353.625C413.129 353.625 415.917 343.238 410.975 334.394C406.032 325.55 395.231 321.599 395.231 321.599C395.231 321.599 392.444 331.987 397.386 340.83Z" fill="#F1F1F1"/>
<path d="M400.97 338.014C410.117 343.305 413.467 353.55 413.467 353.55C413.467 353.55 401.987 355.217 392.84 349.926C383.692 344.635 380.342 334.389 380.342 334.389C380.342 334.389 391.822 332.723 400.97 338.014Z" fill="#F1F1F1"/>
<path d="M272.432 347.503H266.017L262.966 324.724L272.433 324.725L272.432 347.503Z" fill="#FFB7B7"/>
<path d="M274.068 353.227L253.384 353.226V352.986C253.384 351.02 254.232 349.135 255.742 347.745C257.252 346.355 259.3 345.574 261.435 345.574H261.435L274.068 345.575L274.068 353.227Z" fill="#2F2E41"/>
<path d="M312.197 347.503H305.782L302.731 324.724L312.198 324.725L312.197 347.503Z" fill="#FFB7B7"/>
<path d="M313.833 353.227L293.149 353.226V352.986C293.15 351.02 293.998 349.135 295.508 347.745C297.017 346.355 299.065 345.574 301.2 345.574H301.201L313.833 345.575L313.833 353.227Z" fill="#2F2E41"/>
<path d="M293.571 219.2L280.95 195.818L284.2 176.423L269.026 172.57L267.457 198.581L287.134 223.2C286.993 224.122 287.145 225.062 287.572 225.906C287.999 226.75 288.683 227.462 289.541 227.956C290.398 228.449 291.393 228.703 292.404 228.687C293.416 228.671 294.4 228.385 295.239 227.863C296.077 227.342 296.733 226.609 297.128 225.751C297.523 224.894 297.639 223.95 297.462 223.033C297.286 222.116 296.824 221.266 296.133 220.585C295.443 219.905 294.552 219.424 293.571 219.2V219.2Z" fill="#FFB7B7"/>
<path d="M320.873 219.2L333.494 195.818L330.244 176.423L345.418 172.57L346.987 198.581L327.31 223.2C327.451 224.122 327.299 225.062 326.872 225.906C326.445 226.75 325.761 227.462 324.903 227.956C324.046 228.449 323.051 228.703 322.04 228.687C321.028 228.671 320.044 228.385 319.205 227.863C318.367 227.342 317.711 226.609 317.316 225.751C316.921 224.894 316.805 223.95 316.982 223.033C317.158 222.116 317.62 221.266 318.311 220.585C319.001 219.905 319.892 219.424 320.873 219.2V219.2Z" fill="#FFB7B7"/>
<path d="M312.449 139.288C320.073 139.288 326.254 133.598 326.254 126.58C326.254 119.561 320.073 113.871 312.449 113.871C304.825 113.871 298.645 119.561 298.645 126.58C298.645 133.598 304.825 139.288 312.449 139.288Z" fill="#FFB9B9"/>
<path d="M298.749 126.512C298.749 126.512 297.252 124.443 297.828 122.216C298.172 120.951 298.308 119.646 298.231 118.344C298.875 116.415 299.684 114.535 300.65 112.723C301.86 110.708 301.284 109.859 305.086 109.223C308.888 108.586 307.333 104.026 317.356 108.958C317.694 109.392 318.165 109.725 318.708 109.914C319.251 110.103 319.843 110.139 320.409 110.018C322.483 109.647 323.232 112.299 323.232 112.299C323.232 112.299 324.614 111.556 325.133 112.617C325.651 113.678 329.348 111.98 329.348 119.14C329.348 126.299 325.141 132.694 325.141 132.694C325.141 132.694 322.187 141.275 315.332 140.056C308.477 138.836 307.484 139.574 302.774 131.385C301.811 133.945 300.331 124.227 298.749 126.512Z" fill="#2F2E41"/>
<path d="M282.107 208.697L280.506 214.474C280.506 214.474 272.968 217.828 269.951 247.944L265.887 293.101L259.685 340.425L272.578 341.346L281.518 311.364L300.832 248.322L304.495 296.014L300.42 339.236L314.024 339.717L323.442 291.548C323.442 291.548 337.87 220.993 328.563 218.939L327.628 211.587L282.107 208.697Z" fill="#2F2E41"/>
<path d="M279.122 154.392L301.33 143.125L320.178 144.052L342.69 156.319L333.307 210.265C333.307 210.265 338.686 215.801 322.43 214.176C306.175 212.55 279.903 211.232 279.903 211.232C279.903 211.232 277.79 207.372 282.303 206.83C286.816 206.288 283.042 206.415 283.042 206.415C283.042 206.415 280.315 198.353 283.042 196.781L284.362 180.224L279.122 154.392Z" fill="#3F3D56"/>
<path d="M285.247 155.229L279.123 154.392L266.148 175.701L287.228 184.257L285.247 155.229Z" fill="#3F3D56"/>
<path d="M335.477 159.083L342.69 156.319L349.865 186.298L330.395 189.693L335.477 159.083Z" fill="#3F3D56"/>
<path d="M168.924 354H451.422C451.576 354 451.723 353.944 451.831 353.844C451.939 353.744 452 353.609 452 353.468C452 353.327 451.939 353.192 451.831 353.092C451.723 352.992 451.576 352.936 451.422 352.936H168.924C168.771 352.936 168.624 352.992 168.516 353.092C168.408 353.192 168.347 353.327 168.347 353.468C168.347 353.609 168.408 353.744 168.516 353.844C168.624 353.944 168.771 354 168.924 354Z" fill="#CBCBCB"/>
<path d="M138.649 211.465H65.2808V245.503H138.649V211.465Z" fill="white"/>
<path d="M129.981 220.179H73.9492V221.927H129.981V220.179Z" fill="#0A4DB1"/>
<path d="M129.981 227.61H73.9492V229.359H129.981V227.61Z" fill="#0A4DB1"/>
<path d="M129.981 235.042H73.9492V236.79H129.981V235.042Z" fill="#0A4DB1"/>
<path d="M139.227 246.035H64.7031V210.933H139.227V246.035ZM65.8585 244.972H138.072V211.997H65.8585V244.972Z" fill="#3F3D56"/>
<path d="M85.9265 169.188C70.3937 169.2 55.1656 165.22 41.9564 157.697L41.6208 157.505L41.8283 157.196L85.7063 91.8206H169.57V92.1841C169.57 134.644 132.048 169.188 85.9265 169.188Z" fill="#0A4DB1"/>
<path d="M32.121 141.43L31.8514 141.276C17.0471 132.849 6.37464 119.46 2.08313 103.931C-2.20837 88.4013 0.216308 71.9447 8.84616 58.029L9.00354 57.7761L67.5832 88.5929L32.121 141.43Z" fill="#F1F1F1"/>
<path d="M169.57 81.5062H85.4348L103.572 5.8606L103.957 5.93853C122.56 9.7238 139.203 19.2405 151.133 32.9151C163.064 46.5897 169.568 63.6032 169.57 81.1426V81.5062Z" fill="#0A4DB1"/>
<path d="M72.0339 69.5923L15.0273 39.603L15.1806 39.3567C22.0917 28.2423 32.6774 19.4499 45.3953 14.2608C58.1132 9.0716 72.2987 7.75675 85.885 10.5078L86.186 10.5687L72.0339 69.5923Z" fill="#F1F1F1"/>
<path d="M285.389 0.531982H212.02V34.5701H285.389V0.531982Z" fill="white"/>
<path d="M276.72 9.24512H220.689V10.9937H276.72V9.24512Z" fill="#0A4DB1"/>
<path d="M276.72 16.6766H220.689V18.4252H276.72V16.6766Z" fill="#0A4DB1"/>
<path d="M276.72 24.1083H220.689V25.8569H276.72V24.1083Z" fill="#0A4DB1"/>
<path d="M285.966 35.1018H211.442V0H285.966V35.1018ZM212.598 34.0381H284.811V1.06369H212.598V34.0381Z" fill="#3F3D56"/>
<path d="M102.7 123.372H101.544V210.933H102.7V123.372Z" fill="#3F3D56"/>
<path d="M211.735 17.5904L124.998 53.7078L125.474 54.6769L212.211 18.5596L211.735 17.5904Z" fill="#3F3D56"/>
</g>
<defs>
<clipPath id="clip0_1_2319">
<rect width="452" height="354" fill="white"/>
</clipPath>
</defs>
</svg>
