<svg width="514" height="350" viewBox="0 0 514 350" fill="none" xmlns="http://www.w3.org/2000/svg">
<g clip-path="url(#clip0_3_7)">
<path d="M116.644 9.0953C119.155 9.0953 121.191 7.05925 121.191 4.54765C121.191 2.03605 119.155 0 116.644 0C114.132 0 112.096 2.03605 112.096 4.54765C112.096 7.05925 114.132 9.0953 116.644 9.0953Z" fill="#E6E6E6"/>
<path d="M139.664 9.0953C142.175 9.0953 144.211 7.05925 144.211 4.54765C144.211 2.03605 142.175 0 139.664 0C137.152 0 135.116 2.03605 135.116 4.54765C135.116 7.05925 137.152 9.0953 139.664 9.0953Z" fill="#E6E6E6"/>
<path d="M162.684 9.0953C165.195 9.0953 167.232 7.05925 167.232 4.54765C167.232 2.03605 165.195 0 162.684 0C160.172 0 158.136 2.03605 158.136 4.54765C158.136 7.05925 160.172 9.0953 162.684 9.0953Z" fill="#E6E6E6"/>
<path d="M185.704 9.0953C188.215 9.0953 190.252 7.05925 190.252 4.54765C190.252 2.03605 188.215 0 185.704 0C183.192 0 181.156 2.03605 181.156 4.54765C181.156 7.05925 183.192 9.0953 185.704 9.0953Z" fill="#E6E6E6"/>
<path d="M208.724 9.0953C211.236 9.0953 213.272 7.05925 213.272 4.54765C213.272 2.03605 211.236 0 208.724 0C206.213 0 204.177 2.03605 204.177 4.54765C204.177 7.05925 206.213 9.0953 208.724 9.0953Z" fill="#E6E6E6"/>
<path d="M116.644 32.4044C119.155 32.4044 121.191 30.3683 121.191 27.8567C121.191 25.3451 119.155 23.3091 116.644 23.3091C114.132 23.3091 112.096 25.3451 112.096 27.8567C112.096 30.3683 114.132 32.4044 116.644 32.4044Z" fill="#E6E6E6"/>
<path d="M139.664 32.4044C142.175 32.4044 144.211 30.3683 144.211 27.8567C144.211 25.3451 142.175 23.3091 139.664 23.3091C137.152 23.3091 135.116 25.3451 135.116 27.8567C135.116 30.3683 137.152 32.4044 139.664 32.4044Z" fill="#E6E6E6"/>
<path d="M162.684 32.4044C165.195 32.4044 167.232 30.3683 167.232 27.8567C167.232 25.3451 165.195 23.3091 162.684 23.3091C160.172 23.3091 158.136 25.3451 158.136 27.8567C158.136 30.3683 160.172 32.4044 162.684 32.4044Z" fill="#E6E6E6"/>
<path d="M185.704 32.4044C188.215 32.4044 190.252 30.3683 190.252 27.8567C190.252 25.3451 188.215 23.3091 185.704 23.3091C183.192 23.3091 181.156 25.3451 181.156 27.8567C181.156 30.3683 183.192 32.4044 185.704 32.4044Z" fill="#0A4DB1"/>
<path d="M208.724 32.4044C211.236 32.4044 213.272 30.3683 213.272 27.8567C213.272 25.3451 211.236 23.3091 208.724 23.3091C206.213 23.3091 204.177 25.3451 204.177 27.8567C204.177 30.3683 206.213 32.4044 208.724 32.4044Z" fill="#E6E6E6"/>
<path d="M254.764 32.4044C257.276 32.4044 259.312 30.3683 259.312 27.8567C259.312 25.3451 257.276 23.3091 254.764 23.3091C252.253 23.3091 250.217 25.3451 250.217 27.8567C250.217 30.3683 252.253 32.4044 254.764 32.4044Z" fill="#E6E6E6"/>
<path d="M116.644 55.7134C119.155 55.7134 121.191 53.6774 121.191 51.1658C121.191 48.6542 119.155 46.6181 116.644 46.6181C114.132 46.6181 112.096 48.6542 112.096 51.1658C112.096 53.6774 114.132 55.7134 116.644 55.7134Z" fill="#E6E6E6"/>
<path d="M139.664 55.7134C142.175 55.7134 144.211 53.6774 144.211 51.1658C144.211 48.6542 142.175 46.6181 139.664 46.6181C137.152 46.6181 135.116 48.6542 135.116 51.1658C135.116 53.6774 137.152 55.7134 139.664 55.7134Z" fill="#E6E6E6"/>
<path d="M162.684 55.7134C165.195 55.7134 167.232 53.6774 167.232 51.1658C167.232 48.6542 165.195 46.6181 162.684 46.6181C160.172 46.6181 158.136 48.6542 158.136 51.1658C158.136 53.6774 160.172 55.7134 162.684 55.7134Z" fill="#E6E6E6"/>
<path d="M185.704 55.7134C188.215 55.7134 190.252 53.6774 190.252 51.1658C190.252 48.6542 188.215 46.6181 185.704 46.6181C183.192 46.6181 181.156 48.6542 181.156 51.1658C181.156 53.6774 183.192 55.7134 185.704 55.7134Z" fill="#E6E6E6"/>
<path d="M208.724 55.7134C211.236 55.7134 213.272 53.6774 213.272 51.1658C213.272 48.6542 211.236 46.6181 208.724 46.6181C206.213 46.6181 204.177 48.6542 204.177 51.1658C204.177 53.6774 206.213 55.7134 208.724 55.7134Z" fill="#E6E6E6"/>
<path d="M116.644 79.0225C119.155 79.0225 121.191 76.9864 121.191 74.4748C121.191 71.9632 119.155 69.9272 116.644 69.9272C114.132 69.9272 112.096 71.9632 112.096 74.4748C112.096 76.9864 114.132 79.0225 116.644 79.0225Z" fill="#E6E6E6"/>
<path d="M139.664 79.0225C142.175 79.0225 144.211 76.9864 144.211 74.4748C144.211 71.9632 142.175 69.9272 139.664 69.9272C137.152 69.9272 135.116 71.9632 135.116 74.4748C135.116 76.9864 137.152 79.0225 139.664 79.0225Z" fill="#E6E6E6"/>
<path d="M162.684 79.0225C165.195 79.0225 167.232 76.9864 167.232 74.4748C167.232 71.9632 165.195 69.9272 162.684 69.9272C160.172 69.9272 158.136 71.9632 158.136 74.4748C158.136 76.9864 160.172 79.0225 162.684 79.0225Z" fill="#E6E6E6"/>
<path d="M185.704 79.0225C188.215 79.0225 190.252 76.9864 190.252 74.4748C190.252 71.9632 188.215 69.9272 185.704 69.9272C183.192 69.9272 181.156 71.9632 181.156 74.4748C181.156 76.9864 183.192 79.0225 185.704 79.0225Z" fill="#E6E6E6"/>
<path d="M208.724 79.0225C211.236 79.0225 213.272 76.9864 213.272 74.4748C213.272 71.9632 211.236 69.9272 208.724 69.9272C206.213 69.9272 204.177 71.9632 204.177 74.4748C204.177 76.9864 206.213 79.0225 208.724 79.0225Z" fill="#E6E6E6"/>
<path d="M231.744 79.0225C234.256 79.0225 236.292 76.9864 236.292 74.4748C236.292 71.9632 234.256 69.9272 231.744 69.9272C229.233 69.9272 227.197 71.9632 227.197 74.4748C227.197 76.9864 229.233 79.0225 231.744 79.0225Z" fill="#E6E6E6"/>
<path d="M254.764 79.0225C257.276 79.0225 259.312 76.9864 259.312 74.4748C259.312 71.9632 257.276 69.9272 254.764 69.9272C252.253 69.9272 250.217 71.9632 250.217 74.4748C250.217 76.9864 252.253 79.0225 254.764 79.0225Z" fill="#E6E6E6"/>
<path d="M277.784 79.0225C280.296 79.0225 282.332 76.9864 282.332 74.4748C282.332 71.9632 280.296 69.9272 277.784 69.9272C275.273 69.9272 273.237 71.9632 273.237 74.4748C273.237 76.9864 275.273 79.0225 277.784 79.0225Z" fill="#E6E6E6"/>
<path d="M300.804 79.0225C303.316 79.0225 305.352 76.9864 305.352 74.4748C305.352 71.9632 303.316 69.9272 300.804 69.9272C298.293 69.9272 296.257 71.9632 296.257 74.4748C296.257 76.9864 298.293 79.0225 300.804 79.0225Z" fill="#E6E6E6"/>
<path d="M323.825 79.0225C326.336 79.0225 328.372 76.9864 328.372 74.4748C328.372 71.9632 326.336 69.9272 323.825 69.9272C321.313 69.9272 319.277 71.9632 319.277 74.4748C319.277 76.9864 321.313 79.0225 323.825 79.0225Z" fill="#E6E6E6"/>
<path d="M208.724 102.332C211.236 102.332 213.272 100.295 213.272 97.7839C213.272 95.2723 211.236 93.2362 208.724 93.2362C206.213 93.2362 204.177 95.2723 204.177 97.7839C204.177 100.295 206.213 102.332 208.724 102.332Z" fill="#E6E6E6"/>
<path d="M231.744 102.332C234.256 102.332 236.292 100.295 236.292 97.7839C236.292 95.2723 234.256 93.2362 231.744 93.2362C229.233 93.2362 227.197 95.2723 227.197 97.7839C227.197 100.295 229.233 102.332 231.744 102.332Z" fill="#0A4DB1"/>
<path d="M254.764 102.332C257.276 102.332 259.312 100.295 259.312 97.7839C259.312 95.2723 257.276 93.2362 254.764 93.2362C252.253 93.2362 250.217 95.2723 250.217 97.7839C250.217 100.295 252.253 102.332 254.764 102.332Z" fill="#E6E6E6"/>
<path d="M277.784 102.332C280.296 102.332 282.332 100.295 282.332 97.7839C282.332 95.2723 280.296 93.2362 277.784 93.2362C275.273 93.2362 273.237 95.2723 273.237 97.7839C273.237 100.295 275.273 102.332 277.784 102.332Z" fill="#E6E6E6"/>
<path d="M300.804 102.332C303.316 102.332 305.352 100.295 305.352 97.7839C305.352 95.2723 303.316 93.2362 300.804 93.2362C298.293 93.2362 296.257 95.2723 296.257 97.7839C296.257 100.295 298.293 102.332 300.804 102.332Z" fill="#E6E6E6"/>
<path d="M323.825 102.332C326.336 102.332 328.372 100.295 328.372 97.7839C328.372 95.2723 326.336 93.2362 323.825 93.2362C321.313 93.2362 319.277 95.2723 319.277 97.7839C319.277 100.295 321.313 102.332 323.825 102.332Z" fill="#E6E6E6"/>
<path d="M208.724 125.641C211.236 125.641 213.272 123.605 213.272 121.093C213.272 118.581 211.236 116.545 208.724 116.545C206.213 116.545 204.177 118.581 204.177 121.093C204.177 123.605 206.213 125.641 208.724 125.641Z" fill="#E6E6E6"/>
<path d="M231.744 125.641C234.256 125.641 236.292 123.605 236.292 121.093C236.292 118.581 234.256 116.545 231.744 116.545C229.233 116.545 227.197 118.581 227.197 121.093C227.197 123.605 229.233 125.641 231.744 125.641Z" fill="#E6E6E6"/>
<path d="M254.764 125.641C257.276 125.641 259.312 123.605 259.312 121.093C259.312 118.581 257.276 116.545 254.764 116.545C252.253 116.545 250.217 118.581 250.217 121.093C250.217 123.605 252.253 125.641 254.764 125.641Z" fill="#E6E6E6"/>
<path d="M277.784 125.641C280.296 125.641 282.332 123.605 282.332 121.093C282.332 118.581 280.296 116.545 277.784 116.545C275.273 116.545 273.237 118.581 273.237 121.093C273.237 123.605 275.273 125.641 277.784 125.641Z" fill="#E6E6E6"/>
<path d="M300.804 125.641C303.316 125.641 305.352 123.605 305.352 121.093C305.352 118.581 303.316 116.545 300.804 116.545C298.293 116.545 296.257 118.581 296.257 121.093C296.257 123.605 298.293 125.641 300.804 125.641Z" fill="#0A4DB1"/>
<path d="M323.825 125.641C326.336 125.641 328.372 123.605 328.372 121.093C328.372 118.581 326.336 116.545 323.825 116.545C321.313 116.545 319.277 118.581 319.277 121.093C319.277 123.605 321.313 125.641 323.825 125.641Z" fill="#E6E6E6"/>
<path d="M208.724 148.95C211.236 148.95 213.272 146.914 213.272 144.402C213.272 141.89 211.236 139.854 208.724 139.854C206.213 139.854 204.177 141.89 204.177 144.402C204.177 146.914 206.213 148.95 208.724 148.95Z" fill="#E6E6E6"/>
<path d="M231.744 148.95C234.256 148.95 236.292 146.914 236.292 144.402C236.292 141.89 234.256 139.854 231.744 139.854C229.233 139.854 227.197 141.89 227.197 144.402C227.197 146.914 229.233 148.95 231.744 148.95Z" fill="#E6E6E6"/>
<path d="M254.764 148.95C257.276 148.95 259.312 146.914 259.312 144.402C259.312 141.89 257.276 139.854 254.764 139.854C252.253 139.854 250.217 141.89 250.217 144.402C250.217 146.914 252.253 148.95 254.764 148.95Z" fill="#E6E6E6"/>
<path d="M277.784 148.95C280.296 148.95 282.332 146.914 282.332 144.402C282.332 141.89 280.296 139.854 277.784 139.854C275.273 139.854 273.237 141.89 273.237 144.402C273.237 146.914 275.273 148.95 277.784 148.95Z" fill="#E6E6E6"/>
<path d="M300.804 148.95C303.316 148.95 305.352 146.914 305.352 144.402C305.352 141.89 303.316 139.854 300.804 139.854C298.293 139.854 296.257 141.89 296.257 144.402C296.257 146.914 298.293 148.95 300.804 148.95Z" fill="#E6E6E6"/>
<path d="M323.825 148.95C326.336 148.95 328.372 146.914 328.372 144.402C328.372 141.89 326.336 139.854 323.825 139.854C321.313 139.854 319.277 141.89 319.277 144.402C319.277 146.914 321.313 148.95 323.825 148.95Z" fill="#E6E6E6"/>
<path d="M116.644 172.259C119.155 172.259 121.191 170.223 121.191 167.711C121.191 165.199 119.155 163.163 116.644 163.163C114.132 163.163 112.096 165.199 112.096 167.711C112.096 170.223 114.132 172.259 116.644 172.259Z" fill="#E6E6E6"/>
<path d="M139.664 172.259C142.175 172.259 144.211 170.223 144.211 167.711C144.211 165.199 142.175 163.163 139.664 163.163C137.152 163.163 135.116 165.199 135.116 167.711C135.116 170.223 137.152 172.259 139.664 172.259Z" fill="#E6E6E6"/>
<path d="M162.684 172.259C165.195 172.259 167.232 170.223 167.232 167.711C167.232 165.199 165.195 163.163 162.684 163.163C160.172 163.163 158.136 165.199 158.136 167.711C158.136 170.223 160.172 172.259 162.684 172.259Z" fill="#E6E6E6"/>
<path d="M185.704 172.259C188.215 172.259 190.252 170.223 190.252 167.711C190.252 165.199 188.215 163.163 185.704 163.163C183.192 163.163 181.156 165.199 181.156 167.711C181.156 170.223 183.192 172.259 185.704 172.259Z" fill="#E6E6E6"/>
<path d="M208.724 172.259C211.236 172.259 213.272 170.223 213.272 167.711C213.272 165.199 211.236 163.163 208.724 163.163C206.213 163.163 204.177 165.199 204.177 167.711C204.177 170.223 206.213 172.259 208.724 172.259Z" fill="#E6E6E6"/>
<path d="M231.744 172.259C234.256 172.259 236.292 170.223 236.292 167.711C236.292 165.199 234.256 163.163 231.744 163.163C229.233 163.163 227.197 165.199 227.197 167.711C227.197 170.223 229.233 172.259 231.744 172.259Z" fill="#E6E6E6"/>
<path d="M254.764 172.259C257.276 172.259 259.312 170.223 259.312 167.711C259.312 165.199 257.276 163.163 254.764 163.163C252.253 163.163 250.217 165.199 250.217 167.711C250.217 170.223 252.253 172.259 254.764 172.259Z" fill="#E6E6E6"/>
<path d="M277.784 172.259C280.296 172.259 282.332 170.223 282.332 167.711C282.332 165.199 280.296 163.163 277.784 163.163C275.273 163.163 273.237 165.199 273.237 167.711C273.237 170.223 275.273 172.259 277.784 172.259Z" fill="#E6E6E6"/>
<path d="M300.804 172.259C303.316 172.259 305.352 170.223 305.352 167.711C305.352 165.199 303.316 163.163 300.804 163.163C298.293 163.163 296.257 165.199 296.257 167.711C296.257 170.223 298.293 172.259 300.804 172.259Z" fill="#E6E6E6"/>
<path d="M323.825 172.259C326.336 172.259 328.372 170.223 328.372 167.711C328.372 165.199 326.336 163.163 323.825 163.163C321.313 163.163 319.277 165.199 319.277 167.711C319.277 170.223 321.313 172.259 323.825 172.259Z" fill="#E6E6E6"/>
<path d="M116.641 195.567C119.152 195.567 121.189 193.531 121.189 191.019C121.189 188.508 119.152 186.472 116.641 186.472C114.129 186.472 112.093 188.508 112.093 191.019C112.093 193.531 114.129 195.567 116.641 195.567Z" fill="#E6E6E6"/>
<path d="M139.664 195.568C142.175 195.568 144.211 193.532 144.211 191.02C144.211 188.509 142.175 186.472 139.664 186.472C137.152 186.472 135.116 188.509 135.116 191.02C135.116 193.532 137.152 195.568 139.664 195.568Z" fill="#E6E6E6"/>
<path d="M116.641 218.876C119.152 218.876 121.189 216.84 121.189 214.328C121.189 211.817 119.152 209.781 116.641 209.781C114.129 209.781 112.093 211.817 112.093 214.328C112.093 216.84 114.129 218.876 116.641 218.876Z" fill="#E6E6E6"/>
<path d="M139.664 218.877C142.175 218.877 144.211 216.841 144.211 214.329C144.211 211.818 142.175 209.781 139.664 209.781C137.152 209.781 135.116 211.818 135.116 214.329C135.116 216.841 137.152 218.877 139.664 218.877Z" fill="#E6E6E6"/>
<path d="M185.704 218.877C188.215 218.877 190.252 216.841 190.252 214.329C190.252 211.818 188.215 209.781 185.704 209.781C183.192 209.781 181.156 211.818 181.156 214.329C181.156 216.841 183.192 218.877 185.704 218.877Z" fill="#E6E6E6"/>
<path d="M415.161 53.6532H234.946C234.062 53.6521 233.213 53.3002 232.588 52.6746C231.962 52.0489 231.61 51.2007 231.609 50.3159V5.61227C231.61 4.72748 231.962 3.87923 232.588 3.25359C233.213 2.62794 234.062 2.276 234.946 2.27496H415.161C416.046 2.276 416.894 2.62794 417.52 3.25359C418.146 3.87923 418.498 4.72748 418.499 5.61227V50.3159C418.498 51.2007 418.146 52.0489 417.52 52.6746C416.894 53.3002 416.046 53.6521 415.161 53.6532ZM234.946 3.60989C234.416 3.61047 233.907 3.82162 233.531 4.19701C233.156 4.57241 232.945 5.08138 232.944 5.61227V50.3159C232.945 50.8468 233.156 51.3558 233.531 51.7312C233.907 52.1065 234.416 52.3177 234.946 52.3183H415.161C415.692 52.3177 416.201 52.1065 416.577 51.7312C416.952 51.3558 417.163 50.8468 417.164 50.3159V5.61227C417.163 5.08138 416.952 4.57241 416.577 4.19701C416.201 3.82162 415.692 3.61047 415.161 3.60989H234.946Z" fill="#E6E6E6"/>
<path d="M258.308 41.9806C266.049 41.9806 272.324 35.7051 272.324 27.9639C272.324 20.2227 266.049 13.9472 258.308 13.9472C250.567 13.9472 244.291 20.2227 244.291 27.9639C244.291 35.7051 250.567 41.9806 258.308 41.9806Z" fill="#0A4DB1"/>
<path d="M290.679 18.6194C290.06 18.6194 289.466 18.8656 289.028 19.3037C288.589 19.7418 288.343 20.336 288.343 20.9556C288.343 21.5751 288.589 22.1693 289.028 22.6074C289.466 23.0455 290.06 23.2917 290.679 23.2917H352.753C353.373 23.2917 353.967 23.0455 354.405 22.6074C354.843 22.1693 355.089 21.5751 355.089 20.9556C355.089 20.336 354.843 19.7418 354.405 19.3037C353.967 18.8656 353.373 18.6194 352.753 18.6194H290.679Z" fill="#E6E6E6"/>
<path d="M290.679 32.6361C290.06 32.6361 289.466 32.8822 289.028 33.3203C288.589 33.7584 288.343 34.3526 288.343 34.9722C288.343 35.5918 288.589 36.186 289.028 36.6241C289.466 37.0622 290.06 37.3083 290.679 37.3083H400.811C401.43 37.3083 402.024 37.0622 402.462 36.6241C402.901 36.186 403.147 35.5918 403.147 34.9722C403.147 34.3526 402.901 33.7584 402.462 33.3203C402.024 32.8822 401.43 32.6361 400.811 32.6361H290.679Z" fill="#E6E6E6"/>
<path d="M183.552 144.428H3.33731C2.45252 144.427 1.60426 144.075 0.978623 143.449C0.352981 142.824 0.00103692 141.975 0 141.091V96.3871C0.00103692 95.5023 0.352981 94.654 0.978623 94.0284C1.60426 93.4027 2.45252 93.0508 3.33731 93.0497H183.552C184.437 93.0508 185.285 93.4027 185.911 94.0284C186.537 94.654 186.889 95.5023 186.89 96.3871V141.091C186.889 141.975 186.537 142.824 185.911 143.449C185.285 144.075 184.437 144.427 183.552 144.428ZM3.33731 94.3847C2.80642 94.3852 2.29744 94.5964 1.92205 94.9718C1.54665 95.3472 1.3355 95.8562 1.33492 96.3871V141.091C1.3355 141.622 1.54665 142.131 1.92205 142.506C2.29744 142.881 2.80642 143.092 3.33731 143.093H183.552C184.083 143.092 184.592 142.881 184.967 142.506C185.343 142.131 185.554 141.622 185.555 141.091V96.3871C185.554 95.8562 185.343 95.3472 184.967 94.9718C184.592 94.5964 184.083 94.3852 183.552 94.3847H3.33731Z" fill="#E6E6E6"/>
<path d="M26.6986 132.755C34.4398 132.755 40.7153 126.48 40.7153 118.739C40.7153 110.997 34.4398 104.722 26.6986 104.722C18.9574 104.722 12.6819 110.997 12.6819 118.739C12.6819 126.48 18.9574 132.755 26.6986 132.755Z" fill="#0A4DB1"/>
<path d="M59.0702 109.394C58.4507 109.394 57.8565 109.64 57.4184 110.078C56.9802 110.517 56.7341 111.111 56.7341 111.73C56.7341 112.35 56.9802 112.944 57.4184 113.382C57.8565 113.82 58.4507 114.066 59.0702 114.066H123.814C124.434 114.066 125.028 113.82 125.466 113.382C125.904 112.944 126.15 112.35 126.15 111.73C126.15 111.111 125.904 110.517 125.466 110.078C125.028 109.64 124.434 109.394 123.814 109.394H59.0702Z" fill="#E6E6E6"/>
<path d="M59.0702 123.411C58.4507 123.411 57.8565 123.657 57.4184 124.095C56.9802 124.533 56.7341 125.127 56.7341 125.747C56.7341 126.367 56.9802 126.961 57.4184 127.399C57.8565 127.837 58.4507 128.083 59.0702 128.083H169.201C169.821 128.083 170.415 127.837 170.853 127.399C171.291 126.961 171.538 126.367 171.538 125.747C171.538 125.127 171.291 124.533 170.853 124.095C170.415 123.657 169.821 123.411 169.201 123.411H59.0702Z" fill="#E6E6E6"/>
<path d="M346.413 242.545H166.198C165.313 242.544 164.465 242.192 163.839 241.566C163.214 240.941 162.862 240.092 162.861 239.208V194.504C162.862 193.619 163.214 192.771 163.839 192.145C164.465 191.52 165.313 191.168 166.198 191.167H346.413C347.298 191.168 348.146 191.52 348.772 192.145C349.397 192.771 349.749 193.619 349.75 194.504V239.208C349.749 240.092 349.397 240.941 348.772 241.566C348.146 242.192 347.298 242.544 346.413 242.545ZM166.198 192.502C165.667 192.502 165.158 192.713 164.783 193.089C164.407 193.464 164.196 193.973 164.196 194.504V239.208C164.196 239.738 164.407 240.247 164.783 240.623C165.158 240.998 165.667 241.209 166.198 241.21H346.413C346.944 241.209 347.453 240.998 347.828 240.623C348.203 240.247 348.415 239.738 348.415 239.208V194.504C348.415 193.973 348.203 193.464 347.828 193.089C347.453 192.713 346.944 192.502 346.413 192.502H166.198Z" fill="#3F3D56"/>
<path d="M189.559 230.872C197.3 230.872 203.576 224.597 203.576 216.855C203.576 209.114 197.3 202.839 189.559 202.839C181.818 202.839 175.542 209.114 175.542 216.855C175.542 224.597 181.818 230.872 189.559 230.872Z" fill="#0A4DB1"/>
<path d="M221.931 207.511C221.311 207.511 220.717 207.757 220.279 208.195C219.841 208.633 219.595 209.228 219.595 209.847C219.595 210.467 219.841 211.061 220.279 211.499C220.717 211.937 221.311 212.183 221.931 212.183H281.335C281.954 212.183 282.549 211.937 282.987 211.499C283.425 211.061 283.671 210.467 283.671 209.847C283.671 209.228 283.425 208.633 282.987 208.195C282.549 207.757 281.954 207.511 281.335 207.511H221.931Z" fill="#E6E6E6"/>
<path d="M221.931 221.528C221.311 221.528 220.717 221.774 220.279 222.212C219.841 222.65 219.595 223.244 219.595 223.864C219.595 224.483 219.841 225.078 220.279 225.516C220.717 225.954 221.311 226.2 221.931 226.2H332.062C332.682 226.2 333.276 225.954 333.714 225.516C334.152 225.078 334.398 224.483 334.398 223.864C334.398 223.244 334.152 222.65 333.714 222.212C333.276 221.774 332.682 221.528 332.062 221.528H221.931Z" fill="#E6E6E6"/>
<path d="M443.361 231.207C435.534 254.687 403.517 229.784 403.517 229.784L412.055 140.847C424.862 130.886 438.38 139.424 438.38 139.424L443.361 231.207Z" fill="#E6E6E6"/>
<path d="M441.68 310.008L452.59 310.123L449.864 341.57L441.681 341.571L441.68 310.008Z" fill="#FFB8B8"/>
<path d="M439.594 338.899H455.709C458.432 338.902 461.042 339.985 462.967 341.91C464.893 343.835 465.976 346.446 465.979 349.169V349.502H439.594V338.899Z" fill="#2F2E41"/>
<path d="M412.105 310.008L400.028 310.007L403.92 341.57L412.104 341.571L412.105 310.008Z" fill="#FFB8B8"/>
<path d="M387.805 349.502V349.168C387.805 346.444 388.887 343.832 390.813 341.906C392.739 339.98 395.352 338.898 398.075 338.899L414.191 338.899L414.19 349.503L387.805 349.502Z" fill="#2F2E41"/>
<path d="M440.943 336.123L426.651 252.808L413.409 335.049L399.993 335.794L396.415 225.606L396.685 225.545C398.903 225.049 451.107 213.583 459.665 229.986L459.709 230.069L452.566 336.498L440.943 336.123Z" fill="#2F2E41"/>
<path d="M425.796 130.424C434.85 130.424 442.19 123.085 442.19 114.031C442.19 104.977 434.85 97.6373 425.796 97.6373C416.742 97.6373 409.403 104.977 409.403 114.031C409.403 123.085 416.742 130.424 425.796 130.424Z" fill="#FFB8B8"/>
<path d="M439.569 238.233C437.647 237.701 436.262 235.494 435.211 231.288C435.029 230.563 418.009 158.06 432.403 144.924L435.721 135.708L440.261 138.735C441.868 138.75 458.296 139.166 459.7 149.697C461.075 160.005 464.817 229.067 461.056 233.362C460.982 233.457 460.888 233.534 460.781 233.588C460.674 233.642 460.557 233.672 460.437 233.676C456.625 233.676 455.468 229.446 455.196 228.098C454.29 228.474 451.591 229.853 447.154 234.289C444.406 237.037 442.252 238.354 440.472 238.354C440.167 238.355 439.863 238.315 439.569 238.233Z" fill="#2F2E41"/>
<path d="M403.992 234.289C399.555 229.852 396.855 228.473 395.95 228.098C395.679 229.446 394.522 233.676 390.71 233.676C390.59 233.672 390.472 233.642 390.365 233.588C390.258 233.534 390.165 233.457 390.091 233.362C386.33 229.067 390.072 160.005 391.446 149.697C392.85 139.166 409.279 138.75 410.886 138.735L415.426 135.708L418.744 144.924C433.137 158.059 416.117 230.563 415.936 231.288C414.885 235.495 413.5 237.701 411.578 238.233C411.284 238.315 410.98 238.355 410.675 238.354C408.895 238.354 406.74 237.037 403.992 234.289Z" fill="#2F2E41"/>
<path d="M439.331 123.395C442.104 121.4 444.204 118.608 445.352 115.391C446.5 112.173 446.641 108.682 445.756 105.382C444.872 102.083 443.004 99.1304 440.4 96.9183C437.797 94.7063 434.582 93.3392 431.183 92.9989C429.674 92.8478 428.048 92.8703 426.797 92.0133C425.685 91.2518 425.087 89.9313 424.065 89.0527C423.416 88.5507 422.671 88.1881 421.875 87.9875C421.08 87.787 420.251 87.7529 419.442 87.8873C417.827 88.1658 416.261 88.6802 414.795 89.4142C411.16 91.0348 407.296 93.0295 405.642 96.6494C404.209 99.785 404.841 103.652 406.87 106.439C409.002 109.198 412.112 111.034 415.557 111.569C418.983 112.081 422.481 111.766 425.76 110.65C427.923 109.97 430.059 109.042 432.326 108.966C434.095 108.907 435.842 109.375 437.345 110.312C438.847 111.248 440.037 112.611 440.763 114.225C441.489 115.84 441.718 117.634 441.422 119.379C441.125 121.125 440.316 122.742 439.098 124.027" fill="#2F2E41"/>
<path d="M349.978 220.917C350.924 220.895 351.857 220.687 352.723 220.305C353.589 219.922 354.371 219.373 355.025 218.688C355.679 218.003 356.191 217.197 356.533 216.314C356.875 215.431 357.04 214.489 357.018 213.543L366.578 197.413L359.192 190.641L349.121 206.534C347.263 206.712 345.546 207.605 344.333 209.023C343.119 210.441 342.503 212.275 342.614 214.138C342.725 216.002 343.554 217.75 344.928 219.014C346.301 220.278 348.111 220.961 349.978 220.917Z" fill="#FFB8B8"/>
<path d="M460.892 238.588C461.685 238.071 462.368 237.403 462.903 236.622C463.438 235.841 463.814 234.962 464.009 234.035C464.204 233.109 464.215 232.153 464.041 231.223C463.867 230.292 463.511 229.405 462.994 228.612L462.628 209.865L452.782 207.997L452.589 226.811C451.104 227.941 450.114 229.604 449.83 231.449C449.545 233.293 449.987 235.177 451.062 236.703C452.138 238.228 453.763 239.277 455.596 239.629C457.43 239.981 459.328 239.608 460.892 238.588Z" fill="#FFB8B8"/>
<path d="M352.886 194.981L352.775 194.804L352.885 194.627C367.224 171.6 397.324 142.836 397.626 142.548L397.722 142.458L401.439 142.419L405.458 152.431C404.207 154.838 370.486 201.897 366.033 205.018C365.679 205.263 365.276 205.432 364.853 205.511C364.429 205.591 363.993 205.581 363.574 205.481C362.832 205.31 362.126 205.01 361.488 204.593C357.379 202.048 353.096 195.314 352.886 194.981Z" fill="#2F2E41"/>
<path d="M450.909 221.257C450.509 221.121 450.142 220.903 449.831 220.618C449.52 220.332 449.272 219.985 449.102 219.599C446.955 214.59 456.156 151.316 456.549 148.625L456.624 148.116L459.734 150.087L459.765 150.221C459.856 150.625 468.917 190.935 466.461 217.719L466.444 217.911L466.269 217.992C465.895 218.165 458.348 221.631 453.318 221.631C452.499 221.652 451.683 221.526 450.909 221.257Z" fill="#2F2E41"/>
<path d="M512.885 350H335.34C335.163 350 334.993 349.93 334.868 349.804C334.743 349.679 334.673 349.51 334.673 349.333C334.673 349.156 334.743 348.986 334.868 348.861C334.993 348.735 335.163 348.665 335.34 348.665H512.885C513.062 348.665 513.232 348.735 513.357 348.861C513.482 348.986 513.553 349.156 513.553 349.333C513.553 349.51 513.482 349.679 513.357 349.804C513.232 349.93 513.062 350 512.885 350Z" fill="#3F3D56"/>
</g>
<defs>
<clipPath id="clip0_3_7">
<rect width="513.553" height="350" fill="white"/>
</clipPath>
</defs>
</svg>
