<svg width="120" height="120" viewBox="0 0 120 120" fill="none" xmlns="http://www.w3.org/2000/svg">
<g clip-path="url(#clip0_1_1685)">
<g opacity="0.9">
<path fill-rule="evenodd" clip-rule="evenodd" d="M0 0H120V120H0V0Z" fill="white"/>
<path fill-rule="evenodd" clip-rule="evenodd" d="M66.2565 26.2006C65.9621 26.4951 64.9311 28.1149 64.9311 30.0293V41.8098C64.9311 42.6938 64.4897 43.8716 64.0471 44.3136C63.7526 44.6081 61.9859 46.228 61.692 46.3755H62.7217C63.1643 46.0811 66.6979 42.9882 66.993 42.5469C67.4344 41.9579 68.6129 40.6325 68.6129 38.5706V27.0846C68.6129 25.4641 69.3487 24.4338 69.7914 23.9918C70.2328 23.5498 71.5582 22.3719 71.8526 22.2244L70.8217 22.0775C70.5266 22.3719 66.6979 25.9061 66.2565 26.2006ZM57.5676 69.2013L61.8389 73.03H64.7836C67.7282 73.03 70.3791 71.7045 72.1471 69.9378C73.9139 68.1697 74.5022 65.8134 74.5022 63.6052V57.4195C74.5022 55.3577 73.3237 54.1798 72.8823 53.8853C72.7354 53.5909 71.41 52.413 71.41 52.413V57.1251C71.41 57.1251 72.8823 58.598 73.0299 58.8925C74.3553 60.2173 74.3553 62.7212 70.3791 66.6974C69.6432 67.2869 67.5813 69.2007 64.7836 69.2007L57.5676 69.2013Z" fill="#D2A73A"/>
<path fill-rule="evenodd" clip-rule="evenodd" d="M69.497 44.0192C69.0544 44.4606 68.613 45.786 68.613 46.8169V49.1732H70.9694C71.8521 49.1732 73.0306 48.2898 73.3245 47.8478V45.639C73.3245 45.639 73.914 46.5224 74.6499 46.9644C74.798 46.67 77.0062 44.0192 78.7743 44.0192C81.8665 44.0192 81.1294 47.7009 79.9527 49.0263C79.5101 49.3208 77.7433 50.9407 77.1538 51.5296C75.8284 52.8544 73.3251 52.2661 73.3251 48.7312C73.3251 48.7312 70.6743 51.2345 70.3804 51.5296C69.9391 51.8241 68.6136 53.2964 68.6136 53.2964V59.3345C68.6136 62.2798 67.5827 63.3113 66.8456 64.1941C66.5511 64.4886 63.1651 67.5814 62.7225 67.8759H61.6928C61.6928 67.8759 63.6065 66.1091 64.0479 65.814C64.4905 65.2257 64.9319 64.3416 64.9319 62.8693V53.1501H49.911C44.6094 53.1501 43.5791 47.4064 43.4316 45.7866V40.0429C43.4316 39.012 42.8426 37.3921 41.9592 36.9507H43.4316C43.5791 36.9507 44.4625 37.3921 44.4625 40.927V45.3452C44.4625 47.112 45.7879 49.1739 47.9967 49.1739H64.9319C64.9319 48.7319 65.3733 46.9651 66.2573 46.081C66.6987 45.4921 70.3804 42.2524 70.8218 41.8104H71.8528C71.7052 41.9579 69.9384 43.5778 69.497 44.0192ZM75.0925 47.554C75.0925 47.554 76.1235 48.8788 76.5648 49.1739C78.4786 50.6462 79.3626 49.0269 78.0372 47.4065C77.5964 46.67 75.6808 46.9644 75.0925 47.554Z" fill="#D2A73A"/>
<path fill-rule="evenodd" clip-rule="evenodd" d="M56.8317 58.4511C56.8317 59.3345 54.1809 61.5433 54.0334 61.6908C53.8858 60.8081 53.2969 59.7771 51.235 57.8622L54.1803 54.9169C56.0953 56.8312 56.8317 57.2732 56.8317 58.4511ZM61.8389 25.4641C62.4272 26.053 63.7526 27.6735 62.8686 28.4094C62.2803 28.9983 61.2487 30.1762 61.2487 30.1762C61.2487 29.7348 60.2178 28.8508 60.2178 28.8508V31.943C60.2178 33.2684 59.7764 33.5635 59.7764 33.5635C59.7764 33.5635 62.1327 35.9198 62.1327 38.8651V41.8098C62.1327 42.3987 61.8383 42.9882 61.5432 43.4303C61.2487 43.5772 59.1875 45.7866 58.7454 46.0811C58.1565 46.67 57.567 46.67 56.978 46.67H49.0262C47.8477 46.67 46.5229 45.7866 46.5229 44.7557V41.8104C46.965 42.2524 47.4063 42.8413 48.2904 42.8413C49.1738 42.8413 49.9102 42.1048 50.2047 41.9579C50.3516 41.6628 56.2422 35.6254 56.2422 35.6254C56.2422 35.6254 53.4444 33.1221 51.677 31.9436C50.7936 31.3547 49.6151 32.0911 49.4682 32.827C49.0268 35.3303 49.4682 38.8651 49.4682 38.8651L47.2594 36.6563C46.376 35.7729 46.376 33.8579 47.5539 32.6801C47.7014 32.5325 49.3207 30.7657 51.3826 30.7657H54.4748C56.6842 30.7657 59.0399 32.8276 59.0399 32.8276C59.0399 32.8276 59.3344 32.5332 59.3344 32.0911V28.1149C57.7139 26.4951 57.42 24.8752 58.3034 23.9918L60.2178 22.0775C60.2178 22.0775 60.2184 23.8442 61.8389 25.4641ZM51.8246 41.5159C51.0881 42.3993 50.9412 42.5469 50.2047 42.9882H59.1875C61.5432 42.9882 61.1018 41.5159 60.6604 40.7794C59.7764 39.1589 56.978 36.2143 56.978 36.2143C56.978 36.2143 51.9715 41.369 51.8246 41.5159Z" fill="#D2A73A"/>
<path fill-rule="evenodd" clip-rule="evenodd" d="M41.6633 49.7628H40.0435C40.0435 49.7628 41.6633 50.6462 41.6633 52.855V60.071C41.6633 64.7837 45.492 69.0544 50.2047 69.0544H54.1809C56.5373 69.0544 57.2731 68.466 58.7461 67.1394C59.1875 66.698 59.9246 65.9622 60.2184 65.6671C60.9549 64.7843 61.8389 64.0472 61.8389 61.6909V59.3351C61.8389 57.2732 60.6604 56.3899 60.0715 55.8009L58.7461 54.4755V59.3351C58.7461 59.3351 59.777 60.3654 60.2184 60.8081C62.2803 62.2804 60.6604 65.0781 58.7461 65.0781H50.0572C46.965 65.2251 42.6936 62.4273 42.6936 57.7146V53.7384C42.6943 49.7628 41.6633 49.7628 41.6633 49.7628Z" fill="#D2A73A"/>
<path fill-rule="evenodd" clip-rule="evenodd" d="M50.9413 58.4511C50.9413 59.3345 48.2905 61.5433 48.2905 61.6908C47.996 60.8081 47.4071 59.7771 45.3452 57.8621L48.2905 54.9169C50.2048 56.8312 50.9413 57.2732 50.9413 58.4511ZM20.8996 90.4071H16.3344C14.8615 90.4071 15.009 89.2299 14.8615 88.1989V81.5719H17.0709C18.2487 81.5719 19.8686 81.4238 21.3409 82.3078C21.3409 82.3078 20.3106 79.51 17.0709 79.51H14.8615V77.4475C14.8615 77.4475 14.8615 75.6807 14.4201 75.0924H17.5123C20.0155 75.0924 22.0774 75.0924 24.2868 76.4178C24.2868 76.4178 23.8448 73.0306 18.6907 73.0306H8.82397C8.82397 73.0306 10.5914 74.5029 10.4438 77.4482L10.5914 89.5244C10.5914 92.469 11.7693 92.6166 11.7693 92.6166H21.4885C23.6973 92.6166 24.5807 90.9967 24.5807 90.1133V88.9348C24.5807 88.9342 23.8442 90.4071 20.8996 90.4071ZM46.965 89.3768V80.9824C46.965 77.7432 44.3142 76.8592 42.2523 76.8592C39.7491 76.8592 38.8651 79.0686 38.5706 79.8039C37.9817 77.7426 35.9198 76.8592 34.2999 76.8592C31.0602 76.8592 30.3237 79.8039 30.3237 79.8039C30.3237 79.8039 30.1768 77.0061 27.6729 77.0061H25.1696C25.1696 77.0061 26.6426 77.5957 26.6426 80.0983V89.3768C26.6426 92.469 27.8204 92.6159 27.8204 92.6159H31.9442C31.7966 92.469 30.3243 91.4374 30.3243 89.3768V81.1293C30.4719 80.6879 31.0608 79.5094 32.8276 79.5094C33.8585 79.5094 34.8895 80.5404 34.8895 81.7188V89.3768C34.8895 92.469 36.068 92.469 36.068 92.469H40.1911C40.1911 92.469 38.7188 91.4381 38.7188 89.3768V81.1293C38.8657 80.6879 39.3077 79.5094 40.9276 79.5094C42.1054 79.5094 43.1364 80.5404 43.1364 81.7188V89.3768C43.1364 92.6159 44.4618 92.469 44.4618 92.469H48.5849C48.5849 92.469 46.965 91.4381 46.965 89.3768ZM54.181 89.3768C54.181 91.4381 55.8009 92.469 55.8009 92.469H51.6771C51.6771 92.469 50.3517 92.6159 50.3517 89.3768V80.0983C50.3517 77.5957 49.0263 77.0061 49.0263 77.0061H51.5296C52.413 77.0061 54.1804 77.0061 54.1804 80.3934V89.3768H54.181ZM66.8449 78.1846C66.8449 78.1846 66.5504 77.0061 64.7836 77.0061C62.1328 77.0061 61.5433 80.0983 61.5433 80.0983C61.3963 77.5957 60.6605 76.8592 58.8931 76.8592H56.3898C56.3898 76.8592 57.8628 77.4475 57.8628 80.0983V89.3768C57.8628 92.469 59.0412 92.469 59.0412 92.469H63.165C63.0168 92.469 61.5439 91.4381 61.5439 89.3768V81.7188C61.6921 80.9817 62.1334 80.5404 62.5748 80.0977C63.9002 79.2149 65.8152 79.5094 66.8449 80.6873V78.1846ZM86.1364 78.626C87.4618 78.626 88.4928 79.3631 88.4928 79.3631V77.0068H85.1055V73.325C85.1055 73.325 84.2227 74.9461 82.3078 76.4185C81.1293 77.4482 78.626 78.6266 78.626 78.6266H81.2781V89.525C81.2781 92.4696 82.6035 92.4696 82.6035 92.4696H86.7266C86.7266 92.4696 85.1055 91.4387 85.1055 89.525V78.6266L86.1364 78.626ZM98.6546 83.3387C96.2983 85.842 94.5315 85.4006 93.0592 87.1674C93.0592 87.1674 93.2061 89.6707 95.1204 90.4065C95.71 90.7022 98.3608 91.7319 99.9807 88.7866V91.2899C99.9807 91.2899 98.9497 92.6153 95.5631 92.6153C91.4387 92.6153 88.6409 89.3762 88.6409 85.1049C88.6409 80.8348 90.9973 76.8586 95.268 76.8586C99.3899 76.8592 101.599 80.2465 98.6546 83.3387ZM96.1508 82.4547C96.7391 81.1293 97.3292 77.8902 94.9723 78.0371C92.3215 78.3316 92.7628 85.5475 92.7628 85.5475C93.6475 84.5172 95.1198 84.3697 96.1508 82.4547ZM52.2667 75.6807C53.2976 75.6807 54.181 74.7967 54.181 73.767C54.181 72.7361 53.2976 71.8521 52.2667 71.8521C51.2357 71.8521 50.3523 72.7361 50.3523 73.767C50.3517 74.7967 51.2351 75.6807 52.2667 75.6807ZM71.1162 90.7022C70.2322 90.7022 69.4963 89.8182 69.4963 88.7873C69.4963 84.9586 72.7354 84.3697 73.6195 83.3387V89.8182C73.1775 90.2596 72.883 90.7022 71.1162 90.7022ZM73.6201 81.8664C72.5891 83.4863 65.2256 83.7801 66.4035 89.6713C66.8449 91.8807 68.3185 92.6159 70.2322 92.6159C72.1471 92.6159 73.1768 91.585 73.6195 90.7022C73.9139 92.469 74.798 92.469 74.798 92.469H78.9211C78.9211 92.469 77.3 91.4381 77.3 89.3768V80.6879C77.3 78.626 74.9449 76.8592 72.5885 76.8592C70.2322 76.8592 68.6123 78.0377 68.6123 78.0377V80.8354C68.6123 80.8354 69.4963 78.626 71.7045 78.626C73.7664 78.626 73.9139 79.657 73.9139 80.2471C73.9146 80.2465 74.0615 80.8354 73.6201 81.8664ZM107.785 88.3459C107.785 89.3768 106.754 90.8491 104.693 90.8491C102.483 90.8491 101.747 88.6397 101.747 88.6397V91.4375C101.747 91.4375 103.219 92.6159 105.576 92.6159C108.373 92.6159 111.32 90.4065 111.172 87.4619C111.172 86.4309 110.877 85.5481 110.288 84.6641C109.257 83.4856 107.49 82.6022 106.165 81.7195C105.428 81.2768 104.987 80.3941 104.987 80.0983C104.987 79.51 105.281 78.4785 107.343 78.4785C109.404 78.4785 110.288 80.6879 110.288 80.6879V78.0371C110.288 78.0371 108.668 76.8586 106.311 76.8586C103.808 76.8586 101.599 78.4785 101.599 80.5404C101.746 82.4541 102.483 83.6326 103.955 84.6635C104.543 85.1049 105.28 85.5475 106.164 85.9889C107.344 86.7266 107.785 87.4619 107.785 88.3459Z" fill="#D2A73A"/>
</g>
</g>
<defs>
<clipPath id="clip0_1_1685">
<rect width="120" height="120" fill="white"/>
</clipPath>
</defs>
</svg>
