<svg width="85" height="85" viewBox="0 0 85 85" fill="none" xmlns="http://www.w3.org/2000/svg">
<path d="M61.0938 45.1562H58.4375C58.4375 46.6212 57.2462 47.8125 55.7812 47.8125C54.3163 47.8125 53.125 46.6212 53.125 45.1562H50.4688C50.4688 48.0861 52.8514 50.4688 55.7812 50.4688C58.7111 50.4688 61.0938 48.0861 61.0938 45.1562Z" fill="#203847"/>
<path d="M77.3155 62.0035L63.75 57.4799V54.728C66.6852 52.8089 68.8819 49.8631 69.8448 46.4047C73.1345 46.0129 75.7031 43.2371 75.7031 39.8438V29.2188C75.7031 18.2338 66.7662 9.29687 55.7812 9.29687C46.5588 9.29687 38.8025 15.6041 36.5434 24.1267C36.307 23.8598 36.0838 23.5809 35.8315 23.3285L28.2957 15.7927L33.7888 8.10422C34.2749 7.42688 34.5312 6.62602 34.5312 5.7893V5.3125C34.5312 3.11578 32.7436 1.32812 30.5469 1.32812C28.7805 1.32812 27.8428 2.40125 27.2212 3.11047C26.6422 3.77055 26.4111 3.98438 25.8945 3.98438C25.3765 3.98438 25.1467 3.77055 24.5663 3.10914C23.9448 2.39992 23.0071 1.32812 21.242 1.32812C19.4783 1.32812 18.5406 2.40125 17.9191 3.11047C17.3427 3.77055 17.1116 3.98438 16.5963 3.98438C16.0809 3.98438 15.8512 3.77055 15.2748 3.11047C14.6545 2.40125 13.7169 1.32812 11.9531 1.32812C9.75641 1.32812 7.96875 3.11578 7.96875 5.3125V5.7893C7.96875 6.62602 8.22508 7.42555 8.71117 8.10422L14.2043 15.7927L6.66852 23.3285C3.22469 26.7723 1.32812 31.3504 1.32812 36.2206C1.32812 46.2745 9.50672 54.4531 19.5606 54.4531H22.9407C29.4937 54.4531 35.5087 50.911 38.7387 45.305C39.6047 45.904 40.6247 46.2745 41.7191 46.4047C42.6806 49.8644 44.8787 52.8089 47.8138 54.728V57.4799L34.2484 62.0022C30.4459 63.2692 27.8906 66.814 27.8906 70.8209V83.6719H83.6719V70.8209C83.6719 66.814 81.1166 63.2692 77.3155 62.0035ZM70.3348 43.601C70.3627 43.2358 70.3906 42.8719 70.3906 42.5V36.1037C71.9326 36.6536 73.0469 38.1145 73.0469 39.8438C73.0469 41.5929 71.906 43.0671 70.3348 43.601ZM55.7812 11.9531C65.3012 11.9531 73.0469 19.6987 73.0469 29.2188V34.5658C72.2712 33.9787 71.3774 33.5391 70.3906 33.3386V30.5469H66.4062C62.6649 30.5469 59.0896 28.7592 56.8438 25.7643L55.7812 24.3498L54.7187 25.7643C52.4729 28.7592 48.8976 30.5469 45.1562 30.5469H41.1719V33.3373C40.1851 33.5391 39.2912 33.9774 38.5156 34.5645V29.2188C38.5156 19.6987 46.2612 11.9531 55.7812 11.9531ZM10.625 5.7893V5.3125C10.625 4.57938 11.22 3.98438 11.9531 3.98438C12.4684 3.98438 12.6982 4.1982 13.2746 4.85828C13.8948 5.5675 14.8325 6.64062 16.5963 6.64062C18.36 6.64062 19.2977 5.5675 19.9192 4.85828C20.497 4.1982 20.7267 3.98438 21.242 3.98438C21.7587 3.98438 21.9884 4.1982 22.5688 4.85828C23.1904 5.5675 24.128 6.64062 25.8945 6.64062C27.6595 6.64062 28.5972 5.56883 29.2188 4.85961C29.7991 4.1982 30.0289 3.98438 30.5469 3.98438C31.28 3.98438 31.875 4.57938 31.875 5.3125V5.7893C31.875 6.0682 31.79 6.33516 31.628 6.56094L25.8798 14.6094H16.6202L10.872 6.56094C10.71 6.33648 10.625 6.0682 10.625 5.7893ZM22.9394 51.7969H19.5593C10.9716 51.7969 3.98438 44.8096 3.98438 36.2206C3.98438 32.0596 5.60469 28.1483 8.54648 25.2065L16.4873 17.2656H26.0127L33.9535 25.2065C34.6999 25.9529 35.3573 26.787 35.9377 27.6688C35.8979 28.1815 35.8594 28.6955 35.8594 29.2188V39.8438C35.8594 41.0948 36.2273 42.253 36.8316 43.253C34.1899 48.462 28.8177 51.7969 22.9394 51.7969ZM38.5156 39.8438C38.5156 38.1145 39.6299 36.6536 41.1719 36.1037V42.5C41.1719 42.8719 41.1998 43.2358 41.2277 43.601C39.6565 43.0671 38.5156 41.5929 38.5156 39.8438ZM43.8281 42.5V33.2031H45.1562C49.1778 33.2031 53.0413 31.5151 55.7812 28.6184C58.5212 31.5151 62.3847 33.2031 66.4062 33.2031H67.7344V42.5C67.7344 49.0915 62.3727 54.4531 55.7812 54.4531C49.1898 54.4531 43.8281 49.0915 43.8281 42.5ZM55.7812 57.1094C57.6566 57.1094 59.4442 56.7415 61.0938 56.0947V57.8877L55.7812 63.2002L50.4688 57.8877V56.0947C52.1183 56.7415 53.9059 57.1094 55.7812 57.1094ZM67.7344 75.7031H65.0781C61.872 75.7031 59.1892 77.9888 58.5716 81.0156H52.9909C52.3733 77.9888 49.6918 75.7031 46.4844 75.7031H43.8281V67.7344H67.7344V75.7031ZM30.5469 70.8209C30.5469 67.9588 32.3717 65.4261 35.0877 64.5216L48.782 59.9569L53.9033 65.0781H41.1719V75.7031H38.5156V70.3906H35.8594V78.3594H46.4844C48.2136 78.3594 49.6745 79.4737 50.2244 81.0156H30.5469V70.8209ZM81.0156 81.0156H61.3381C61.888 79.4737 63.3489 78.3594 65.0781 78.3594H75.7031V70.3906H73.0469V75.7031H70.3906V65.0781H57.6592L62.7805 59.9569L76.4748 64.5216C79.1908 65.4274 81.0156 67.9588 81.0156 70.8209V81.0156Z" fill="#203847"/>
<path d="M49.1406 38.5156C49.8741 38.5156 50.4688 37.921 50.4688 37.1875C50.4688 36.454 49.8741 35.8594 49.1406 35.8594C48.4071 35.8594 47.8125 36.454 47.8125 37.1875C47.8125 37.921 48.4071 38.5156 49.1406 38.5156Z" fill="#203847"/>
<path d="M62.4219 38.5156C63.1554 38.5156 63.75 37.921 63.75 37.1875C63.75 36.454 63.1554 35.8594 62.4219 35.8594C61.6884 35.8594 61.0938 36.454 61.0938 37.1875C61.0938 37.921 61.6884 38.5156 62.4219 38.5156Z" fill="#203847"/>
<path d="M12.3024 28.9638L13.7647 27.5015L11.8867 25.6235L10.4245 27.0858C10.0101 27.5002 9.62094 27.9464 9.26367 28.4153L11.378 30.0236C11.6609 29.6491 11.973 29.2931 12.3024 28.9638Z" fill="#EFB829"/>
<path d="M9.29688 36.2206C9.29688 34.8832 9.54656 33.5896 10.0393 32.373L7.57695 31.377C6.95539 32.9109 6.64062 34.5419 6.64062 36.2206C6.64062 42.3486 10.9982 47.6757 17.004 48.8856L17.5286 46.2812C12.758 45.3209 9.29688 41.0895 9.29688 36.2206Z" fill="#EFB829"/>
<path d="M21.25 27.8906C22.7149 27.8906 23.9062 29.082 23.9062 30.5469H26.5625C26.5625 28.0779 24.8638 26.0166 22.5781 25.423V22.5781H19.9219V25.423C17.6362 26.0166 15.9375 28.0779 15.9375 30.5469C15.9375 33.4767 18.3202 35.8594 21.25 35.8594C22.7149 35.8594 23.9062 37.0507 23.9062 38.5156C23.9062 39.9805 22.7149 41.1719 21.25 41.1719C19.7851 41.1719 18.5938 39.9805 18.5938 38.5156H15.9375C15.9375 40.9846 17.6362 43.0459 19.9219 43.6395V46.4844H22.5781V43.6395C24.8638 43.0459 26.5625 40.9846 26.5625 38.5156C26.5625 35.5858 24.1798 33.2031 21.25 33.2031C19.7851 33.2031 18.5938 32.0118 18.5938 30.5469C18.5938 29.082 19.7851 27.8906 21.25 27.8906Z" fill="#EFB829"/>
</svg>
