<svg width="120" height="120" viewBox="0 0 120 120" fill="none" xmlns="http://www.w3.org/2000/svg">
<g clip-path="url(#clip0_1_1551)">
<path fill-rule="evenodd" clip-rule="evenodd" d="M0.159424 0.41803H119.391V119.65H0.159424V0.41803Z" fill="white"/>
<path fill-rule="evenodd" clip-rule="evenodd" d="M10.8852 91.6092C11.2694 90.9061 11.7188 90.2634 12.1658 89.6231L10.948 89.8164C9.41127 92.2495 6.91288 94.8132 3.83701 94.8132C2.74729 94.8132 2.04175 94.3009 2.04175 93.5954C2.04175 93.1484 2.36311 92.7642 2.74729 92.7642C3.13147 92.7642 3.45283 92.9551 3.45283 93.4045C3.45283 93.8515 3.13147 94.0448 2.87535 94.0448C2.74729 94.0448 2.61923 94.0448 2.61923 94.1729C2.61923 94.4942 3.32477 94.6223 3.83701 94.6223C6.59152 94.6223 8.38679 91.6745 9.73263 89.9444C8.25873 90.2634 6.9757 90.9061 6.07928 91.7373L5.95122 91.6745C6.59152 90.9061 8.51485 89.8792 9.86069 89.7511C10.948 88.1492 13.3207 85.3947 15.2417 84.1769V84.1116C14.4081 84.6239 13.7677 84.9452 12.9994 84.9452C11.7188 84.9452 11.2694 83.6646 9.66739 83.6646C8.06543 83.6646 6.27258 85.1385 6.27258 86.7405C6.27258 87.6998 7.04094 88.1492 7.68125 88.1492C9.02709 88.1492 10.8852 86.6124 11.2041 85.3947H11.3346C11.0132 86.8686 9.53933 88.3425 7.87213 88.3425C6.78482 88.3425 6.07928 87.765 6.07928 86.6124C6.07928 84.8824 8.70573 83.0872 10.3077 83.0872C11.7188 83.0872 12.55 84.4958 13.833 84.4958C14.6666 84.4958 15.4978 83.8555 16.2033 83.3433L16.2661 83.5366C14.0239 85.1385 12.55 87.3808 11.0761 89.6231L12.2938 89.4322C12.9341 88.5334 13.7677 87.5741 14.1519 87.2528L14.2172 87.3156C13.6397 87.8302 13.0646 88.6614 12.6152 89.4322L13.833 89.2389C14.7946 87.9583 18.8298 83.2805 20.497 83.2805C20.8159 83.2805 21.0092 83.4713 21.0092 83.7275C21.0092 85.7136 16.9089 88.9175 14.9227 89.2389C14.2172 90.2006 12.3591 92.5057 12.3591 93.7234C12.3591 94.3662 12.9341 94.6223 13.4488 94.6223C15.8191 94.6223 18.1895 91.7373 18.1895 90.5847C18.1895 90.0725 17.9333 89.7511 17.4839 89.7511C16.4594 89.7511 15.2417 90.9689 14.6666 91.6745H14.4733C15.1788 90.8409 16.3314 89.5603 17.4839 89.5603C18.1266 89.5603 18.3828 90.0073 18.3828 90.6476C18.3828 92.5709 15.3697 94.8132 13.6397 94.8132C12.4219 94.8132 11.9749 94.1729 11.9749 93.1484C11.9749 91.9306 13.0646 90.3914 13.7049 89.4322L12.55 89.6231C12.1658 90.1353 11.7188 90.8409 11.3974 91.6092H10.8852ZM20.497 83.4713C19.4072 83.4713 15.6258 88.3425 15.0508 89.0456C17.165 88.5986 20.8159 85.2014 20.8159 83.6646C20.8159 83.5366 20.6879 83.4713 20.497 83.4713Z" fill="#231F20"/>
<path fill-rule="evenodd" clip-rule="evenodd" d="M25.1747 91.8654C24.9186 92.0587 24.4063 92.3776 23.9569 92.3776C23.5727 92.3776 23.3166 92.2496 23.1233 92.0587C21.5866 93.9796 20.3035 94.8132 19.0229 94.8132C18.5735 94.8132 18.0613 94.429 18.0613 93.8515C18.0613 92.3148 21.0091 89.4951 22.7391 89.4951C23.0605 89.4951 23.3166 89.6231 23.3794 89.8792C23.4447 89.8164 23.5075 89.8164 23.5727 89.8164C23.8288 89.8164 23.8917 90.0073 23.8917 90.2634C23.8917 90.8409 23.5075 91.6093 23.1885 91.9306C23.4447 92.1215 23.7008 92.1867 23.9569 92.1867C24.213 92.1867 24.7253 91.9934 25.1094 91.6745L25.1747 91.8654ZM23.1885 90.0073C23.1885 89.8792 23.0605 89.6884 22.8019 89.6884C22.0988 89.6884 20.8158 91.2251 19.0858 93.2112C18.7016 93.6606 18.6388 93.9168 18.6388 94.1729C18.6388 94.3662 18.7668 94.6223 19.2138 94.6223C20.3035 94.6223 21.8427 93.4045 22.9324 91.9306C22.8019 91.6745 22.7391 91.4184 22.7391 91.097C22.7391 90.6476 22.9324 90.2006 23.1885 90.0073Z" fill="#231F20"/>
<path fill-rule="evenodd" clip-rule="evenodd" d="M30.0434 86.4844H31.0678L29.0189 88.6614H30.0434L29.9153 88.8547H28.8908L24.9185 93.1484C24.213 93.9167 23.8916 94.2357 23.8916 94.429C23.8916 94.557 24.0849 94.6223 24.2758 94.6223C24.7252 94.6223 25.6869 94.1728 28.3133 91.8653L28.4414 91.9934C26.1991 93.9795 24.9185 94.8131 24.213 94.8131C23.8288 94.8131 23.6355 94.557 23.6355 94.1728C23.6355 93.7234 23.8916 93.1484 24.7905 92.1215L27.8011 88.8547H26.7766L26.9047 88.6614H27.9944L30.0434 86.4844Z" fill="#231F20"/>
<path fill-rule="evenodd" clip-rule="evenodd" d="M33.3754 92.1215C31.9015 93.4045 29.9806 94.8132 28.2505 94.8132C27.7383 94.8132 27.2236 94.6223 27.2236 94.0448C27.2236 92.3148 30.3647 89.6231 32.0948 89.6231C32.4789 89.6231 32.8003 89.9445 32.8003 90.3286C32.8003 91.8026 29.9806 92.6362 28.8256 92.6362C27.8664 93.6606 27.7383 94.0448 27.7383 94.2357C27.7383 94.5571 28.0572 94.6223 28.3786 94.6223C29.7873 94.6223 31.4545 93.4673 33.3754 91.9306V92.1215ZM32.0948 89.8164C31.4545 89.8164 30.6209 90.5848 28.9537 92.4429C30.6837 92.4429 32.4137 90.969 32.4137 90.1354C32.4137 89.9445 32.2881 89.8164 32.0948 89.8164Z" fill="#231F20"/>
<path fill-rule="evenodd" clip-rule="evenodd" d="M37.7343 92.3148C35.2988 94.4943 34.081 94.8132 33.3754 94.8132C32.7351 94.8132 32.479 94.429 32.479 93.8515C32.479 91.9306 40.5517 83.3433 42.2189 83.3433C42.5402 83.3433 42.7963 83.5366 42.7963 83.9208C42.7963 85.7789 38.1185 88.7895 35.6829 90.3915C35.6829 90.3915 32.8632 93.8515 32.8632 94.2357C32.8632 94.4943 33.0565 94.6223 33.2474 94.6223C34.1462 94.6223 35.3616 94.1101 37.2197 92.5057L37.7343 92.3148ZM42.2817 83.5366C41.6414 83.5366 39.3991 85.6508 36.0043 89.9445H36.0671C39.143 87.765 42.603 85.5228 42.603 83.9208C42.603 83.6647 42.475 83.5366 42.2817 83.5366Z" fill="#231F20"/>
<path fill-rule="evenodd" clip-rule="evenodd" d="M53.1113 89.8164C52.0868 90.7757 50.6129 92.4429 49.4604 93.6606C49.2043 93.9796 49.0762 94.1729 49.0762 94.3009C49.0762 94.5571 49.2671 94.6223 49.4604 94.6223C50.422 94.6223 52.8552 92.699 53.6236 91.8654L53.8169 91.9934C52.9833 92.827 50.6129 94.8132 49.3951 94.8132C48.9481 94.8132 48.6896 94.4942 48.6896 94.1729C48.6896 93.9168 48.7548 93.7235 48.8829 93.5326H48.8177C47.9212 94.3662 47.0876 94.8132 46.4473 94.8132C45.807 94.8132 45.4229 94.429 45.4229 93.7887C45.4229 91.8026 48.9481 89.6231 50.2287 89.6231C50.741 89.6231 51.1904 89.8792 51.1904 90.2634C51.1904 90.3915 51.1904 90.4567 51.1252 90.6476H51.1904L52.0216 89.8164H53.1113ZM50.422 89.8164C49.7165 89.8164 49.139 90.1353 46.4473 92.9551C45.807 93.6606 45.807 93.9796 45.807 94.1729C45.807 94.429 46.0003 94.6223 46.4473 94.6223C47.9212 94.6223 50.9971 91.2251 50.9971 90.3915C50.9971 90.0073 50.6758 89.8164 50.422 89.8164Z" fill="#231F20"/>
<path fill-rule="evenodd" clip-rule="evenodd" d="M55.6121 89.8164H56.5714L55.1627 91.2903L55.2255 91.3531C55.9963 90.6476 57.2117 89.6884 57.9172 89.6884C58.4947 89.6884 58.8789 90.0725 58.8789 90.6476C58.8789 91.9306 56.1872 93.8515 56.1872 94.429C56.1872 94.5571 56.2524 94.6223 56.4433 94.6223C56.9556 94.6223 57.9825 93.8515 60.2247 91.8654V92.0587C58.4947 93.6606 57.0836 94.8132 56.4433 94.8132C56.0591 94.8132 55.803 94.6223 55.803 94.1101C55.803 92.8923 58.4947 90.969 58.4947 90.3287C58.4947 90.0725 58.3014 89.8792 57.9825 89.8792C57.0208 89.8792 54.4572 92.0587 52.2802 94.5571H51.1904L55.6121 89.8164Z" fill="#231F20"/>
<path fill-rule="evenodd" clip-rule="evenodd" d="M70.1579 85.0733H71.3104L63.2354 93.4673C62.7231 93.9796 62.5951 94.2357 62.5951 94.3662C62.5951 94.557 62.7231 94.6223 63.0445 94.6223C63.9409 94.6223 65.0935 93.8515 67.2729 91.8653L67.3381 91.9934C65.0306 94.11 64.069 94.8132 62.9164 94.8132C62.6603 94.8132 62.2109 94.6851 62.2109 94.2357C62.2109 93.9796 62.2109 93.7887 62.3389 93.5954C61.6334 94.3009 60.8022 94.8132 60.0967 94.8132C59.3283 94.8132 59.135 94.3009 59.135 93.7887C59.135 92.0586 62.0828 89.6883 63.8128 89.6883C64.3903 89.6883 64.8373 89.8792 64.8373 90.3286C64.8373 90.5195 64.7745 90.6476 64.7093 90.8409L70.1579 85.0733ZM64.069 89.8792C63.3006 89.8792 60.9303 91.8653 60.0314 93.0831C59.5844 93.7234 59.5192 93.9167 59.5192 94.11C59.5192 94.429 59.7753 94.6223 60.1595 94.6223C61.4425 94.6223 64.6464 91.1622 64.6464 90.3914C64.6464 90.0725 64.3903 89.8792 64.069 89.8792Z" fill="#231F20"/>
<path fill-rule="evenodd" clip-rule="evenodd" d="M79.5762 84.7544C79.5762 86.9314 77.462 89.495 75.2826 89.495C74.3861 89.495 73.8739 88.8547 73.8739 88.0211C73.8739 85.5855 77.9742 83.0872 81.7557 83.0872C82.7801 83.0872 83.7418 83.2805 84.254 83.5366C84.6382 83.3433 85.0224 83.2152 85.3438 83.1524L85.4066 83.2805C85.0876 83.4085 84.7663 83.5366 84.5102 83.5994C85.3438 84.0488 85.9841 84.7544 85.9841 85.7136C85.9841 87.3808 83.9979 88.4053 82.5868 88.6614C82.7149 88.9175 82.7801 89.1108 82.7801 89.367C82.7801 90.4567 80.3446 92.1867 80.3446 93.6606C80.3446 94.3662 80.9849 94.6223 81.5624 94.6223C82.971 94.6223 85.5346 92.2495 85.5346 90.8409C85.5346 90.3914 85.1505 90.0725 84.701 90.0725C84.0607 90.0725 83.2924 90.8409 82.9082 91.2903L82.7149 91.225C83.1643 90.7128 83.9327 89.8792 84.701 89.8792C85.2157 89.8792 85.7279 90.2006 85.7279 90.9061C85.7279 92.5709 83.4857 94.8132 81.5624 94.8132C80.5379 94.8132 79.7695 94.11 79.7695 93.0203C79.7695 91.3531 82.2655 89.8792 82.2655 88.6614C82.0746 88.7267 81.7557 88.7895 81.3691 88.7895C80.794 88.7895 80.3446 88.4053 80.3446 87.9583H80.2817C78.3584 90.6476 75.9229 94.8132 72.0786 94.8132C70.9261 94.8132 70.1577 94.3009 70.1577 93.5326C70.1577 93.0203 70.6047 92.6989 70.9261 92.6989C71.3731 92.6989 71.6944 93.0203 71.6944 93.4673C71.6944 94.0448 70.8608 93.9796 70.8608 94.11C70.8608 94.3662 71.4383 94.6223 72.1439 94.6223C76.307 94.6223 79.4481 85.2666 83.9979 83.6646C83.3552 83.3433 82.3307 83.2805 81.8837 83.2805C77.5248 83.2805 74.0648 86.1002 74.0648 87.8931C74.0648 88.6614 74.449 89.3017 75.2826 89.3017C76.7565 89.3017 79.3829 86.7405 79.3829 84.7544H79.5762ZM84.254 83.7275C83.2271 84.3702 82.1374 85.2666 80.4074 87.6998L80.4726 87.765C80.6007 87.6369 80.8568 87.6369 81.1129 87.6369C81.4971 87.6369 82.2027 87.8302 82.524 88.4705C83.8046 88.1492 85.2157 86.7405 85.2157 85.4575C85.2157 84.5611 84.7663 84.0488 84.254 83.7275ZM82.2655 88.5334C82.1374 88.0211 81.5624 87.8302 81.0501 87.8302C80.7288 87.8302 80.5379 87.8931 80.5379 88.0864C80.5379 88.2772 80.8568 88.5986 81.4343 88.5986C81.7557 88.5986 82.0746 88.5986 82.2655 88.5334Z" fill="#231F20"/>
<path fill-rule="evenodd" clip-rule="evenodd" d="M91.9427 92.1215C90.4688 93.4045 88.2894 94.8132 86.6246 94.8132C86.1123 94.8132 85.6001 94.6223 85.6001 94.0448C85.6001 92.3148 88.7388 89.6231 90.4688 89.6231C90.853 89.6231 91.1744 89.9445 91.1744 90.3286C91.1744 91.8026 88.3546 92.6362 87.2021 92.6362C86.2404 93.6606 86.1123 94.0448 86.1123 94.2357C86.1123 94.5571 86.4313 94.6223 86.7526 94.6223C88.1613 94.6223 90.0846 93.4673 91.9427 91.9306V92.1215ZM90.4688 89.8164C89.8285 89.8164 88.9949 90.5848 87.3301 92.4429C89.0601 92.4429 90.7902 90.969 90.7902 90.1354C90.7902 89.9445 90.6621 89.8164 90.4688 89.8164Z" fill="#231F20"/>
<path fill-rule="evenodd" clip-rule="evenodd" d="M102.966 91.8654C102.644 92.0587 102.195 92.3776 101.682 92.3776C101.298 92.3776 101.105 92.2496 100.849 92.0587C99.3122 93.9796 98.0291 94.8132 96.8138 94.8132C96.2991 94.8132 95.7869 94.429 95.7869 93.8515C95.7869 92.3148 98.7999 89.4951 100.465 89.4951C100.786 89.4951 101.042 89.6231 101.17 89.8792C101.233 89.8164 101.298 89.8164 101.361 89.8164C101.554 89.8164 101.682 90.0073 101.682 90.2634C101.682 90.8409 101.233 91.6093 100.977 91.9306C101.17 92.1215 101.426 92.1867 101.682 92.1867C102.004 92.1867 102.516 91.9934 102.835 91.6745L102.966 91.8654ZM100.977 90.0073C100.914 89.8792 100.786 89.6884 100.593 89.6884C99.8872 89.6884 98.6066 91.2251 96.8766 93.2112C96.4924 93.6606 96.3643 93.9168 96.3643 94.1729C96.3643 94.3662 96.5552 94.6223 97.0046 94.6223C98.0944 94.6223 99.6311 93.4045 100.721 91.9306C100.593 91.6745 100.53 91.4184 100.53 91.097C100.53 90.6476 100.721 90.2006 100.977 90.0073Z" fill="#231F20"/>
<path fill-rule="evenodd" clip-rule="evenodd" d="M104.565 89.8164H105.655L103.606 92.0587C104.118 91.6745 104.758 91.4184 105.592 91.1623C105.72 90.4567 106.554 89.6884 106.938 89.6884C107.194 89.6884 107.322 89.7512 107.322 90.0073C107.322 90.5848 106.295 91.1623 105.783 91.2903C105.783 91.7373 105.976 92.1215 106.36 92.1215C106.682 92.1215 109.115 90.969 109.243 90.8409L109.308 90.969C109.18 91.097 106.616 92.3148 106.36 92.3148C105.911 92.3148 105.592 91.9306 105.592 91.3531C104.246 91.6745 103.284 92.3776 102.388 93.4045L101.426 94.5571H100.402L104.565 89.8164Z" fill="#231F20"/>
<path fill-rule="evenodd" clip-rule="evenodd" d="M112.512 86.4844H113.602L111.55 88.6614H112.512L112.384 88.8547H111.357L107.385 93.1484C106.745 93.9167 106.426 94.2357 106.426 94.429C106.426 94.557 106.616 94.6223 106.745 94.6223C107.257 94.6223 108.924 94.3009 111.55 91.9934L111.485 92.1215C109.436 94.1728 107.45 94.8131 106.682 94.8131C106.295 94.8131 106.104 94.557 106.104 94.1728C106.104 93.7234 106.426 93.1484 107.322 92.1215L110.333 88.8547H109.243L109.436 88.6614H110.461L112.512 86.4844Z" fill="#231F20"/>
<path fill-rule="evenodd" clip-rule="evenodd" d="M3.89972 64.0569H1.91357V63.5447H12.934L13.0645 67.5798H12.5499C12.2309 66.2992 11.9748 64.8905 10.6289 64.313C10.1795 64.1197 9.41116 64.0569 8.57756 64.0569H6.46335V69.7592C8.32144 69.7592 9.34592 69.4379 9.4764 67.3237H9.98864V72.8979H9.4764C9.2831 70.6557 8.57756 70.2087 6.46335 70.2715V76.2952H8.38667V76.8074H1.91357V76.2952H3.89972V64.0569Z" fill="#231F20"/>
<path fill-rule="evenodd" clip-rule="evenodd" d="M13.3206 71.6173C13.3206 69.1817 15.4348 66.7486 17.9332 66.7486C20.3687 66.7486 22.5458 69.1817 22.5458 71.6173C22.5458 74.309 20.881 77.0635 17.9332 77.0635C14.9853 77.0635 13.3206 74.309 13.3206 71.6173ZM20.3687 70.0806C20.3687 69.5031 20.3035 69.0537 20.1126 68.6067C19.8565 67.7078 19.2138 67.0675 17.9332 67.0675C16.5873 67.0675 15.947 67.7078 15.6909 68.6067C15.5628 69.0537 15.4976 69.5031 15.4976 70.0806V73.2845C15.4976 73.8596 15.4976 74.4371 15.6256 74.9493C15.947 75.9762 16.5245 76.6793 17.9332 76.6793C19.3442 76.6793 19.9193 75.9762 20.1754 74.9493C20.3035 74.4371 20.3687 73.8596 20.3687 73.2845V70.0806Z" fill="#231F20"/>
<path fill-rule="evenodd" clip-rule="evenodd" d="M33.953 66.9395V67.3236H32.4791V73.5406C32.4791 75.0145 32.1578 75.7176 31.5827 76.2951C30.9424 76.8074 30.0436 77.0635 28.6977 77.0635C27.6732 77.0635 26.7116 76.7445 26.0713 76.2323C25.431 75.7829 25.1748 74.8212 25.1748 73.1564V67.3236H23.7009V66.9395H28.5068V67.3236H27.0329V72.707C27.0329 74.7584 26.8396 76.5512 29.5313 76.5512C31.2613 76.5512 31.9669 75.4615 31.9669 73.8596V67.3236H30.5558V66.9395H33.953Z" fill="#231F20"/>
<path fill-rule="evenodd" clip-rule="evenodd" d="M38.3747 76.4232H39.8486V76.8074H35.0427V76.4232H36.5166V67.3236H35.0427V66.9395H39.9767C41.5786 66.9395 43.4996 67.1328 43.4996 69.1817C43.4996 70.8489 41.7695 71.4264 40.3609 71.6173C42.6684 72.0015 43.1806 73.2193 43.1806 75.6548C43.1806 76.1671 43.2434 76.7445 44.6545 76.4884V76.8074C44.2703 76.9354 43.8209 77.0007 43.4367 77.0007C41.8976 77.0007 41.1292 76.2323 41.1292 74.7584C41.1292 73.5406 40.9359 72.579 40.5517 72.2576C40.1047 71.9386 39.6553 71.7453 39.2083 71.7453H38.3747V76.4232ZM38.3747 71.3612H39.5925C40.9359 71.3612 41.4506 70.7209 41.4506 69.375C41.4506 67.7731 41.0012 67.3236 39.6553 67.3236H38.3747V71.3612Z" fill="#231F20"/>
<path fill-rule="evenodd" clip-rule="evenodd" d="M50.869 76.9354H50.5476V72.9631H51.1251C51.5093 74.8865 52.6642 76.6165 54.7784 76.6165C56.3152 76.6165 57.7262 75.4615 57.7262 73.8596C57.7262 72.0015 56.059 71.6173 54.5851 71.105C54.201 70.977 53.8168 70.8489 53.3674 70.7209C51.5745 70.1434 50.6128 68.7975 50.6128 66.8766C50.6128 64.8252 52.1496 63.2885 54.2662 63.2885C55.4187 63.2885 56.2523 63.5446 57.1488 64.2478L57.9171 63.4794H58.2385V67.1956H57.5982C57.4049 65.3375 56.1871 63.7355 54.201 63.7355C52.9204 63.7355 51.7026 64.6972 51.7026 66.043C51.7026 67.5798 52.7923 67.7078 54.0101 68.0292C54.5223 68.1572 54.9065 68.3505 55.2254 68.4134C55.612 68.5414 56.1243 68.6695 56.5713 68.8628C58.2385 69.694 58.816 70.977 58.816 72.7698C58.816 75.2706 57.2116 77.1287 54.6504 77.1287C53.6887 77.1287 52.4709 76.7445 51.8306 76.1018L50.869 76.9354Z" fill="#231F20"/>
<path fill-rule="evenodd" clip-rule="evenodd" d="M64.0689 67.3236V71.5545C65.4776 71.5545 66.2483 71.3612 66.3112 69.7592H66.6953V73.8596H66.3112C66.1831 72.2576 65.6709 71.8734 64.0689 71.9386V76.4232H66.1203C68.0412 76.4232 68.4906 75.3335 68.8095 73.6687H69.1961L69.0681 76.8074H60.6741V76.4232H62.148V67.3236H60.6741V66.9395H68.8748L68.94 69.6311H68.5534C68.2345 68.2201 67.657 67.645 66.8886 67.4517C66.5045 67.3236 66.1203 67.3236 65.608 67.3236H64.0689Z" fill="#231F20"/>
<path fill-rule="evenodd" clip-rule="evenodd" d="M70.2859 76.8074V76.4232H71.5013L75.0265 66.7486H75.5388L78.8708 76.4232H80.0886V76.8074H75.4107V76.4232H76.9475L76.051 73.8596H72.8471L71.9507 76.4232H73.4246V76.8074H70.2859ZM72.9752 73.4754H75.8601L74.5143 69.3098L72.9752 73.4754Z" fill="#231F20"/>
<path fill-rule="evenodd" clip-rule="evenodd" d="M81.6277 76.9355H81.3691V73.9876H81.7557C82.0747 75.3987 82.9083 76.6793 84.5102 76.6793C85.6628 76.6793 86.6873 75.7829 86.6873 74.6304C86.6873 73.2193 85.4719 72.9632 84.3822 72.579C84.0608 72.4509 83.7419 72.3857 83.4858 72.2576C82.0747 71.8734 81.4344 70.849 81.4344 69.4379C81.4344 67.9011 82.5869 66.7486 84.1261 66.7486C84.9573 66.7486 85.6 66.9395 86.2403 67.4517L86.8178 66.8767H87.0739V69.694H86.6245C86.4312 68.2853 85.5347 67.0675 84.0608 67.0675C83.0992 67.0675 82.2027 67.7731 82.2027 68.7976C82.2027 69.8873 83.0363 70.0153 83.9328 70.2715C84.317 70.3995 84.5731 70.4648 84.8292 70.5928C85.1506 70.6557 85.5347 70.7837 85.8561 70.9118C87.0739 71.4893 87.5209 72.4509 87.5209 73.7968C87.5209 75.6548 86.3031 77.0635 84.3822 77.0635C83.6766 77.0635 82.7802 76.7446 82.2656 76.2951L81.6277 76.9355Z" fill="#231F20"/>
<path fill-rule="evenodd" clip-rule="evenodd" d="M89.5071 71.6173C89.5071 69.1817 91.6213 66.7486 94.1221 66.7486C96.5552 66.7486 98.6719 69.1817 98.6719 71.6173C98.6719 74.309 97.0047 77.0635 94.1221 77.0635C91.1743 77.0635 89.5071 74.309 89.5071 71.6173ZM96.4924 70.0806C96.4924 69.5031 96.4296 69.0537 96.2991 68.6067C95.9802 67.7078 95.4027 67.0675 94.1221 67.0675C92.7762 67.0675 92.1359 67.7078 91.8798 68.6067C91.7493 69.0537 91.6865 69.5031 91.6865 70.0806V73.2845C91.6865 73.8596 91.6865 74.4371 91.8146 74.9493C92.0707 75.9762 92.711 76.6793 94.1221 76.6793C95.5308 76.6793 96.1082 75.9762 96.3644 74.9493C96.4924 74.4371 96.4924 73.8596 96.4924 73.2845V70.0806Z" fill="#231F20"/>
<path fill-rule="evenodd" clip-rule="evenodd" d="M108.475 77.0007H108.028L101.811 67.645V76.4232H103.219V76.8074H99.8872V76.4232H101.298V67.3236H99.8872V66.9395H103.669L108.028 73.4126V67.3236H106.616V66.9395H109.948V67.3236H108.475V77.0007Z" fill="#231F20"/>
<path fill-rule="evenodd" clip-rule="evenodd" d="M111.744 76.9355H111.485V73.9876H111.935C112.256 75.3987 113.087 76.6793 114.626 76.6793C115.779 76.6793 116.868 75.7829 116.868 74.6304C116.868 73.2193 115.588 72.9632 114.498 72.579C114.242 72.4509 113.921 72.3857 113.602 72.2576C112.256 71.8734 111.55 70.849 111.55 69.4379C111.55 67.9011 112.703 66.7486 114.242 66.7486C115.138 66.7486 115.716 66.9395 116.421 67.4517L116.997 66.8767H117.253V69.694H116.74C116.612 68.2853 115.716 67.0675 114.242 67.0675C113.28 67.0675 112.384 67.7731 112.384 68.7976C112.384 69.8873 113.152 70.0153 114.049 70.2715C114.435 70.3995 114.754 70.4648 115.01 70.5928C115.267 70.6557 115.651 70.7837 115.972 70.9118C117.19 71.4893 117.637 72.4509 117.637 73.7968C117.637 75.6548 116.421 77.0635 114.563 77.0635C113.858 77.0635 112.959 76.7446 112.447 76.2951L111.744 76.9355Z" fill="#231F20"/>
<path fill-rule="evenodd" clip-rule="evenodd" d="M69.3869 45.3456C69.6431 45.3456 69.8364 45.0895 69.8364 44.8986C69.8364 44.6424 69.6431 44.3839 69.3869 44.3839C69.1308 44.3839 68.9399 44.6424 68.9399 44.8986C68.9399 45.0895 69.1308 45.3456 69.3869 45.3456Z" fill="#231F20"/>
<path fill-rule="evenodd" clip-rule="evenodd" d="M68.8096 44.3211L69.1962 44.4491L69.3871 44.0649L69.5151 44.4491L69.9645 44.3211L69.7713 44.7052L70.1578 44.8985L69.7713 45.0242L69.9645 45.4736L69.5151 45.2803L69.3871 45.6669L69.1962 45.2803L68.8096 45.4736L68.9401 45.0242L68.5535 44.8985L68.9401 44.7052L68.8096 44.3211Z" fill="#231F20"/>
<path fill-rule="evenodd" clip-rule="evenodd" d="M57.8542 24.9694C58.5574 25.0322 59.1349 25.3536 59.2001 26.25C58.3665 26.1872 57.9823 25.675 57.8542 24.9694Z" fill="#231F20"/>
<path fill-rule="evenodd" clip-rule="evenodd" d="M57.8542 23.6236C58.5574 23.6888 59.1349 24.0078 59.2629 24.8414C58.3665 24.8414 57.9823 24.3291 57.8542 23.6236Z" fill="#231F20"/>
<path fill-rule="evenodd" clip-rule="evenodd" d="M57.9172 22.2125C58.6228 22.2777 59.135 22.5991 59.2631 23.4955C58.4295 23.4327 58.0453 22.918 57.9172 22.2125Z" fill="#231F20"/>
<path fill-rule="evenodd" clip-rule="evenodd" d="M57.9172 20.8691C58.6228 20.9319 59.2003 21.2533 59.2631 22.0844C58.4295 22.0844 58.0453 21.5746 57.9172 20.8691Z" fill="#231F20"/>
<path fill-rule="evenodd" clip-rule="evenodd" d="M57.9172 19.458C58.6228 19.5232 59.2003 19.9074 59.3283 20.741C58.4295 20.6758 58.0453 20.1635 57.9172 19.458Z" fill="#231F20"/>
<path fill-rule="evenodd" clip-rule="evenodd" d="M57.9824 18.1121C58.6855 18.1774 59.2002 18.4963 59.3283 19.3299C58.4947 19.3299 58.1105 18.8177 57.9824 18.1121Z" fill="#231F20"/>
<path fill-rule="evenodd" clip-rule="evenodd" d="M57.533 56.3032H61.3144V56.1751L60.0966 55.5976L59.4563 18.1121C59.4563 18.0493 59.4563 18.0493 59.391 18.0493C59.391 18.0493 59.391 18.0493 59.391 18.1121L58.7507 55.5976L57.533 56.1751V56.3032Z" fill="#231F20"/>
<path fill-rule="evenodd" clip-rule="evenodd" d="M68.1693 30.0942C68.0413 30.865 67.6571 31.3773 66.8235 31.3773C66.8887 30.5437 67.4662 30.1595 68.1693 30.0942Z" fill="#231F20"/>
<path fill-rule="evenodd" clip-rule="evenodd" d="M68.2345 31.3773C68.1065 32.0828 67.7223 32.595 66.8887 32.595C66.9515 31.7614 67.529 31.4401 68.2345 31.3773Z" fill="#231F20"/>
<path fill-rule="evenodd" clip-rule="evenodd" d="M63.8781 30.0314C63.0445 30.0314 62.6603 29.5192 62.5322 28.8137C63.2354 28.8789 63.8128 29.1978 63.8781 30.0314Z" fill="#231F20"/>
<path fill-rule="evenodd" clip-rule="evenodd" d="M61.5705 34.069C60.6741 34.069 60.2899 33.5543 60.1594 32.8512C60.9302 32.914 61.4424 33.2354 61.5705 34.069Z" fill="#231F20"/>
<path fill-rule="evenodd" clip-rule="evenodd" d="M70.7329 37.9132C70.0298 37.976 69.4523 38.2974 69.3242 39.131C70.2206 39.131 70.6048 38.6187 70.7329 37.9132Z" fill="#231F20"/>
<path fill-rule="evenodd" clip-rule="evenodd" d="M69.5803 42.8472C70.3487 42.91 70.9262 43.2313 70.989 44.065C70.0926 44.065 69.7084 43.5527 69.5803 42.8472Z" fill="#231F20"/>
<path fill-rule="evenodd" clip-rule="evenodd" d="M71.1171 41.0519C70.3487 40.9891 69.7712 40.6677 69.7712 39.7713C70.6677 39.8341 71.0543 40.3488 71.1171 41.0519Z" fill="#231F20"/>
<path fill-rule="evenodd" clip-rule="evenodd" d="M47.9864 45.2803C47.8584 45.1522 47.8584 45.0242 47.8584 45.0242L47.6023 37.7199C47.6023 37.5918 47.537 37.529 47.537 37.529C47.4742 37.529 47.4742 37.5918 47.4742 37.7199L47.1528 45.4736C47.1528 45.4736 47.1528 45.6669 47.2809 45.7297L59.3911 52.8431V51.1131L47.9864 45.2803Z" fill="#231F20"/>
<path fill-rule="evenodd" clip-rule="evenodd" d="M70.7958 45.2803C70.9891 45.1522 70.9891 45.0242 70.9891 45.0242L71.2452 37.7199C71.2452 37.5918 71.2452 37.529 71.3104 37.529C71.3104 37.529 71.3732 37.5918 71.3732 37.7199L71.6294 45.4736C71.6294 45.4736 71.6946 45.6669 71.5665 45.7297L59.3911 52.8431V51.1131L70.7958 45.2803Z" fill="#231F20"/>
<path fill-rule="evenodd" clip-rule="evenodd" d="M50.1005 40.0274C49.9725 39.9622 49.9725 39.8994 49.9725 39.8994L49.7792 33.7476C49.7792 33.6824 49.7792 33.6196 49.7163 33.6196C49.7163 33.6196 49.6511 33.6824 49.6511 33.7476L49.4602 40.2183C49.4602 40.2183 49.395 40.3488 49.523 40.4116L59.391 46.242V44.8333L50.1005 40.0274Z" fill="#231F20"/>
<path fill-rule="evenodd" clip-rule="evenodd" d="M68.6815 40.0274C68.8096 39.9622 68.8096 39.8994 68.8096 39.8994L69.0681 33.7476C69.0681 33.6824 69.0681 33.6196 69.0681 33.6196C69.131 33.6196 69.131 33.6824 69.131 33.7476L69.3871 40.2183C69.3871 40.2183 69.3871 40.3488 69.3243 40.4116L59.3911 46.242V44.8333L68.6815 40.0274Z" fill="#231F20"/>
<path fill-rule="evenodd" clip-rule="evenodd" d="M52.4058 34.8373C52.2802 34.7721 52.2802 34.7093 52.2802 34.7093L52.1497 30.0943L52.0869 30.0314L52.0216 30.0943L51.8936 35.0935C51.8936 35.0935 51.8936 35.2215 51.9588 35.2867L59.3911 39.706V38.4907L52.4058 34.8373Z" fill="#231F20"/>
<path fill-rule="evenodd" clip-rule="evenodd" d="M66.4393 34.8373C66.5045 34.7721 66.5045 34.7093 66.5045 34.7093L66.6954 30.0943V30.0314C66.7606 30.0314 66.7606 30.0943 66.7606 30.0943L66.9515 35.0935C66.9515 35.0935 66.9515 35.2215 66.8887 35.2867L59.3911 39.706V38.4907L66.4393 34.8373Z" fill="#231F20"/>
<path fill-rule="evenodd" clip-rule="evenodd" d="M54.5224 29.8381C54.4572 29.8381 54.4572 29.7753 54.4572 29.7753L54.3291 26.5061C54.3291 26.4433 54.2663 26.4433 54.2663 26.4433C54.2663 26.4433 54.2663 26.4433 54.2663 26.5061L54.073 30.0314C54.073 30.0314 54.073 30.1595 54.1382 30.1595L59.3911 33.3006V32.4017L54.5224 29.8381Z" fill="#231F20"/>
<path fill-rule="evenodd" clip-rule="evenodd" d="M56.2523 25.6749V25.6097L56.1242 23.5607C56.1242 23.4955 56.1242 23.4955 56.059 23.4955C56.059 23.4955 56.059 23.4955 56.059 23.5607L55.9309 25.8658C55.9309 25.8658 55.9309 25.9311 55.9961 25.9311L59.391 27.9172V27.3397L56.2523 25.6749Z" fill="#231F20"/>
<path fill-rule="evenodd" clip-rule="evenodd" d="M62.5322 25.6749C62.595 25.6749 62.595 25.6097 62.595 25.6097L62.7231 23.5607C62.7231 23.4955 62.7231 23.4955 62.7231 23.4955C62.7231 23.4955 62.7231 23.4955 62.7231 23.5607L62.8512 25.8658V25.9311L59.3911 27.9172V27.3397L62.5322 25.6749Z" fill="#231F20"/>
<path fill-rule="evenodd" clip-rule="evenodd" d="M64.3251 29.8381C64.3903 29.8381 64.3903 29.7753 64.3903 29.7753L64.5184 26.5061C64.5184 26.4433 64.5184 26.4433 64.5184 26.4433C64.5812 26.4433 64.5812 26.4433 64.5812 26.5061L64.7093 30.0314C64.7093 30.0314 64.7093 30.1595 64.6464 30.1595L59.3911 33.3006V32.4017L64.3251 29.8381Z" fill="#231F20"/>
<path fill-rule="evenodd" clip-rule="evenodd" d="M62.7883 24.7133C63.6848 24.7133 64.0689 24.201 64.197 23.4955C63.4915 23.4955 62.9164 23.8797 62.7883 24.7133Z" fill="#231F20"/>
<path fill-rule="evenodd" clip-rule="evenodd" d="M62.7231 23.4955C63.622 23.4955 64.0062 22.9833 64.1342 22.2777C63.4287 22.3429 62.8512 22.6619 62.7231 23.4955Z" fill="#231F20"/>
<path fill-rule="evenodd" clip-rule="evenodd" d="M62.6603 24.2011C61.8267 24.2011 61.4425 23.6236 61.3145 22.918C62.02 22.9833 62.5951 23.3675 62.6603 24.2011Z" fill="#231F20"/>
<path fill-rule="evenodd" clip-rule="evenodd" d="M62.5951 25.4188C61.7615 25.3536 61.3773 24.8413 61.2493 24.1358C61.9548 24.201 62.5323 24.52 62.5951 25.4188Z" fill="#231F20"/>
<path fill-rule="evenodd" clip-rule="evenodd" d="M65.9923 26.5062C65.8643 27.2769 65.4777 27.7892 64.6465 27.7892C64.7093 26.9556 65.2868 26.5714 65.9923 26.5062Z" fill="#231F20"/>
<path fill-rule="evenodd" clip-rule="evenodd" d="M65.9269 25.2255C65.2214 25.2908 64.6463 25.6749 64.5811 26.5061C65.4147 26.5061 65.7988 25.9939 65.9269 25.2255Z" fill="#231F20"/>
<path fill-rule="evenodd" clip-rule="evenodd" d="M50.6758 28.8789C51.3813 28.9417 51.9588 29.2631 52.0869 30.1595C51.1904 30.0943 50.8063 29.582 50.6758 28.8789Z" fill="#231F20"/>
<path fill-rule="evenodd" clip-rule="evenodd" d="M50.6758 30.0942C50.8063 30.865 51.1904 31.3773 52.0216 31.3773C51.9588 30.5437 51.3813 30.1595 50.6758 30.0942Z" fill="#231F20"/>
<path fill-rule="evenodd" clip-rule="evenodd" d="M50.6128 31.3773C50.7409 32.0828 51.125 32.595 51.9586 32.595C51.8934 31.7614 51.3183 31.4401 50.6128 31.3773Z" fill="#231F20"/>
<path fill-rule="evenodd" clip-rule="evenodd" d="M50.5476 32.5951C50.6757 33.3635 51.0623 33.8757 51.9587 33.8757C51.8306 33.0445 51.3184 32.6579 50.5476 32.5951Z" fill="#231F20"/>
<path fill-rule="evenodd" clip-rule="evenodd" d="M51.8935 35.0935C51.0623 35.0935 50.6757 34.5812 50.5476 33.8757C51.2531 33.9409 51.8306 34.2599 51.8935 35.0935Z" fill="#231F20"/>
<path fill-rule="evenodd" clip-rule="evenodd" d="M54.1381 30.0314C53.2393 30.0314 52.8551 29.5192 52.7271 28.8137C53.4954 28.8789 54.0101 29.1978 54.1381 30.0314Z" fill="#231F20"/>
<path fill-rule="evenodd" clip-rule="evenodd" d="M53.6235 32.2737C52.9203 32.3389 52.3429 32.7231 52.28 33.5543C53.1112 33.5543 53.4954 33.0445 53.6235 32.2737Z" fill="#231F20"/>
<path fill-rule="evenodd" clip-rule="evenodd" d="M52.343 34.7721C53.1766 34.7092 53.5608 34.197 53.6889 33.4915C52.9833 33.5543 52.4058 33.8756 52.343 34.7721Z" fill="#231F20"/>
<path fill-rule="evenodd" clip-rule="evenodd" d="M54.6503 34.069C54.5222 34.7721 54.138 35.2868 53.3044 35.2868C53.3673 34.4532 53.9447 34.1318 54.6503 34.069Z" fill="#231F20"/>
<path fill-rule="evenodd" clip-rule="evenodd" d="M55.6749 34.5812C55.5469 35.2867 55.1627 35.799 54.3291 35.799C54.3943 34.9654 54.9694 34.644 55.6749 34.5812Z" fill="#231F20"/>
<path fill-rule="evenodd" clip-rule="evenodd" d="M56.6994 35.0934C56.5714 35.799 56.1872 36.3112 55.2908 36.3112C55.4188 35.4776 55.9963 35.1587 56.6994 35.0934Z" fill="#231F20"/>
<path fill-rule="evenodd" clip-rule="evenodd" d="M57.7263 35.6057C57.5982 36.3113 57.1488 36.8235 56.3152 36.8887C56.4432 35.9899 56.9555 35.6685 57.7263 35.6057Z" fill="#231F20"/>
<path fill-rule="evenodd" clip-rule="evenodd" d="M57.342 37.4009C58.1732 37.3357 58.5574 36.8235 58.6855 36.1179C57.9823 36.1832 57.4049 36.5021 57.342 37.4009Z" fill="#231F20"/>
<path fill-rule="evenodd" clip-rule="evenodd" d="M54.457 29.7753C55.3535 29.7753 55.7401 29.2631 55.8681 28.5576C55.0973 28.6204 54.5851 28.9417 54.457 29.7753Z" fill="#231F20"/>
<path fill-rule="evenodd" clip-rule="evenodd" d="M56.8273 29.0698C56.6993 29.7753 56.3151 30.2875 55.4839 30.3504C55.5467 29.4539 56.1242 29.135 56.8273 29.0698Z" fill="#231F20"/>
<path fill-rule="evenodd" clip-rule="evenodd" d="M57.8544 29.582C57.7263 30.2876 57.3421 30.7998 56.5085 30.8651C56.5714 29.9662 57.1488 29.6473 57.8544 29.582Z" fill="#231F20"/>
<path fill-rule="evenodd" clip-rule="evenodd" d="M58.8789 30.0942C58.7508 30.7998 58.3666 31.3773 57.4702 31.3773C57.5983 30.5437 58.1733 30.1595 58.8789 30.0942Z" fill="#231F20"/>
<path fill-rule="evenodd" clip-rule="evenodd" d="M52.5991 35.6685C52.471 36.3741 52.0216 36.8887 51.1904 36.8887C51.3185 36.0551 51.8307 35.7338 52.5991 35.6685Z" fill="#231F20"/>
<path fill-rule="evenodd" clip-rule="evenodd" d="M52.1497 37.4638C52.2801 36.6326 52.7924 36.246 53.5607 36.1832C53.4327 36.9515 52.9833 37.4638 52.1497 37.4638Z" fill="#231F20"/>
<path fill-rule="evenodd" clip-rule="evenodd" d="M53.1113 38.0412C53.2394 37.2076 53.754 36.8234 54.5224 36.7606C54.3944 37.529 53.9449 38.0412 53.1113 38.0412Z" fill="#231F20"/>
<path fill-rule="evenodd" clip-rule="evenodd" d="M54.073 38.6187C54.2011 37.7199 54.7133 37.4009 55.4841 37.3357C55.3536 38.0412 54.9066 38.5535 54.073 38.6187Z" fill="#231F20"/>
<path fill-rule="evenodd" clip-rule="evenodd" d="M55.9963 39.706C56.1244 38.8748 56.6366 38.5535 57.405 38.4907C57.2769 39.1938 56.8275 39.706 55.9963 39.706Z" fill="#231F20"/>
<path fill-rule="evenodd" clip-rule="evenodd" d="M54.7785 30.5437C54.6505 31.2492 54.2663 31.7615 53.3674 31.8243C53.4955 30.9279 54.0102 30.6089 54.7785 30.5437Z" fill="#231F20"/>
<path fill-rule="evenodd" clip-rule="evenodd" d="M54.3291 32.3389C54.4572 31.5053 55.0346 31.184 55.7402 31.1212C55.6121 31.8243 55.2255 32.3389 54.3291 32.3389Z" fill="#231F20"/>
<path fill-rule="evenodd" clip-rule="evenodd" d="M55.3535 32.914C55.4188 32.0828 55.9962 31.7615 56.6994 31.6962C56.5713 32.4018 56.1871 32.914 55.3535 32.914Z" fill="#231F20"/>
<path fill-rule="evenodd" clip-rule="evenodd" d="M56.3152 33.4915C56.3804 32.6579 56.9555 32.3389 57.661 32.2737C57.533 32.9792 57.1488 33.4915 56.3152 33.4915Z" fill="#231F20"/>
<path fill-rule="evenodd" clip-rule="evenodd" d="M57.2769 34.069C58.1105 34.069 58.4946 33.5543 58.6227 32.8512C57.9172 32.914 57.3421 33.2354 57.2769 34.069Z" fill="#231F20"/>
<path fill-rule="evenodd" clip-rule="evenodd" d="M56.5713 26.25C56.4432 26.9555 55.9962 27.4678 55.1626 27.533C55.2907 26.6342 55.8029 26.3152 56.5713 26.25Z" fill="#231F20"/>
<path fill-rule="evenodd" clip-rule="evenodd" d="M56.187 28.0453C56.2522 27.2117 56.8273 26.8928 57.5329 26.8275C57.4048 27.5331 57.0206 28.0453 56.187 28.0453Z" fill="#231F20"/>
<path fill-rule="evenodd" clip-rule="evenodd" d="M57.1487 28.6203C57.2115 27.7891 57.789 27.4678 58.4945 27.405C58.3665 28.1081 57.9823 28.6203 57.1487 28.6203Z" fill="#231F20"/>
<path fill-rule="evenodd" clip-rule="evenodd" d="M55.931 25.8659C55.0974 25.8659 54.7133 25.3536 54.5852 24.6481C55.2907 24.7133 55.8682 25.0323 55.931 25.8659Z" fill="#231F20"/>
<path fill-rule="evenodd" clip-rule="evenodd" d="M55.9962 24.7133C55.1626 24.7133 54.7785 24.201 54.6504 23.4955C55.3535 23.4955 55.931 23.8797 55.9962 24.7133Z" fill="#231F20"/>
<path fill-rule="evenodd" clip-rule="evenodd" d="M56.059 23.4955C55.2254 23.4955 54.8412 22.9833 54.7131 22.2777C55.4187 22.3429 55.9962 22.6619 56.059 23.4955Z" fill="#231F20"/>
<path fill-rule="evenodd" clip-rule="evenodd" d="M56.1243 24.1358C57.0207 24.1358 57.4049 23.6236 57.5329 22.8552C56.8274 22.918 56.2523 23.3022 56.1243 24.1358Z" fill="#231F20"/>
<path fill-rule="evenodd" clip-rule="evenodd" d="M56.2524 25.4188C57.0836 25.3536 57.4702 24.8413 57.5983 24.1358C56.8927 24.201 56.3153 24.52 56.2524 25.4188Z" fill="#231F20"/>
<path fill-rule="evenodd" clip-rule="evenodd" d="M52.7922 27.5959C52.9203 28.3014 53.3045 28.8137 54.1381 28.8789C54.0728 27.9801 53.4954 27.6611 52.7922 27.5959Z" fill="#231F20"/>
<path fill-rule="evenodd" clip-rule="evenodd" d="M52.8552 26.4433C52.9833 27.1488 53.3675 27.6611 54.2011 27.6611C54.1382 26.8275 53.5608 26.5061 52.8552 26.4433Z" fill="#231F20"/>
<path fill-rule="evenodd" clip-rule="evenodd" d="M52.8552 25.2255C53.6236 25.2908 54.1382 25.6749 54.2663 26.5061C53.3675 26.5061 52.9833 25.9939 52.8552 25.2255Z" fill="#231F20"/>
<path fill-rule="evenodd" clip-rule="evenodd" d="M48.1145 37.9132C48.8176 37.976 49.3951 38.2974 49.4603 39.131C48.6267 39.131 48.2426 38.6187 48.1145 37.9132Z" fill="#231F20"/>
<path fill-rule="evenodd" clip-rule="evenodd" d="M48.2424 34.197C48.948 34.2598 49.523 34.644 49.5883 35.4776C48.7547 35.4776 48.3705 34.9654 48.2424 34.197Z" fill="#231F20"/>
<path fill-rule="evenodd" clip-rule="evenodd" d="M48.1772 35.4777C48.8828 35.5429 49.4603 35.8618 49.5883 36.7607C48.6895 36.6954 48.3053 36.1832 48.1772 35.4777Z" fill="#231F20"/>
<path fill-rule="evenodd" clip-rule="evenodd" d="M63.4285 39.131C63.6846 39.131 63.8779 38.9377 63.8779 38.6815C63.8779 38.4254 63.6846 38.2321 63.4285 38.2321C63.1724 38.2321 62.9163 38.4254 62.9163 38.6815C62.9163 38.9377 63.1724 39.131 63.4285 39.131Z" fill="#231F20"/>
<path fill-rule="evenodd" clip-rule="evenodd" d="M62.8511 38.1041L63.2353 38.2321L63.4286 37.848L63.5566 38.2321L64.0061 38.1041L63.8128 38.4907L64.1969 38.6816L63.8128 38.8096L64.0061 39.259L63.5566 39.0657L63.4286 39.4499L63.2353 39.0657L62.8511 39.259L62.9792 38.8096L62.595 38.6816L62.9792 38.4907L62.8511 38.1041Z" fill="#231F20"/>
<path fill-rule="evenodd" clip-rule="evenodd" d="M61.8894 42.6539C62.1479 42.6539 62.3388 42.3977 62.3388 42.1416C62.3388 41.8855 62.1479 41.6922 61.8894 41.6922C61.6333 41.6922 61.4424 41.8855 61.4424 42.1416C61.4424 42.3977 61.6333 42.6539 61.8894 42.6539Z" fill="#231F20"/>
<path fill-rule="evenodd" clip-rule="evenodd" d="M61.3144 41.5641L61.7614 41.7574L61.8895 41.3732L62.0828 41.7574L62.4669 41.5641L62.3389 42.0135L62.7231 42.1416L62.3389 42.3349L62.4669 42.7191L62.0828 42.591L61.8895 42.9752L61.7614 42.591L61.3144 42.7191L61.5053 42.3349L61.1211 42.1416L61.5053 42.0135L61.3144 41.5641Z" fill="#231F20"/>
<path fill-rule="evenodd" clip-rule="evenodd" d="M64.8371 46.37C65.0933 46.37 65.2866 46.1139 65.2866 45.8578C65.2866 45.6016 65.0933 45.4108 64.8371 45.4108C64.581 45.4108 64.3901 45.6016 64.3901 45.8578C64.3901 46.1139 64.581 46.37 64.8371 46.37Z" fill="#231F20"/>
<path fill-rule="evenodd" clip-rule="evenodd" d="M64.2622 45.2803L64.6464 45.4736L64.8373 45.0894L65.0306 45.4736L65.4148 45.2803L65.2215 45.7297L65.6709 45.8578L65.2215 46.0511L65.4148 46.4353L65.0306 46.3072L64.8373 46.6914L64.6464 46.3072L64.2622 46.4353L64.3903 46.0511L64.0061 45.8578L64.3903 45.7297L64.2622 45.2803Z" fill="#231F20"/>
<path fill-rule="evenodd" clip-rule="evenodd" d="M65.799 51.1131C66.0552 51.1131 66.2484 50.857 66.2484 50.6008C66.2484 50.4075 66.0552 50.1514 65.799 50.1514C65.5429 50.1514 65.3496 50.4075 65.3496 50.6008C65.3496 50.857 65.5429 51.1131 65.799 51.1131Z" fill="#231F20"/>
<path fill-rule="evenodd" clip-rule="evenodd" d="M65.2215 50.0234L65.6081 50.2167L65.7989 49.8325L65.9922 50.2167L66.3764 50.0234L66.2484 50.4728L66.6325 50.6009L66.2484 50.7918L66.3764 51.1759L65.9922 51.0479L65.7989 51.4321L65.6081 51.0479L65.2215 51.1759L65.3495 50.7918L64.9653 50.6009L65.3495 50.4728L65.2215 50.0234Z" fill="#231F20"/>
<path fill-rule="evenodd" clip-rule="evenodd" d="M64.5812 51.0479C64.7093 51.7534 64.5184 52.3937 63.75 52.7151C63.4915 51.8815 63.8781 51.3692 64.5812 51.0479Z" fill="#231F20"/>
<path fill-rule="evenodd" clip-rule="evenodd" d="M70.0297 49.0617C69.2589 48.9989 68.6814 48.6147 68.6814 47.7811C69.5802 47.7811 69.9644 48.3586 70.0297 49.0617Z" fill="#231F20"/>
<path fill-rule="evenodd" clip-rule="evenodd" d="M63.0444 46.1791C62.276 46.1139 61.6985 45.795 61.6333 44.9614C62.5321 44.9614 62.9163 45.4736 63.0444 46.1791Z" fill="#231F20"/>
<path fill-rule="evenodd" clip-rule="evenodd" d="M68.8749 38.2974C68.0413 38.2322 67.6571 37.7199 67.5291 37.0168C68.2346 37.0796 68.8097 37.401 68.8749 38.2974Z" fill="#231F20"/>
<path fill-rule="evenodd" clip-rule="evenodd" d="M64.2622 42.2697C63.4286 42.2697 62.9791 41.7574 62.8511 41.0519C63.6219 41.1171 64.1341 41.4361 64.2622 42.2697Z" fill="#231F20"/>
<path fill-rule="evenodd" clip-rule="evenodd" d="M66.5674 33.5543C65.6709 33.5543 65.2868 33.0445 65.1587 32.2737C65.9271 32.3389 66.4393 32.7231 66.5674 33.5543Z" fill="#231F20"/>
<path fill-rule="evenodd" clip-rule="evenodd" d="M73.4873 43.8088C72.7189 43.7436 72.1439 43.4222 72.0786 42.5258C72.975 42.5911 73.3592 43.1033 73.4873 43.8088Z" fill="#231F20"/>
<path fill-rule="evenodd" clip-rule="evenodd" d="M65.2866 38.1693C65.4147 38.8749 65.2214 39.5152 64.453 39.8341C64.1969 39.0029 64.6463 38.4907 65.2866 38.1693Z" fill="#231F20"/>
<path fill-rule="evenodd" clip-rule="evenodd" d="M66.3111 42.8472C66.4391 43.5527 66.2482 44.193 65.4775 44.512C65.2213 43.6808 65.6708 43.1661 66.3111 42.8472Z" fill="#231F20"/>
<path fill-rule="evenodd" clip-rule="evenodd" d="M62.8512 49.255C62.02 49.255 61.6334 48.7428 61.5054 47.972C62.2109 48.0372 62.7884 48.4214 62.8512 49.255Z" fill="#231F20"/>
<path fill-rule="evenodd" clip-rule="evenodd" d="M68.4253 54.5079C68.4253 53.5487 69.2589 52.7151 70.2206 52.7151C71.1822 52.7151 71.9506 53.5487 71.9506 54.5079C71.9506 55.4696 71.1822 56.3032 70.2206 56.3032C69.2589 56.3032 68.4253 55.4696 68.4253 54.5079ZM71.6292 54.5079C71.6292 53.7396 70.9889 53.0993 70.2206 53.0993C69.387 53.0993 68.7467 53.7396 68.7467 54.5079C68.7467 55.3415 69.387 55.919 70.2206 55.919C70.9889 55.919 71.6292 55.3415 71.6292 54.5079ZM71.117 55.4696H70.6676L70.2206 54.636H69.8364V55.4696H69.4522V53.5487H70.4139C70.5395 53.5487 70.7956 53.5487 70.9261 53.6768C71.117 53.7396 71.117 53.9329 71.117 54.1238C71.117 54.5079 70.9889 54.636 70.6047 54.636L71.117 55.4696ZM70.4139 54.3799C70.6047 54.3799 70.7956 54.3171 70.7956 54.1238C70.7956 53.8676 70.4767 53.8676 70.3486 53.8676H69.8364V54.3799H70.4139Z" fill="#231F20"/>
<path fill-rule="evenodd" clip-rule="evenodd" d="M116.293 92.2496C116.1 92.4429 114.754 93.4045 113.474 93.9168C113.602 93.7235 113.73 93.5954 113.858 93.4673C114.242 93.0203 114.435 92.5709 114.435 91.9306C114.37 91.2251 113.793 90.7757 113.408 90.2006C113.665 89.9445 114.177 89.4322 114.177 88.9828C114.177 88.8547 114.049 88.7267 113.921 88.7267C113.346 88.7267 113.087 89.367 113.087 89.8164C113.087 89.9445 113.215 90.2006 113.215 90.2006C112.447 91.3531 110.91 92.3776 110.526 92.7642C110.398 92.8923 109.948 93.4045 109.948 93.9168C109.883 94.4942 110.014 95.0065 110.845 95.0065C111.422 95.0065 112.319 94.7504 113.087 94.2357C114.754 93.7235 116.421 92.3776 116.421 92.3776L116.293 92.2496ZM110.654 94.8132C110.142 94.8132 110.076 94.3662 110.076 93.9796C110.142 93.5326 110.333 93.2112 110.589 93.0203C110.91 92.6362 112.447 91.6093 113.28 90.3286C113.28 90.3286 113.73 91.097 113.73 91.4812C113.858 93.0203 111.616 94.6851 110.654 94.8132Z" fill="#231F20"/>
<path fill-rule="evenodd" clip-rule="evenodd" d="M96.8139 92.1867C96.6206 92.3148 95.2747 93.2765 93.9917 93.7887C94.1222 93.6607 94.2502 93.4674 94.3783 93.3393C94.7625 92.8923 94.9558 92.4429 94.9558 91.8026C94.8905 91.097 94.3131 90.6476 93.9289 90.1354C94.185 89.8164 94.6972 89.3018 94.6972 88.9176C94.6972 88.7895 94.5692 88.5986 94.4411 88.5986C93.8661 88.5986 93.6099 89.2389 93.6099 89.6884C93.6099 89.8792 93.7356 90.0725 93.7356 90.0725C92.9672 91.2251 91.4305 92.3148 91.0463 92.6362C90.9182 92.827 90.4688 93.3393 90.4688 93.7887C90.406 94.3662 90.5341 94.8784 91.3677 94.8784C91.9427 94.8784 92.8392 94.6223 93.6099 94.1101C95.2747 93.5954 96.9419 92.2496 96.9419 92.2496L96.8139 92.1867ZM91.1744 94.6851C90.6621 94.7504 90.5969 94.301 90.5969 93.8515C90.6621 93.4674 90.853 93.1484 91.1091 92.8923C91.4305 92.5057 92.9672 91.4812 93.8008 90.2006C93.8008 90.2006 94.2502 90.969 94.2502 91.3531C94.3783 92.8923 92.136 94.6223 91.1744 94.6851Z" fill="#231F20"/>
<path fill-rule="evenodd" clip-rule="evenodd" d="M42.8591 92.1867C42.603 92.3776 41.3224 93.3393 39.9765 93.7887C40.1046 93.6606 40.2955 93.5326 40.3607 93.3393C40.7449 92.8923 41.001 92.5057 40.9358 91.8025C40.873 91.097 40.2955 90.6476 39.9113 90.1353C40.1674 89.8792 40.6797 89.367 40.6797 88.9176C40.6797 88.7895 40.5516 88.6614 40.4235 88.6614C39.9113 88.6614 39.6552 89.3017 39.6552 89.7512C39.6552 89.8792 39.7204 90.1353 39.7204 90.1353C38.9496 91.2903 37.4782 92.3148 37.0916 92.699C36.9007 92.827 36.5165 93.3393 36.4513 93.8515C36.3884 94.429 36.5165 94.8784 37.3501 94.8784C37.9252 94.8784 38.8216 94.6851 39.5924 94.1101C41.2571 93.6606 42.9244 92.3148 42.9244 92.3148L42.8591 92.1867ZM37.1568 94.6851C36.6445 94.7504 36.5793 94.3009 36.6445 93.8515C36.6445 93.4673 36.9007 93.1484 37.0916 92.8923C37.4129 92.5057 38.9496 91.4812 39.8485 90.2634C39.8485 90.2634 40.2327 90.9689 40.2327 91.4184C40.3607 92.9551 38.1813 94.6223 37.1568 94.6851Z" fill="#231F20"/>
</g>
<defs>
<clipPath id="clip0_1_1551">
<rect width="120" height="120" fill="white"/>
</clipPath>
</defs>
</svg>
