<svg width="622" height="473" viewBox="0 0 622 473" fill="none" xmlns="http://www.w3.org/2000/svg">
<path d="M23.4922 471.791L0.520992 191.17C-0.0650477 184.018 1.92974 176.892 6.14619 171.075L120.762 12.9967C123.825 8.77262 127.936 5.41338 132.693 3.2486C137.45 1.08382 142.689 0.187234 147.898 0.646755L540.3 35.1182C546.508 35.6651 552.398 38.1132 557.156 42.1273C561.919 46.1409 565.315 51.5238 566.883 57.5376L620.783 264.322C622.106 269.407 622.071 274.749 620.685 279.817L567.931 472.489L23.4922 471.791Z" fill="#F4F4F4"/>
<path opacity="0.5" d="M594.69 164.287L394.872 427.45H425.998L602.848 195.575L594.69 164.287Z" fill="white"/>
<path opacity="0.5" d="M236.014 8.38672L10.1831 309.239L15.3967 372.908L296.769 13.7242L236.014 8.38672Z" fill="white"/>
<path opacity="0.5" d="M382.593 427.45L592.049 154.154L590.353 147.791L376.351 427.45H382.593Z" fill="white"/>
<path d="M254.09 175.91L305.462 155.859L410.558 122.808C416.457 120.93 422.617 119.989 428.81 120.02C434.69 120.069 441.3 121.045 445.647 124.415C446.249 124.883 446.676 125.546 446.842 126.29C447.014 127.034 446.921 127.815 446.578 128.497C445.029 131.54 439.473 136.589 420.652 141.531L349.763 162.92C324.211 170.648 298.065 176.267 271.588 179.719L269.937 179.929C269.937 179.929 263.998 190.022 260.74 191.937C260.719 191.95 260.696 191.961 260.671 191.966L255.884 193.05C255.847 193.058 255.808 193.057 255.771 193.046C255.734 193.035 255.701 193.016 255.674 192.989C255.647 192.963 255.627 192.93 255.615 192.893C255.604 192.857 255.602 192.819 255.609 192.781L258.339 180.353L253.988 176.447C253.951 176.408 253.923 176.361 253.909 176.309C253.894 176.258 253.891 176.204 253.901 176.152C253.911 176.099 253.934 176.05 253.967 176.008C253.999 175.966 254.042 175.932 254.09 175.91Z" fill="#0A4DB1"/>
<path opacity="0.5" d="M254.09 175.91L305.462 155.859L410.558 122.808C416.457 120.93 422.617 119.989 428.81 120.02C434.69 120.069 441.3 121.045 445.647 124.415C446.249 124.883 446.676 125.546 446.842 126.29C447.014 127.034 446.921 127.815 446.578 128.497C445.029 131.54 439.473 136.589 420.652 141.531L349.763 162.92C324.211 170.648 298.065 176.267 271.588 179.719L269.937 179.929C269.937 179.929 263.998 190.022 260.74 191.937C260.719 191.95 260.696 191.961 260.671 191.966L255.884 193.05C255.847 193.058 255.808 193.057 255.771 193.046C255.734 193.035 255.701 193.016 255.674 192.989C255.647 192.963 255.627 192.93 255.615 192.893C255.604 192.857 255.602 192.819 255.609 192.781L258.339 180.353L253.988 176.447C253.951 176.408 253.923 176.361 253.909 176.309C253.894 176.258 253.891 176.204 253.901 176.152C253.911 176.099 253.934 176.05 253.967 176.008C253.999 175.966 254.042 175.932 254.09 175.91Z" fill="white"/>
<path d="M243.903 159.575L253.939 156.542L286.916 166.753L258.398 177.155L243.903 159.575Z" fill="#ECECEC"/>
<path d="M243.903 159.575L253.939 156.542L286.916 166.753L258.398 177.155L243.903 159.575Z" fill="#0A4DB1"/>
<path opacity="0.5" d="M243.903 159.575L253.939 156.542L286.916 166.753L258.398 177.155L243.903 159.575Z" fill="white"/>
<path opacity="0.2" d="M243.903 159.575L253.939 156.542L286.916 166.753L258.398 177.155L243.903 159.575Z" fill="black"/>
<path d="M325.939 109.057L332.446 109.174L367.526 136.34L344.084 143.709L325.939 109.057Z" fill="#0A4DB1"/>
<path d="M346.059 160.268L335.754 208.052L349.489 201.664L369.593 152.186L346.059 160.268Z" fill="#0A4DB1"/>
<path opacity="0.5" d="M325.939 109.057L332.446 109.174L367.526 136.34L344.084 143.709L325.939 109.057Z" fill="white"/>
<path opacity="0.5" d="M346.059 160.268L335.754 208.052L349.489 201.664L369.593 152.186L346.059 160.268Z" fill="white"/>
<path opacity="0.2" d="M420.652 141.546L409.73 140.066L369.594 152.186L367.34 157.719L420.652 141.546Z" fill="black"/>
<path opacity="0.2" d="M346.059 160.268L286.72 177.663C286.72 177.663 315.826 173.155 345.118 164.331L346.059 160.268Z" fill="black"/>
<path opacity="0.2" d="M340.497 186.042L358.201 180.217L349.489 201.664L335.754 208.052L340.497 186.042Z" fill="black"/>
<path opacity="0.2" d="M325.939 109.057L332.446 109.174L355.133 126.744L337.979 132.052L325.939 109.057Z" fill="black"/>
<path d="M444.26 123.462L438.973 125.172L438.899 129.21L446.862 126.427C446.269 125.23 445.372 124.208 444.26 123.462Z" fill="white"/>
<path d="M420.206 131.028L417.947 131.642L418.653 134.219L420.912 133.605L420.206 131.028Z" fill="white"/>
<path d="M416.105 132.253L413.846 132.868L414.551 135.445L416.81 134.831L416.105 132.253Z" fill="white"/>
<path d="M412.018 133.483L409.759 134.097L410.465 136.674L412.724 136.06L412.018 133.483Z" fill="white"/>
<path d="M407.919 134.709L405.659 135.323L406.364 137.9L408.622 137.286L407.919 134.709Z" fill="white"/>
<path d="M403.831 135.938L401.571 136.552L402.276 139.13L404.535 138.515L403.831 135.938Z" fill="white"/>
<path d="M399.736 137.168L397.476 137.782L398.181 140.359L400.441 139.745L399.736 137.168Z" fill="white"/>
<path d="M395.643 138.399L393.383 139.013L394.088 141.59L396.348 140.976L395.643 138.399Z" fill="white"/>
<path d="M391.549 139.623L389.289 140.237L389.994 142.815L392.254 142.2L391.549 139.623Z" fill="white"/>
<path d="M387.455 140.848L385.195 141.462L385.9 144.039L388.159 143.425L387.455 140.848Z" fill="white"/>
<path d="M383.361 142.079L381.102 142.693L381.807 145.27L384.067 144.656L383.361 142.079Z" fill="white"/>
<path d="M379.267 143.303L377.008 143.917L377.713 146.495L379.972 145.88L379.267 143.303Z" fill="white"/>
<path d="M372.378 144.954L370.129 145.561L370.826 148.125L373.075 147.518L372.378 144.954Z" fill="white"/>
<path d="M371.08 145.759L368.82 146.373L369.525 148.95L371.785 148.336L371.08 145.759Z" fill="white"/>
<path d="M366.985 146.984L364.726 147.597L365.431 150.175L367.691 149.561L366.985 146.984Z" fill="white"/>
<path d="M360.144 148.579L357.896 149.186L358.592 151.751L360.841 151.144L360.144 148.579Z" fill="white"/>
<path d="M358.798 149.439L356.539 150.053L357.243 152.63L359.503 152.016L358.798 149.439Z" fill="white"/>
<path d="M354.711 150.668L352.451 151.282L353.156 153.86L355.416 153.245L354.711 150.668Z" fill="white"/>
<path d="M350.617 151.893L348.357 152.507L349.062 155.084L351.322 154.47L350.617 151.893Z" fill="white"/>
<path d="M346.523 153.124L344.264 153.738L344.969 156.315L347.228 155.701L346.523 153.124Z" fill="white"/>
<path d="M342.429 154.354L340.169 154.967L340.874 157.545L343.134 156.93L342.429 154.354Z" fill="white"/>
<path d="M338.335 155.578L336.075 156.192L336.781 158.769L339.04 158.155L338.335 155.578Z" fill="white"/>
<path d="M334.242 156.809L331.982 157.423L332.687 160L334.947 159.386L334.242 156.809Z" fill="white"/>
<path opacity="0.5" d="M566.863 57.5374C565.295 51.5266 561.904 46.1461 557.146 42.1325C552.393 38.1189 546.508 35.6689 540.3 35.1181L498.88 31.48L187.858 427.45H286.917L571.116 73.9406L566.863 57.5374Z" fill="white"/>
<path opacity="0.5" d="M319.055 15.6824L18.2932 408.263L19.92 438.164L343.144 17.7969L319.055 15.6824Z" fill="white"/>
<path d="M568.96 65.595H82.6307L76.6086 73.8966H571.126L568.96 65.595Z" fill="#DADDDF"/>
<path d="M568.96 65.595H82.6307L76.6086 73.8966H571.126L568.96 65.595Z" fill="#DADDDF"/>
<path opacity="0.15" d="M568.96 65.595H82.6307L76.6086 73.8966H571.126L568.96 65.595Z" fill="black"/>
<path d="M13.104 344.922L13.7851 353.223H600.575L602.848 344.922H13.104Z" fill="#DADDDF"/>
<path opacity="0.15" d="M13.104 344.922L13.7851 353.223H600.575L602.848 344.922H13.104Z" fill="black"/>
<path d="M204.65 5.62776L196.32 4.89526V459.192H204.65V5.62776Z" fill="#DADDDF"/>
<path opacity="0.15" d="M204.65 5.62776L202.2 4.89526V459.192H204.65V5.62776Z" fill="black"/>
<path d="M568.96 65.595H82.6306L81.0186 67.5483H569.656L568.96 65.595Z" fill="#DADDDF"/>
<path d="M602.77 344.922H13.0503L13.3982 346.875H602.486L602.77 344.922Z" fill="#DADDDF"/>
<path opacity="0.15" d="M204.65 5.62776L196.32 4.89526V459.192H204.65V5.62776Z" fill="black"/>
<path d="M204.65 67.5483V73.8967L202.083 73.9553V67.5483H204.65Z" fill="#DADDDF"/>
<path opacity="0.15" d="M204.65 67.5483V73.8967L202.083 73.9553V67.5483H204.65Z" fill="black"/>
<path opacity="0.15" d="M204.65 65.595L202.2 65.5754V67.5483" fill="black"/>
<path d="M202.2 67.5483L204.65 65.595V67.5483H202.2Z" fill="#DADDDF"/>
<path opacity="0.15" d="M202.2 346.875L204.65 344.922H202.2V346.875Z" fill="black"/>
<path d="M204.65 344.922V346.875H202.2L204.65 344.922Z" fill="#DADDDF"/>
<path d="M202.2 346.875H204.65V353.223L202.142 353.243L202.2 346.875Z" fill="#DADDDF"/>
<path opacity="0.15" d="M202.2 346.875H204.65V353.223L202.142 353.243L202.2 346.875Z" fill="black"/>
<path d="M462.39 28.2764L454.06 27.5439V459.191H462.39V28.2764Z" fill="#DADDDF"/>
<path opacity="0.15" d="M462.39 28.2766L459.94 28.0618V459.192H462.39V28.2766Z" fill="black"/>
<path opacity="0.15" d="M462.39 28.2764L454.06 27.5439V459.191H462.39V28.2764Z" fill="black"/>
<path d="M462.39 67.5483V73.8967L459.822 73.9553V67.5483H462.39Z" fill="#DADDDF"/>
<path opacity="0.15" d="M462.39 67.5483V73.8967L459.822 73.9553V67.5483H462.39Z" fill="black"/>
<path d="M459.94 67.5483L462.39 65.595V67.5483H459.94Z" fill="#DADDDF"/>
<path d="M462.39 344.922V346.875H459.94L462.39 344.922Z" fill="#DADDDF"/>
<path d="M459.94 346.875H462.39V353.223L459.881 353.243L459.94 346.875Z" fill="#DADDDF"/>
<path opacity="0.15" d="M459.94 346.875H462.39V353.223L459.881 353.243L459.94 346.875Z" fill="black"/>
<path d="M20.4099 433.798L19.9199 427.45H580.48L578.52 433.798H20.4099Z" fill="#DADDDF"/>
<path d="M23.9477 471.888L20.8999 433.798H579.01L568.71 471.888H23.9477Z" fill="#DADDDF"/>
<path opacity="0.15" d="M23.9477 471.888L20.8999 433.798H579.01L568.71 471.888H23.9477Z" fill="black"/>
<path opacity="0.1" d="M23.3157 464.002H570.719L568.71 471.888H23.9478L23.3157 464.002Z" fill="black"/>
<path d="M447.2 462.122H210.53L205.63 464.075H452.1L447.2 462.122Z" fill="#B2B6BB"/>
<path d="M439.85 395.713H434.46V464.075H439.85V395.713Z" fill="#B2B6BB"/>
<path opacity="0.2" d="M439.85 395.713H434.46V464.075H439.85V395.713Z" fill="black"/>
<path d="M434.46 395.655H431.52V463.972H434.46V395.655Z" fill="#B2B6BB"/>
<path opacity="0.2" d="M434.46 395.655H431.52V463.972H434.46V395.655Z" fill="black"/>
<path opacity="0.2" d="M434.46 395.655H431.52V463.972H434.46V395.655Z" fill="black"/>
<path d="M367.82 395.713H362.43V464.075H367.82V395.713Z" fill="#B2B6BB"/>
<path opacity="0.2" d="M367.82 395.713H362.43V464.075H367.82V395.713Z" fill="black"/>
<path d="M362.43 395.655H359.49V463.972H362.43V395.655Z" fill="#B2B6BB"/>
<path opacity="0.2" d="M362.43 395.655H359.49V463.972H362.43V395.655Z" fill="black"/>
<path opacity="0.2" d="M362.43 395.655H359.49V463.972H362.43V395.655Z" fill="black"/>
<path d="M215.92 464.075H221.31V395.713H215.92V464.075Z" fill="#B2B6BB"/>
<path opacity="0.2" d="M215.92 464.075H221.31V395.713H215.92V464.075Z" fill="black"/>
<path d="M224.25 395.655H221.31V463.972H224.25V395.655Z" fill="#B2B6BB"/>
<path opacity="0.2" d="M224.25 395.655H221.31V463.972H224.25V395.655Z" fill="black"/>
<path opacity="0.2" d="M224.25 395.655H221.31V463.972H224.25V395.655Z" fill="black"/>
<path d="M289.91 464.075H295.3V395.713H289.91V464.075Z" fill="#B2B6BB"/>
<path opacity="0.2" d="M289.91 464.075H295.3V395.713H289.91V464.075Z" fill="black"/>
<path d="M298.24 395.655H295.3V463.972H298.24V395.655Z" fill="#B2B6BB"/>
<path opacity="0.2" d="M298.24 395.655H295.3V463.972H298.24V395.655Z" fill="black"/>
<path opacity="0.2" d="M298.24 395.655H295.3V463.972H298.24V395.655Z" fill="black"/>
<path d="M443.77 387.758H212.735V399.556H443.77V387.758Z" fill="#B2B6BB"/>
<path opacity="0.2" d="M443.77 387.758H212.735V399.556H443.77V387.758Z" fill="black"/>
<path d="M242.659 320.559H274.45C278.089 320.559 281.579 321.999 284.152 324.563C286.725 327.128 288.17 330.606 288.17 334.232V389.316H228.958V334.212C228.964 330.593 230.409 327.123 232.977 324.563C235.546 322.004 239.027 320.564 242.659 320.559Z" fill="#B2B6BB"/>
<path opacity="0.2" d="M242.659 320.559H274.45C278.089 320.559 281.579 321.999 284.152 324.563C286.725 327.128 288.17 330.606 288.17 334.232V389.316H228.958V334.212C228.964 330.593 230.409 327.123 232.977 324.563C235.546 322.004 239.027 320.564 242.659 320.559Z" fill="black"/>
<path opacity="0.5" d="M244.374 325.388H272.76C275.619 325.388 278.361 326.52 280.383 328.535C282.404 330.549 283.54 333.282 283.54 336.132V380.082H233.56V336.132C233.56 334.718 233.84 333.318 234.384 332.012C234.928 330.707 235.725 329.521 236.729 328.523C237.734 327.525 238.927 326.734 240.238 326.196C241.551 325.658 242.956 325.384 244.374 325.388Z" fill="white"/>
<path d="M312.239 320.559H344.03C347.669 320.559 351.158 321.999 353.731 324.563C356.304 327.128 357.75 330.606 357.75 334.232V389.316H298.538V334.212C298.544 330.593 299.989 327.123 302.557 324.563C305.125 322.004 308.607 320.564 312.239 320.559Z" fill="#B2B6BB"/>
<path opacity="0.2" d="M312.239 320.559H344.03C347.669 320.559 351.158 321.999 353.731 324.563C356.304 327.128 357.75 330.606 357.75 334.232V389.316H298.538V334.212C298.544 330.593 299.989 327.123 302.557 324.563C305.125 322.004 308.607 320.564 312.239 320.559Z" fill="black"/>
<path opacity="0.5" d="M313.954 325.388H342.34C345.199 325.388 347.941 326.52 349.962 328.535C351.984 330.549 353.12 333.282 353.12 336.132V384.477H303.14V336.132C303.14 334.718 303.42 333.318 303.964 332.012C304.507 330.707 305.305 329.521 306.309 328.523C307.314 327.525 308.506 326.734 309.818 326.196C311.13 325.658 312.536 325.384 313.954 325.388Z" fill="white"/>
<path d="M381.819 320.559H413.61C417.251 320.559 420.74 321.999 423.312 324.563C425.885 327.128 427.33 330.606 427.33 334.232V389.316H368.118V334.212C368.124 330.593 369.569 327.123 372.137 324.563C374.705 322.004 378.187 320.564 381.819 320.559Z" fill="#B2B6BB"/>
<path opacity="0.2" d="M381.819 320.559H413.61C417.251 320.559 420.74 321.999 423.312 324.563C425.885 327.128 427.33 330.606 427.33 334.232V389.316H368.118V334.212C368.124 330.593 369.569 327.123 372.137 324.563C374.705 322.004 378.187 320.564 381.819 320.559Z" fill="black"/>
<path opacity="0.5" d="M383.534 325.388H411.92C414.777 325.388 417.521 326.52 419.544 328.535C421.563 330.549 422.7 333.282 422.7 336.132V382.523H372.72V336.132C372.72 334.718 373 333.318 373.544 332.012C374.088 330.707 374.885 329.521 375.889 328.523C376.894 327.525 378.086 326.734 379.398 326.196C380.71 325.658 382.116 325.384 383.534 325.388Z" fill="white"/>
<path d="M443.77 387.763H212.98L228.89 374.222H427.384L443.77 387.763Z" fill="#DADDDF"/>
<path d="M220.79 384.965H216.135V361.706L228.826 357.169L233.53 357.13L220.79 362.013V384.965Z" fill="#B2B6BB"/>
<g opacity="0.2">
<path opacity="0.2" d="M220.79 384.965H216.135V361.706L228.826 357.169L233.53 357.13L220.79 362.013V384.965Z" fill="black"/>
</g>
<path d="M223.73 382.523L220.79 384.965V362.013L233.53 357.13V360.451L223.73 363.967V382.523Z" fill="#B2B6BB"/>
<path opacity="0.2" d="M223.73 382.523L220.79 384.965V362.013L233.53 357.13V360.451L223.73 363.967V382.523Z" fill="black"/>
<path opacity="0.1" d="M223.73 382.523L220.79 384.965V362.013L233.53 357.13V360.451L223.73 363.967V382.523Z" fill="black"/>
<path opacity="0.2" d="M233.56 357.13H228.875L216.135 361.72L220.82 362.013L233.56 357.13Z" fill="white"/>
<path d="M435.685 384.965H440.34V361.706L427.649 357.169L422.945 357.13L435.685 362.013V384.965Z" fill="#B2B6BB"/>
<g opacity="0.2">
<path opacity="0.2" d="M435.685 384.965H440.34V361.706L427.649 357.169L422.945 357.13L435.685 362.013V384.965Z" fill="black"/>
</g>
<path d="M432.745 382.523L435.685 384.965V362.013L422.945 357.13V360.451L432.745 363.967V382.523Z" fill="#B2B6BB"/>
<path opacity="0.2" d="M432.745 382.523L435.685 384.965V362.013L422.945 357.13V360.451L432.745 363.967V382.523Z" fill="black"/>
<path opacity="0.1" d="M432.745 382.523L435.685 384.965V362.013L422.945 357.13V360.451L432.745 363.967V382.523Z" fill="black"/>
<path opacity="0.2" d="M422.916 357.13H427.6L440.34 361.72L435.656 362.013L422.916 357.13Z" fill="white"/>
<path d="M302.65 361.037H295.3V384.477H302.65V361.037Z" fill="#B2B6BB"/>
<path opacity="0.2" d="M302.65 361.037H295.3V384.477H302.65V361.037Z" fill="black"/>
<path d="M302.65 361.037H295.3L298.73 357.13H303.14L302.65 361.037Z" fill="#B2B6BB"/>
<path opacity="0.2" d="M302.65 361.037H295.3L298.73 357.13H303.14L302.65 361.037Z" fill="black"/>
<path opacity="0.2" d="M302.65 361.037H295.3L298.73 357.13H303.14L302.65 361.037Z" fill="white"/>
<path d="M372.23 360.548H364.88V383.988H372.23V360.548Z" fill="#B2B6BB"/>
<path opacity="0.2" d="M372.23 360.548H364.88V383.988H372.23V360.548Z" fill="black"/>
<path d="M372.23 360.548H364.88L368.31 356.642H372.72L372.23 360.548Z" fill="#B2B6BB"/>
<path opacity="0.2" d="M372.23 360.548H364.88L368.31 356.642H372.72L372.23 360.548Z" fill="black"/>
<path opacity="0.2" d="M372.23 360.548H364.88L368.31 356.642H372.72L372.23 360.548Z" fill="white"/>
<path d="M284.03 384.477H291.38V361.037H284.03V384.477Z" fill="#B2B6BB"/>
<path opacity="0.2" d="M284.03 384.477H291.38V361.037H284.03V384.477Z" fill="black"/>
<path d="M284.03 361.037H291.38L287.95 357.13H283.54L284.03 361.037Z" fill="#B2B6BB"/>
<path opacity="0.2" d="M284.03 361.037H291.38L287.95 357.13H283.54L284.03 361.037Z" fill="black"/>
<path opacity="0.2" d="M284.03 361.037H291.38L287.95 357.13H283.54L284.03 361.037Z" fill="white"/>
<path d="M353.61 384.477H360.96V361.037H353.61V384.477Z" fill="#B2B6BB"/>
<path opacity="0.2" d="M353.61 384.477H360.96V361.037H353.61V384.477Z" fill="black"/>
<path d="M353.61 361.037H360.96L357.53 357.13H353.12L353.61 361.037Z" fill="#B2B6BB"/>
<path opacity="0.2" d="M353.61 361.037H360.96L357.53 357.13H353.12L353.61 361.037Z" fill="black"/>
<path opacity="0.2" d="M353.61 361.037H360.96L357.53 357.13H353.12L353.61 361.037Z" fill="white"/>
<path d="M452.1 464.075H205.63V472.377H452.1V464.075Z" fill="#B2B6BB"/>
<path opacity="0.2" d="M452.1 464.075H205.63V472.377H452.1V464.075Z" fill="black"/>
<path d="M403.423 240.994C421.397 243.49 419.535 263.096 417.57 312.779C417.57 312.779 382.241 321.379 382.941 312.779C385.509 281.121 372.749 237.937 402.625 240.941C402.889 240.96 403.159 240.955 403.423 240.994Z" fill="#21252B"/>
<path d="M388.175 289.921L388.832 333.036H414.429V289.974L388.175 289.921Z" fill="#F4F4F4"/>
<path d="M401.081 301.631L410.881 287.249C410.489 287.13 410.141 286.9 409.882 286.585C409.617 286.271 409.455 285.887 409.411 285.482L408.74 280.022L408.221 275.993L406.417 261.417L406.363 260.699L394.015 263.956L392.207 285.75C392.181 286.193 392.018 286.616 391.739 286.962C391.461 287.307 391.082 287.558 390.654 287.679L401.081 301.631Z" fill="#FC9D9D"/>
<path opacity="0.15" d="M396.313 281.38C397.599 281.926 398.983 282.202 400.38 282.19C400.841 282.186 401.301 282.153 401.757 282.093C402.68 282.459 403.66 282.663 404.653 282.698C406.199 282.593 407.726 282.293 409.196 281.805L408.49 277.532C407.726 278.24 406.04 279.91 405.06 280.369C403.666 280.971 402.169 281.303 400.65 281.346H400.346C399.053 281.352 397.771 281.093 396.583 280.584C396.537 280.565 396.488 280.555 396.439 280.555C396.389 280.555 396.34 280.565 396.295 280.584C396.249 280.603 396.208 280.631 396.173 280.666C396.138 280.702 396.111 280.743 396.093 280.789C396.079 280.898 396.092 281.008 396.131 281.111C396.169 281.214 396.232 281.306 396.313 281.38Z" fill="black"/>
<path d="M400.586 281.341C398.042 281.323 395.6 280.34 393.757 278.594C391.913 276.847 390.805 274.466 390.658 271.935L389.433 251.372L412.18 251.518L410.656 272.028C410.494 274.57 409.357 276.953 407.484 278.686C405.611 280.418 403.142 281.368 400.586 281.341Z" fill="#FC9D9D"/>
<path d="M396.24 268.161C396.474 268.161 396.703 268.093 396.897 267.965C397.092 267.836 397.244 267.652 397.334 267.437C397.424 267.222 397.448 266.986 397.404 266.757C397.359 266.528 397.246 266.318 397.081 266.153C396.917 265.988 396.706 265.876 396.477 265.83C396.248 265.784 396.01 265.807 395.794 265.896C395.578 265.985 395.393 266.136 395.263 266.329C395.133 266.523 395.064 266.751 395.064 266.984C395.064 267.295 395.187 267.594 395.408 267.814C395.628 268.035 395.927 268.159 396.24 268.161Z" fill="#21252B"/>
<path d="M396.754 266.985C396.819 266.985 396.882 266.959 396.928 266.913C396.974 266.867 397 266.805 397 266.74C396.998 266.675 396.972 266.614 396.927 266.568C396.881 266.523 396.819 266.497 396.754 266.495C396.689 266.495 396.627 266.521 396.581 266.567C396.535 266.613 396.509 266.675 396.509 266.74C396.509 266.805 396.535 266.867 396.581 266.913C396.627 266.959 396.689 266.985 396.754 266.985Z" fill="white"/>
<path d="M405.447 268.161C405.681 268.161 405.91 268.093 406.105 267.965C406.3 267.836 406.451 267.652 406.542 267.437C406.632 267.222 406.656 266.986 406.611 266.757C406.566 266.528 406.454 266.318 406.289 266.153C406.124 265.988 405.913 265.876 405.684 265.83C405.455 265.784 405.218 265.807 405.002 265.896C404.785 265.985 404.601 266.136 404.47 266.329C404.341 266.523 404.271 266.751 404.271 266.984C404.271 267.295 404.395 267.594 404.615 267.814C404.836 268.035 405.135 268.159 405.447 268.161Z" fill="#21252B"/>
<path d="M405.991 266.936C406.057 266.936 406.119 266.91 406.165 266.864C406.211 266.818 406.237 266.756 406.237 266.691C406.236 266.627 406.209 266.565 406.164 266.519C406.118 266.474 406.056 266.448 405.991 266.447C405.927 266.447 405.864 266.472 405.818 266.518C405.772 266.564 405.746 266.626 405.746 266.691C405.746 266.756 405.772 266.818 405.818 266.864C405.864 266.91 405.927 266.936 405.991 266.936Z" fill="white"/>
<g opacity="0.3">
<path opacity="0.3" d="M401.028 271.398H399.994C399.903 271.398 399.816 271.362 399.751 271.298C399.687 271.234 399.651 271.147 399.651 271.056C399.651 270.966 399.687 270.879 399.751 270.815C399.816 270.751 399.903 270.715 399.994 270.715H401.028C401.208 270.694 401.374 270.608 401.495 270.472C401.616 270.338 401.682 270.163 401.682 269.982C401.682 269.801 401.616 269.627 401.495 269.491C401.374 269.356 401.208 269.271 401.028 269.25C400.937 269.25 400.849 269.213 400.785 269.149C400.721 269.085 400.685 268.999 400.685 268.908C400.685 268.817 400.721 268.73 400.785 268.666C400.849 268.602 400.937 268.566 401.028 268.566C401.222 268.555 401.416 268.583 401.599 268.649C401.781 268.715 401.948 268.818 402.09 268.951C402.231 269.083 402.343 269.244 402.42 269.421C402.497 269.599 402.537 269.791 402.537 269.984C402.537 270.178 402.497 270.37 402.42 270.548C402.343 270.725 402.231 270.885 402.09 271.018C401.948 271.151 401.781 271.254 401.599 271.32C401.416 271.386 401.222 271.414 401.028 271.403V271.398Z" fill="black"/>
</g>
<path d="M410.94 268.854C410.94 268.854 414.772 268.512 414.968 264.64C415.164 260.767 410.401 260.87 410.352 264.737L410.548 268.952L410.94 268.854Z" fill="#FC9D9D"/>
<path opacity="0.3" d="M411.739 263.858C411.788 263.661 411.881 263.477 412.008 263.317C412.136 263.158 412.292 263.026 412.474 262.931C412.655 262.861 412.856 262.834 413.052 262.85C413.248 262.868 413.434 262.928 413.606 263.028C413.674 263.063 413.728 263.122 413.757 263.195C413.782 263.267 413.782 263.347 413.753 263.419C413.704 263.517 413.655 263.565 413.606 263.565C413.576 263.589 413.542 263.602 413.508 263.602C413.473 263.602 413.434 263.589 413.41 263.565C413.116 263.419 412.92 263.37 412.719 263.468C412.513 263.613 412.361 263.817 412.278 264.054C412.18 264.389 412.131 264.735 412.131 265.084C412.126 265.16 412.091 265.231 412.038 265.285C411.984 265.339 411.91 265.371 411.837 265.377C411.753 265.368 411.675 265.328 411.621 265.265C411.567 265.201 411.538 265.119 411.543 265.035C411.533 264.634 411.601 264.235 411.739 263.858Z" fill="black"/>
<path d="M411.959 268.126C412.14 268.092 412.302 267.989 412.405 267.84C412.513 267.691 412.557 267.507 412.532 267.325C412.532 266.896 412.248 266.549 411.925 266.559C411.601 266.569 411.342 266.92 411.352 267.355C411.361 267.789 411.636 268.131 411.959 268.126Z" fill="#0A4DB1"/>
<path opacity="0.15" d="M411.739 267.97C411.832 267.956 411.925 267.923 412.003 267.873C412.087 267.824 412.155 267.758 412.209 267.68C412.268 267.602 412.302 267.515 412.327 267.422C412.346 267.329 412.346 267.233 412.327 267.14C412.317 266.989 412.283 266.841 412.229 266.7C412.312 266.783 412.376 266.883 412.42 266.992C412.459 267.101 412.479 267.218 412.474 267.335C412.474 267.775 412.229 268.117 411.886 268.117C411.822 268.118 411.758 268.106 411.7 268.081C411.641 268.056 411.587 268.018 411.543 267.97H411.739Z" fill="black"/>
<path d="M390.316 268.854C390.316 268.854 386.484 268.512 386.288 264.64C386.092 260.767 390.855 260.87 390.909 264.737L390.708 268.952L390.316 268.854Z" fill="#FC9D9D"/>
<path opacity="0.3" d="M389.581 263.858C389.521 263.658 389.419 263.473 389.284 263.313C389.148 263.153 388.981 263.023 388.793 262.931C388.601 262.861 388.397 262.834 388.194 262.85C387.991 262.868 387.794 262.928 387.617 263.028C387.548 263.063 387.494 263.122 387.467 263.195C387.439 263.268 387.44 263.347 387.47 263.419C387.519 263.517 387.568 263.565 387.617 263.565C387.644 263.589 387.678 263.603 387.715 263.603C387.751 263.603 387.786 263.589 387.813 263.565C388.107 263.419 388.352 263.37 388.499 263.468C388.612 263.525 388.711 263.608 388.788 263.709C388.865 263.811 388.917 263.929 388.94 264.054C389.029 264.392 389.094 264.736 389.136 265.084C389.141 265.161 389.175 265.233 389.23 265.287C389.285 265.34 389.358 265.373 389.435 265.377C389.518 265.368 389.595 265.328 389.65 265.265C389.704 265.201 389.733 265.119 389.728 265.035C389.803 264.637 389.752 264.226 389.581 263.858Z" fill="black"/>
<path d="M389.924 267.321C389.924 266.886 389.679 266.53 389.351 266.525C389.022 266.52 388.753 266.862 388.743 267.291C388.717 267.473 388.762 267.657 388.869 267.806C388.976 267.955 389.136 268.058 389.316 268.092C389.645 268.097 389.914 267.765 389.924 267.321Z" fill="#0A4DB1"/>
<path opacity="0.15" d="M389.532 267.97C389.438 267.956 389.348 267.923 389.266 267.873C389.185 267.824 389.114 267.758 389.059 267.681C389.004 267.603 388.965 267.515 388.944 267.422C388.923 267.329 388.922 267.233 388.94 267.14C388.948 266.989 388.983 266.84 389.042 266.7C388.958 266.782 388.892 266.882 388.849 266.991C388.806 267.1 388.787 267.218 388.793 267.335C388.793 267.775 389.042 268.117 389.385 268.117C389.45 268.118 389.514 268.106 389.573 268.081C389.632 268.056 389.685 268.018 389.728 267.97H389.532Z" fill="black"/>
<path d="M403.83 273.308C403.865 273.309 403.899 273.317 403.929 273.334C403.959 273.351 403.985 273.375 404.005 273.403C404.024 273.432 404.036 273.465 404.04 273.5C404.043 273.534 404.039 273.568 404.026 273.601C403.75 274.173 403.318 274.656 402.779 274.994C402.24 275.332 401.615 275.511 400.978 275.511C400.341 275.511 399.717 275.332 399.178 274.994C398.639 274.656 398.206 274.173 397.931 273.601C397.882 273.454 397.93 273.308 398.126 273.308H403.83Z" fill="white"/>
<path d="M405.844 261.065C405.134 261.134 404.449 261.358 403.837 261.723C403.225 262.088 402.702 262.583 402.307 263.175C401.35 262.851 400.311 262.869 399.367 263.224C398.905 262.475 398.241 261.87 397.451 261.48C396.66 261.089 395.775 260.928 394.898 261.016C393.958 261.095 393.063 261.451 392.326 262.037C391.589 262.624 391.044 263.415 390.759 264.311C390.474 265.207 390.462 266.167 390.725 267.069C390.988 267.972 391.513 268.776 392.236 269.381C392.957 269.985 393.843 270.362 394.781 270.465C395.718 270.567 396.665 270.389 397.501 269.955C398.337 269.52 399.025 268.848 399.477 268.024C399.93 267.199 400.127 266.26 400.043 265.323C399.994 264.799 399.861 264.287 399.651 263.805C400.411 263.53 401.241 263.513 402.013 263.756C401.573 264.695 401.458 265.754 401.684 266.765C401.91 267.777 402.466 268.686 403.264 269.351C404.062 270.015 405.058 270.399 406.098 270.441C407.137 270.483 408.162 270.182 409.009 269.584C409.862 268.986 410.489 268.125 410.798 267.135C411.107 266.145 411.077 265.081 410.714 264.109C410.352 263.137 409.681 262.311 408.799 261.76C407.919 261.208 406.88 260.963 405.844 261.06V261.065ZM395.721 269.855C394.9 269.927 394.077 269.756 393.355 269.361C392.632 268.967 392.043 268.368 391.662 267.64C391.282 266.912 391.125 266.089 391.214 265.273C391.303 264.457 391.633 263.685 392.162 263.056C392.69 262.426 393.394 261.967 394.185 261.737C394.975 261.506 395.817 261.514 396.602 261.76C397.388 262.006 398.083 262.478 398.6 263.118C399.116 263.757 399.431 264.535 399.504 265.353C399.592 266.445 399.245 267.528 398.536 268.367C397.828 269.205 396.816 269.732 395.721 269.831V269.855ZM406.677 269.904C405.857 269.976 405.033 269.804 404.311 269.41C403.588 269.016 402.999 268.417 402.619 267.689C402.238 266.961 402.082 266.137 402.171 265.321C402.26 264.505 402.589 263.734 403.118 263.104C403.647 262.475 404.351 262.016 405.141 261.785C405.932 261.555 406.773 261.563 407.559 261.809C408.343 262.055 409.039 262.527 409.558 263.167C410.073 263.806 410.386 264.584 410.46 265.402C410.548 266.494 410.2 267.577 409.494 268.416C408.784 269.254 407.773 269.78 406.677 269.88V269.904Z" fill="white"/>
<path d="M423.234 354.644C423.234 354.644 436.724 368.406 415.252 389.668H385.803C385.803 389.668 365.434 375.076 379.472 354.644H423.234Z" fill="#0A4DB1"/>
<path d="M396.426 255.034C396.426 255.034 399.004 259.835 411.655 259.835L412.635 253.286V250.4L388.772 250.888L390.184 264.493L391.463 261.607C391.463 261.607 396.01 261.011 396.426 255.034Z" fill="#21252B"/>
<path opacity="0.2" d="M401.082 303.687L401.219 326.731" stroke="black" stroke-width="0.56" stroke-miterlimit="10" stroke-linecap="round"/>
<path d="M396.304 254.507C396.334 254.36 396.265 260.367 410.435 260.855" stroke="#21252B" stroke-width="0.79" stroke-miterlimit="10" stroke-linecap="round"/>
<path d="M401.057 303.008L401.071 302.993" stroke="#B2B6BB" stroke-width="0.56" stroke-miterlimit="10"/>
<path opacity="0.2" d="M385.95 304.566C386.67 303.418 390.203 298.183 394.608 297.929H394.633L399.959 302.09C399.975 302.102 399.994 302.107 400.014 302.105C400.034 302.103 400.052 302.093 400.065 302.079C400.078 302.064 400.084 302.045 400.084 302.025C400.084 302.005 400.076 301.987 400.062 301.973L394.907 296.84H394.878L389.679 297.929L386.66 302.026L385.911 304.517C385.908 304.523 385.906 304.53 385.907 304.536C385.908 304.543 385.91 304.549 385.914 304.554C385.919 304.559 385.924 304.563 385.93 304.565C385.937 304.567 385.944 304.567 385.95 304.566Z" fill="black"/>
<path opacity="0.3" d="M388.832 370.466L396.26 368.274L404.521 369.372L398.191 375.955L388.832 370.466Z" fill="black"/>
<path opacity="0.2" d="M402.091 302.139L407.271 297.651C407.271 297.651 412.778 298.203 416.629 304.239L414.429 299.018L408.647 295.18L405.345 296.279L401.763 301.851C401.733 301.895 401.72 301.949 401.727 302.001C401.734 302.055 401.759 302.104 401.8 302.139C401.84 302.174 401.892 302.193 401.945 302.193C401.999 302.193 402.051 302.174 402.091 302.139Z" fill="black"/>
<path d="M413.464 288.602L410.852 298.53L401.14 326.023L390.895 298.53L388.282 288.607L374.793 292.445L377.272 301.772L378.649 310.826C378.649 310.826 386.489 336.747 380.712 349.639V358.966H421.583V349.639C415.806 336.747 423.646 310.826 423.646 310.826L425.023 301.772L427.502 292.445L413.464 288.602Z" fill="#0A4DB1"/>
<path d="M386.235 377.674C386.235 377.674 386.352 367.644 403.203 370.383L403.899 370.491C404.835 370.628 408.725 371.497 411.126 376.776L411.949 370.466L396.539 366.355L385.529 370.193L386.235 377.674Z" fill="#0A4DB1"/>
<path opacity="0.2" d="M386.338 303.394L390.62 307.94L388.42 310.685L400.94 325.906L390.895 298.525L387.866 298.613L386.338 303.394Z" fill="black"/>
<path opacity="0.2" d="M383.735 354.571H418.555" stroke="black" stroke-width="1.34" stroke-miterlimit="10" stroke-linecap="round"/>
<path opacity="0.2" d="M415.943 302.451L411.543 307.315L413.816 310.006L401.219 325.906L411.033 297.915L414.066 297.924L415.943 302.451Z" fill="black"/>
<path d="M401.082 302.984L407.163 296.743C409.24 297.131 411.185 298.032 412.822 299.363C414.458 300.693 415.732 302.412 416.531 304.361L413.174 288.011L410.94 287.298L401.043 301.607L390.62 287.64L388.401 288.465L385.647 304.922C386.376 302.94 387.593 301.172 389.188 299.782C390.782 298.392 392.702 297.424 394.771 296.967L401.082 302.984Z" fill="#F4F4F4"/>
<path opacity="0.2" d="M419.873 350.909L421.47 349.361C416.702 338.217 421.725 317.804 423.244 312.247L422.832 311.271C422.803 311.189 422.749 311.12 422.676 311.07C422.607 311.021 422.519 310.994 422.435 310.994C422.347 310.994 422.259 311.021 422.19 311.07C422.117 311.12 422.063 311.189 422.034 311.271C420.564 315.475 415.316 331.986 418.574 348.262L414.164 352.769L415.291 354.552L419.873 350.909Z" fill="black"/>
<path opacity="0.2" d="M425.028 357.448C428.776 363.517 429.776 375.438 415.228 389.678H415.095L414.953 389.052C425.89 376.424 426.409 363.063 422.656 359.323L425.028 357.448Z" fill="black"/>
<path d="M406.148 454.504C406.696 458.21 407.754 461.829 409.294 465.247C409.725 466.224 411.459 469.432 413.39 470.936C415.154 472.313 419.044 472.743 419.236 468.861C419.265 467.645 419.133 466.434 418.839 465.252C418.339 463.426 417.702 461.643 416.933 459.914C416.193 458.269 414.203 454.167 412.89 452.326L406.148 454.504Z" fill="#0A4DB1"/>
<path d="M422.7 449.742C424.88 452.79 426.62 456.13 427.879 459.656C428.237 460.632 429.222 464.168 428.859 466.585C428.541 468.797 426.757 471.605 423.2 469.119C422.386 468.553 421.73 467.484 420.975 466.243C420.069 464.583 419.29 462.854 418.648 461.077C418.035 459.377 416.619 455.046 416.296 452.809L422.7 449.742Z" fill="#0A4DB1"/>
<path opacity="0.2" d="M381.868 346.221L388.282 353.062L383.358 358.483L378.13 354.64L377.821 354.434L381.868 346.221Z" fill="black"/>
<path opacity="0.2" d="M401.355 327.688V350.87" stroke="black" stroke-width="1.34" stroke-miterlimit="10" stroke-linecap="round"/>
<path d="M386.562 376.126C386.562 376.126 388.801 368.601 395.23 372.219C396.732 373.088 398.006 374.3 398.944 375.755C402.242 380.765 409.887 396.548 410.332 435.678C410.332 435.678 410.862 441.656 411.763 447.003C412.185 449.488 412.709 451.886 413.856 454.152C416.139 458.625 418.961 464.475 413.949 465.589C413.949 465.589 409.357 467.225 406.334 454.758C405.922 453.058 405.153 451.388 404.619 449.718L395.015 419.764C394.463 418.051 393.891 416.337 393.3 414.621C390.899 407.941 383.451 390.127 386.562 376.126Z" fill="#FC9D9D"/>
<path opacity="0.15" d="M413.88 454.162C412.733 451.916 412.209 449.498 411.788 447.013C410.886 441.665 410.357 435.688 410.357 435.688C410.259 427.147 409.818 419.715 409.156 413.269L406.706 403.781L400.111 377.708C399.685 376.932 399.293 376.287 398.945 375.755C398.004 374.324 399.16 374.505 397.671 373.65C397.671 373.65 388.454 376.37 403.84 418.968C406.857 427.355 408.96 436.045 410.107 444.879L410.332 446.602C410.553 448.302 410.945 449.972 411.499 451.593L411.553 451.745C412.003 453.063 412.557 454.347 413.214 455.578C414.875 458.718 417.766 465.452 411.842 465.218C412.15 465.418 412.493 465.555 412.856 465.618C413.219 465.682 413.591 465.672 413.949 465.589C418.961 464.485 416.139 458.635 413.88 454.162Z" fill="black"/>
<path d="M397.314 374.642C397.314 374.642 399.582 367.126 405.991 370.784C407.492 371.654 408.759 372.87 409.695 374.329C412.973 379.354 420.554 395.166 420.848 434.301C420.848 434.301 421.338 440.278 422.23 445.631C422.641 448.116 423.156 450.514 424.292 452.79C426.561 457.268 428.355 462.034 424.008 463.108C424.008 463.108 420.27 465.242 416.497 453.376C415.967 451.705 415.605 449.987 415.076 448.316L405.59 418.323C405.041 416.594 404.472 414.875 403.87 413.166C401.523 406.476 394.418 384.735 397.314 374.642Z" fill="#FC9D9D"/>
<path opacity="0.15" d="M424.293 452.79C423.156 450.538 422.641 448.116 422.23 445.631C421.348 440.259 420.848 434.301 420.848 434.301C420.554 395.166 412.974 379.354 409.696 374.329C408.76 372.877 407.49 371.669 405.991 370.803C405.11 370.272 404.124 369.938 403.1 369.827C403.1 369.827 416.261 370.989 418.78 429.638C418.922 433.613 419.29 437.578 419.883 441.509C420.647 446.451 422.2 451.134 423.7 455.91C424.239 457.629 427.576 462.932 422.068 462.962C423.244 463.567 424.028 463.137 424.028 463.137C428.355 462.034 426.561 457.268 424.293 452.79Z" fill="black"/>
<path d="M407.441 357.447C407.494 357.418 407.55 357.395 407.608 357.379C408.382 357.193 409.406 357.941 409.999 357.379L417.153 351.895L425.15 348.34L419.094 340.932L414.105 345.898C413.674 346.332 413.106 346.607 412.498 346.68L406.167 347.471C405.163 347.597 404.213 347.994 403.418 348.618L396.647 353.99L393.986 356.432C393.562 356.815 393.213 357.274 392.957 357.784C392.909 357.884 392.887 357.994 392.894 358.104C392.901 358.214 392.936 358.321 392.996 358.414C393.09 358.551 393.234 358.646 393.397 358.678C393.561 358.71 393.73 358.677 393.868 358.585L394.172 358.385L392.986 359.562C392.859 359.688 392.77 359.847 392.727 360.021C392.667 360.252 392.695 360.497 392.804 360.709C392.913 360.921 393.097 361.086 393.32 361.173C393.487 361.241 393.67 361.261 393.848 361.232C394.026 361.203 394.193 361.125 394.329 361.007L395.799 359.752L395.044 360.499C394.938 360.606 394.859 360.738 394.815 360.883C394.771 361.028 394.765 361.182 394.794 361.33L394.824 361.481C394.866 361.688 394.979 361.876 395.143 362.01C395.307 362.144 395.513 362.218 395.725 362.218C395.949 362.22 396.165 362.14 396.333 361.994L401.164 358.243L400.993 358.517L398.288 360.856C398.19 360.941 398.116 361.051 398.073 361.173L398.038 361.286C397.988 361.435 397.988 361.596 398.038 361.745C398.089 361.895 398.187 362.023 398.318 362.111C398.428 362.185 398.558 362.227 398.691 362.232C398.824 362.237 398.956 362.206 399.072 362.14L407.441 357.447Z" fill="#FC9D9D"/>
<path opacity="0.15" d="M409.392 357.618C409.46 357.623 409.534 357.623 409.602 357.618L410.357 357.174L409.544 354.186C409.485 353.804 409.284 353.459 408.98 353.224L405.334 350.567L406.706 350.84C409.186 351.666 410.989 351.592 411.562 350.894C411.616 350.826 411.655 350.747 411.675 350.662C411.695 350.577 411.695 350.488 411.675 350.403C411.655 350.318 411.621 350.238 411.567 350.169C411.513 350.101 411.445 350.044 411.366 350.005L408.24 348.174C408.137 348.125 408.025 348.09 407.911 348.072L405.358 347.661C404.66 347.861 404.006 348.192 403.433 348.638L402.551 349.317L404.217 349.732L409.392 357.618Z" fill="black"/>
<path opacity="0.15" d="M394.427 356.002C394.758 356.039 395.078 356.145 395.366 356.313C395.654 356.481 395.903 356.708 396.097 356.979C396.49 356.955 396.88 357.045 397.222 357.238C397.564 357.431 397.842 357.719 398.023 358.068C398.023 358.068 399.003 357.657 399.949 359.166C400.353 359.238 400.731 359.415 401.045 359.679C401.36 359.943 401.598 360.285 401.737 360.67L403.668 359.577L396.24 354.112L394.427 356.002Z" fill="black"/>
<path opacity="0.15" d="M394.721 358.092L398.714 354.938" stroke="black" stroke-width="0.56" stroke-miterlimit="10" stroke-linecap="round"/>
<path opacity="0.15" d="M396.097 359.464L399.949 356.446" stroke="black" stroke-width="0.56" stroke-miterlimit="10" stroke-linecap="round"/>
<path d="M411.322 350.318L407.956 348.428C407.848 348.379 404.884 347.818 404.766 347.803L393.912 346.772C393.459 346.732 393.04 346.519 392.741 346.177L389.355 342.319L384.201 349.346L388.366 352.134C388.758 352.386 389.109 352.697 389.404 353.057C390.664 354.639 396.034 355.948 397.328 356.246C397.511 356.289 397.68 356.377 397.818 356.505L401.899 360.099L402.786 362.761C402.845 362.969 402.969 363.152 403.14 363.285C403.311 363.418 403.52 363.492 403.737 363.498C403.92 363.502 404.101 363.454 404.258 363.361C404.416 363.268 404.545 363.133 404.629 362.97C404.716 362.813 404.759 362.634 404.751 362.453L404.403 360.822C404.403 360.822 404.545 361.383 404.668 361.896C404.806 362.46 405.133 362.959 405.594 363.312C405.767 363.445 405.981 363.514 406.2 363.506C406.418 363.497 406.627 363.414 406.79 363.268L406.819 363.244C406.912 363.161 406.986 363.06 407.036 362.946C407.086 362.832 407.111 362.709 407.108 362.585C407.304 362.974 407.642 363.273 408.054 363.42H408.083C408.274 363.488 408.49 363.488 408.681 363.42C408.799 363.381 408.906 363.32 409 363.239C409.093 363.158 409.171 363.06 409.225 362.949C409.279 362.839 409.313 362.719 409.323 362.596C409.328 362.473 409.313 362.35 409.274 362.233L409.21 361.965C409.45 362.113 409.725 362.193 410.004 362.194C410.151 362.189 410.293 362.143 410.416 362.061C410.533 361.979 410.631 361.864 410.69 361.73V361.696C410.881 361.266 410.92 360.783 410.798 360.329L410.46 358.068L409.137 354.205C409.049 353.894 408.867 353.618 408.612 353.419L404.594 350.293L406.971 350.557C406.971 350.557 410.401 351.963 411.381 350.611C411.401 350.589 411.415 350.563 411.42 350.535C411.425 350.507 411.43 350.478 411.42 350.45C411.415 350.422 411.405 350.395 411.386 350.372C411.371 350.349 411.347 350.331 411.322 350.318Z" fill="#FC9D9D"/>
<path opacity="0.15" d="M404.633 361.647L404.217 359.601L403.251 357.267L401.6 355.895" stroke="black" stroke-width="0.56" stroke-miterlimit="10" stroke-linecap="round"/>
<path opacity="0.15" d="M406.922 361.647L406.554 359.186L405.182 356.168L403.805 354.522" stroke="black" stroke-width="0.56" stroke-miterlimit="10" stroke-linecap="round"/>
<path opacity="0.15" d="M409.157 361.437L408.485 358.366L407.383 355.348L406.006 353.702" stroke="black" stroke-width="0.56" stroke-miterlimit="10" stroke-linecap="round"/>
<path d="M425.998 292.011C427.918 292.518 429.668 293.521 431.074 294.918C432.475 296.316 433.49 298.059 433.999 299.971L444.451 337.87C444.848 339.307 444.789 340.832 444.284 342.235C443.78 343.639 442.854 344.853 441.634 345.713L421.465 357.677L415.958 349.995L431.49 337.074L423.072 311.715L425.998 292.011Z" fill="#0A4DB1"/>
<path d="M376.297 292.011C374.378 292.522 372.628 293.529 371.225 294.932C369.823 296.334 368.817 298.081 368.31 299.995L357.858 337.895C357.462 339.332 357.519 340.856 358.023 342.26C358.528 343.663 359.454 344.877 360.676 345.737L381.339 356.236L386.842 348.555L370.819 336.61L379.222 311.715L376.297 292.011Z" fill="#0A4DB1"/>
<path opacity="0.2" d="M444.451 337.87L444.069 336.479C444.069 336.479 445.01 341.416 438.841 345.493L422.21 354.688L419.427 356.197V359.127L420.485 357.662L441.634 345.698C442.854 344.84 443.775 343.628 444.28 342.227C444.784 340.827 444.843 339.305 444.451 337.87Z" fill="black"/>
<path d="M379.453 363.088H424.533C424.724 363.088 424.91 363.164 425.047 363.299C425.179 363.435 425.258 363.618 425.258 363.81C425.258 364.525 424.974 365.211 424.464 365.716C423.959 366.222 423.268 366.506 422.553 366.506H381.393C380.676 366.506 379.988 366.222 379.48 365.716C378.973 365.211 378.688 364.525 378.688 363.81C378.688 363.618 378.765 363.435 378.9 363.299C379.037 363.164 379.221 363.088 379.413 363.088H379.453Z" fill="#DADDDF"/>
<path d="M421.259 364.553H382.745C382.218 364.553 381.695 364.449 381.208 364.248C380.72 364.047 380.277 363.752 379.904 363.38C379.531 363.008 379.235 362.567 379.033 362.081C378.831 361.595 378.727 361.074 378.727 360.548L377.257 336.327C377.257 335.801 377.361 335.281 377.563 334.795C377.765 334.309 378.061 333.867 378.434 333.496C378.807 333.124 379.25 332.829 379.738 332.627C380.225 332.426 380.748 332.323 381.275 332.323H422.729C423.259 332.323 423.778 332.426 424.268 332.627C424.753 332.829 425.199 333.124 425.571 333.496C425.944 333.867 426.238 334.309 426.444 334.795C426.644 335.281 426.747 335.801 426.747 336.327L425.277 360.548C425.277 361.611 424.856 362.629 424.101 363.38C423.347 364.131 422.323 364.553 421.259 364.553Z" fill="#21252B"/>
<path opacity="0.3" d="M401.757 353.321C404.464 353.321 406.657 351.135 406.657 348.438C406.657 345.741 404.464 343.554 401.757 343.554C399.051 343.554 396.857 345.741 396.857 348.438C396.857 351.135 399.051 353.321 401.757 353.321Z" fill="white"/>
<path d="M401.757 352.344C403.922 352.344 405.677 350.595 405.677 348.438C405.677 346.28 403.922 344.531 401.757 344.531C399.592 344.531 397.837 346.28 397.837 348.438C397.837 350.595 399.592 352.344 401.757 352.344Z" fill="#DADDDF"/>
<path d="M578.52 472.865L15.02 471.888C14.8902 471.888 14.7652 471.835 14.6736 471.747C14.5815 471.654 14.53 471.532 14.53 471.4C14.53 471.268 14.5815 471.146 14.6736 471.053C14.7652 470.965 14.8902 470.912 15.02 470.912L578.52 471.888C578.652 471.888 578.775 471.942 578.868 472.03C578.956 472.123 579.01 472.245 579.01 472.377C579.01 472.508 578.956 472.631 578.868 472.723C578.775 472.811 578.652 472.865 578.52 472.865Z" fill="#868A91"/>
<path d="M536.424 343.12L532.166 447.979" stroke="#21252B" stroke-width="1.12" stroke-miterlimit="10" stroke-linecap="round"/>
<path d="M505.49 388.696L524.395 410.817" stroke="#21252B" stroke-width="1.12" stroke-miterlimit="10" stroke-linecap="round"/>
<path d="M549.502 414.988L532.465 440.757" stroke="#21252B" stroke-width="1.12" stroke-miterlimit="10" stroke-linecap="round"/>
<path d="M557.798 371.717L534.332 398.453" stroke="#21252B" stroke-width="1.12" stroke-miterlimit="10" stroke-linecap="round"/>
<path d="M556.215 386.073C561.777 379.559 563.457 371.878 559.969 368.918C556.48 365.959 549.145 368.845 543.583 375.359C538.022 381.874 536.336 389.555 539.825 392.515C543.314 395.474 550.654 392.588 556.215 386.073Z" fill="#0A4DB1"/>
<g opacity="0.3">
<g opacity="0.3">
<path opacity="0.3" d="M560.189 369.187L539.712 392.422C539.79 392.422 539.79 392.495 539.864 392.495C543.377 395.474 550.698 392.568 556.23 386.093C561.683 379.745 563.403 372.312 560.189 369.187Z" fill="black"/>
</g>
</g>
<path d="M516.78 401.744C519.48 399.513 518.25 393.599 514.051 388.525C509.851 383.451 504.251 381.151 501.536 383.378C498.821 385.605 500.066 391.523 504.265 396.592C508.465 401.661 514.065 403.971 516.78 401.744Z" fill="#0A4DB1"/>
<g opacity="0.3">
<g opacity="0.3">
<path opacity="0.3" d="M501.379 383.559L516.848 401.656L516.77 401.729C514.08 403.966 508.479 401.656 504.216 396.592C500.184 391.675 498.91 385.849 501.379 383.559Z" fill="black"/>
</g>
</g>
<path d="M508.327 418.709L528.28 434.204" stroke="#21252B" stroke-width="1.12" stroke-miterlimit="10" stroke-linecap="round"/>
<path d="M522.043 429.183C524.233 426.454 521.827 420.911 516.653 416.799C511.478 412.688 505.539 411.569 503.349 414.299C501.159 417.029 503.56 422.576 508.739 426.683C513.918 430.79 519.852 431.913 522.043 429.183Z" fill="#0A4DB1"/>
<g opacity="0.3">
<g opacity="0.3">
<path opacity="0.3" d="M503.246 414.539L522.077 429.14L522.003 429.213C519.838 431.967 513.86 430.849 508.7 426.771C503.692 422.752 501.301 417.317 503.246 414.563" fill="black"/>
</g>
</g>
<path d="M544.22 351.001C544.607 342.455 541.28 335.375 536.787 335.16C532.294 334.945 528.334 341.718 527.967 350.269C527.599 358.82 530.907 365.895 535.4 366.11C539.893 366.325 543.853 359.552 544.22 351.001Z" fill="#0A4DB1"/>
<g opacity="0.3">
<g opacity="0.3">
<path opacity="0.3" d="M527.981 350.342C528.354 341.85 532.318 335.077 536.801 335.297L535.38 366.203C530.897 365.905 527.609 358.834 527.981 350.342Z" fill="black"/>
</g>
</g>
<path d="M551.32 424.715C555.054 418.894 555.461 412.507 552.227 410.446C548.993 408.385 543.343 411.423 539.609 417.254C535.875 423.084 535.464 429.462 538.698 431.523C541.932 433.583 547.582 430.546 551.32 424.715Z" fill="#0A4DB1"/>
<g opacity="0.3">
<g opacity="0.3">
<path opacity="0.3" d="M539.638 417.219C535.978 422.879 535.527 429.14 538.516 431.298L552.192 410.446L551.374 410.07C548.16 408.879 543.078 411.857 539.638 417.219Z" fill="black"/>
</g>
</g>
<path d="M530.299 446.715L518.642 374.324" stroke="#21252B" stroke-width="1.12" stroke-miterlimit="10" stroke-linecap="round"/>
<path d="M519.744 384.477C523.738 383.842 525.987 377.152 524.767 369.573C523.547 361.994 519.323 356.339 515.329 356.974C511.336 357.609 509.087 364.299 510.307 371.878C511.527 379.457 515.751 385.111 519.744 384.477Z" fill="#0A4DB1"/>
<g opacity="0.3">
<g opacity="0.3">
<path opacity="0.3" d="M510.273 371.868C509.077 364.269 511.316 357.565 515.276 356.896L519.686 384.452C515.726 385.199 511.468 379.535 510.273 371.868Z" fill="black"/>
</g>
</g>
<path d="M525.144 472.333H539.114C539.731 472.337 540.349 472.215 540.917 471.981C541.491 471.747 542.01 471.4 542.451 470.965C542.887 470.526 543.235 470.008 543.47 469.437C543.705 468.87 543.828 468.255 543.823 467.64V449.171H520.357V467.64C520.381 468.89 520.896 470.081 521.793 470.955C522.684 471.834 523.89 472.328 525.144 472.333Z" fill="#868A91"/>
<path d="M544.421 446.715H519.921C519.583 446.715 519.259 446.847 519.024 447.086C518.784 447.32 518.652 447.643 518.652 447.98C518.652 448.317 518.784 448.639 519.024 448.873C519.259 449.113 519.583 449.244 519.921 449.244H544.421C544.588 449.244 544.754 449.215 544.911 449.152C545.063 449.088 545.205 448.995 545.323 448.878C545.44 448.761 545.533 448.619 545.597 448.468C545.666 448.312 545.695 448.146 545.695 447.98C545.67 447.652 545.528 447.345 545.293 447.11C545.063 446.876 544.749 446.739 544.421 446.715Z" fill="#868A91"/>
<path d="M543.897 449.171H522.528C522.204 449.152 521.901 449.01 521.68 448.776C521.455 448.536 521.332 448.229 521.332 447.906C521.332 447.579 521.455 447.272 521.68 447.032C521.901 446.798 522.204 446.656 522.528 446.637H519.911C519.588 446.656 519.284 446.798 519.064 447.032C518.838 447.272 518.716 447.579 518.716 447.906C518.716 448.229 518.838 448.536 519.064 448.776C519.284 449.01 519.588 449.152 519.911 449.171H520.435V467.567C520.431 468.182 520.553 468.792 520.788 469.364C521.024 469.935 521.371 470.453 521.808 470.887C522.244 471.327 522.763 471.669 523.336 471.908C523.91 472.142 524.522 472.26 525.14 472.26H532.764C531.152 472.269 529.594 471.713 528.349 470.692C527.109 469.671 526.262 468.25 525.963 466.673L522.601 449.469H543.897V449.171Z" fill="#61656D"/>
<path d="M351.905 366.408H336.46C335.29 366.408 334.169 366.871 333.342 367.695C332.515 368.52 332.05 369.638 332.05 370.803V441.656C332.062 442.813 332.531 443.921 333.357 444.737C334.183 445.548 335.298 446.007 336.46 446.007H351.895C352.472 446.011 353.044 445.904 353.578 445.689C354.112 445.474 354.598 445.152 355.007 444.747C355.423 444.341 355.756 443.863 355.987 443.33C356.207 442.798 356.32 442.232 356.32 441.656V370.803C356.32 369.638 355.855 368.52 355.028 367.695C354.201 366.871 353.079 366.408 351.91 366.408H351.905ZM353.747 441.651C353.747 441.89 353.699 442.129 353.605 442.349C353.511 442.569 353.374 442.769 353.203 442.94C352.853 443.267 352.386 443.443 351.905 443.428H336.46C336.222 443.433 335.985 443.389 335.764 443.301C335.543 443.213 335.342 443.081 335.174 442.915C335.005 442.744 334.873 442.544 334.784 442.325C334.694 442.105 334.65 441.865 334.657 441.626V370.803C334.65 370.564 334.694 370.326 334.784 370.105C334.873 369.885 335.005 369.684 335.174 369.516C335.342 369.348 335.543 369.217 335.764 369.128C335.985 369.04 336.222 368.997 336.46 369.001H351.895C352.135 368.997 352.373 369.04 352.596 369.128C352.819 369.217 353.022 369.347 353.194 369.514C353.365 369.683 353.501 369.884 353.595 370.105C353.689 370.326 353.737 370.563 353.737 370.803L353.747 441.651Z" fill="#3F4249"/>
<path d="M334.667 441.651V370.803C334.661 370.565 334.703 370.327 334.79 370.105C334.881 369.886 335.015 369.687 335.182 369.519C335.351 369.35 335.552 369.217 335.775 369.128C335.996 369.04 336.232 368.997 336.47 369.001H335.608C335.368 368.996 335.13 369.04 334.907 369.128C334.687 369.219 334.487 369.351 334.319 369.519C334.151 369.686 334.018 369.886 333.927 370.105C333.839 370.327 333.795 370.565 333.8 370.803V441.656C333.795 441.895 333.839 442.134 333.927 442.354C334.018 442.574 334.151 442.774 334.319 442.94C334.487 443.106 334.687 443.243 334.907 443.331C335.13 443.418 335.368 443.462 335.608 443.458H336.461C336.222 443.462 335.986 443.418 335.765 443.331C335.542 443.243 335.341 443.111 335.172 442.94C335.004 442.774 334.871 442.574 334.78 442.354C334.696 442.129 334.657 441.89 334.667 441.651Z" fill="#312933"/>
<path d="M351.905 366.408H351.077C352.238 366.42 353.349 366.888 354.167 367.711C354.984 368.534 355.443 369.645 355.443 370.803V441.656C355.443 442.808 354.982 443.916 354.164 444.732C353.345 445.548 352.235 446.007 351.077 446.007H351.905C352.481 446.011 353.053 445.904 353.587 445.689C354.122 445.474 354.608 445.152 355.016 444.747C355.432 444.341 355.765 443.863 355.996 443.33C356.216 442.798 356.329 442.232 356.329 441.656V370.803C356.329 369.638 355.865 368.52 355.038 367.695C354.211 366.871 353.089 366.408 351.919 366.408H351.905Z" fill="#312933"/>
<path d="M358.02 391.841H353.12C353.007 391.763 350.748 387.675 344.236 387.675C337.724 387.675 335.416 391.802 335.318 391.841H330.261V390.566H334.701C339.067 385.014 349.401 385.014 353.811 390.566H358.02V391.841Z" fill="black"/>
<path d="M335.906 366.408C333.309 366.408 331.202 368.396 331.202 370.803V378.372H334.99V370.803C334.975 370.453 335.068 370.106 335.255 369.808C335.442 369.512 335.715 369.278 336.038 369.138C336.254 369.049 336.485 369.002 336.72 369.001H351.65C351.885 369.001 352.118 369.047 352.335 369.137C352.552 369.228 352.749 369.361 352.914 369.529C353.077 369.698 353.207 369.897 353.296 370.115C353.381 370.334 353.422 370.568 353.418 370.803V378.372H357.181V370.803C357.181 368.401 355.075 366.408 352.478 366.408H335.906Z" fill="black"/>
<path d="M329.997 471.923C330.78 471.923 331.544 471.693 332.195 471.258C332.846 470.829 333.354 470.213 333.654 469.496C333.954 468.773 334.033 467.982 333.881 467.215C333.729 466.453 333.353 465.75 332.8 465.198C332.247 464.646 331.542 464.27 330.775 464.119C330.008 463.963 329.213 464.041 328.49 464.339C327.767 464.637 327.149 465.144 326.715 465.794C326.28 466.439 326.048 467.2 326.048 467.982C326.048 469.027 326.464 470.028 327.204 470.765C327.944 471.507 328.949 471.923 329.997 471.923Z" fill="#3F4249"/>
<path d="M329.169 471.923C329.951 471.923 330.716 471.693 331.368 471.258C332.018 470.829 332.526 470.213 332.826 469.496C333.126 468.773 333.205 467.982 333.053 467.215C332.901 466.453 332.525 465.75 331.972 465.198C331.419 464.646 330.714 464.27 329.947 464.119C329.18 463.963 328.385 464.041 327.662 464.339C326.939 464.637 326.321 465.144 325.886 465.794C325.452 466.439 325.22 467.2 325.22 467.982C325.22 469.027 325.636 470.028 326.376 470.765C327.117 471.507 328.121 471.923 329.169 471.923Z" fill="black"/>
<path d="M359.73 471.923C360.512 471.923 361.277 471.693 361.928 471.258C362.579 470.829 363.087 470.213 363.387 469.496C363.687 468.773 363.766 467.982 363.614 467.215C363.462 466.453 363.086 465.75 362.533 465.198C361.98 464.646 361.275 464.27 360.508 464.119C359.741 463.963 358.946 464.041 358.223 464.339C357.5 464.637 356.882 465.144 356.447 465.794C356.013 466.439 355.781 467.2 355.781 467.982C355.781 469.027 356.197 470.028 356.937 470.765C357.678 471.507 358.682 471.923 359.73 471.923Z" fill="#3F4249"/>
<path d="M358.942 471.923C359.724 471.923 360.488 471.693 361.138 471.258C361.789 470.824 362.295 470.208 362.595 469.491C362.894 468.768 362.972 467.977 362.819 467.215C362.667 466.448 362.291 465.745 361.738 465.193C361.184 464.646 360.48 464.27 359.713 464.119C358.946 463.963 358.151 464.041 357.428 464.339C356.706 464.642 356.088 465.144 355.654 465.794C355.219 466.439 354.987 467.2 354.987 467.982C354.986 468.499 355.088 469.012 355.287 469.491C355.485 469.969 355.777 470.404 356.144 470.77C356.511 471.136 356.947 471.424 357.428 471.625C357.907 471.82 358.422 471.923 358.942 471.923Z" fill="black"/>
<path d="M362.214 391.201H329.384C325.661 391.201 322.09 392.675 319.458 395.299C316.825 397.922 315.346 401.481 315.346 405.192V454.357C315.346 458.068 316.825 461.628 319.458 464.251C322.09 466.873 325.661 468.348 329.384 468.348H362.214C365.938 468.348 369.509 466.873 372.141 464.251C374.774 461.628 376.253 458.068 376.253 454.357V405.192C376.253 401.481 374.774 397.922 372.141 395.299C369.509 392.675 365.938 391.201 362.214 391.201Z" fill="#3F4249"/>
<path d="M359 391.201H328.532C324.893 391.201 321.403 392.642 318.83 395.206C316.257 397.77 314.812 401.248 314.812 404.874V454.714C314.812 458.342 316.257 461.819 318.83 464.383C321.403 466.946 324.893 468.387 328.532 468.387H359C362.639 468.387 366.128 466.946 368.701 464.383C371.274 461.819 372.72 458.342 372.72 454.714V404.855C372.715 401.232 371.267 397.759 368.695 395.199C366.122 392.639 362.635 391.201 359 391.201Z" fill="#0A4DB1"/>
<path d="M329.472 398.59C329.167 398.586 328.864 398.642 328.581 398.756C328.297 398.868 328.039 399.036 327.821 399.249C327.609 399.463 327.442 399.717 327.331 399.996C327.213 400.276 327.151 400.576 327.15 400.88V462.058C327.152 462.673 327.4 463.264 327.838 463.699C328.275 464.138 328.868 464.383 329.487 464.383H329.634V398.59H329.472Z" fill="#0A4DB1"/>
<path opacity="0.3" d="M329.6 398.589V464.382C330.193 464.343 330.748 464.085 331.154 463.65C331.56 463.22 331.786 462.649 331.786 462.058V400.88C331.778 400.294 331.549 399.732 331.144 399.307C330.738 398.883 330.187 398.626 329.6 398.589Z" fill="black"/>
<path d="M337.563 398.59C337.258 398.586 336.955 398.642 336.671 398.756C336.39 398.866 336.133 399.032 335.917 399.244C335.703 399.457 335.537 399.711 335.427 399.991C335.31 400.271 335.25 400.572 335.25 400.875V462.053C335.25 462.669 335.496 463.259 335.933 463.699C336.371 464.134 336.964 464.378 337.583 464.378H337.695V398.59H337.563Z" fill="#0A4DB1"/>
<path opacity="0.3" d="M337.675 398.589V464.382C338.268 464.343 338.823 464.085 339.229 463.65C339.635 463.22 339.861 462.649 339.861 462.058V400.88C339.86 400.292 339.633 399.726 339.227 399.3C338.82 398.874 338.265 398.62 337.675 398.589Z" fill="black"/>
<path d="M345.619 398.59C345.313 398.586 345.01 398.642 344.727 398.756C344.445 398.865 344.187 399.031 343.972 399.244C343.759 399.457 343.592 399.711 343.482 399.991C343.365 400.271 343.305 400.572 343.306 400.875V462.053C343.306 462.669 343.551 463.259 343.989 463.699C344.427 464.134 345.019 464.378 345.638 464.378H345.771V398.59H345.619Z" fill="#0A4DB1"/>
<path opacity="0.3" d="M345.77 398.589V464.382C346.362 464.343 346.917 464.085 347.322 463.65C347.727 463.22 347.952 462.649 347.951 462.058V400.88C347.943 400.294 347.713 399.732 347.309 399.307C346.902 398.886 346.355 398.631 345.77 398.589Z" fill="black"/>
<path d="M353.674 398.589C353.064 398.589 352.48 398.831 352.049 399.26C351.618 399.69 351.376 400.272 351.376 400.88V462.058C351.37 462.361 351.425 462.664 351.539 462.947C351.653 463.225 351.822 463.484 352.037 463.699C352.252 463.909 352.505 464.075 352.782 464.187C353.065 464.304 353.368 464.363 353.674 464.363H353.821V398.589H353.674Z" fill="#0A4DB1"/>
<path opacity="0.2" d="M329.472 398.59C329.167 398.586 328.864 398.642 328.581 398.756C328.297 398.868 328.039 399.036 327.821 399.249C327.609 399.463 327.442 399.717 327.331 399.996C327.213 400.276 327.151 400.576 327.15 400.88V462.058C327.152 462.673 327.4 463.264 327.838 463.699C328.275 464.138 328.868 464.383 329.487 464.383H329.634V398.59H329.472Z" fill="black"/>
<path opacity="0.2" d="M337.563 398.59C337.258 398.586 336.955 398.642 336.671 398.756C336.39 398.866 336.133 399.032 335.917 399.244C335.703 399.457 335.537 399.711 335.427 399.991C335.31 400.271 335.25 400.572 335.25 400.875V462.053C335.25 462.669 335.496 463.259 335.933 463.699C336.371 464.134 336.964 464.378 337.583 464.378H337.695V398.59H337.563Z" fill="black"/>
<path opacity="0.2" d="M345.619 398.59C345.313 398.586 345.01 398.642 344.727 398.756C344.445 398.865 344.187 399.031 343.972 399.244C343.759 399.457 343.592 399.711 343.482 399.991C343.365 400.271 343.305 400.572 343.306 400.875V462.053C343.306 462.669 343.551 463.259 343.989 463.699C344.427 464.134 345.019 464.378 345.638 464.378H345.771V398.59H345.619Z" fill="black"/>
<path opacity="0.2" d="M353.674 398.589C353.064 398.589 352.48 398.831 352.049 399.26C351.618 399.69 351.376 400.272 351.376 400.88V462.058C351.37 462.361 351.425 462.664 351.539 462.947C351.653 463.225 351.822 463.484 352.037 463.699C352.252 463.909 352.505 464.075 352.782 464.187C353.065 464.304 353.368 464.363 353.674 464.363H353.821V398.589H353.674Z" fill="black"/>
<path opacity="0.3" d="M353.821 398.589V464.382C354.413 464.343 354.968 464.085 355.374 463.65C355.78 463.22 356.006 462.649 356.006 462.058V400.88C355.998 400.294 355.769 399.732 355.364 399.307C354.958 398.883 354.407 398.626 353.821 398.589Z" fill="black"/>
<path d="M184.967 202.299L187.133 204.643C187.467 205.109 187.622 205.679 187.569 206.25L187.294 209.131L185.408 206.479L184.967 202.299Z" fill="#0A4DB1"/>
<path d="M218.257 455.563L214.283 443.145L230.243 440.152L232.09 448.815L218.257 455.563Z" fill="white"/>
<path opacity="0.15" d="M218.507 442.735C218.507 442.735 220.565 449.572 225.558 451.203L221.54 455.773L217.253 452.843L214.249 442.588L218.507 442.735Z" fill="black"/>
<path d="M249.382 455.544C249.382 455.544 256.413 454.924 259.917 454.909C263.42 454.894 264.787 459.016 264.787 459.016C264.787 459.016 259.726 464.568 245.707 466.282C236.534 467.303 228.13 469.32 219.002 467.962V467.933C218.583 466.189 218.348 464.402 218.301 462.61C218.193 459.406 217.361 455.514 216.175 453.044C221.981 453.044 227.445 450.866 232.649 448.263L233.139 448.019L249.382 455.544Z" fill="#3F4249"/>
<path d="M249.382 455.544C249.382 455.544 250.166 457.497 245.825 456.521L232.34 449.581C232.134 449.474 231.961 449.313 231.841 449.112C231.72 448.912 231.656 448.688 231.656 448.453C231.656 448.219 231.72 447.994 231.841 447.794C231.961 447.594 232.134 447.433 232.34 447.325C232.524 447.228 232.729 447.179 232.938 447.179C233.146 447.179 233.352 447.228 233.535 447.325L249.382 455.544Z" fill="#3F4249"/>
<path opacity="0.3" d="M249.382 455.544C249.382 455.544 250.166 457.497 245.825 456.521L232.34 449.581C232.134 449.474 231.961 449.313 231.841 449.112C231.72 448.912 231.656 448.688 231.656 448.453C231.656 448.219 231.72 447.994 231.841 447.794C231.961 447.594 232.134 447.433 232.34 447.325C232.524 447.228 232.729 447.179 232.938 447.179C233.146 447.179 233.352 447.228 233.535 447.325L249.382 455.544Z" fill="black"/>
<path d="M243.791 466.541C234.834 467.366 218.546 468.006 218.546 468.006L219.34 472.24L230.404 471.263L230.208 470.228C230.208 470.228 240.988 470.599 246.589 469.549L247.931 469.286C252.635 468.343 261.46 465.096 265.41 462.381L264.787 459.055C260.558 463.098 253.38 465.203 243.791 466.541Z" fill="#21252B"/>
<path d="M105.42 437.397L111.32 426.854L124.29 437.622L119.547 444.244L105.42 437.397Z" fill="white"/>
<path opacity="0.15" d="M114.426 429.433C114.426 429.433 110.648 435.293 112.849 440.176L105.42 436.66L111.467 426.791L114.426 429.433Z" fill="black"/>
<path d="M124.78 458.703C124.78 458.703 131.64 461.633 134.09 463.098C137.094 464.895 135.629 469.032 135.629 469.032C135.629 469.032 119.263 470.633 114.721 465.32C107.949 459.07 100.922 454.059 95.9783 446.275V446.246C97.0313 444.791 98.2318 443.448 99.5602 442.237C101.922 440.064 104.333 436.889 105.44 434.379C109.247 438.745 114.476 441.47 119.846 443.658L120.336 443.863L124.78 458.703Z" fill="#3F4249"/>
<path d="M124.182 456.921C124.182 456.921 123.202 458.791 121.124 454.87L118.674 444.312C118.625 444.087 118.637 443.853 118.71 443.633C118.783 443.418 118.914 443.223 119.088 443.072C119.263 442.92 119.475 442.823 119.703 442.784C119.93 442.744 120.164 442.764 120.38 442.847C120.573 442.92 120.746 443.042 120.882 443.199C121.019 443.355 121.115 443.54 121.164 443.741L124.182 456.921Z" fill="#3F4249"/>
<path opacity="0.3" d="M124.182 456.921C124.182 456.921 123.202 458.791 121.124 454.87L118.674 444.312C118.625 444.087 118.637 443.853 118.71 443.633C118.783 443.418 118.914 443.223 119.088 443.072C119.263 442.92 119.475 442.823 119.703 442.784C119.93 442.744 120.164 442.764 120.38 442.847C120.573 442.92 120.746 443.042 120.882 443.199C121.019 443.355 121.115 443.54 121.164 443.741L124.182 456.921Z" fill="black"/>
<path d="M113.27 464.046C106.787 457.834 95.6691 445.977 95.6691 445.977L92.9692 449.347L100.961 457.038L101.623 456.208C101.623 456.208 108.38 464.573 112.853 468.113C113.619 468.714 114.465 469.207 115.367 469.578C123.031 472.694 129.611 471.976 134.938 471.888L135.629 469.046C129.778 468.499 120.561 470.423 113.27 464.046Z" fill="#21252B"/>
<path d="M233.56 442.1L218.007 360.348L214.916 349.898L191.16 290.175L184.408 286.473L161.535 301.861L191.562 367.781L213.25 446.837L233.56 443.077" fill="#0A4DB1"/>
<path d="M107.082 428.837L144.777 372.01C147.738 367.556 149.347 362.345 149.413 357.003C149.545 346.367 149.506 327.947 147.943 316.906C145.65 300.689 149.006 295.571 149.006 295.571L184.967 301.67L178.597 362.824C178.068 367.928 176.133 372.787 173.006 376.864L124.423 440.274L107.082 428.837Z" fill="#0A4DB1"/>
<path opacity="0.3" d="M182.629 307.252C182.642 307.2 182.665 307.152 182.696 307.11C182.728 307.067 182.767 307.031 182.813 307.005C182.859 306.978 182.91 306.96 182.962 306.953C183.014 306.946 183.068 306.95 183.119 306.964C183.213 306.983 183.297 307.035 183.355 307.112C183.413 307.188 183.441 307.283 183.433 307.379L184.188 336.879V351.558L180.566 344.14C180.669 336.244 182.262 311.91 182.634 307.344C182.63 307.314 182.628 307.283 182.629 307.252Z" fill="black"/>
<path d="M50.3485 459.128C52.4433 459.128 54.1411 457.434 54.1411 455.349C54.1411 453.263 52.4433 451.569 50.3485 451.569C48.2542 451.569 46.5559 453.263 46.5559 455.349C46.5559 457.434 48.2542 459.128 50.3485 459.128Z" fill="#21252B"/>
<path d="M50.3486 457.414C51.4932 457.414 52.4213 456.491 52.4213 455.348C52.4213 454.206 51.4932 453.283 50.3486 453.283C49.2039 453.283 48.2759 454.206 48.2759 455.348C48.2759 456.491 49.2039 457.414 50.3486 457.414Z" fill="#83878E"/>
<path d="M75.1625 470.355C77.2572 470.355 78.9551 468.661 78.9551 466.575C78.9551 464.49 77.2572 462.796 75.1625 462.796C73.0677 462.796 71.3699 464.49 71.3699 466.575C71.3699 468.661 73.0677 470.355 75.1625 470.355Z" fill="#21252B"/>
<path d="M75.1625 468.641C76.3072 468.641 77.2352 467.718 77.2352 466.575C77.2352 465.433 76.3072 464.51 75.1625 464.51C74.0179 464.51 73.0898 465.433 73.0898 466.575C73.0898 467.718 74.0179 468.641 75.1625 468.641Z" fill="#83878E"/>
<path d="M36.7902 448.981C35.9651 448.605 35.2232 448.067 34.6063 447.403C33.9894 446.739 33.5102 445.958 33.1956 445.108C32.881 444.258 32.7379 443.36 32.7737 442.452C32.8095 441.548 33.0236 440.659 33.4043 439.839L69.0616 362.131C69.8574 360.403 71.3083 359.061 73.0958 358.398C74.8833 357.736 76.8619 357.806 78.597 358.595L119.086 377.064C120.177 377.562 121.16 378.269 121.977 379.146C122.794 380.023 123.43 381.051 123.848 382.172C124.266 383.294 124.459 384.486 124.414 385.682C124.369 386.877 124.089 388.053 123.589 389.14L89.6514 463.059C88.642 465.257 86.7986 466.966 84.526 467.806C82.2534 468.651 79.7387 468.558 77.5337 467.552L36.7951 448.971L36.7902 448.981Z" fill="#21252B"/>
<path d="M37.1093 449.127C35.359 448.321 34.0012 446.856 33.3343 445.054C32.6674 443.252 32.7453 441.255 33.5519 439.512L69.1455 361.979C69.9221 360.292 71.3387 358.981 73.0841 358.334C74.8295 357.687 76.7611 357.756 78.4555 358.527L111.349 373.538C112.36 373.999 113.269 374.654 114.026 375.466C114.783 376.277 115.372 377.23 115.759 378.268C116.146 379.307 116.324 380.411 116.283 381.518C116.242 382.625 115.982 383.714 115.519 384.721L81.0182 459.856C80.0818 461.892 78.3727 463.469 76.2676 464.246C74.1626 465.027 71.8331 464.939 69.7923 464.007L37.124 449.112L37.1093 449.127Z" fill="#0A4DB1"/>
<path opacity="0.3" d="M37.1093 449.127C35.359 448.321 34.0012 446.856 33.3343 445.054C32.6674 443.252 32.7453 441.255 33.5519 439.512L69.1455 361.979C69.9221 360.292 71.3387 358.981 73.0841 358.334C74.8295 357.687 76.7611 357.756 78.4555 358.527L111.349 373.538C112.36 373.999 113.269 374.654 114.026 375.466C114.783 376.277 115.372 377.23 115.759 378.268C116.146 379.307 116.324 380.411 116.283 381.518C116.242 382.625 115.982 383.714 115.519 384.721L81.0182 459.856C80.0818 461.892 78.3727 463.469 76.2676 464.246C74.1626 465.027 71.8331 464.939 69.7923 464.007L37.124 449.112L37.1093 449.127Z" fill="black"/>
<path d="M33.3411 439.99L69.1797 361.935C69.557 361.109 70.094 360.365 70.7604 359.746C71.4268 359.127 72.2089 358.645 73.0619 358.327C73.9155 358.01 74.8235 357.863 75.7334 357.896C76.6438 357.928 77.5386 358.139 78.3672 358.517L104.425 370.364H104.45C106.329 371.233 107.786 372.807 108.504 374.743C109.222 376.679 109.142 378.819 108.282 380.697L73.2124 457.019C72.3451 458.889 70.7732 460.339 68.8381 461.057C66.9031 461.775 64.7614 461.707 62.8783 460.862L36.6878 448.937C35.0551 448.19 33.7855 446.832 33.1578 445.152C32.5306 443.477 32.5963 441.621 33.3411 439.99Z" fill="#0A4DB1"/>
<path d="M33.5665 439.526L69.0327 362.262C69.431 361.392 69.998 360.608 70.7006 359.955C71.4033 359.303 72.2279 358.795 73.1271 358.461C74.0267 358.126 74.9837 357.971 75.9436 358.005C76.903 358.039 77.8463 358.261 78.72 358.658L99.5793 368.156C100.455 368.552 101.244 369.115 101.901 369.814C102.558 370.513 103.071 371.335 103.409 372.231C103.747 373.128 103.904 374.082 103.872 375.04C103.839 375.997 103.618 376.939 103.22 377.811L67.7538 455.07C67.3549 455.939 66.788 456.721 66.0858 457.37C65.3836 458.024 64.5599 458.527 63.6613 458.864C62.7626 459.196 61.8066 459.348 60.8482 459.314C59.8902 459.279 58.948 459.055 58.0763 458.659L37.1827 449.132C35.4299 448.331 34.0663 446.871 33.3886 445.074C32.7114 443.272 32.7751 441.28 33.5665 439.526Z" fill="#0A4DB1"/>
<path opacity="0.15" d="M33.5665 439.526L69.0327 362.262C69.431 361.392 69.998 360.608 70.7006 359.955C71.4033 359.303 72.2279 358.795 73.1271 358.461C74.0267 358.126 74.9837 357.971 75.9436 358.005C76.903 358.039 77.8463 358.261 78.72 358.658L99.5793 368.156C100.455 368.552 101.244 369.115 101.901 369.814C102.558 370.513 103.071 371.335 103.409 372.231C103.747 373.128 103.904 374.082 103.872 375.04C103.839 375.997 103.618 376.939 103.22 377.811L67.7538 455.07C67.3549 455.939 66.788 456.721 66.0858 457.37C65.3836 458.024 64.5599 458.527 63.6613 458.864C62.7626 459.196 61.8066 459.348 60.8482 459.314C59.8902 459.279 58.948 459.055 58.0763 458.659L37.1827 449.132C35.4299 448.331 34.0663 446.871 33.3886 445.074C32.7114 443.272 32.7751 441.28 33.5665 439.526Z" fill="white"/>
<path d="M36.6976 448.937C35.0566 448.175 33.7841 446.798 33.1574 445.108C32.5307 443.414 32.6002 441.543 33.3509 439.902L69.2238 361.808C69.5967 360.995 70.1269 360.263 70.784 359.654C71.4411 359.045 72.2118 358.571 73.0532 358.258C73.894 357.946 74.7883 357.803 75.685 357.836C76.5817 357.868 77.4632 358.076 78.279 358.448L94.7381 365.959C95.553 366.334 96.2855 366.864 96.8946 367.521C97.5032 368.178 97.9765 368.947 98.2867 369.786C98.5974 370.625 98.7385 371.517 98.7032 372.41C98.6674 373.304 98.4558 374.182 98.0799 374.993L62.2168 453.083C61.4573 454.719 60.0794 455.993 58.3836 456.623C56.6872 457.248 54.8105 457.185 53.1616 456.442L36.7221 448.937H36.6976Z" fill="#0A4DB1"/>
<path opacity="0.3" d="M36.6976 448.937C35.0566 448.175 33.7841 446.798 33.1574 445.108C32.5307 443.414 32.6002 441.543 33.3509 439.902L69.2238 361.808C69.5967 360.995 70.1269 360.263 70.784 359.654C71.4411 359.045 72.2118 358.571 73.0532 358.258C73.894 357.946 74.7883 357.803 75.685 357.836C76.5817 357.868 77.4632 358.076 78.279 358.448L94.7381 365.959C95.553 366.334 96.2855 366.864 96.8946 367.521C97.5032 368.178 97.9765 368.947 98.2867 369.786C98.5974 370.625 98.7385 371.517 98.7032 372.41C98.6674 373.304 98.4558 374.182 98.0799 374.993L62.2168 453.083C61.4573 454.719 60.0794 455.993 58.3836 456.623C56.6872 457.248 54.8105 457.185 53.1616 456.442L36.7221 448.937H36.6976Z" fill="white"/>
<path d="M63.0543 468.89C65.1491 468.89 66.8469 467.195 66.8469 465.11C66.8469 463.025 65.1491 461.331 63.0543 461.331C60.9596 461.331 59.2617 463.025 59.2617 465.11C59.2617 467.195 60.9596 468.89 63.0543 468.89Z" fill="#21252B"/>
<path d="M63.0551 467.176C64.1998 467.176 65.1278 466.253 65.1278 465.11C65.1278 463.967 64.1998 463.044 63.0551 463.044C61.9105 463.044 60.9824 463.967 60.9824 465.11C60.9824 466.253 61.9105 467.176 63.0551 467.176Z" fill="#83878E"/>
<path d="M37.8441 457.419C39.9389 457.419 41.6367 455.724 41.6367 453.639C41.6367 451.554 39.9389 449.86 37.8441 449.86C35.7494 449.86 34.0515 451.554 34.0515 453.639C34.0515 455.724 35.7494 457.419 37.8441 457.419Z" fill="#21252B"/>
<path d="M37.8442 455.705C38.9888 455.705 39.9169 454.782 39.9169 453.639C39.9169 452.497 38.9888 451.574 37.8442 451.574C36.6991 451.574 35.7715 452.497 35.7715 453.639C35.7715 454.782 36.6991 455.705 37.8442 455.705Z" fill="#83878E"/>
<path d="M92.8811 365.144L93.6553 363.249C93.67 363.211 93.6862 363.173 93.7043 363.137C93.818 362.891 93.9787 362.671 94.1781 362.487C94.3771 362.303 94.6103 362.161 94.8646 362.068C95.1194 361.974 95.3894 361.932 95.6604 361.943C95.9314 361.953 96.1974 362.017 96.4434 362.131L111.256 368.713C111.506 368.827 111.731 368.989 111.919 369.189C112.106 369.39 112.252 369.625 112.348 369.882C112.444 370.138 112.488 370.412 112.478 370.685C112.468 370.959 112.405 371.228 112.29 371.477L111.344 373.538L92.8811 365.144Z" fill="#21252B"/>
<path d="M120.076 377.581C119.836 377.45 119.096 377.093 119.096 377.093L138.294 339.306L140.44 340.541L121.169 378.402C121.169 378.402 120.311 377.718 120.076 377.581Z" fill="#83878E"/>
<path d="M107.082 366.843L120.684 338.178L122.654 339.311L108.635 367.531L107.082 366.843Z" fill="#83878E"/>
<path d="M136.804 347.529L140.582 340.292C140.582 340.263 140.886 339.955 140.901 339.926C140.945 339.818 140.967 339.703 140.966 339.587C140.965 339.47 140.942 339.356 140.896 339.249C140.85 339.141 140.784 339.044 140.701 338.963C140.618 338.881 140.519 338.817 140.411 338.773L124.373 332.459C124.165 332.371 123.931 332.367 123.72 332.446C123.508 332.525 123.335 332.681 123.236 332.884L120.164 339.232L122.124 340.365L124.084 336.552C124.186 336.353 124.36 336.199 124.572 336.124C124.782 336.048 125.015 336.054 125.221 336.141L136.633 340.678H136.677C136.887 340.782 137.048 340.965 137.123 341.186C137.198 341.408 137.182 341.65 137.079 341.86L134.84 346.387L136.804 347.529Z" fill="#21252B"/>
<path d="M168.047 165.215L167.66 180.725L164.72 196.449L185.3 206.142L183.913 191.038L188.049 192.015C188.206 192.054 188.362 192.083 188.539 192.108C189.25 192.217 189.976 192.185 190.674 192.014C191.373 191.844 192.031 191.538 192.611 191.114C193.191 190.69 193.682 190.157 194.055 189.543C194.429 188.931 194.677 188.25 194.786 187.542L195.673 181.818L197.555 181.106L197.658 181.057C197.786 180.992 197.899 180.902 197.991 180.792C198.084 180.683 198.153 180.556 198.194 180.419C198.236 180.282 198.25 180.138 198.234 179.996C198.218 179.854 198.174 179.716 198.104 179.592L195.58 174.85V174.572L195.801 173.907C196.731 171.109 196.865 168.109 196.188 165.24L195.521 162.432L168.047 165.215Z" fill="#FC9D9D"/>
<path d="M196.001 163.862L187.921 166.016C187.54 166.097 187.19 166.286 186.915 166.561C186.639 166.836 186.449 167.184 186.368 167.564L186.039 168.999C185.652 170.894 184.266 171.705 182.325 171.929L180.365 172.037L179.919 175.572C179.885 175.81 179.767 176.028 179.589 176.188C179.409 176.348 179.18 176.442 178.939 176.451C178.68 176.451 178.43 176.348 178.246 176.165C178.063 175.982 177.959 175.734 177.959 175.475V174.151L173.368 174.64L172.702 178.336C171.114 181.369 167.498 181.647 167.498 181.647C165.337 174.752 162.402 166.275 164.621 159.58L164.675 159.413C165.43 157.074 168.826 155.214 172.148 156.044C173.368 156.376 174.108 155.106 174.534 154.721C176.303 151.966 182.114 151.136 185.495 153.256L187.656 154.721C189.406 155.6 191.346 155.106 193.34 154.887C198.623 154.144 201.416 161.308 196.001 163.862Z" fill="#21252B"/>
<path d="M197.3 310.509C197.795 310.506 198.284 310.399 198.735 310.196C199.186 309.993 199.589 309.697 199.919 309.33C200.249 308.961 200.497 308.528 200.649 308.059C200.8 307.589 200.851 307.093 200.799 306.602L200.083 303.902C199.519 301.771 199.093 299.607 198.809 297.422L197.584 288.094C196.457 280.281 196.834 272.009 197.388 264.132L197.418 263.731C197.587 261.238 197.615 258.737 197.501 256.24C197.344 252.66 197.344 249.078 197.501 245.497C197.937 234.754 196.619 226.667 191.302 216.685L184.864 205.151H183.83C178.989 203.12 176.127 200.199 172.369 196.547L165.999 190.306L157.12 198.851C153.355 202.54 150.462 207.018 148.651 211.961C146.841 216.903 146.158 222.186 146.654 227.424L150.863 271.794C151.01 273.281 150.99 274.78 150.804 276.262L146.605 310.826L197.3 310.509Z" fill="#21252B"/>
<path opacity="0.15" d="M184.472 196.703L179.822 191.097C179.747 191.004 179.697 190.895 179.676 190.777C179.655 190.66 179.665 190.54 179.704 190.428C179.733 190.341 179.78 190.261 179.841 190.191C179.902 190.122 179.976 190.066 180.059 190.026C180.142 189.986 180.232 189.962 180.324 189.956C180.416 189.951 180.509 189.963 180.596 189.993L183.918 191.023L184.472 196.703Z" fill="black"/>
<path opacity="0.15" d="M147.928 240.877L153.538 215.259C153.592 215.015 153.44 213.609 153.2 213.56C152.96 213.511 152.269 214.786 152.22 215.025L147.32 235.535L147.928 240.877Z" fill="black"/>
<path opacity="0.15" d="M158.85 271.97L169.933 243.422L177.935 223.561L161.535 274.431L154.822 310.826L149.736 310.641L158.85 271.97Z" fill="black"/>
<path opacity="0.15" d="M170.022 180.91L174.231 180.358C173.659 179.76 173.165 179.092 172.761 178.371C172.5 178.957 172.123 179.484 171.652 179.92C171.182 180.357 170.627 180.694 170.022 180.91Z" fill="black"/>
<path d="M193.11 176.329C193.722 176.329 194.217 175.785 194.217 175.113C194.217 174.442 193.722 173.897 193.11 173.897C192.499 173.897 192.003 174.442 192.003 175.113C192.003 175.785 192.499 176.329 193.11 176.329Z" fill="#21252B"/>
<path d="M193.718 174.782C193.81 174.782 193.885 174.708 193.885 174.616C193.885 174.524 193.81 174.449 193.718 174.449C193.626 174.449 193.552 174.524 193.552 174.616C193.552 174.708 193.626 174.782 193.718 174.782Z" fill="white"/>
<g opacity="0.3">
<path opacity="0.3" d="M194.82 184.919C194.823 184.892 194.823 184.864 194.82 184.836C194.822 184.79 194.815 184.744 194.799 184.701C194.782 184.658 194.757 184.618 194.725 184.585C194.693 184.552 194.655 184.525 194.612 184.507C194.569 184.489 194.523 184.48 194.477 184.48C194.477 184.48 192.654 184.255 191.655 183.039C191.583 182.971 191.488 182.932 191.389 182.929C191.289 182.926 191.192 182.961 191.117 183.025C191.041 183.09 190.992 183.179 190.98 183.278C190.966 183.376 190.991 183.475 191.047 183.557C191.927 184.518 193.13 185.126 194.428 185.266C194.521 185.255 194.609 185.217 194.679 185.155C194.749 185.093 194.799 185.01 194.82 184.919Z" fill="#21252B"/>
</g>
<path opacity="0.2" d="M154.67 310.738L149.736 346.875C149.736 346.875 148.785 319.816 148.055 317.721V310.738H154.67Z" fill="black"/>
<path d="M177.989 181.682V174.391C177.989 173.614 177.679 172.869 177.128 172.319C176.576 171.769 175.829 171.461 175.049 171.461C174.27 171.461 173.521 171.769 172.97 172.319C172.419 172.869 172.109 173.614 172.109 174.391V175.831C172.109 177.386 172.728 178.876 173.831 179.975C174.934 181.074 176.429 181.691 177.989 181.691V181.682Z" fill="#FC9D9D"/>
<g opacity="0.3">
<path opacity="0.3" d="M176.881 175.958V174.742C176.881 174.224 176.675 173.728 176.307 173.361C175.939 172.995 175.441 172.789 174.921 172.789C174.642 172.786 174.366 172.843 174.112 172.958C173.858 173.073 173.633 173.242 173.451 173.453L173.412 173.502C173.379 173.548 173.356 173.6 173.343 173.655C173.33 173.71 173.329 173.768 173.338 173.824C173.348 173.879 173.368 173.933 173.399 173.98C173.429 174.028 173.468 174.07 173.515 174.103C173.561 174.136 173.613 174.161 173.668 174.174C173.724 174.188 173.781 174.19 173.837 174.18C173.893 174.171 173.947 174.151 173.995 174.121C174.043 174.091 174.085 174.051 174.118 174.005C174.216 173.879 174.343 173.779 174.488 173.711C174.632 173.645 174.791 173.613 174.951 173.619C175.245 173.619 175.526 173.735 175.734 173.942C175.941 174.149 176.058 174.43 176.058 174.723V175.958C176.069 176.072 176.12 176.178 176.201 176.259C176.283 176.339 176.39 176.388 176.504 176.398C176.561 176.404 176.618 176.396 176.671 176.374C176.724 176.353 176.771 176.32 176.808 176.277C176.845 176.233 176.871 176.182 176.884 176.126C176.897 176.071 176.896 176.013 176.881 175.958Z" fill="#21252B"/>
</g>
<path d="M142.807 334.833C142.345 336.491 141.484 338.011 140.298 339.262L136.417 342.822C136.139 343.053 135.785 343.173 135.424 343.161C135.062 343.149 134.718 343.004 134.457 342.753C134.198 342.494 134.053 342.143 134.053 341.777C134.053 341.411 134.198 341.06 134.457 340.8L133.967 341.245C133.696 341.501 133.353 341.669 132.984 341.727C132.614 341.784 132.236 341.728 131.899 341.567C131.646 341.444 131.425 341.263 131.255 341.039C131.085 340.815 130.971 340.555 130.92 340.278C130.87 340.002 130.886 339.718 130.967 339.448C131.048 339.179 131.191 338.933 131.385 338.73L130.566 339.623C130.266 339.914 129.866 340.078 129.447 340.082C129.029 340.085 128.625 339.928 128.321 339.641C128.017 339.355 127.836 338.963 127.815 338.546C127.794 338.129 127.935 337.721 128.209 337.406L129.273 336.268L127.47 338.149C127.237 338.387 126.936 338.547 126.609 338.605C126.281 338.664 125.943 338.619 125.642 338.476C125.551 338.431 125.464 338.379 125.382 338.319C125.219 338.198 125.081 338.046 124.977 337.871C124.873 337.697 124.804 337.503 124.775 337.303C124.746 337.102 124.756 336.897 124.807 336.7C124.857 336.503 124.947 336.319 125.069 336.156L127.19 333.265L128.871 329.905C130.155 327.342 130.919 325.442 132.899 323.069L134.859 320.72C134.859 320.72 141.361 275.466 142.13 268.742C142.204 268.126 142.302 267.511 142.434 266.906L151.744 222.956L168.933 245.79L153.199 270.695L147.604 314.401L145.208 325.823L142.807 334.833Z" fill="#FC9D9D"/>
<path opacity="0.15" d="M134.629 343.037C134.488 342.969 134.361 342.879 134.251 342.768C133.992 342.509 133.846 342.158 133.846 341.791C133.846 341.425 133.992 341.074 134.251 340.815L133.761 341.259C133.49 341.516 133.148 341.685 132.778 341.743C132.409 341.801 132.031 341.747 131.693 341.586C131.533 341.504 131.385 341.401 131.252 341.279C130.907 340.952 130.705 340.502 130.691 340.027C130.677 339.551 130.853 339.09 131.179 338.744L130.361 339.638C130.218 339.802 130.042 339.937 129.846 340.032C129.649 340.127 129.435 340.182 129.217 340.193C128.998 340.204 128.779 340.171 128.575 340.095C128.369 340.02 128.182 339.904 128.022 339.754C127.863 339.604 127.736 339.425 127.649 339.224C127.561 339.025 127.516 338.809 127.514 338.591C127.512 338.374 127.554 338.157 127.639 337.956C127.723 337.755 127.847 337.573 128.004 337.421L129.067 336.283L127.264 338.163C127.032 338.401 126.731 338.561 126.403 338.62C126.075 338.678 125.737 338.633 125.436 338.49C125.345 338.446 125.258 338.394 125.176 338.334C125.013 338.213 124.876 338.061 124.771 337.886C124.667 337.711 124.598 337.518 124.569 337.317C124.54 337.116 124.551 336.912 124.601 336.715C124.652 336.518 124.741 336.333 124.863 336.171L126.985 333.28L127.156 332.938L127.646 333.602C127.775 333.816 127.952 333.999 128.163 334.135C128.373 334.272 128.612 334.358 128.861 334.388L129.351 334.437C129.762 334.509 130.137 334.717 130.415 335.028L131.012 335.692C131.231 335.942 131.525 336.113 131.85 336.18L132.37 336.332C132.704 336.396 133.009 336.568 133.237 336.82L133.756 337.392C134.025 337.655 134.366 337.833 134.736 337.904L135.77 338.1C136.173 338.158 136.54 338.359 136.804 338.666C136.987 338.881 137.221 339.045 137.485 339.144C137.749 339.243 138.034 339.274 138.313 339.233L139.945 339.428L136.329 342.739C136.113 342.961 135.833 343.109 135.527 343.163C135.222 343.216 134.907 343.172 134.629 343.037Z" fill="black"/>
<g opacity="0.15">
<path opacity="0.15" d="M129.68 336.405C129.733 336.352 129.763 336.28 129.763 336.205C129.763 336.13 129.733 336.058 129.68 336.005C129.654 335.978 129.623 335.956 129.588 335.942C129.553 335.927 129.516 335.92 129.479 335.92C129.441 335.92 129.404 335.927 129.37 335.942C129.335 335.956 129.304 335.978 129.278 336.005L127.808 337.435L128.205 337.88L129.68 336.405Z" fill="black"/>
</g>
<g opacity="0.15">
<path opacity="0.15" d="M131.39 339.14L132.703 337.875C132.708 337.862 132.707 337.848 132.702 337.835C132.697 337.822 132.686 337.812 132.674 337.807H132.62L131.292 339.062L131.39 339.14Z" fill="white"/>
<path opacity="0.15" d="M132.747 337.597C132.766 337.607 132.783 337.621 132.796 337.637C132.81 337.654 132.82 337.674 132.825 337.694C132.873 337.754 132.899 337.828 132.899 337.904C132.899 337.981 132.873 338.055 132.825 338.114L131.355 339.545L130.958 339.101L132.428 337.67C132.469 337.621 132.525 337.586 132.587 337.573C132.649 337.56 132.715 337.568 132.771 337.597H132.747Z" fill="black"/>
</g>
<g opacity="0.15">
<path opacity="0.15" d="M133.972 340.981L135.305 339.672V339.604H135.232L133.918 340.864L133.972 340.981Z" fill="white"/>
<path opacity="0.15" d="M135.403 339.335C135.452 339.36 135.452 339.36 135.482 339.433C135.529 339.492 135.555 339.565 135.555 339.64C135.555 339.716 135.529 339.789 135.482 339.848L134.012 341.279L133.61 340.839L135.08 339.404C135.119 339.353 135.175 339.319 135.239 339.306C135.301 339.294 135.367 339.304 135.423 339.335H135.403Z" fill="black"/>
</g>
<path d="M134.839 319.343L142.679 265.816L148.221 239.583L152.954 215.337C153.244 213.585 153.901 211.913 154.883 210.431C155.864 208.948 157.147 207.689 158.65 206.733C160.152 205.778 161.84 205.149 163.602 204.888C165.365 204.626 167.163 204.737 168.879 205.214C169.066 205.268 169.252 205.322 169.438 205.385C175.901 207.514 180.105 215.762 178.356 222.321C178.235 222.741 178.093 223.155 177.93 223.561L158.82 271.969L147.06 321.931L134.839 319.343Z" fill="#21252B"/>
<path d="M165.681 190.779L166.029 187.703C166.034 187.648 166.053 187.595 166.083 187.548C166.113 187.502 166.153 187.462 166.2 187.434C166.247 187.405 166.301 187.387 166.356 187.382C166.411 187.377 166.467 187.385 166.519 187.405C174.047 190.037 180.522 195.023 184.977 201.62L185.295 205.971L165.681 190.779Z" fill="white"/>
<path d="M195.619 171.436H195.575L190.161 171.949C189.742 171.992 189.358 172.199 189.093 172.524C188.827 172.849 188.702 173.266 188.744 173.683L188.862 174.908C188.974 176.048 189.537 177.097 190.425 177.823C191.313 178.55 192.454 178.895 193.598 178.783C194.742 178.672 195.794 178.111 196.523 177.226C197.252 176.341 197.598 175.203 197.486 174.064L197.369 172.838C197.328 172.485 197.169 172.157 196.918 171.905C196.556 171.597 196.095 171.431 195.619 171.436ZM196.736 172.901L196.854 174.132C196.903 174.613 196.855 175.099 196.716 175.562C196.576 176.025 196.346 176.456 196.039 176.83C195.732 177.204 195.355 177.515 194.927 177.743C194.5 177.972 194.032 178.115 193.549 178.163C193.066 178.212 192.579 178.165 192.114 178.026C191.65 177.886 191.218 177.657 190.842 177.351C190.466 177.045 190.155 176.669 189.925 176.243C189.696 175.817 189.553 175.35 189.504 174.869L189.386 173.644C189.363 173.388 189.441 173.134 189.605 172.936C189.768 172.737 190.003 172.611 190.259 172.584L195.673 172.096H195.717C195.959 172.071 196.201 172.141 196.391 172.292C196.582 172.442 196.706 172.661 196.736 172.901Z" fill="#21252B"/>
<path opacity="0.15" d="M186.916 289.54H168.522C167.852 289.54 167.211 289.275 166.737 288.803C166.264 288.332 165.998 287.692 165.998 287.025V282.01C165.998 281.963 166.008 281.918 166.025 281.876C166.043 281.833 166.069 281.794 166.102 281.761C166.135 281.729 166.173 281.703 166.216 281.685C166.259 281.667 166.305 281.658 166.351 281.658H189.087C189.134 281.658 189.179 281.667 189.222 281.685C189.265 281.703 189.304 281.729 189.336 281.761C189.369 281.794 189.395 281.833 189.413 281.876C189.431 281.918 189.44 281.963 189.44 282.01V287.025C189.44 287.355 189.375 287.682 189.248 287.987C189.121 288.293 188.935 288.57 188.701 288.803C188.466 289.037 188.188 289.222 187.882 289.348C187.576 289.475 187.248 289.54 186.916 289.54Z" fill="black"/>
<path d="M186.937 206.196C186.937 206.196 195.595 219.161 196.879 229.001L187.059 208.677L186.937 206.196Z" fill="#0A4DB1"/>
<path d="M194.928 232.893L187.431 217.672L188.176 213.716L184.472 213.072C184.472 213.072 173.442 194.808 163.319 192.874L165.46 190.306C165.46 190.306 171.761 190.306 181.306 200.844C184.131 203.972 186.542 207.448 188.48 211.187L192.258 218.512C194.273 222.422 195.701 226.606 196.496 230.93C197.282 233.989 197.642 237.14 197.565 240.296L194.928 232.893Z" fill="#21252B"/>
<path opacity="0.15" d="M194.928 232.893L187.431 217.672L188.176 213.716L184.472 213.072C184.472 213.072 173.442 194.808 163.319 192.874L165.46 190.306C165.46 190.306 171.761 190.306 181.306 200.844C184.131 203.972 186.542 207.448 188.48 211.187L192.258 218.512C194.273 222.422 195.701 226.606 196.496 230.93C197.282 233.989 197.642 237.14 197.565 240.296L194.928 232.893Z" fill="black"/>
<path opacity="0.1" d="M186.916 288.705H168.522C167.852 288.705 167.211 288.44 166.737 287.968C166.264 287.497 165.998 286.857 165.998 286.19V282.01C165.998 281.917 166.036 281.827 166.102 281.761C166.168 281.695 166.258 281.658 166.351 281.658H189.087C189.181 281.658 189.27 281.695 189.336 281.761C189.403 281.827 189.44 281.917 189.44 282.01V286.19C189.44 286.857 189.174 287.497 188.701 287.968C188.228 288.44 187.586 288.705 186.916 288.705Z" fill="white"/>
</svg>
