<svg width="89" height="89" viewBox="0 0 89 89" fill="none" xmlns="http://www.w3.org/2000/svg">
<path d="M87 81.3333H2V86.9999H87V81.3333Z" stroke="#203847" stroke-width="4" stroke-linejoin="round"/>
<path d="M4.83325 81.3333V2H47.3333V81.3333" stroke="#203847" stroke-width="4" stroke-linejoin="round"/>
<path d="M4.83325 16.1666H47.3333" stroke="#203847" stroke-width="4" stroke-linejoin="round"/>
<path d="M26.0833 2V16.1667" stroke="#203847" stroke-width="4" stroke-linejoin="round"/>
<path d="M4.83325 30.3334H47.3333" stroke="#203847" stroke-width="4" stroke-linejoin="round"/>
<path d="M26.0833 16.1666V30.3333" stroke="#203847" stroke-width="4" stroke-linejoin="round"/>
<path d="M4.83325 44.5H47.3333" stroke="#203847" stroke-width="4" stroke-linejoin="round"/>
<path d="M26.0833 30.3334V44.5" stroke="#203847" stroke-width="4" stroke-linejoin="round"/>
<path d="M19 81.3333V74.25C19 72.3713 19.7463 70.5697 21.0747 69.2413C22.403 67.9129 24.2047 67.1666 26.0833 67.1666V67.1666C27.0135 67.1666 27.9346 67.3498 28.794 67.7058C29.6534 68.0618 30.4343 68.5835 31.092 69.2413C31.7498 69.899 32.2715 70.6799 32.6275 71.5393C32.9835 72.3987 33.1667 73.3198 33.1667 74.25V81.3333" stroke="#203847" stroke-width="4" stroke-linejoin="round"/>
<path d="M9.08325 11.9167L14.7499 6.25" stroke="#203847" stroke-width="4" stroke-linejoin="round"/>
<path d="M16.1667 11.9167L21.8334 6.25" stroke="#203847" stroke-width="4" stroke-linejoin="round"/>
<path d="M37.4167 11.9167L43.0834 6.25" stroke="#203847" stroke-width="4" stroke-linejoin="round"/>
<path d="M37.4167 26.0834L43.0834 20.4167" stroke="#203847" stroke-width="4" stroke-linejoin="round"/>
<path d="M37.4167 40.25L43.0834 34.5834" stroke="#203847" stroke-width="4" stroke-linejoin="round"/>
<path d="M30.3333 11.9167L35.9999 6.25" stroke="#203847" stroke-width="4" stroke-linejoin="round"/>
<path d="M30.3333 26.0834L35.9999 20.4167" stroke="#203847" stroke-width="4" stroke-linejoin="round"/>
<path d="M30.3333 40.25L35.9999 34.5834" stroke="#203847" stroke-width="4" stroke-linejoin="round"/>
<path d="M9.08325 40.25L14.7499 34.5834" stroke="#203847" stroke-width="4" stroke-linejoin="round"/>
<path d="M16.1667 40.25L21.8334 34.5834" stroke="#203847" stroke-width="4" stroke-linejoin="round"/>
<path d="M4.83325 58.6666H47.3333" stroke="#203847" stroke-width="4" stroke-linejoin="round"/>
<path d="M26.0833 44.5V58.6667" stroke="#203847" stroke-width="4" stroke-linejoin="round"/>
<path d="M37.4167 54.4167L43.0834 48.75" stroke="#203847" stroke-width="4" stroke-linejoin="round"/>
<path d="M30.3333 54.4167L35.9999 48.75" stroke="#203847" stroke-width="4" stroke-linejoin="round"/>
<path d="M9.08325 54.4167L14.7499 48.75" stroke="#203847" stroke-width="4" stroke-linejoin="round"/>
<path d="M16.1667 54.4167L21.8334 48.75" stroke="#203847" stroke-width="4" stroke-linejoin="round"/>
<path d="M9.08325 26.0834L14.7499 20.4167" stroke="#203847" stroke-width="4" stroke-linejoin="round"/>
<path d="M16.1667 26.0834L21.8334 20.4167" stroke="#203847" stroke-width="4" stroke-linejoin="round"/>
<path d="M81.3333 30.3334H47.3333V81.3334H81.3333V30.3334Z" stroke="#203847" stroke-width="4" stroke-linejoin="round"/>
<path d="M61.5 36H53V44.5H61.5V36Z" stroke="#EFB829" stroke-width="4" stroke-linejoin="round"/>
<path d="M75.6667 36H67.1667V44.5H75.6667V36Z" stroke="#EFB829" stroke-width="4" stroke-linejoin="round"/>
<path d="M61.5 50.1667H53V58.6667H61.5V50.1667Z" stroke="#EFB829" stroke-width="4" stroke-linejoin="round"/>
<path d="M75.6667 50.1667H67.1667V58.6667H75.6667V50.1667Z" stroke="#EFB829" stroke-width="4" stroke-linejoin="round"/>
<path d="M53 81.3333V65.75H75.6667V81.3333" stroke="#203847" stroke-width="4" stroke-linejoin="round"/>
<path d="M64.3333 65.75V81.3333" stroke="#203847" stroke-width="4" stroke-linejoin="round"/>
<path d="M78.5 16.1666H53V24.6666H78.5V16.1666Z" stroke="#203847" stroke-width="4" stroke-linejoin="round"/>
<path d="M55.8335 24.6666V30.3333" stroke="#203847" stroke-width="4" stroke-linejoin="round"/>
<path d="M75.6665 24.6666V30.3333" stroke="#203847" stroke-width="4" stroke-linejoin="round"/>
</svg>
