<svg width="24" height="24" viewBox="0 0 24 24" fill="none" xmlns="http://www.w3.org/2000/svg">
<path d="M17.9496 0H5.98046C2.68286 0 0 2.67384 0 5.96035V17.987C0 21.2733 2.68286 23.9474 5.98046 23.9474H17.9496C21.2472 23.9474 23.93 21.2733 23.93 17.987V5.96033C23.93 2.67384 21.2472 0 17.9496 0ZM21.7151 17.9869C21.7151 20.0561 20.026 21.7398 17.9497 21.7398H5.98049C3.90415 21.7398 2.21501 20.0561 2.21501 17.9869V10.2194H6.94651C6.60108 10.95 6.4068 11.7651 6.4068 12.6246C6.4068 15.7466 8.95512 18.2862 12.0875 18.2862C15.2198 18.2862 17.7682 15.7466 17.7682 12.6246C17.7682 11.7651 17.5739 10.95 17.2284 10.2194H21.7151L21.7151 17.9869ZM9.72931 12.6247C9.72931 11.3289 10.7872 10.2745 12.0875 10.2745C13.3879 10.2745 14.4457 11.3289 14.4457 12.6247C14.4457 13.9207 13.3879 14.9749 12.0875 14.9749C10.7872 14.9749 9.72931 13.9207 9.72931 12.6247ZM21.7151 8.0119H15.375C14.4461 7.35266 13.3121 6.96322 12.0875 6.96322C10.863 6.96322 9.72878 7.35266 8.80018 8.0119H2.21501V5.96035C2.21501 3.891 3.90415 2.20754 5.98049 2.20754H17.9497C20.026 2.20754 21.7151 3.891 21.7151 5.96035V8.0119ZM19.315 3.54638H17.2618C16.8962 3.54638 16.5973 3.84442 16.5973 4.20864V6.25502C16.5973 6.61922 16.8962 6.91728 17.2618 6.91728H19.315C19.6805 6.91728 19.9795 6.61922 19.9795 6.25502V4.20864C19.9795 3.84442 19.6806 3.54638 19.315 3.54638Z" fill="#F2F0F0"/>
</svg>
