<svg width="153" height="24" viewBox="0 0 153 24" fill="none" xmlns="http://www.w3.org/2000/svg">
<path d="M17.1986 4.75931H10.8561V22.3465H6.42029V4.75931H0V0.677246H17.1986V4.75931Z" fill="#F2F0F0"/>
<path d="M31.0112 14.6402H28.4448V22.3465H24.0781V0.677246H33.3477C37.5229 0.677246 40.7404 3.72926 40.7404 7.77318C40.7404 10.8633 38.7486 13.3813 35.8375 14.2587L41.2767 22.3465H36.029L31.0112 14.6402ZM28.4065 10.9015H33.2328C34.9182 10.9015 36.2206 9.56624 36.2206 7.84948C36.2206 6.13272 34.9182 4.79747 33.2328 4.79747H28.4065V10.9015Z" fill="#F2F0F0"/>
<path d="M90.8086 0.677246L82.0882 22.3465H77.5536L68.7944 0.677246H73.7166L79.879 16.5859L86.0027 0.677246H90.8086Z" fill="#F2F0F0"/>
<path d="M46.0923 22.3465L54.8281 0.677246H59.3707L68.1065 22.3465H63.2144L57.0411 6.43792L50.9067 22.3465H46.0923Z" fill="#F2F0F0"/>
<path d="M110.759 18.2645V22.3465H97V0.677246H101.333V18.2645H110.759Z" fill="#F2F0F0"/>
<path d="M121.766 0.677246H117.638V22.3465H121.766V0.677246Z" fill="#F2F0F0"/>
<path d="M128.646 11.5118C128.646 4.97279 133.674 0 140.341 0C146.968 0 152.036 4.97279 152.036 11.5118C152.036 18.0508 147.007 23.0236 140.341 23.0236C133.674 23.0236 128.646 18.0508 128.646 11.5118ZM147.436 11.5118C147.436 7.40045 144.356 4.30714 140.302 4.30714C136.247 4.30714 133.168 7.40045 133.168 11.5118C133.168 15.6232 136.247 18.7165 140.302 18.7165C144.356 18.7165 147.436 15.6232 147.436 11.5118Z" fill="#0A4DB1"/>
</svg>
