<svg width="120" height="120" viewBox="0 0 120 120" fill="none" xmlns="http://www.w3.org/2000/svg">
<g clip-path="url(#clip0_1_1673)">
<path fill-rule="evenodd" clip-rule="evenodd" d="M0 0H120V120H0V0Z" fill="white"/>
<path fill-rule="evenodd" clip-rule="evenodd" d="M6.57546 61.0533V75.9846H14.4065V79.9608H1.91755V61.0533H6.57546C4.98298 61.0533 6.57546 61.0533 6.57546 61.0533ZM19.6633 66.4969C19.6633 71.4493 19.7417 74.9281 19.7417 74.9281C19.9578 76.1657 20.2398 76.3351 20.6581 76.6071C21.3815 76.8007 22.5065 76.7515 22.9728 76.2217C23.487 75.7405 23.5349 75.0968 23.5997 74.4381V66.4751C24.851 66.4969 25.9716 66.4969 28.0939 66.4969V79.9608H24.4389C23.9888 79.7043 24.3069 78.6976 23.7447 78.6814C22.3303 80.2889 20.0966 80.4968 18.1997 79.8375C15.4157 78.3322 15.2015 75.7206 15.2426 72.8643C15.2687 70.993 15.2426 68.6802 15.2426 67.676V66.4963H19.6633V66.4969ZM30.6874 66.4969C30.6874 64.7289 30.9763 62.7909 32.5357 61.7462C34.239 60.8137 35.7662 61.1032 37.6307 61.0384L37.9364 61.0141V64.4929C37.3499 64.4929 36.2293 64.3753 35.702 64.6716C35.0751 64.9928 35.0272 65.8862 35.1716 66.4969H37.762C37.762 67.4451 37.7913 68.7549 37.7913 69.6221L35.2357 69.6065C35.2862 73.6313 35.2357 79.9408 35.2357 79.9408H30.9233L30.9283 69.6227C30.3338 69.6227 29.6907 69.6875 29.0638 69.6072L29.037 66.4982C29.5674 66.4969 30.2161 66.4969 30.6874 66.4969C30.2161 66.4969 30.6874 66.4969 30.6874 66.4969ZM38.4823 66.4969H40.1788L40.1856 62.1341C40.1856 62.1341 43.223 62.1185 44.6537 62.1341V66.4969C44.8143 66.5772 47.1943 66.4969 47.1943 66.4969L47.193 69.6221H44.6375L44.6593 76.1663C44.8952 76.8157 46.5462 76.6382 47.4894 76.6382V79.9408H45.603C43.7541 79.9408 41.8254 80.2141 40.716 78.2531C40.0412 76.9508 40.2373 75.9211 40.2373 74.3989V69.6227H38.4686L38.4823 66.4969ZM52.6777 61.0148V67.5005C53.642 66.5835 54.9083 65.9098 56.2262 65.8283C57.1102 65.8769 58.4444 65.9254 59.1516 66.6806C61.5204 68.4436 61.0485 73.7453 61.0485 77.4631V79.9402H56.8046L56.7728 70.8442C56.5319 70.3928 56.3389 69.863 55.8402 69.6065C54.8435 69.2367 54.0398 69.558 53.3009 70.2328C52.4417 71.2737 52.6777 73.5448 52.6777 75.1647V79.9408H48.374L48.351 79.5555C48.351 79.5555 48.3416 61.9797 48.374 61.0154L52.6777 61.0148C51.2626 61.0148 52.6777 61.0148 52.6777 61.0148ZM80.7403 66.4969C80.9763 66.9688 80.5604 67.3554 81.2197 67.5328C82.2158 66.2622 83.9359 65.6521 85.4617 65.8283C87.3113 65.9727 88.9331 67.1145 89.4803 68.9143C89.9459 72.37 89.7013 75.4 89.7013 79.6445L89.4 79.6346L85.397 79.6445C85.397 78.9964 85.3167 77.0074 85.397 76.6376C85.3322 73.2927 85.4785 73.6232 85.3167 70.9239C85.1722 70.0716 84.513 69.4771 83.6937 69.3009C82.9385 69.3326 81.9101 69.5574 81.5247 70.3773L81.2197 71.2295C81.2122 74.3385 81.2122 75.6957 81.2122 78.6428V79.6445H76.9677V66.4969H80.7403ZM90.9981 75.0464H94.7128C94.922 75.8345 95.5078 76.8704 96.4236 77.0149C97.3879 77.0952 98.2719 76.9346 99.0439 76.5492C99.3334 76.1153 99.494 75.7299 99.2045 75.2468C98.7861 74.7164 98.1599 74.6853 97.5815 74.5402L97.4209 74.3958C95.2189 74.1225 92.6316 73.9457 91.4899 71.9199C90.6862 70.4569 91.2334 68.593 92.1815 67.371C94.3194 65.2506 97.871 65.2506 100.667 66.053C101.6 66.3108 102.516 67.2751 102.901 68.2232C102.981 68.9466 103.143 69.5038 103.126 70.3766C101.825 70.2963 100.432 70.3891 99.3116 70.3891C99.4074 69.6657 98.8036 69.1234 98.2719 68.834C97.5323 68.6578 96.8344 68.5021 96.0382 68.9946C95.5725 69.2679 95.4754 69.7827 95.6529 70.2322C96.6327 71.1648 97.838 70.8267 99.0439 71.2295C100.538 71.5022 102.644 72.0002 103.367 73.7683C103.818 75.1192 103.913 76.7901 102.981 77.9475C102.386 78.4779 102.033 79.1048 101.197 79.3301C100.618 79.8114 99.6702 79.9564 98.9636 80.1008C97.3076 80.2297 95.7805 80.2453 94.2546 79.7958C92.6789 79.1857 91.1842 77.9319 90.9439 76.1639C90.9433 76.1639 90.8798 75.9304 90.9981 75.0464C90.8798 75.9304 90.9981 75.0464 90.9981 75.0464ZM64.2465 72.6925C65.2099 72.1329 66.2494 71.7161 67.3325 71.4549C68.6019 71.2457 70.0804 71.3746 71.046 70.3779C71.1736 69.7516 70.8524 69.398 70.4185 69.1403C69.4703 68.7387 68.473 68.8993 67.5734 69.3021C66.9141 69.6234 67.0629 70.0367 66.9446 70.7427H62.9939C63.0537 70.1544 63.1689 69.9925 63.1689 69.6072C63.571 67.7103 65.2102 66.3276 67.1071 66.0543L67.2516 65.9111C69.3402 65.7019 71.5752 65.4927 73.1988 66.6818H73.4235C76.766 69.1577 74.7732 74.5259 75.4325 78.0128C75.4169 78.5918 75.8409 79.276 75.9056 79.6458H72.0732C72.09 79.4048 71.8167 78.9286 71.5758 78.7835C71.1257 78.8638 70.8362 79.3308 70.4185 79.4914C68.811 80.231 66.2549 80.7452 64.7122 79.6358C63.4428 78.9927 62.6073 78.0925 62.3179 76.7104C62.2537 75.0707 62.7997 73.3674 64.2465 72.6925C62.7997 73.3674 64.2465 72.6925 64.2465 72.6925ZM68.5707 74.1549C69.5506 73.993 70.2585 73.6394 71.1898 73.6232C71.158 74.5241 71.3517 75.5843 70.7241 76.1632C69.936 76.8866 68.8322 77.2272 67.6382 77.0946C67.1395 76.7895 66.4808 76.5641 66.4808 75.8582C66.5773 74.8129 67.7353 74.3958 68.5707 74.1549C67.7353 74.3958 68.5707 74.1549 68.5707 74.1549ZM106.984 72.2256C108.623 71.3901 110.407 71.3416 112.158 71.0048C112.254 70.8112 112.448 70.8442 112.624 70.8442C112.947 70.6182 113.412 70.5217 113.541 70.1525C113.59 69.6539 113.397 69.0593 112.931 68.9952C112.127 68.6902 111.066 68.4492 110.23 68.9952C109.716 69.2529 109.441 69.7952 109.393 70.3897C108.46 70.47 106.681 70.3897 105.384 70.3897C105.576 68.4772 106.775 66.6326 108.607 66.0537C110.488 65.3788 113.252 65.3141 115.084 66.1352C116.097 66.4876 117.044 67.6138 117.479 68.6902C118.106 72.1297 117.559 75.2805 117.946 78.72C118.17 78.8632 118.14 79.436 118.236 79.6451H114.463C114.495 79.3401 114.185 78.7673 114.007 78.5582C111.886 80.2615 108.88 80.5839 106.454 79.1695C105.762 78.575 104.991 77.658 104.669 76.6295C104.396 74.6691 105.536 73.0779 106.984 72.2256C105.536 73.0779 106.984 72.2256 106.984 72.2256ZM112.544 73.6239C112.946 73.6568 113.165 73.4551 113.621 73.3829C113.765 74.4276 113.797 75.3284 113.011 76.0835C112.046 76.7584 110.793 77.0796 109.62 76.7098C109.186 76.5006 108.992 76.0505 108.912 75.6334C109.313 73.9775 111.259 74.0422 112.544 73.6239C112.544 73.6239 111.259 74.0422 112.544 73.6239ZM1.7644 48.664C1.7644 43.7259 5.76739 39.723 10.7054 39.723C15.6435 39.723 19.6465 43.7259 19.6465 48.664C19.6465 53.6021 15.6435 57.6044 10.7054 57.6044C5.76801 57.605 1.7644 53.6021 1.7644 48.664C1.7644 53.6021 1.7644 48.664 1.7644 48.664ZM2.90554 48.664C2.90554 44.356 6.39741 40.8635 10.7054 40.8635C15.0135 40.8635 18.5054 44.356 18.5054 48.664C18.5054 52.9714 15.0135 56.4639 10.7054 56.4639C6.39741 56.4639 2.90554 52.972 2.90554 48.664C2.90554 48.664 2.90554 52.972 2.90554 48.664Z" fill="#4D2A80"/>
<path fill-rule="evenodd" clip-rule="evenodd" d="M17.7334 46.5791C18.0553 46.7397 17.8299 46.9009 17.7334 47.0616C16.3495 47.0933 15.0627 46.9327 13.8724 47.1904L14.1942 47.4482C15.288 47.4482 16.446 47.0298 17.4433 47.5123C16.3171 48.0271 14.6443 47.4158 13.647 48.0595C14.6119 48.2849 15.8023 47.9306 16.832 48.0595C16.8967 48.2201 16.7031 48.349 16.5748 48.349C15.4163 48.6067 14.226 48.156 13.1963 48.735H16.1882C16.3489 49.0245 15.8346 49.1857 15.5769 49.2175C14.9338 48.8956 14.1612 49.1527 13.4858 49.2822C12.8103 49.5393 12.0701 49.6999 11.4264 50.0542C12.4884 51.0515 14.0971 51.6628 15.6734 51.5981L15.8023 51.7587L15.6734 51.9193C15.7699 51.9517 15.7381 52.0482 15.7381 52.1447C14.7402 52.4665 13.7111 51.9193 12.7138 51.6946C9.33584 50.8255 6.63336 48.702 3.38428 47.5117V47.1257C3.83438 46.9644 4.54222 47.351 4.9282 46.9003L8.33852 48.123L8.40326 48.3484C7.8243 48.5096 7.21295 48.0913 6.6981 48.123C7.56656 48.7985 8.95049 49.1203 10.0119 48.7344C11.2987 48.6379 11.4917 46.9327 12.5855 46.675C14.1942 46.4185 16.06 46.4832 17.7334 46.5791C16.06 46.4832 17.7334 46.5791 17.7334 46.5791Z" fill="#4D2A80"/>
</g>
<defs>
<clipPath id="clip0_1_1673">
<rect width="120" height="120" fill="white"/>
</clipPath>
</defs>
</svg>
