<svg width="421" height="316" viewBox="0 0 421 316" fill="none" xmlns="http://www.w3.org/2000/svg">
<g clip-path="url(#clip0_1_1731)">
<path d="M292.504 31.6927C301.255 31.6927 308.349 24.5981 308.349 15.8464C308.349 7.09466 301.255 0 292.504 0C283.754 0 276.66 7.09466 276.66 15.8464C276.66 24.5981 283.754 31.6927 292.504 31.6927Z" fill="#FF6584"/>
<path d="M334.978 302.568L329.271 302.686L326.09 280.24L334.512 280.065L334.978 302.568Z" fill="#FFB6B6"/>
<path d="M316.968 312.173C316.999 313.582 318.164 314.7 319.572 314.673L330.917 314.437L332.786 310.354L333.633 314.378L337.914 314.292L336.413 299.894L334.921 299.838L328.835 299.596L326.872 299.522L326.957 303.606L318.025 310.052C317.346 310.543 316.951 311.336 316.968 312.173Z" fill="#2F2E41"/>
<path d="M373.38 302.568L367.674 302.686L364.493 280.24L372.914 280.065L373.38 302.568Z" fill="#FFB6B6"/>
<path d="M355.371 312.173C355.402 313.582 356.566 314.7 357.975 314.673L369.32 314.437L371.189 310.354L372.036 314.378L376.317 314.292L374.816 299.894L373.324 299.838L367.238 299.596L365.275 299.522L365.359 303.606L356.428 310.052C355.749 310.543 355.354 311.336 355.371 312.173Z" fill="#2F2E41"/>
<path d="M340.729 129.991L372.149 129.118L370.404 131.737L374.38 135.665C374.38 135.665 388.732 155.304 384.369 173.199C380.005 191.093 382.461 296.882 382.461 296.882L356.876 294.093L359.712 187.383L338.765 227.536L344.856 292.629L323.055 292.566L316.073 222.298L340.729 129.991V129.991Z" fill="#2F2E41"/>
<path d="M209.291 45.567C209.409 45.8584 209.818 45.8584 209.936 45.5669C210.76 43.5336 211.935 41.2566 213.212 39.5164C213.416 39.2378 213.134 38.8655 212.809 38.9831L210.072 39.9736V23.0251H209.155V39.9736L206.417 38.983C206.092 38.8654 205.81 39.2377 206.014 39.5163C207.292 41.2565 208.466 43.5336 209.291 45.567H209.291Z" fill="#3F3D56"/>
<path d="M227.244 63.0178C227.155 63.3195 227.475 63.5734 227.749 63.4187C229.659 62.3394 231.994 61.2865 234.076 60.7181C234.41 60.6271 234.42 60.1603 234.093 60.0502L231.333 59.1232L241.872 45.851L241.155 45.281L230.615 58.5532L229.087 56.0741C228.906 55.7799 228.453 55.8962 228.44 56.2415C228.358 58.3986 227.862 60.9121 227.244 63.0178Z" fill="#3F3D56"/>
<path d="M294.18 93.9845L311.102 92.0337L313.565 101.547L295.6 102.972C295.218 103.368 294.773 103.716 294.266 103.997C291.514 105.527 288.042 104.535 286.513 101.782C284.984 99.0289 285.975 95.5572 288.728 94.0277C290.484 93.0523 292.53 93.1062 294.18 93.9845Z" fill="#FFB6B6"/>
<path d="M375.208 72.0429L368.585 61.991C367.381 62.947 366.324 63.9084 365.527 64.7588L364.154 65.7043L359.717 69.6712L347.158 80.8851L342.98 84.6196L338.316 85.4383L328.023 87.2501L312.434 91.4453L300.955 92.1888C300.95 92.4213 300.95 92.7699 300.95 93.203C300.944 95.4585 300.997 100.022 301.441 102.51C301.594 103.376 301.795 103.989 302.059 104.174C302.143 104.232 310.934 101.487 311.378 101.481C314.953 101.476 320.93 102.457 332.987 100.889C340.149 99.9483 346.455 99.0926 349.107 98.7281L349.165 98.7176L351.082 97.7879L372.129 87.5934L378.483 84.5139C377.954 80.2565 376.861 76.0573 375.208 72.0429V72.0429Z" fill="#0A4DB1"/>
<path d="M11.9838 14.7587C5.36534 14.7587 0 20.1247 0 26.7439V229.741H1.05631V98.0472C1.05631 52.6315 37.8687 15.8152 83.2793 15.8152L293.318 15.6231L293.126 14.7587H11.9838Z" fill="#3F3D56"/>
<path d="M67.4486 48.4879C69.9153 48.4879 71.915 46.4434 71.915 43.9215C71.915 41.3995 69.9153 39.355 67.4486 39.355C64.9819 39.355 62.9822 41.3995 62.9822 43.9215C62.9822 46.4434 64.9819 48.4879 67.4486 48.4879Z" fill="#3F3D56"/>
<path d="M82.8778 48.4879C85.3445 48.4879 87.3442 46.4434 87.3442 43.9215C87.3442 41.3995 85.3445 39.355 82.8778 39.355C80.411 39.355 78.4114 41.3995 78.4114 43.9215C78.4114 46.4434 80.411 48.4879 82.8778 48.4879Z" fill="#3F3D56"/>
<path d="M98.3072 48.4879C100.774 48.4879 102.774 46.4434 102.774 43.9215C102.774 41.3995 100.774 39.355 98.3072 39.355C95.8405 39.355 93.8408 41.3995 93.8408 43.9215C93.8408 46.4434 95.8405 48.4879 98.3072 48.4879Z" fill="#3F3D56"/>
<path d="M176.147 97.7192C169.528 97.7192 164.163 103.085 164.163 109.704L164.163 196.495H165.219V181.008C165.219 135.592 202.032 98.7757 247.442 98.7757L323.857 98.5836L323.665 97.7193L176.147 97.7192Z" fill="#F2F2F2"/>
<path d="M220.519 151.582C219.936 151.582 219.463 152.056 219.463 152.639V169.013C219.463 169.596 219.936 170.07 220.519 170.07C221.102 170.07 221.575 169.596 221.575 169.013V152.639C221.575 152.056 221.102 151.582 220.519 151.582Z" fill="#3F3D56"/>
<path d="M230.871 167.361C234.507 167.361 237.454 164.475 237.454 160.916C237.454 157.357 234.507 154.471 230.871 154.471C227.236 154.471 224.289 157.357 224.289 160.916C224.289 164.475 227.236 167.361 230.871 167.361Z" fill="#0A4DB1"/>
<path d="M283.641 158.711L248.21 158.711C246.994 158.711 246.005 157.722 246.005 156.507C246.005 155.291 246.994 154.302 248.21 154.302L283.641 154.302C284.856 154.302 285.845 155.291 285.845 156.507C285.845 157.722 284.856 158.711 283.641 158.711Z" fill="#F2F2F2"/>
<path d="M311.291 166.173L248.21 166.173C246.994 166.173 246.005 165.184 246.005 163.969C246.005 162.753 246.994 161.764 248.21 161.764L311.291 161.764C312.507 161.764 313.496 162.753 313.496 163.969C313.496 165.184 312.507 166.173 311.291 166.173Z" fill="#F2F2F2"/>
<path d="M223.782 123.494C226.249 123.494 228.249 121.45 228.249 118.928C228.249 116.406 226.249 114.361 223.782 114.361C221.316 114.361 219.316 116.406 219.316 118.928C219.316 121.45 221.316 123.494 223.782 123.494Z" fill="#F2F2F2"/>
<path d="M239.212 123.494C241.678 123.494 243.678 121.45 243.678 118.928C243.678 116.406 241.678 114.361 239.212 114.361C236.745 114.361 234.745 116.406 234.745 118.928C234.745 121.45 236.745 123.494 239.212 123.494Z" fill="#F2F2F2"/>
<path d="M254.641 123.494C257.108 123.494 259.107 121.45 259.107 118.928C259.107 116.406 257.108 114.361 254.641 114.361C252.174 114.361 250.175 116.406 250.175 118.928C250.175 121.45 252.174 123.494 254.641 123.494Z" fill="#F2F2F2"/>
<path d="M47.7209 89.4821C47.1383 89.4821 46.6646 89.9558 46.6646 90.5385V106.913C46.6646 107.496 47.1383 107.969 47.7209 107.969C48.3034 107.969 48.7772 107.496 48.7772 106.913V90.5385C48.7772 89.9558 48.3034 89.4821 47.7209 89.4821Z" fill="#3F3D56"/>
<path d="M58.0733 105.26C61.7087 105.26 64.6558 102.375 64.6558 98.8158C64.6558 95.2565 61.7087 92.3712 58.0733 92.3712C54.4378 92.3712 51.4907 95.2565 51.4907 98.8158C51.4907 102.375 54.4378 105.26 58.0733 105.26Z" fill="#0A4DB1"/>
<path d="M110.843 96.611H75.4115C74.196 96.611 73.207 95.622 73.207 94.4063C73.207 93.1907 74.196 92.2016 75.4115 92.2016H110.843C112.058 92.2016 113.047 93.1907 113.047 94.4063C113.047 95.622 112.058 96.611 110.843 96.611Z" fill="#F2F2F2"/>
<path d="M138.493 104.073H75.4115C74.196 104.073 73.207 103.084 73.207 101.868C73.207 100.653 74.196 99.6637 75.4115 99.6637H138.493C139.709 99.6637 140.698 100.653 140.698 101.868C140.698 103.084 139.709 104.073 138.493 104.073Z" fill="#F2F2F2"/>
<path d="M47.7209 134.908C47.1383 134.908 46.6646 135.382 46.6646 135.965V152.339C46.6646 152.922 47.1383 153.396 47.7209 153.396C48.3034 153.396 48.7772 152.922 48.7772 152.339V135.965C48.7772 135.382 48.3034 134.908 47.7209 134.908Z" fill="#3F3D56"/>
<path d="M58.0733 150.687C61.7087 150.687 64.6558 147.801 64.6558 144.242C64.6558 140.683 61.7087 137.797 58.0733 137.797C54.4378 137.797 51.4907 140.683 51.4907 144.242C51.4907 147.801 54.4378 150.687 58.0733 150.687Z" fill="#0A4DB1"/>
<path d="M110.843 142.037H75.4115C74.196 142.037 73.207 141.048 73.207 139.833C73.207 138.617 74.196 137.628 75.4115 137.628H110.843C112.058 137.628 113.047 138.617 113.047 139.833C113.047 141.048 112.058 142.037 110.843 142.037Z" fill="#F2F2F2"/>
<path d="M138.493 149.499H75.4115C74.196 149.499 73.207 148.51 73.207 147.295C73.207 146.079 74.196 145.09 75.4115 145.09H138.493C139.709 145.09 140.698 146.079 140.698 147.295C140.698 148.51 139.709 149.499 138.493 149.499Z" fill="#F2F2F2"/>
<path d="M47.7209 180.334C47.1383 180.334 46.6646 180.808 46.6646 181.391V197.765C46.6646 198.348 47.1383 198.822 47.7209 198.822C48.3034 198.822 48.7772 198.348 48.7772 197.765V181.391C48.7772 180.808 48.3034 180.334 47.7209 180.334Z" fill="#3F3D56"/>
<path d="M58.0733 196.113C61.7087 196.113 64.6558 193.227 64.6558 189.668C64.6558 186.109 61.7087 183.224 58.0733 183.224C54.4378 183.224 51.4907 186.109 51.4907 189.668C51.4907 193.227 54.4378 196.113 58.0733 196.113Z" fill="#0A4DB1"/>
<path d="M110.843 187.464H75.4115C74.196 187.464 73.207 186.474 73.207 185.259C73.207 184.043 74.196 183.054 75.4115 183.054H110.843C112.058 183.054 113.047 184.043 113.047 185.259C113.047 186.474 112.058 187.464 110.843 187.464Z" fill="#F2F2F2"/>
<path d="M138.493 194.926H75.4115C74.196 194.926 73.207 193.937 73.207 192.721C73.207 191.505 74.196 190.516 75.4115 190.516H138.493C139.709 190.516 140.698 191.505 140.698 192.721C140.698 193.937 139.709 194.926 138.493 194.926Z" fill="#F2F2F2"/>
<path d="M380.566 146.908C379.912 151.882 346.051 140.104 342.01 137.928C334.452 133.866 342.36 138.032 342.36 138.032L341.482 113.102L340.566 98.2474C340.566 98.2474 340.054 94.3016 338.982 89.2678C338.739 88.1374 338.48 86.8275 338.316 85.4383C337.852 81.4291 338.205 76.7703 342.151 73.9496L355.909 53.4339L362.685 53.0377L368.585 61.9909L375.208 72.0428C376.861 76.0572 377.954 80.2565 378.482 84.5139C378.731 86.5052 378.857 88.5125 378.857 90.5249C378.857 94.0692 378.472 97.6241 377.69 101.121L373.544 112.747C373.544 112.747 373.022 114.714 374.843 115.816C378.538 118.05 371.059 124.194 375.636 131.805C375.636 131.805 375.208 135.301 377.247 135.608C379.285 135.919 380.841 144.813 380.566 146.908Z" fill="#0A4DB1"/>
<path d="M314.782 158.86L324.829 145.102L333.488 149.746L322.348 163.913C322.38 164.463 322.333 165.026 322.196 165.589C321.452 168.649 318.369 170.527 315.309 169.783C312.249 169.039 310.371 165.955 311.115 162.894C311.59 160.943 313.017 159.476 314.782 158.86Z" fill="#FFB6B6"/>
<path d="M357.216 72.0721C354.923 70.423 352.239 69.2565 349.285 68.7389C345.253 68.0356 342.992 73.8371 342.104 79.4954C341.695 82.1179 341.574 84.711 341.715 86.6039L341.478 88.2597L341.339 96.8309L341.011 116.647L330.919 131.589L326.694 141.625L318.059 152.663C318.228 152.826 318.485 153.062 318.803 153.359C320.459 154.891 323.839 157.946 325.97 159.309C326.711 159.779 327.294 160.046 327.609 159.98C327.708 159.959 333.788 154.102 334.088 153.774C336.105 151.579 336.502 148.632 342.599 140.069C348.153 132.274 353.568 124.524 355.524 121.719L355.56 121.669L364.351 92.6721L365.151 90.0436C366.003 82.8452 362.761 76.0553 357.216 72.0721Z" fill="#0A4DB1"/>
<path d="M352.231 72.5065C352.215 72.5001 352.2 72.4926 352.184 72.4862C352.048 72.4975 351.914 72.5056 351.782 72.5065H352.231Z" fill="#2F2E41"/>
<path d="M356.174 49.7359C364.658 49.7359 371.537 42.8569 371.537 34.3712C371.537 25.8855 364.658 19.0065 356.174 19.0065C347.689 19.0065 340.811 25.8855 340.811 34.3712C340.811 42.8569 347.689 49.7359 356.174 49.7359Z" fill="#FFB6B6"/>
<path d="M335.374 30.1006C334.337 22.6521 337.36 20.3734 342.092 19.6984C351.452 14.8331 353.597 16.0561 356.564 16.5841L357.655 16.3495C361.002 15.6293 362.216 15.9366 365.192 17.0619C371.47 19.4294 375.595 25.4328 376.051 32.1272C376.365 36.7421 374.919 37.4605 377.594 41.2084C379.831 44.3372 378.12 48.7288 374.365 49.5369L370.869 54.8221C370.018 53.7461 369.338 52.6186 368.567 51.2057C368.262 52.4663 368.229 53.9098 368.387 55.3562C364.907 57.0898 361.108 57.8071 357.078 57.7897C356.43 56.9258 355.849 55.9637 355.926 54.8799C355.702 55.9659 355.428 57.0478 355.381 58.1548C352.846 56.5223 350.751 57.0019 349.078 59.5111C344.852 56.0086 344.521 47.983 349.544 45.9727C353.794 44.2719 347.091 32.3658 342.52 32.123C342.491 32.1215 341.273 36.7248 341.23 36.6383C340.585 35.3482 340.88 34.641 340.109 33.2281C339.856 34.2909 339.787 35.4812 339.871 36.6929C338.782 36.455 337.679 36.107 336.566 35.6431C335.275 33.8899 334.776 32.0531 335.374 30.1006V30.1006Z" fill="#2F2E41"/>
<path d="M392.343 306.844C393.434 306.913 394.037 305.557 393.212 304.767L393.129 304.44C393.14 304.414 393.151 304.388 393.162 304.362C394.265 301.73 398.005 301.749 399.099 304.384C400.07 306.723 401.307 309.066 401.611 311.539C401.748 312.631 401.686 313.743 401.444 314.814C403.719 309.844 404.917 304.416 404.917 298.957C404.917 297.585 404.842 296.214 404.688 294.846C404.562 293.727 404.388 292.615 404.163 291.513C402.945 285.556 400.308 279.882 396.504 275.144C394.676 274.144 393.151 272.581 392.23 270.708C391.899 270.033 391.64 269.306 391.517 268.566C391.725 268.593 392.302 265.424 392.145 265.229C392.435 264.789 392.954 264.57 393.27 264.141C394.846 262.005 397.016 262.378 398.149 265.281C400.569 266.502 400.592 268.528 399.107 270.476C398.162 271.716 398.033 273.393 397.204 274.721C397.289 274.83 397.378 274.935 397.463 275.045C399.027 277.051 400.379 279.207 401.52 281.472C401.197 278.955 401.673 275.922 402.484 273.967C403.408 271.739 405.138 269.863 406.662 267.937C408.493 265.624 412.247 266.633 412.569 269.566C412.572 269.594 412.575 269.622 412.578 269.651C412.352 269.779 412.13 269.914 411.914 270.058C410.678 270.875 411.105 272.79 412.569 273.016L412.602 273.022C412.52 273.837 412.38 274.646 412.176 275.44C414.131 283.002 409.91 285.756 403.883 285.88C403.75 285.948 403.62 286.017 403.487 286.081C404.098 287.801 404.586 289.565 404.947 291.352C405.271 292.932 405.497 294.529 405.623 296.132C405.78 298.155 405.766 300.189 405.595 302.208L405.606 302.137C406.039 299.912 407.246 297.834 409 296.395C411.612 294.249 415.302 293.459 418.12 291.734C419.477 290.903 421.215 291.976 420.978 293.549L420.967 293.625C420.547 293.795 420.138 293.993 419.742 294.215C419.516 294.342 419.294 294.478 419.077 294.621C417.842 295.439 418.269 297.354 419.733 297.58L419.766 297.585C419.79 297.589 419.81 297.592 419.834 297.596C419.114 299.305 418.111 300.891 416.856 302.259C415.634 308.861 410.383 309.487 404.766 307.565H404.763C404.149 310.239 403.252 312.853 402.099 315.343H392.581C392.547 315.237 392.517 315.128 392.486 315.022C393.366 315.077 394.253 315.026 395.119 314.865C394.413 313.999 393.707 313.126 393.001 312.259C392.984 312.242 392.97 312.225 392.957 312.208C392.598 311.764 392.237 311.324 391.879 310.881L391.878 310.88C391.856 309.519 392.019 308.162 392.343 306.845L392.343 306.844V306.844Z" fill="#F2F2F2"/>
<path d="M285.893 315.371C285.893 315.72 286.173 316 286.521 316H420.298C420.646 316 420.926 315.72 420.926 315.371C420.926 315.023 420.646 314.743 420.298 314.743H286.521C286.173 314.743 285.893 315.023 285.893 315.371Z" fill="#CCCCCC"/>
<path d="M218.67 74.3279H200.86C199.754 74.3279 198.854 73.4282 198.854 72.3223C196.5 65.4389 196.546 58.694 198.854 52.0796C198.854 50.9737 199.754 50.074 200.86 50.074H218.67C219.776 50.074 220.675 50.9737 220.675 52.0796V72.3223C220.675 73.4282 219.776 74.3279 218.67 74.3279Z" fill="#E6E6E6"/>
<path d="M204.676 50.6716C201.791 50.6716 199.452 53.0106 199.452 55.896V71.8928C199.452 72.9076 200.274 73.7303 201.289 73.7303H211.138C216.075 73.7303 220.078 69.7275 220.078 64.7898V52.5091C220.078 51.4943 219.255 50.6716 218.24 50.6716H204.676Z" fill="white"/>
<path d="M213.913 56.5542H205.574C205.364 56.5542 205.193 56.3832 205.193 56.1729C205.193 55.9627 205.364 55.7917 205.574 55.7917H213.913C214.123 55.7917 214.294 55.9627 214.294 56.1729C214.294 56.3832 214.123 56.5542 213.913 56.5542Z" fill="#E6E6E6"/>
<path d="M213.913 64.6848H205.574C205.364 64.6848 205.193 64.5137 205.193 64.3035C205.193 64.0932 205.364 63.9222 205.574 63.9222H213.913C214.123 63.9222 214.294 64.0932 214.294 64.3035C214.294 64.5137 214.123 64.6848 213.913 64.6848Z" fill="#E6E6E6"/>
<path d="M218.387 60.6222H201.1C200.89 60.6222 200.719 60.4511 200.719 60.2409C200.719 60.0306 200.89 59.8596 201.1 59.8596H218.387C218.597 59.8596 218.768 60.0306 218.768 60.2409C218.768 60.4511 218.597 60.6222 218.387 60.6222Z" fill="#E6E6E6"/>
<path d="M218.591 67.9906H211.378C211.167 67.9906 210.996 67.8196 210.996 67.6093C210.996 67.3991 211.167 67.2281 211.378 67.2281H218.591C218.801 67.2281 218.972 67.3991 218.972 67.6093C218.972 67.8196 218.801 67.9906 218.591 67.9906Z" fill="#E6E6E6"/>
</g>
<defs>
<clipPath id="clip0_1_1731">
<rect width="421" height="316" fill="white"/>
</clipPath>
</defs>
</svg>
