<svg width="240" height="238" viewBox="0 0 240 238" fill="none" xmlns="http://www.w3.org/2000/svg">
<path d="M101.995 6.42119C101.849 6.53538 101.915 8.34768 102.122 10.6381C103.065 21.315 103.059 21.0837 102.593 24.2678C102.358 25.9385 102.153 27.3495 102.118 27.4243C102.074 27.5177 99.4536 26.3528 96.2773 24.8574C92.0773 22.9029 90.1062 22.0663 89.1537 21.8463L87.8176 21.5142L87.0023 19.0518C86.5678 17.6824 85.9735 15.8722 85.7102 15.0173C85.227 13.5564 85.1594 13.4561 84.2948 13.0491C83.8062 12.819 83.3199 12.6814 83.2007 12.7395C83.0915 12.8252 82.7068 14.4713 82.3493 16.4501C81.7303 19.8132 81.6698 19.9904 81.2875 19.9246C80.7185 19.8166 80.2255 20.8636 80.6714 21.2334C80.9745 21.4674 80.8676 21.6456 78.6787 24.2468C77.409 25.7732 76.3377 27.0733 76.3025 27.1481C76.2585 27.2416 76.7019 27.5189 77.2658 27.7843L78.2995 28.271L80.6065 27.3699C81.8935 26.8795 83.6398 26.1941 84.4853 25.8612L86.0295 25.2635L87.495 26.296C88.5535 27.0227 90.5017 28.0541 94.2894 29.8602C97.2402 31.2494 99.6471 32.4282 99.6759 32.4646C99.727 32.6486 95.4628 37.2193 94.824 37.6495C88.4099 42.0074 83.5316 45.4439 83.4348 45.6496C83.3292 45.874 83.6035 46.0716 84.7688 46.6202L86.216 47.3016L89.9608 45.6384C92.0446 44.7237 93.856 44.0461 94.0152 44.0982C94.1844 44.1778 94.7482 44.4433 95.2469 44.7009C95.7643 44.9673 96.4661 45.1835 96.7921 45.2228C97.3875 45.2747 97.4415 45.2088 97.8605 44.1726C98.253 43.1925 98.2583 43.0351 97.9276 42.8109C97.7008 42.6584 97.5569 42.4765 97.5921 42.4017C97.6273 42.3269 98.4429 41.9114 99.434 41.4644L101.214 40.6579L102.718 41.3658C104.691 42.2949 105.006 42.2603 105.543 41.1198C105.992 40.1662 105.945 39.7786 105.283 39.3302C104.896 39.0794 105.061 38.9741 107.153 38.0406L109.429 37.0107L113.056 38.7184C117.256 40.6729 118.932 41.2105 121.276 41.4005C124.113 41.6169 124.81 40.9172 123.438 39.1978C121.855 37.1961 120.447 36.2364 115.955 34.1216L111.877 32.2015L111.173 29.746C110.439 27.2078 110.441 27.254 111.605 27.414C111.885 27.4542 112.074 27.2466 112.453 26.4426C113.051 25.1712 112.917 25.0168 110.397 23.7386L109.286 23.1703L108.755 21.2755L108.242 19.3896L108.884 19.4405C109.48 19.4925 109.561 19.4167 109.957 18.5753C110.195 18.0705 110.339 17.5214 110.269 17.3286C110.199 17.1358 109.547 16.7149 108.654 16.2715L107.132 15.5548L105.996 11.4799L104.852 7.42374L103.537 6.80436C102.559 6.34425 102.167 6.25092 101.995 6.42119Z" fill="#E6E6E6" fill-opacity="0.12"/>
<path d="M74.0758 17.8317C71.7084 17.1054 71.6156 17.1074 71.3692 17.6309C71.1667 18.061 71.2055 18.1249 71.8133 18.2969C72.1593 18.3912 73.301 18.746 74.3211 19.0664C76.0531 19.6305 76.1647 19.6374 76.3583 19.226C76.5432 18.8334 76.4944 18.7419 75.8654 18.4686C75.4619 18.3015 74.6561 18.0135 74.0758 17.8317Z" fill="#E6E6E6" fill-opacity="0.12"/>
<path d="M127.488 43.2751C127.295 43.6864 127.39 43.7769 129.013 44.8153C129.948 45.4151 130.949 46.0691 131.204 46.2579C131.649 46.5814 131.704 46.5617 131.885 46.0304C132.067 45.499 132.038 45.4626 130.489 44.4596C127.979 42.8666 127.726 42.7702 127.488 43.2751Z" fill="#E6E6E6" fill-opacity="0.12"/>
<path d="M64.6735 15.0268C61.4675 14.1798 61.5703 14.2053 61.4266 14.7544C61.2993 15.2198 61.3569 15.2926 61.9272 15.4469C66.4893 16.681 66.3401 16.6565 66.4774 16.2186C66.6222 15.7158 66.1876 15.4198 64.6735 15.0268Z" fill="#E6E6E6" fill-opacity="0.12"/>
<path d="M136.354 48.6823C136.087 48.762 135.807 49.4066 135.995 49.4951C136.089 49.5393 137.005 50.1766 138.036 50.9131C140.354 52.5751 140.184 52.4954 140.391 51.8617C140.563 51.3491 140.506 51.2763 138.945 50.1532C137.139 48.8689 136.63 48.5838 136.354 48.6823Z" fill="#E6E6E6" fill-opacity="0.12"/>
<path d="M55.8524 12.7928C55.7408 12.786 54.7142 12.5768 53.6125 12.3322C51.6421 11.8842 51.3462 11.9276 51.4292 12.6291C51.4639 12.8967 51.7923 13.0284 53.4167 13.382C54.4996 13.6178 55.5826 13.8535 55.8445 13.9312C56.1616 13.9891 56.3724 13.8828 56.5221 13.5649C56.7333 13.1162 56.5042 12.8713 55.8524 12.7928Z" fill="#E6E6E6" fill-opacity="0.12"/>
<path d="M144.771 54.7007C144.67 54.7214 144.516 54.9006 144.428 55.0875C144.305 55.3493 144.592 55.667 145.842 56.6209C148.04 58.341 148.407 58.5366 148.72 58.0672C149.006 57.6539 149.044 57.6716 146.734 55.9447C144.84 54.5049 145.001 54.6033 144.771 54.7007Z" fill="#E6E6E6" fill-opacity="0.12"/>
<path d="M43.9247 10.3293C42.6562 10.0976 41.5468 9.91793 41.4916 9.93762C41.4364 9.95732 41.3496 10.1905 41.3104 10.469L41.2119 10.9708L43.5809 11.4009C44.8871 11.6504 46.0428 11.829 46.1532 11.7896C46.3652 11.7295 46.5921 10.8085 46.3866 10.7574C46.3214 10.7496 45.2208 10.5512 43.9247 10.3293Z" fill="#E6E6E6" fill-opacity="0.12"/>
<path d="M152.8 61.153C152.702 61.3125 152.578 61.528 152.506 61.6313C152.391 61.8281 155.441 64.5662 156.165 64.93C156.372 65.0273 156.555 64.9308 156.696 64.6317C156.881 64.239 156.756 64.0659 155.219 62.7943C154.28 62.0095 153.397 61.2512 153.245 61.1342C153.046 60.9719 152.888 60.9661 152.8 61.153Z" fill="#E6E6E6" fill-opacity="0.12"/>
<path d="M33.4942 8.68507C31.3054 8.40839 31.1474 8.40254 31.0942 8.85712C31.0449 9.10803 31.0421 9.35794 31.0432 9.40418C31.1032 9.56945 36.0762 10.1747 36.1466 10.0252C36.3138 9.66993 36.2543 9.16226 36.0388 9.08363C35.926 9.03054 34.7703 8.85188 33.4942 8.68507Z" fill="#E6E6E6" fill-opacity="0.12"/>
<path d="M160.453 68.1133C160.281 68.2835 160.165 68.4804 160.185 68.5355C160.195 68.563 161.033 69.3685 162.041 70.2999C163.885 71.9906 164.167 72.1233 164.512 71.4403C164.6 71.2534 161.465 68.11 160.938 67.8622C160.844 67.818 160.615 67.9155 160.453 68.1133Z" fill="#E6E6E6" fill-opacity="0.12"/>
<path d="M23.5334 7.60405C22.1469 7.47664 20.9395 7.4564 20.8579 7.53219C20.7763 7.60798 20.7458 7.86774 20.7982 8.09795C20.9005 8.46589 21.1436 8.53467 23.33 8.71887C24.6701 8.84728 25.8047 8.92461 25.8511 8.92361C25.8875 8.89506 25.9555 8.653 25.9948 8.37455L26.0457 7.82748L23.5334 7.60405Z" fill="#E6E6E6" fill-opacity="0.12"/>
<path d="M168.032 75.1307C167.822 75.2832 167.679 75.4899 167.728 75.5814C167.749 75.6827 168.579 76.5532 169.523 77.5229C171.058 79.0907 171.295 79.2707 171.54 79.0433C172.029 78.5886 172.025 78.4036 171.511 77.9335C171.226 77.6621 170.407 76.8654 169.692 76.1405C168.434 74.8629 168.415 74.854 168.032 75.1307Z" fill="#E6E6E6" fill-opacity="0.12"/>
<path d="M13.1263 6.88529C11.7322 6.82282 10.5712 6.80158 10.536 6.87637C10.5096 6.93246 10.5255 7.19122 10.569 7.44013C10.6449 7.86416 10.8129 7.89755 13.1736 8.00396C14.5678 8.06643 15.7188 8.06012 15.754 7.98533C15.7892 7.91054 15.7732 7.65178 15.7397 7.43042C15.6374 7.06248 15.3943 6.9937 13.1263 6.88529Z" fill="#E6E6E6" fill-opacity="0.12"/>
<path d="M175.215 82.6007C175.034 82.7897 174.947 83.0229 175.006 83.1419C175.205 83.6466 178.2 86.7468 178.44 86.7231C178.561 86.7112 178.752 86.5498 178.848 86.3441C178.972 86.0824 178.596 85.563 177.344 84.1742C176.437 83.1759 175.663 82.332 175.607 82.3054C175.55 82.2789 175.377 82.4029 175.215 82.6007Z" fill="#E6E6E6" fill-opacity="0.12"/>
<path d="M2.72313 6.64694C1.45176 6.6651 0.367142 6.7255 0.285541 6.80129C0.231537 6.86723 0.209889 7.10829 0.26223 7.33851C0.35573 7.72514 0.588878 7.76638 2.75168 7.75676C4.07944 7.76514 5.21163 7.74998 5.26683 7.73028C5.49641 7.6328 5.48379 6.78174 5.26825 6.7031C5.13669 6.64116 3.9945 6.62878 2.72313 6.64694Z" fill="#E6E6E6" fill-opacity="0.12"/>
<path d="M181.978 90.3756C181.659 90.6139 181.607 90.726 181.749 90.8618C181.845 90.9522 182.592 91.8522 183.398 92.8713C184.778 94.5719 184.911 94.6801 185.278 94.4871C185.497 94.3621 185.707 94.2095 185.733 94.1534C185.795 94.0225 182.736 90.2298 182.51 90.1236C182.435 90.0882 182.197 90.2044 181.978 90.3756Z" fill="#E6E6E6" fill-opacity="0.12"/>
<path d="M188.527 98.4612C188.299 98.6049 188.145 98.784 188.174 98.8204C188.194 98.8755 188.886 99.7952 189.741 100.906C191.239 102.844 191.268 102.881 191.659 102.586C191.978 102.347 192.012 102.226 191.836 101.869C191.602 101.439 189.163 98.2809 189.012 98.2101C188.956 98.1836 188.745 98.2899 188.527 98.4612Z" fill="#E6E6E6" fill-opacity="0.12"/>
<path d="M194.808 106.626C194.599 106.779 194.408 106.94 194.382 106.996C194.329 107.108 196.994 111.104 197.182 111.193C197.257 111.228 197.505 111.139 197.706 111.005C198.19 110.708 198.182 110.727 196.784 108.721C196.225 107.91 195.627 107.034 195.463 106.797C195.22 106.386 195.136 106.369 194.808 106.626Z" fill="#E6E6E6" fill-opacity="0.12"/>
<path d="M200.415 115.25C200.178 115.413 199.996 115.555 200.024 115.592C200.053 115.628 200.664 116.624 201.391 117.811C202.717 119.92 202.793 120.002 203.486 119.505C203.623 119.41 203.191 118.522 202.349 117.189C201.595 116.011 200.957 115.026 200.919 115.008C200.882 114.99 200.652 115.088 200.415 115.25Z" fill="#E6E6E6" fill-opacity="0.12"/>
<path d="M205.904 124.024C205.384 124.35 205.444 124.516 206.901 127.029C207.911 128.784 207.949 128.801 208.436 128.597C208.721 128.479 208.93 128.327 208.901 128.29C208.881 128.235 208.356 127.303 207.724 126.206C207.112 125.118 206.529 124.113 206.47 123.994C206.401 123.847 206.16 123.871 205.904 124.024Z" fill="#E6E6E6" fill-opacity="0.12"/>
<path d="M210.789 133.108C210.397 133.403 210.387 133.375 212.078 136.661C212.577 137.65 212.797 137.913 213.064 137.833C213.267 137.792 213.477 137.639 213.539 137.509C213.636 137.303 211.539 133.027 211.276 132.903C211.219 132.876 210.99 132.974 210.789 133.108Z" fill="#E6E6E6" fill-opacity="0.12"/>
<path d="M215.265 142.953C214.873 143.248 214.863 143.221 216.554 146.506C217.052 147.495 217.273 147.758 217.54 147.679C217.743 147.637 217.953 147.485 218.014 147.354C218.111 147.148 216.014 142.872 215.751 142.748C215.695 142.721 215.465 142.819 215.265 142.953Z" fill="#E6E6E6" fill-opacity="0.12"/>
<path d="M219.613 151.674C219.3 151.801 219.119 151.99 219.197 152.118C219.256 152.237 219.683 153.329 220.16 154.559L221.006 156.762L221.577 156.573L222.137 156.358L221.128 153.918C220.128 151.506 220.099 151.47 219.613 151.674Z" fill="#E6E6E6" fill-opacity="0.12"/>
<path d="M223.353 161.384C222.922 161.569 222.944 161.717 223.763 163.976C224.603 166.29 224.67 166.39 225.13 166.195C225.58 166.019 225.558 165.871 224.851 163.665C224.446 162.379 224.038 161.295 223.963 161.26C223.888 161.225 223.61 161.277 223.353 161.384Z" fill="#E6E6E6" fill-opacity="0.12"/>
<path d="M226.657 171.094C226.372 171.211 226.339 171.379 226.454 171.867C226.715 172.972 227.666 176.023 227.76 176.067C227.816 176.094 228.085 176.06 228.343 175.999C228.796 175.916 228.773 175.768 228.064 173.47C227.65 172.156 227.24 171.026 227.165 170.991C227.09 170.955 226.859 171.007 226.657 171.094Z" fill="#E6E6E6" fill-opacity="0.12"/>
<path d="M229.547 180.951C229.115 181.09 229.147 181.265 229.733 183.483C230.064 184.781 230.371 185.884 230.372 185.931C230.394 186.078 231.401 185.89 231.425 185.741C231.446 185.454 230.223 180.881 230.111 180.828C230.054 180.802 229.805 180.844 229.547 180.951Z" fill="#E6E6E6" fill-opacity="0.12"/>
<path d="M231.996 190.967C231.702 191.103 231.704 191.537 232.137 193.545C232.412 194.863 232.71 195.985 232.804 196.029C233.105 196.171 233.679 195.779 233.644 195.465C233.577 194.68 232.654 190.934 232.523 190.872C232.429 190.828 232.198 190.879 231.996 190.967Z" fill="#E6E6E6" fill-opacity="0.12"/>
<path d="M233.962 200.983C233.715 201.118 233.73 201.719 234.069 203.683C234.442 205.914 234.533 206.208 234.92 206.117C235.151 206.065 235.401 206.023 235.447 206.022C235.669 205.989 234.753 201.058 234.528 200.952C234.396 200.89 234.136 200.905 233.962 200.983Z" fill="#E6E6E6" fill-opacity="0.12"/>
<path d="M235.607 211.145C235.313 211.281 235.279 211.744 235.515 213.729C235.782 216.138 235.959 216.542 236.601 216.25C236.849 216.115 236.862 215.551 236.61 213.696C236.446 212.386 236.231 211.233 236.136 211.143C236.041 211.053 235.79 211.049 235.607 211.145Z" fill="#E6E6E6" fill-opacity="0.12"/>
<path d="M236.954 221.304C236.714 221.328 236.493 221.407 236.449 221.5C236.326 221.762 236.705 226.418 236.837 226.48C236.912 226.515 237.172 226.5 237.421 226.458C237.828 226.375 237.842 226.199 237.674 224.019C237.472 221.228 237.482 221.256 236.954 221.304Z" fill="#E6E6E6" fill-opacity="0.12"/>
<path d="M237.172 231.942C236.931 231.965 236.711 232.044 236.667 232.138C236.543 232.399 236.923 237.055 237.055 237.117C237.13 237.152 237.389 237.137 237.639 237.095C238.045 237.012 238.059 236.836 237.892 234.656C237.69 231.866 237.7 231.893 237.172 231.942Z" fill="#E6E6E6" fill-opacity="0.12"/>
</svg>
