<svg width="200" height="165" viewBox="0 0 200 165" fill="none" xmlns="http://www.w3.org/2000/svg">
<path d="M57.8598 31.463C57.9952 31.5168 58.3501 32.8998 58.7041 34.6756C60.3726 42.948 60.3255 42.7721 61.3872 45.0725C61.9376 46.2816 62.407 47.3013 62.4503 47.3499C62.5043 47.4107 64.223 45.9468 66.288 44.1094C69.0237 41.6971 70.3255 40.6259 70.9957 40.2473L71.9306 39.6987L71.9972 37.6575C72.0199 36.5266 72.065 35.0272 72.0733 34.323C72.1124 33.1121 72.1411 33.0213 72.7031 32.5212C73.0208 32.2385 73.3574 32.0262 73.4603 32.0435C73.5619 32.0838 74.2194 33.2411 74.9306 34.6555C76.1479 37.057 76.233 37.1773 76.507 37.0424C76.9126 36.8339 77.5183 37.5146 77.2641 37.8932C77.0874 38.1376 77.2078 38.2482 79.4407 39.7244C80.7398 40.5939 81.8386 41.3367 81.8819 41.3854C81.9359 41.4461 81.6629 41.7544 81.2963 42.0806L80.6243 42.6785L78.6814 42.5125C77.6002 42.4292 76.1287 42.301 75.4161 42.2381L74.1167 42.1311L73.2403 43.2375C72.6031 44.0223 71.362 45.2355 68.9046 47.4438C66.9862 49.1507 65.4316 50.5775 65.4179 50.6114C65.4203 50.7618 69.6594 53.2623 70.2376 53.4447C76.0527 55.3053 80.5025 56.8125 80.6215 56.9462C80.7513 57.0921 80.5882 57.3025 79.8306 57.9766L78.8898 58.8137L75.6912 58.3929C73.9137 58.1668 72.3948 58.059 72.2863 58.1338C72.1763 58.2317 71.8097 58.5579 71.4906 58.8636C71.1593 59.1801 70.6776 59.4999 70.4402 59.6022C70.0021 59.7742 69.9467 59.7364 69.3993 59.0474C68.8843 58.3949 68.8453 58.2771 69.045 58.0341C69.1822 57.8685 69.2503 57.699 69.2071 57.6503C69.1638 57.6017 68.4553 57.4698 67.6073 57.3532L66.0832 57.1412L65.1057 58.011C63.8227 59.1526 63.5773 59.1967 62.9175 58.4552C62.3659 57.8352 62.3151 57.532 62.7145 57.046C62.9509 56.7703 62.8033 56.7274 61.015 56.4891L59.0669 56.2189L56.7086 58.3172C53.9729 60.7295 52.8276 61.509 51.0997 62.1752C49.0057 62.9712 48.3235 62.5982 48.976 60.994C49.7252 59.1296 50.5744 58.0909 53.4947 55.4925L56.1462 53.1332L56.1301 51.1221C56.1182 49.0419 56.1276 49.0771 55.284 49.4576C55.0818 49.5503 54.8924 49.4357 54.4273 48.9131C53.6918 48.0865 53.7585 47.94 55.3771 46.4128L56.0886 45.7362L56.0674 44.1869L56.0341 42.6485L55.5607 42.8301C55.1227 43.0021 55.0442 42.963 54.5575 42.416C54.2654 42.0878 54.0345 41.7053 54.0443 41.5441C54.0542 41.3829 54.4522 40.9198 55.0279 40.3858L56.0176 39.5052L55.9663 36.1751L55.9259 32.8571L56.7812 32.0961C57.4166 31.5308 57.692 31.3728 57.8598 31.463Z" fill="#E6E6E6" fill-opacity="0.12"/>
<path d="M81.4857 33.8537C83.1114 32.7774 83.1819 32.7582 83.4847 33.0986C83.7335 33.3782 83.7185 33.4351 83.2978 33.7005C83.0576 33.8489 82.2746 34.3713 81.5758 34.8407C80.3937 35.6529 80.311 35.6829 80.0731 35.4155C79.8459 35.1602 79.8624 35.0803 80.2764 34.7336C80.5438 34.5175 81.0881 34.1204 81.4857 33.8537Z" fill="#E6E6E6" fill-opacity="0.12"/>
<path d="M46.8266 64.9754C47.0646 65.2428 47.0129 65.3323 46.0185 66.4784C45.4466 67.1397 44.8367 67.8567 44.6858 68.0562C44.4222 68.3997 44.3761 68.3971 44.1208 68.0363C43.8654 67.6755 43.879 67.6416 44.8245 66.539C46.3649 64.7763 46.5346 64.6472 46.8266 64.9754Z" fill="#E6E6E6" fill-opacity="0.12"/>
<path d="M87.96 29.6391C90.1921 28.2847 90.1202 28.3269 90.3511 28.7095C90.551 29.0326 90.5237 29.1004 90.1275 29.344C86.9578 31.2931 87.065 31.2413 86.8637 30.9413C86.6422 30.5939 86.9044 30.2735 87.96 29.6391Z" fill="#E6E6E6" fill-opacity="0.12"/>
<path d="M41.3377 71.0355C41.5573 71.0362 41.9128 71.4603 41.7906 71.569C41.7295 71.6234 41.1792 72.309 40.565 73.0951C39.1859 74.8667 39.2958 74.7688 38.9986 74.3364C38.7541 73.9877 38.7813 73.9199 39.7094 72.7239C40.7869 71.3514 41.1074 71.0226 41.3377 71.0355Z" fill="#E6E6E6" fill-opacity="0.12"/>
<path d="M94.1228 25.9853C94.2055 25.9553 94.9341 25.5684 95.7115 25.1381C97.0994 24.3605 97.3325 24.3273 97.4263 24.8755C97.4597 25.0853 97.2412 25.258 96.0934 25.8872C95.3282 26.3067 94.563 26.7261 94.3826 26.8432C94.156 26.9576 93.9731 26.9243 93.7893 26.7177C93.5297 26.4259 93.6481 26.1899 94.1228 25.9853Z" fill="#E6E6E6" fill-opacity="0.12"/>
<path d="M36.3241 77.4566C36.4055 77.4496 36.5611 77.5507 36.6692 77.6723C36.8207 77.8425 36.675 78.1463 35.9439 79.1453C34.6676 80.9342 34.4341 81.1638 34.0932 80.8791C33.7847 80.6308 33.7603 80.6526 35.1192 78.8336C36.2282 77.3242 36.129 77.4342 36.3241 77.4566Z" fill="#E6E6E6" fill-opacity="0.12"/>
<path d="M102.58 21.4659C103.486 21.0081 104.284 20.6251 104.33 20.6276C104.376 20.6302 104.494 20.7869 104.585 20.9884L104.772 21.3454L103.079 22.1984C102.148 22.678 101.315 23.0706 101.223 23.0655C101.05 23.0674 100.673 22.4225 100.817 22.3381C100.864 22.3176 101.651 21.9225 102.58 21.4659Z" fill="#E6E6E6" fill-opacity="0.12"/>
<path d="M31.6999 84.119C31.8095 84.2175 31.9515 84.3525 32.0286 84.4146C32.1598 84.5374 30.4669 87.2851 30.0011 87.7213C29.8667 87.8409 29.7069 87.8089 29.5338 87.6144C29.3067 87.3591 29.3626 87.2005 30.2394 85.8977C30.7736 85.0956 31.2712 84.3262 31.3596 84.204C31.4738 84.0371 31.5917 83.9975 31.6999 84.119Z" fill="#E6E6E6" fill-opacity="0.12"/>
<path d="M110.09 17.8987C111.681 17.2018 111.799 17.1621 111.94 17.4935C112.033 17.672 112.091 17.8601 112.101 17.8952C112.092 18.0334 108.472 19.5993 108.386 19.5021C108.18 19.2711 108.112 18.8745 108.257 18.7671C108.33 18.7018 109.163 18.3092 110.09 17.8987Z" fill="#E6E6E6" fill-opacity="0.12"/>
<path d="M27.4732 91.0812C27.641 91.1715 27.7722 91.2943 27.7694 91.3404C27.768 91.3634 27.3151 92.1584 26.7616 93.0865C25.7458 94.7743 25.5625 94.9374 25.1501 94.4985C25.042 94.377 26.7084 91.3043 27.0506 90.9999C27.1117 90.9456 27.3068 90.968 27.4732 91.0812Z" fill="#E6E6E6" fill-opacity="0.12"/>
<path d="M117.37 14.8615C118.389 14.4561 119.296 14.1716 119.374 14.2107C119.453 14.2497 119.534 14.4391 119.546 14.6246C119.55 14.9252 119.382 15.0314 117.772 15.658C116.789 16.0537 115.949 16.3651 115.914 16.3747C115.88 16.3612 115.775 16.1936 115.683 15.9921L115.523 15.5904L117.37 14.8615Z" fill="#E6E6E6" fill-opacity="0.12"/>
<path d="M23.3148 98.0699C23.5071 98.1384 23.6613 98.2625 23.6449 98.3424C23.6515 98.4237 23.2188 99.266 22.7222 100.209C21.9127 101.735 21.774 101.924 21.5385 101.806C21.0674 101.572 21.0297 101.432 21.3126 100.962C21.4676 100.693 21.9084 99.9093 22.2866 99.2025C22.9518 97.9572 22.9641 97.9464 23.3148 98.0699Z" fill="#E6E6E6" fill-opacity="0.12"/>
<path d="M125.068 11.9982C126.107 11.6402 126.979 11.3653 127.022 11.4139C127.055 11.4504 127.1 11.6494 127.123 11.847C127.16 12.1841 127.041 12.2468 125.282 12.8535C124.243 13.2115 123.373 13.4634 123.329 13.4148C123.286 13.3662 123.24 13.1672 123.216 12.9926C123.212 12.6919 123.38 12.5858 125.068 11.9982Z" fill="#E6E6E6" fill-opacity="0.12"/>
<path d="M19.5564 105.312C19.735 105.414 19.8526 105.571 19.8348 105.674C19.7973 106.1 18.2272 109.108 18.0401 109.144C17.9465 109.162 17.7665 109.083 17.6475 108.949C17.4961 108.779 17.6638 108.303 18.2994 106.975C18.7621 106.019 19.1582 105.209 19.1948 105.176C19.2315 105.144 19.3899 105.199 19.5564 105.312Z" fill="#E6E6E6" fill-opacity="0.12"/>
<path d="M132.87 9.49857C133.835 9.2288 134.667 9.03258 134.746 9.07161C134.801 9.10936 134.871 9.28656 134.883 9.47207C134.899 9.78487 134.732 9.86799 133.096 10.343C132.096 10.6453 131.237 10.8863 131.191 10.8838C130.996 10.8614 130.816 10.2159 130.961 10.1085C131.047 10.0324 131.906 9.76833 132.87 9.49857Z" fill="#E6E6E6" fill-opacity="0.12"/>
<path d="M16.1833 112.691C16.4771 112.8 16.542 112.873 16.4645 113.007C16.4128 113.097 16.0492 113.943 15.6678 114.892C15.0045 116.484 14.9283 116.596 14.6087 116.532C14.415 116.486 14.2227 116.418 14.1902 116.381C14.1145 116.296 15.5787 112.75 15.7254 112.62C15.7742 112.576 15.9802 112.611 16.1833 112.691Z" fill="#E6E6E6" fill-opacity="0.12"/>
<path d="M140.557 7.38541C141.614 7.12078 142.537 6.95272 142.602 7.02565C142.656 7.08643 142.724 7.28665 142.75 7.43826C142.793 7.68326 142.485 7.80474 140.877 8.21191C139.821 8.47654 138.908 8.65676 138.83 8.61773C138.74 8.56654 138.67 8.38934 138.658 8.20383C138.643 7.89104 138.821 7.82007 140.557 7.38541Z" fill="#E6E6E6" fill-opacity="0.12"/>
<path d="M13.0411 120.256C13.2456 120.314 13.4012 120.415 13.3876 120.449C13.3848 120.495 13.0673 121.344 12.6694 122.373C11.9704 124.171 11.9568 124.205 11.5953 124.069C11.3014 123.96 11.2488 123.877 11.3023 123.568C11.383 123.191 12.5207 120.262 12.6184 120.175C12.6551 120.143 12.838 120.176 13.0411 120.256Z" fill="#E6E6E6" fill-opacity="0.12"/>
<path d="M148.513 5.59852C149.554 5.39081 150.441 5.25537 150.495 5.31614C150.538 5.36477 150.573 5.55155 150.585 5.73706C150.613 6.03898 150.412 6.10867 148.762 6.4442C146.891 6.80207 146.499 6.78025 146.566 6.26405C146.601 6.05809 147.073 5.89954 148.513 5.59852Z" fill="#E6E6E6" fill-opacity="0.12"/>
<path d="M10.1184 127.823C10.3107 127.891 10.4908 127.97 10.5232 128.007C10.5881 128.08 9.46662 131.691 9.34443 131.8C9.29555 131.843 9.08824 131.832 8.90677 131.775C8.47473 131.659 8.48554 131.671 9.09376 129.845C9.33517 129.107 9.5916 128.313 9.66252 128.098C9.75408 127.733 9.81377 127.702 10.1184 127.823Z" fill="#E6E6E6" fill-opacity="0.12"/>
<path d="M156.589 4.11918C157.58 3.978 158.45 3.9225 158.515 3.99544C158.58 4.06837 158.625 4.26731 158.593 4.42722C158.556 4.65622 158.143 4.78343 156.603 5.02111C155.53 5.19235 154.623 5.28045 154.58 5.23183C154.45 5.08597 154.502 4.60367 154.66 4.48536C154.733 4.42013 155.61 4.2495 156.589 4.11918Z" fill="#E6E6E6" fill-opacity="0.12"/>
<path d="M7.80778 135.585C8.0231 135.655 8.19235 135.722 8.17872 135.756C8.1651 135.79 7.92609 136.677 7.642 137.736C7.1109 139.624 7.07143 139.703 6.43769 139.483C6.31311 139.441 6.44074 138.674 6.77932 137.48C7.08644 136.423 7.34849 135.536 7.37292 135.514C7.39736 135.493 7.59246 135.515 7.80778 135.585Z" fill="#E6E6E6" fill-opacity="0.12"/>
<path d="M164.512 3.05831C165.572 2.92097 166.476 2.87892 166.553 2.94098C166.618 3.01391 166.651 3.22373 166.629 3.39579C166.592 3.62479 166.332 3.72581 165.238 3.8497C162.513 4.18311 162.595 4.17609 162.539 3.76862C162.493 3.56967 162.493 3.3733 162.53 3.34068C162.567 3.30806 163.464 3.18477 164.512 3.05831Z" fill="#E6E6E6" fill-opacity="0.12"/>
<path d="M5.61905 143.434C6.08494 143.564 6.07652 143.702 5.53658 145.925C5.16474 147.476 5.1403 147.497 4.72708 147.451C4.48592 147.426 4.29363 147.358 4.30725 147.324C4.31006 147.278 4.49879 146.456 4.7312 145.487C4.95138 144.529 5.16736 143.64 5.18519 143.537C5.20443 143.411 5.39151 143.375 5.61905 143.434Z" fill="#E6E6E6" fill-opacity="0.12"/>
<path d="M172.647 2.31044C174.422 2.18987 174.64 2.21357 174.713 2.5411C174.823 3.00935 174.705 3.04899 172.594 3.18549C170.795 3.30478 170.521 3.24333 170.6 2.71626C170.625 2.49814 171.08 2.41954 172.647 2.31044Z" fill="#E6E6E6" fill-opacity="0.12"/>
<path d="M3.95607 151.382C4.3176 151.518 4.31901 151.495 3.77503 154.353C3.61874 155.211 3.51117 155.459 3.29164 155.458C3.12899 155.472 2.9367 155.404 2.86099 155.319C2.74202 155.185 3.37178 151.488 3.54285 151.336C3.5795 151.304 3.7746 151.326 3.95607 151.382Z" fill="#E6E6E6" fill-opacity="0.12"/>
<path d="M2.7715 159.814C3.13303 159.95 3.13444 159.927 2.59046 162.785C2.43417 163.642 2.3266 163.89 2.10706 163.89C1.94442 163.904 1.75213 163.835 1.67642 163.75C1.55745 163.617 2.18721 159.92 2.35828 159.768C2.39493 159.735 2.59003 159.758 2.7715 159.814Z" fill="#E6E6E6" fill-opacity="0.12"/>
<path d="M180.657 1.91332C181.71 1.89112 182.611 1.89512 182.678 1.922C182.734 1.95975 182.803 2.15998 182.836 2.36979C182.861 2.71777 182.732 2.74525 180.777 2.78648C178.786 2.83729 178.706 2.82128 178.707 2.42853C178.698 2.19697 178.721 2.00188 178.733 1.99101C178.746 1.98013 179.602 1.95854 180.657 1.91332Z" fill="#E6E6E6" fill-opacity="0.12"/>
<path d="M188.966 1.90292C190.858 1.96211 190.961 1.9794 190.949 2.36C190.927 2.72844 190.856 2.74762 189.665 2.76211C187.421 2.79881 186.814 2.70723 186.802 2.32534C186.802 2.152 186.836 1.96906 186.885 1.92557C186.934 1.88208 187.87 1.87649 188.966 1.90292Z" fill="#E6E6E6" fill-opacity="0.12"/>
<path d="M197.049 2.20275L199.076 2.3157L199.025 2.77497C198.974 3.23424 198.963 3.22208 196.97 3.12257C195.311 3.03016 194.958 2.9527 194.916 2.68467C194.892 2.51004 194.905 2.30279 194.944 2.22412C194.984 2.14545 195.943 2.14115 197.049 2.20275Z" fill="#E6E6E6" fill-opacity="0.12"/>
</svg>
