<svg width="17" height="17" viewBox="0 0 17 17" fill="none" xmlns="http://www.w3.org/2000/svg">
<path d="M16.4692 8.63423V8.63018C16.4692 6.2316 15.4083 4.07754 13.7237 2.59624L13.7154 2.58948C13.6946 2.56741 13.6714 2.54769 13.6461 2.53072L13.6447 2.53004C12.1485 1.23688 10.2244 0.525493 8.23324 0.529312C6.15263 0.529312 4.25318 1.28989 2.80526 2.5449L2.81418 2.53747C2.79673 2.5505 2.78064 2.56521 2.76614 2.58138V2.58205C1.8957 3.34073 1.19896 4.27281 0.722079 5.31654C0.245203 6.36027 -0.000924258 7.49183 2.60808e-06 8.63626C2.60808e-06 11.0342 1.05952 13.1882 2.74281 14.6702L2.75105 14.677C2.77284 14.7013 2.79723 14.7233 2.82379 14.7425L2.82516 14.7432C4.321 16.0344 6.24367 16.7447 8.23324 16.7412C10.2321 16.7442 12.163 16.0273 13.6619 14.7256L13.653 14.733C14.5385 13.9752 15.2483 13.039 15.7345 11.9877C16.2206 10.9364 16.4716 9.79467 16.4706 8.63964V8.63491L16.4692 8.63423ZM13.4073 13.9062C12.9994 13.5815 12.5607 13.296 12.0973 13.0538L12.0527 13.0322C12.4734 11.8386 12.7266 10.4627 12.7506 9.03141V9.0206H15.6746C15.576 10.8723 14.7663 12.618 13.4094 13.9042L13.4073 13.9062ZM8.62712 12.8897C9.50754 12.9363 10.3303 13.1268 11.0893 13.4368L11.0399 13.4192C10.4319 14.7837 9.57616 15.7212 8.62712 15.9272V12.8897ZM8.62712 12.1169V9.0206H11.9676C11.9411 10.3028 11.7153 11.5735 11.2979 12.7884L11.3246 12.6999C10.4727 12.3552 9.56654 12.1582 8.64634 12.1176L8.62781 12.1169H8.62712ZM8.62712 8.24787V5.15153C9.57216 5.10907 10.5025 4.90544 11.3768 4.54969L11.3226 4.56928C11.7034 5.66286 11.9374 6.92328 11.9676 8.23368V8.24787H8.62712ZM8.62712 4.37879V1.34257C9.57616 1.54859 10.4319 2.48209 11.0399 3.85058C10.3303 4.14103 9.50754 4.33084 8.64702 4.37812L8.62712 4.37879ZM10.5856 1.67693C11.3942 1.94241 12.1504 2.34271 12.8213 2.86035L12.8055 2.84819C12.5015 3.08325 12.1605 3.3048 11.8009 3.49731L11.7625 3.51622C11.4719 2.84125 11.0724 2.21695 10.5794 1.66747L10.5856 1.6749V1.67693ZM7.84072 1.3446V4.37879C6.99427 4.33629 6.16148 4.15123 5.37857 3.83167L5.42798 3.84923C6.03871 2.48479 6.89305 1.54792 7.84209 1.3419L7.84072 1.3446ZM4.70608 3.5142C4.3341 3.3172 3.97967 3.08966 3.64656 2.834L3.66303 2.84616C4.31434 2.34372 5.04694 1.95279 5.8301 1.68976L5.88226 1.67423C5.40219 2.20881 5.01102 2.81476 4.72324 3.46962L4.70608 3.51352V3.5142ZM7.84209 5.15085V8.24719H4.50159C4.53178 6.9226 4.76578 5.66218 5.17339 4.48011L5.14663 4.5686C5.99827 4.91273 6.90389 5.10948 7.82356 5.15018L7.84209 5.15085ZM7.84209 9.01992V12.1163C6.89706 12.1587 5.96668 12.3624 5.09242 12.7181L5.14663 12.6985C4.76578 11.6056 4.53178 10.3445 4.50159 9.03411V9.01992H7.84209ZM7.84209 12.889V15.9252C6.89305 15.7192 6.03734 14.7857 5.42935 13.4172C6.1389 13.1268 6.96168 12.9376 7.82219 12.8903L7.84209 12.8897V12.889ZM5.88637 15.5909C5.07798 15.3262 4.32176 14.9268 3.65068 14.4101L3.66715 14.4223C3.97114 14.1872 4.31219 13.9657 4.67177 13.7732L4.7102 13.7543C4.99833 14.4295 5.39783 15.0533 5.89255 15.6003L5.88637 15.5936V15.5909ZM11.7631 13.7536C12.1611 13.9664 12.5022 14.1872 12.8227 14.4338L12.8062 14.4216C12.1549 14.9241 11.4223 15.315 10.6391 15.578L10.587 15.5936C11.067 15.0592 11.4582 14.4535 11.746 13.7988L11.7631 13.7549V13.7536ZM15.6746 8.24787H12.7506C12.7296 6.85029 12.4845 5.46475 12.0246 4.14238L12.0527 4.2356C12.5375 3.98436 12.9964 3.68758 13.4231 3.34938L13.4066 3.36154C14.7607 4.64292 15.5707 6.38212 15.6732 8.22828L15.6739 8.24719L15.6746 8.24787ZM3.0619 3.36222C3.45716 3.67834 3.90115 3.96811 4.37189 4.21466L4.4165 4.23627C3.99584 5.42982 3.74263 6.80575 3.71861 8.23706V8.24787H0.793956C0.89256 6.39614 1.70227 4.65047 3.05916 3.36424L3.06122 3.36222H3.0619ZM0.794642 9.0206H3.71861C3.73965 10.4182 3.98467 11.8037 4.44463 13.1261L4.4165 13.0329C3.90115 13.3024 3.45785 13.5922 3.04612 13.9191L3.06259 13.9069C1.7085 12.6255 0.89851 10.8863 0.796014 9.04019L0.795328 9.02128L0.794642 9.0206Z" fill="black" fill-opacity="0.7"/>
</svg>
