<svg width="173" height="86" viewBox="0 0 173 86" fill="none" xmlns="http://www.w3.org/2000/svg">
<g opacity="0.8">
<path d="M0.257568 57.4982C0.868958 59.2015 2.50317 60.4808 4.27582 60.4808C6.12536 60.4808 8.1018 59.0501 8.1018 56.5899C8.1018 52.328 0.630554 54.0236 0.630554 48.4522C0.630554 45.2652 3.29913 43.7134 6.03692 43.7134C7.11743 43.7134 8.84009 44.0805 9.68219 44.8981C9.67834 45.8632 9.69372 47.0479 9.69372 47.0479C9.07849 45.4469 7.81726 44.4855 6.47912 44.4855C4.90643 44.4855 3.40295 45.3939 3.2876 47.6573C3.07226 51.7792 10.8088 50.3711 10.8088 55.6247C10.8088 59.1485 7.39813 61.2454 4.29504 61.2454C3.18378 61.2454 1.0343 60.723 0.257568 59.8184C0.257568 58.7549 0.257568 57.4982 0.257568 57.4982Z" fill="#231F20"/>
<path d="M128.934 53.2517H136.04V51.7263H128.934V53.2517Z" fill="#231F20"/>
<path d="M27.7702 51.7866C27.7702 51.7866 27.7702 59.4928 27.7702 60.2233C27.7048 60.6169 27.0435 60.9462 27.0435 60.9462C28.1701 60.95 30.7848 60.95 31.5347 60.9462C31.5347 60.9462 30.8425 60.5866 30.8156 60.2233C30.8156 59.3225 30.8156 45.6966 30.8156 44.8033C30.8425 44.4437 31.5347 44.0804 31.5347 44.0804C30.7848 44.0728 28.1701 44.0728 27.0435 44.0804C27.0435 44.0804 27.7048 44.4097 27.7664 44.8033C27.7664 45.5414 27.7702 50.969 27.7702 50.969C26.5282 50.9577 21.7371 50.9577 20.4912 50.969C20.4912 50.969 20.4912 45.5414 20.4912 44.8033C20.5566 44.4097 21.218 44.0804 21.218 44.0804C20.1028 44.0728 17.4881 44.0728 16.7229 44.0804C16.7229 44.0804 17.415 44.4437 17.4458 44.8033C17.4458 45.6966 17.4458 59.3225 17.4458 60.2309C17.415 60.5867 16.7229 60.9462 16.7229 60.9462C17.4919 60.95 20.1028 60.95 21.218 60.9462C21.218 60.9462 20.5566 60.6169 20.4912 60.2233C20.4912 59.4928 20.4912 51.7866 20.4912 51.7866C22.2639 51.7714 26.0052 51.7714 27.7702 51.7866Z" fill="#231F20"/>
<path d="M121.324 51.3816C121.324 51.3816 121.324 45.5376 121.324 44.7957C121.386 44.4097 122.043 44.0804 122.043 44.0804C120.924 44.0728 118.313 44.0728 117.556 44.0804C117.556 44.0804 118.237 44.44 118.267 44.7957C118.267 45.6966 118.271 59.3225 118.271 60.2233C118.237 60.5866 117.556 60.9462 117.556 60.9462C118.313 60.9462 120.924 60.9462 122.043 60.9462C122.043 60.9462 121.386 60.6094 121.324 60.2233C121.324 59.489 121.324 51.3816 121.324 51.3816Z" fill="#231F20"/>
<path d="M143.027 60.9462C143.027 60.9462 143.723 60.5866 143.746 60.2233C143.746 59.3225 143.746 45.6928 143.746 44.7957C143.723 44.44 143.023 44.0804 143.023 44.0804C143.792 44.0728 146.395 44.0728 147.502 44.0804C147.502 44.0804 146.856 44.4097 146.783 44.7957C146.783 45.5376 146.783 51.3816 146.783 51.3816C146.783 51.3816 146.783 59.4247 146.783 60.1627L146.81 60.1665C148.187 60.2195 150.371 60.0113 151.736 60.034C152.144 60.034 152.87 59.9054 153.105 59.6215C153.089 59.9697 152.997 60.5715 152.786 60.9424C152.786 60.9424 143.792 60.9462 143.027 60.9462Z" fill="#231F20"/>
<path d="M68.8639 55.2917C68.8639 55.2917 68.8639 45.5529 68.8639 44.8111C68.7908 44.4326 68.1295 44.1108 68.1295 44.1108C69.2523 44.0957 70.4135 44.0957 71.1672 44.1108C71.1672 44.1108 70.4866 44.4666 70.4404 44.8111C70.4404 45.7119 70.4327 61.552 70.4327 61.552C70.4327 61.552 59.147 48.3462 58.3203 47.3394C57.6397 46.4727 57.7743 47.3394 57.7743 47.3394C57.7743 47.3394 57.7628 59.3227 57.7628 60.2235C57.7935 60.5868 58.4741 60.9464 58.4741 60.9464C57.7089 60.9464 57.3898 60.9464 56.267 60.9464C56.267 60.9464 56.9245 60.6171 56.9937 60.2235C56.9937 59.493 57.0129 45.0912 57.0129 45.0912C56.5823 44.2244 55.9363 44.073 55.9363 44.073C56.6053 44.073 59.0817 44.073 59.0817 44.073C59.0817 44.073 68.2371 54.7731 68.6678 55.2917H68.8639Z" fill="#231F20"/>
<path d="M40.54 54.7576H45.6465L43.0856 48.3307L40.54 54.7576ZM44.1353 43.5427C44.1353 43.5427 50.5799 59.6251 50.9375 60.1777C51.2797 60.7379 51.8334 60.9498 51.8334 60.9498C51.2182 60.9536 48.0651 60.9536 47.4345 60.9498C47.4191 60.9006 47.9959 60.6659 47.8075 60.1852C47.3691 59.0384 46.3848 56.7901 45.9541 55.5751H40.2401C39.8287 56.6993 38.7789 59.6478 38.5944 60.2042C38.4252 60.7568 38.8481 60.8476 39.0404 60.9498C38.579 60.9536 36.7602 60.9536 36.2488 60.9498C36.2488 60.9498 36.9025 60.7151 37.0024 60.2042C37.0909 59.6856 43.6047 43.5427 43.6047 43.5427H44.1353Z" fill="#231F20"/>
<path d="M161.103 54.7466H166.217L163.656 48.3311L161.103 54.7466ZM164.698 43.5393C164.698 43.5393 171.15 59.6217 171.497 60.178C171.843 60.7306 172.404 60.9464 172.404 60.9464C171.777 60.954 168.628 60.9464 167.994 60.9464C167.982 60.901 168.559 60.6587 168.386 60.1818C167.924 59.0388 166.951 56.7905 166.513 55.5755H160.807C160.403 56.6959 159.334 59.6444 159.161 60.2045C158.992 60.7571 159.411 60.8404 159.599 60.9464C159.15 60.954 157.269 60.954 156.819 60.9464C156.819 60.9464 157.465 60.7155 157.561 60.197C157.642 59.686 164.164 43.5393 164.164 43.5393H164.698Z" fill="#231F20"/>
<path d="M89.9819 59.5385C88.8245 60.2047 87.3556 60.375 85.9791 60.375C82.9298 60.375 79.696 57.3395 79.696 52.4569C79.696 47.4721 82.4299 44.7166 85.7291 44.7166C87.9517 44.7166 90.5741 45.977 91.72 48.1761C91.72 48.1761 91.72 46.2949 91.72 45.466C90.4703 44.9475 88.8245 43.9482 85.8368 43.9482C80.7726 43.9482 76.6775 46.8172 76.6775 52.5742C76.6775 57.5893 80.242 61.1358 85.3446 61.1358C87.7286 61.1358 89.8358 60.9011 91.7584 60.1782C91.7584 60.1782 91.7584 55.6514 91.7584 54.7468C91.7892 54.3948 92.4852 54.0352 92.4852 54.0352C91.72 54.0276 90.3818 54.0276 89.2667 54.0352C89.2667 54.0352 89.9166 54.3607 89.9819 54.7468C89.9819 55.4924 89.9819 59.5385 89.9819 59.5385Z" fill="#231F20"/>
<path d="M102.602 52.4148C103.109 52.4564 104.101 52.5548 105.063 52.2974C106.847 51.794 107.558 50.4277 107.558 48.5049C107.558 46.8168 106.651 45.1476 104.947 44.8183C103.675 44.5875 103.455 44.6253 102.602 44.8032V52.4148ZM102.602 60.2232C102.636 60.5865 103.321 60.9461 103.321 60.9461C102.567 60.9461 101.175 60.9234 100.814 60.9461C100.448 60.9234 99.5641 60.9461 98.8027 60.9461C98.8027 60.9461 99.4872 60.5865 99.5218 60.2232C99.5218 59.3224 99.5218 45.6965 99.5218 44.7956C99.4872 44.4398 98.8027 44.0803 98.8027 44.0803C99.7448 44.0727 103.582 44.0803 103.582 44.0803C107.081 44.0803 109.754 45.7229 109.754 48.2097C109.754 51.0749 107.005 52.3845 106.297 52.6911C107.028 53.115 107.897 54.1672 108.231 54.629C109.166 55.9386 109.892 57.3012 110.338 58.0128C111.842 60.5033 112.699 60.7379 112.699 60.7379C111.665 61.0559 110.684 61.1467 110.077 61.0029C108.024 60.526 106.082 53.8379 104.609 53.3535C104.174 53.2021 102.602 53.2248 102.602 53.2248V60.2232Z" fill="#231F20"/>
<path d="M25.5016 81.6729V84.9847H24.8248V85.2118H27.2396V84.9847H26.6167V78.3875H27.2396V78.1755H24.8248V78.3875H25.5016V81.4571H22.7561V78.3875H23.4521V78.1755H21.0181V78.3875H21.6448V84.9923H21.0181V85.2118H23.4521V84.9847H22.7561V81.6729H25.5016Z" fill="#231F20"/>
<path d="M40.0709 85.2117H42.7433V84.9846H41.9627V78.3874H42.6356C43.097 78.3874 43.2162 78.4934 43.6431 80.4161H43.8699V78.1716H38.9365V80.4161H39.1711C39.5979 78.4934 39.7017 78.3874 40.167 78.3874H40.8437V84.9846H40.0709V85.2117Z" fill="#231F20"/>
<path d="M52.3487 85.2117V82.6076H52.1141C51.5066 84.7121 51.2951 84.9846 50.5607 84.9846H48.738V81.6689H49.5378C50.0685 81.6689 50.3223 81.9869 50.503 83.077H50.7452V80.0414H50.503C50.3223 81.139 50.0685 81.457 49.5378 81.457H48.738V78.3874H50.7914C51.2951 78.3874 51.4758 78.5236 52.0257 80.4313H52.2564V78.1716H47V78.3874H47.6152V84.9846H47V85.2117H52.3487Z" fill="#231F20"/>
<path d="M57.6629 84.9846H59.2048C59.8854 84.9846 60.0815 84.871 60.6891 82.3919H60.9275V85.2117H55.9287V84.9846H56.5516V78.3874H55.9287V78.1716H58.6973V78.3874H57.6629V84.9846Z" fill="#231F20"/>
<path d="M64.2152 82.5661C64.6459 84.47 65.0458 85.1513 66.0455 85.1513C66.9876 85.1513 67.7297 84.5381 67.7297 83.6638C67.7297 81.654 63.8845 82.4375 63.8845 80.0226C63.8845 78.819 64.8304 78.0052 66.2378 78.0052C67.0107 78.0052 67.6567 78.1831 68.1835 78.4065V80.4541H67.9489C67.9489 80.4541 67.8451 80.0794 67.5875 79.277C67.326 78.4594 66.8261 78.2323 66.1532 78.2323C65.2342 78.2323 64.5805 78.8304 64.5805 79.576C64.5805 80.3406 65.1304 80.545 66.5262 81.0673C68.0566 81.6275 68.6064 82.0135 68.6064 83.1377C68.6064 84.4132 67.5067 85.3708 65.9071 85.3708C65.3073 85.3708 64.4344 85.1021 63.9845 84.8031V82.5661H64.2152Z" fill="#231F20"/>
<path d="M80.5995 81.3398H81.0263L80.2342 85.0377H79.792L79.7612 85.2118H81.4301L81.4608 85.0377H80.9917L81.5377 82.5321C81.7146 81.6994 82.2145 81.3246 82.6528 81.3246C83.0335 81.3246 83.1758 81.5215 83.0527 82.1195L82.4067 85.0377H81.953L81.9069 85.2118H83.5757L83.6064 85.0377H83.1758L83.7833 82.2065C83.9794 81.3398 83.5834 81.0408 82.9489 81.0408C82.3875 81.0408 81.9299 81.3625 81.6646 81.6994H81.6531L81.78 81.1657H80.6302L80.5995 81.3398Z" fill="#231F20"/>
<path d="M86.9825 85.1625C87.5246 85.1625 87.9553 84.538 88.2321 83.2625C88.5513 81.8355 88.336 81.2564 87.8092 81.2564C87.317 81.2564 86.9094 81.6501 86.5787 83.2625C86.248 84.7159 86.4595 85.1625 86.9825 85.1625ZM87.8169 85.2117L87.9168 84.7159H87.9015C87.6746 85.083 87.3362 85.3404 86.7863 85.3404C86.0173 85.3404 85.4405 84.5872 85.7404 83.1906C86.0365 81.8128 86.8979 81.0407 87.7207 81.0407C88.136 81.0407 88.4206 81.2564 88.5205 81.6501H88.5436L88.9166 79.8749H88.5205L88.5705 79.697H89.7202L88.5667 85.0376H88.9435L88.9166 85.2117H87.8169Z" fill="#231F20"/>
<path d="M77.135 82.9673C76.1237 83.395 75.4354 83.0847 75.1893 84.2353C75.0624 84.8333 75.2508 85.0528 75.6738 85.0528C76.2698 85.0377 76.8081 84.451 77.0004 83.5729L77.135 82.9673ZM75.2162 82.6115L75.4969 81.3246C75.9506 81.1581 76.3621 81.0408 76.7889 81.0408C77.8002 81.0408 78.1501 81.5669 78.0424 82.0589L77.4041 85.0377H77.7925L77.7502 85.2118H76.6389L76.7889 84.5154H76.785C76.4697 84.9999 75.9429 85.3443 75.3738 85.3443C74.6471 85.3443 74.2318 84.9204 74.3818 84.2353C74.674 82.8424 76.2506 83.2474 77.1734 82.7591L77.3657 81.9265C77.4733 81.4193 77.2426 81.2187 76.8004 81.2187C76.2429 81.2187 76.016 81.5025 75.3931 82.6115H75.2162Z" fill="#231F20"/>
<path d="M33.311 85.1588C34.4569 85.1588 34.9952 84.3602 34.9952 81.6918C34.9952 79.0272 34.4569 78.2323 33.311 78.2323C32.1575 78.2323 31.6153 79.0272 31.6153 81.6918C31.6153 84.3602 32.1575 85.1588 33.311 85.1588ZM33.311 78.0052C34.8683 78.0052 36.2949 79.4587 36.2949 81.6918C36.2949 83.9325 34.8683 85.3784 33.311 85.3784C31.746 85.3784 30.3271 83.9325 30.3271 81.6918C30.3271 79.4587 31.746 78.009 33.311 78.0052Z" fill="#231F20"/>
<path d="M97.4686 81.4721H98.0761C99.3066 81.4721 99.9141 80.8779 99.9141 79.8711C99.9141 79.1557 99.5527 78.3874 98.4183 78.3874H97.4686V81.4721ZM95.7344 85.2117V84.9846H96.3573V78.3874H95.7344V78.1716H98.7452C100.476 78.1716 101.091 78.9854 101.091 79.8711C101.091 80.8552 100.302 81.5365 98.8105 81.6273L101.279 84.9846H101.787V85.2117H100.141L97.5032 81.6273H97.4686V84.9846H98.2568V85.2117H95.7344Z" fill="#231F20"/>
<path d="M113.722 82.5661C114.145 84.4548 114.534 85.1513 115.553 85.1513C116.491 85.1513 117.225 84.5381 117.225 83.6638C117.225 81.6502 113.392 82.4375 113.392 80.0226C113.392 78.819 114.349 78.0052 115.741 78.0052C116.518 78.0052 117.16 78.1831 117.691 78.4065V80.4466H117.468L117.091 79.277C116.833 78.4594 116.325 78.2286 115.66 78.2286C114.745 78.2286 114.095 78.8304 114.095 79.576C114.095 80.3406 114.637 80.5412 116.033 81.0635C117.564 81.6275 118.102 82.0135 118.102 83.1377C118.102 84.4132 117.006 85.3708 115.414 85.3708C114.814 85.3708 113.949 85.1021 113.492 84.8031V82.5661H113.722Z" fill="#231F20"/>
<path d="M124.124 85.1702C125.277 85.1702 125.823 84.3791 125.823 81.7183C125.823 79.0499 125.266 78.2475 124.124 78.2475C122.974 78.2475 122.428 79.0499 122.428 81.7183C122.428 84.3791 122.974 85.1702 124.124 85.1702ZM124.124 78.0317C125.685 78.0317 127.1 79.4662 127.1 81.7183C127.1 83.9552 125.685 85.3935 124.124 85.3935C122.566 85.3935 121.14 83.9552 121.14 81.7183C121.14 79.4662 122.566 78.0317 124.124 78.0317Z" fill="#231F20"/>
<path d="M131.745 81.4721H132.356C133.587 81.4721 134.186 80.8665 134.186 79.8635C134.186 79.1557 133.821 78.3874 132.687 78.3874H131.745V81.4721ZM129.999 85.2117V84.9846H130.633V78.3874H129.999V78.1641H133.018C134.756 78.1641 135.363 78.9854 135.363 79.8635C135.363 80.8552 134.586 81.5365 133.079 81.6273L135.548 84.9846H136.055V85.2117H134.413L131.783 81.6273H131.745V84.9846H132.525V85.2117H129.999Z" fill="#231F20"/>
<path d="M139.597 85.2117H142.269V84.9846H141.492V78.3874H142.165C142.623 78.3874 142.746 78.4896 143.169 80.4086H143.4V78.1641H138.466V80.4086H138.709C139.112 78.4896 139.228 78.3874 139.689 78.3874H140.381V84.9846H139.597V85.2117Z" fill="#231F20"/>
<path d="M146.899 82.5661C147.329 84.4548 147.729 85.1513 148.729 85.1513C149.675 85.1513 150.421 84.5381 150.421 83.6638C150.421 81.6502 146.572 82.4375 146.572 80.0151C146.572 78.819 147.514 78.0052 148.929 78.0052C149.709 78.0052 150.344 78.1831 150.871 78.4065V80.4466H150.64L150.275 79.2694C150.013 78.4594 149.498 78.2286 148.833 78.2286C147.921 78.2286 147.272 78.8304 147.272 79.576C147.272 80.3406 147.814 80.5412 149.21 81.0635C150.752 81.6275 151.274 82.0135 151.274 83.1377C151.274 84.4132 150.198 85.3708 148.594 85.3708C147.987 85.3708 147.125 85.1021 146.676 84.8031V82.5661H146.899Z" fill="#231F20"/>
<path d="M109.719 85.2117V82.6038H109.481C108.885 84.7121 108.654 84.9846 107.928 84.9846H106.105V81.6689H106.916C107.435 81.6689 107.674 81.9869 107.889 83.077H108.112V80.0414H107.889C107.674 81.1315 107.435 81.4456 106.916 81.4456H106.105V78.3874H108.147C108.67 78.3874 108.827 78.5236 109.404 80.4275H109.616V78.1716H104.367V78.3874H104.982V84.9846H104.367V85.2117H109.719Z" fill="#231F20"/>
<path d="M0 69.9091H173V69.2883H0V69.9091Z" fill="#231F20"/>
<path d="M95.9764 18.8271C93.1617 19.8642 89.2012 21.6432 86.8748 24.6825C86.6056 25.0307 86.2134 25.0648 85.8674 24.6522C85.2252 23.8687 81.876 20.4471 77.1426 20.4471C75.9621 20.4471 74.2048 20.7348 73.0359 21.0906C73.0359 22.7105 73.0359 29.0428 73.0359 32.5287C73.7588 32.0064 75.3853 31.4538 76.9465 31.4538C79.342 31.4538 83.9601 33.4825 85.6443 35.0003C86.2711 35.5567 86.7479 35.5226 87.3016 35.0003C89.7856 32.6234 94.2038 30.5265 99.837 30.5341C99.837 28.581 99.837 16.5864 99.837 16.5864C99.837 16.5864 79.1267 16.5864 76.8926 16.5864C79.7189 15.5418 83.6871 13.7591 85.9904 10.7235C86.2711 10.3715 86.6595 10.3488 86.994 10.7576C87.6477 11.5373 91.0046 14.9513 95.7342 14.9589C96.8916 14.9589 98.6681 14.6675 99.837 14.3117C99.837 12.6993 99.837 6.36322 99.837 2.86969C99.1064 3.41094 97.4838 3.9522 95.9264 3.9522C93.5232 3.9522 88.9166 1.91588 87.2209 0.401892C86.6056 -0.158285 86.1058 -0.109079 85.5713 0.401892C83.0834 2.78642 78.6691 4.87573 73.0397 4.87573C73.0397 6.81742 73.0397 18.8271 73.0397 18.8271C73.0397 18.8271 93.7424 18.8271 95.9764 18.8271Z" fill="#BB9753"/>
</g>
</svg>
