<svg width="167" height="61" viewBox="0 0 167 61" fill="none" xmlns="http://www.w3.org/2000/svg">
<g opacity="0.9" clip-path="url(#clip0_1_1544)">
<path d="M0 57.4344H115.611L113.32 61H0V57.4344Z" fill="#FCB130"/>
<path d="M136.666 55.8246H132.418L141.001 42.3341C141.001 42.3341 142.284 39.5402 140.607 36.5867L128.643 16.8565C128.643 16.8565 127.595 15.0271 128.643 13.271L132.184 7.99585L146.225 30.8393C146.225 30.8393 149.846 35.6221 145.911 41.5492L136.666 55.8246Z" fill="#FCB130"/>
<path d="M146.927 51.687L152.144 43.771C152.144 43.771 153.667 40.5048 157.601 40.5048H163.139L167 46.5649C167 46.5649 163.954 46.2522 162.591 48.4142L156.9 56.9622C156.9 56.9622 155.043 60.9601 150.079 60.9601H123.266L133.466 45.3675C133.466 45.3675 134.909 43.5382 132.892 40.5048L123.814 25.9766C123.814 25.9766 121.583 23.8279 123.894 20.1493L126.546 16.1514L139.158 36.5135C139.158 36.5135 141.389 39.3074 139.158 42.6601L129.685 57.3679H149.659C149.659 57.3679 151.91 57.7804 153.847 54.9067L158.81 47.3033C158.81 47.3033 159.939 44.7422 162.431 43.6978H158.416C158.416 43.6978 156.319 43.7776 154.722 46.2589L150.313 53.0507C150.313 53.0507 148.71 55.9244 145.17 55.9244H138.189L146.613 42.9062C146.613 42.9062 151.202 36.8993 147.975 31.3847L134.014 8.38833C134.014 8.38833 132.965 6.39935 134.174 4.55005L137.22 0L153.119 25.4976C153.119 25.4976 155.45 29.3159 155.45 32.2695C155.45 35.223 153.593 38.569 152.564 40.2653L145.564 51.1349C145.564 51.1349 144.776 52.1793 145.33 52.5718C145.898 52.9642 146.452 52.2591 146.927 51.687Z" fill="#FCB130"/>
<path d="M58.2095 40.6179H60.6811V50.3632H66.7131V52.452H58.2095V40.6179ZM68.6102 52.452H71.0618V40.6179H68.6102V52.452ZM38.5168 52.452H40.9483V40.6179H38.5168V52.452ZM88.5968 40.6179H97.9087V42.5736H91.0684V45.4673H96.88V47.6159H91.0684V50.4896H97.9087V52.4587H88.5968V40.6179ZM101.71 24.7126H111.022V26.6617H104.181V29.5354H110.013V31.6841H104.181V34.5578H111.022V36.5069H101.71V24.7126ZM44.7225 52.452V40.6179H51.7833C51.7833 40.6179 55.1834 40.6777 55.1834 44.0637C55.1834 44.0637 55.4974 46.8775 52.6116 48.0217L56.1921 52.452H53.146L48.2028 46.3121H50.7746C50.7746 46.3121 52.6116 46.2722 52.6116 44.4229C52.6116 42.6734 51.1287 42.5337 50.6744 42.5337H47.1941V52.4587H44.7225V52.452ZM88.1626 36.5069V24.7126H95.2233C95.2233 24.7126 98.6235 24.7725 98.6235 28.1584C98.6235 28.1584 98.9174 30.9523 96.0517 32.0965L99.6321 36.5069H96.5861L91.6429 30.4069H94.2147C94.2147 30.4069 96.0517 30.3669 96.0517 28.5177C96.0517 26.7482 94.5687 26.6285 94.1145 26.6285H90.6342V36.5135L88.1626 36.5069ZM38.6972 34.458H42.0372V29.0432H44.4086V36.5069H38.1828C37.2543 36.5069 32.7653 35.4625 32.7253 30.7594C32.6852 26.0963 36.78 24.7126 38.3632 24.7126H44.4754V26.8014H38.9577C38.9577 26.8014 35.257 26.8014 35.257 30.6796C35.257 33.6864 38.3164 34.458 38.6972 34.458ZM74.2882 40.6179H76.7799V42.4472L78.343 40.6179H81.2889C81.2889 40.6179 85.3236 40.3984 85.3236 44.6956V52.452H82.8119V44.3231C82.8119 44.3231 82.7317 42.7066 81.035 42.7066H76.7865V52.452H74.2949L74.2882 40.6179ZM19.4387 24.7126H21.9103V26.522L23.4735 24.7126H26.4193C26.4193 24.7126 30.4741 24.4931 30.4741 28.7904V36.5069H27.9624V28.4112C27.9624 28.4112 27.8622 26.7948 26.1655 26.7948H21.9103V36.5002H19.4387V24.7126ZM13.5871 36.5069H16.0186V24.7126H13.5871V36.5069ZM100.621 52.4321V50.4231H107.501C107.501 50.4231 108.864 50.6759 108.864 49.0262C108.864 47.3698 107.835 47.5494 107.461 47.5494H103.486C103.486 47.5494 100.42 47.7623 100.42 44.1834C100.42 40.6179 103.446 40.6179 103.446 40.6179H111.001V42.7066H104.375C104.375 42.7066 102.932 42.7066 102.932 44.0637C102.932 45.4207 103.901 45.6801 104.809 45.6801H108.35C108.35 45.6801 111.335 45.3675 111.335 48.9064C111.335 52.4454 108.269 52.4321 108.269 52.4321H100.621ZM0.260459 36.5069V34.4979H7.14086C7.14086 34.4979 8.50358 34.7574 8.50358 33.101C8.50358 31.4446 7.47486 31.6242 7.10078 31.6242H3.12618C3.12618 31.6242 0.0600586 31.8371 0.0600586 28.2782C0.0600586 24.6927 3.0861 24.7126 3.0861 24.7126H10.6412V26.8014H4.01462C4.01462 26.8014 2.57174 26.8014 2.57174 28.1584C2.57174 29.5155 3.56038 29.7749 4.44882 29.7749H7.98922C7.98922 29.7749 10.9752 29.4623 10.9752 32.9812C10.9752 36.5268 7.90906 36.5069 7.90906 36.5069H0.260459Z" fill="#1D4886"/>
<path d="M79.7124 23.9809C76.1519 23.9809 73.2395 26.8746 73.2395 30.4335C73.2395 34.0123 76.1519 36.8794 79.7124 36.8794C83.2728 36.8927 86.1719 34.0323 86.1853 30.4867C86.1853 30.4667 86.1853 30.4534 86.1853 30.4335C86.1853 26.8746 83.3196 23.9809 79.7124 23.9809ZM79.7124 34.5046C77.4746 34.5046 75.671 32.6885 75.671 30.4335C75.671 28.2116 77.4813 26.3624 79.7124 26.3624C81.9635 26.3624 83.8072 28.2116 83.8072 30.4335C83.8072 32.6885 81.9635 34.5046 79.7124 34.5046ZM54.2415 24.7126H51.6297L45.9917 36.5068H48.7706L50.2669 33.1143H55.6377L57.1206 36.5068H59.8928M50.9617 31.3781L52.9389 26.5486L54.8962 31.3648L50.9617 31.3781ZM31.0887 40.6245H28.4768L22.8389 52.4586H25.6177L27.1141 49.0594H32.4848L33.9677 52.4586H36.7399M27.8021 47.3099L29.7794 42.4672L31.7366 47.2966L27.8021 47.3099ZM68.0157 24.7126H61.4359V36.5068H63.9609V30.7794L65.4172 32.775H68.0157C70.2936 32.775 71.8166 30.8925 71.8166 28.7438C71.8166 26.6018 70.2869 24.7126 68.0157 24.7126ZM67.9222 30.5931H63.9543V26.8812H67.9222C68.8106 26.8812 69.4185 27.8591 69.4185 28.7505C69.4252 29.6618 68.8173 30.5931 67.9222 30.5931Z" fill="#1D4886"/>
</g>
<defs>
<clipPath id="clip0_1_1544">
<rect width="167" height="61" fill="white"/>
</clipPath>
</defs>
</svg>
