<svg width="139" height="82" viewBox="0 0 139 82" fill="none" xmlns="http://www.w3.org/2000/svg">
<path d="M3 66.6621C3 65.0286 5.11603 64.5428 6.99115 64.5428C9.4657 64.5428 11.4897 66.1508 11.9488 68.4565H13.6778L13.6892 63.9167L11.8113 64.9053C10.8637 64.1926 8.83687 63.5354 6.97123 63.5354C3.82327 63.5354 0 64.4656 0 68.1628C0 72.9051 11.6386 72.3985 11.6386 76.189C11.6386 78.0352 9.36326 78.6039 7.0822 78.6039C4.14859 78.6039 2.38065 76.3801 1.93961 73.9915H0.0360419V79.2347L1.96522 78.1576C3.68005 79.0737 5.12551 79.6094 6.97692 79.6094C11.1644 79.6094 14.4556 78.2301 14.4556 74.82C14.4556 69.0704 3 69.6503 3 66.6621ZM18.3784 68.2089L21.7844 65.3449H24.3481V73.3391L22.4663 74.9942H30.036L28.1571 73.3391V65.3449H30.7237L34.1277 68.2089V64.2104H18.3784V68.2089ZM23.7838 78.9362L26.2545 81.1007L28.7234 78.9362L26.2545 76.7727L23.7838 78.9362ZM98.9412 71.6651L100.785 73.1555V75.737C100.785 77.1144 98.8141 78.2131 97.3905 78.2131C92.8046 78.2131 92.2555 74.1591 92.2555 71.5625C92.2555 67.9406 93.6583 64.7838 97.3981 64.7838C100.615 64.7838 101.947 66.5369 103.055 69.0581H104.641V64.2104L102.75 65.1595C102.074 64.7499 100.495 63.7915 97.4132 63.7915C91.7898 63.7915 87.8413 66.228 87.8413 71.5022C87.8413 77.0852 91.7424 79.3297 97.2985 79.3297C98.889 79.3297 100.795 78.7771 102.546 77.7349L104.641 78.9428L104.638 73.1555L106.492 71.6651H98.9412ZM127.546 66.6621C127.546 65.0286 129.661 64.5428 131.538 64.5428C134.01 64.5428 136.032 66.1508 136.494 68.4565H138.216L138.231 63.9167L136.353 64.9053C135.403 64.1926 133.377 63.5354 131.512 63.5354C128.366 63.5354 124.544 64.4656 124.544 68.1628C124.544 72.9051 136.181 72.3985 136.181 76.189C136.181 78.0352 133.907 78.6039 131.623 78.6039C128.693 78.6039 126.923 76.3801 126.483 73.9915H124.58V79.2347L126.507 78.1576C128.22 79.0737 129.668 79.6094 131.523 79.6094C135.706 79.6094 139 78.2301 139 74.82C139 69.0704 127.546 69.6503 127.546 66.6621ZM118.798 64.2104H111.182L113.065 65.8665V77.2811L111.182 78.9362H118.798L116.917 77.2811V65.8665L118.798 64.2104ZM73.1135 77.8027V72.1349H77.3257L79.1628 73.791V69.3491L77.3257 71.0042H73.1135V65.3449H79.4901L82.8837 68.2089V64.2104H67.1647L69.2627 66.0661V77.0852L67.1647 78.9362H82.8865V74.9368L79.4901 77.8027H73.1135ZM58.4483 73.7044L55.7575 72.1104C58.8969 71.9965 61.0613 71.3846 61.0613 68.2777C61.0613 65.3007 58.104 64.2123 54.0218 64.2123H43.8552L45.7379 65.8684V77.0796L43.8552 78.9362H51.2988L49.4189 77.0852V72.1387H53.3313L57.3775 78.9324H62.4537L60.3528 77.0824L58.4483 73.7044ZM52.436 71.0061H49.4189V65.3449H52.436C55.4957 65.3449 56.6225 65.5426 56.6225 68.1779C56.6225 70.814 55.4957 71.0061 52.436 71.0061Z" fill="#1E130F"/>
<path d="M69.5606 28.7768C68.652 30.0939 67.383 30.6447 66.2201 30.7463C64.2141 30.9177 62.541 29.8698 61.5423 28.9839C61.5499 29.2419 61.5081 29.6194 61.4266 30.1862C60.903 29.8839 60.4449 29.7079 60.0968 29.6015C60.2249 28.1591 60.2106 26.954 60.1964 26.4475V25.7009H60.849C61.1857 26.9032 62.413 28.0245 63.7958 28.6186C65.0943 29.1769 66.5303 29.0931 67.6305 28.1723C68.3893 27.5312 68.7601 25.7301 67.9388 24.5325C67.7747 24.2915 67.5461 24.0665 67.2777 23.8547H69.6517C69.8575 24.1635 70.0738 24.5928 70.1439 24.8894C70.4399 26.0756 70.3336 27.6658 69.5606 28.7768ZM62.4651 34.4661C61.4095 32.6896 59.3561 31.1587 57.866 31.6925C57.3567 31.8733 57.1016 32.3356 57.1073 32.7903C57.1139 33.4042 57.5417 33.9973 58.4427 33.9239C58.6296 33.9088 58.9207 33.8128 59.0877 33.6791C59.3997 33.422 59.5467 33.0445 59.615 32.7875C59.9166 32.9372 60.3245 33.2215 60.6403 33.5473C60.057 34.8635 58.1667 35.2721 56.9764 34.5612C56.3087 34.1668 55.8325 33.4117 55.9719 32.2932C56.0753 31.459 56.597 30.913 57.1974 30.5496C57.9267 30.1052 58.805 30.0393 59.8787 30.3086C61.0709 30.607 62.1085 31.364 62.4727 31.8893C62.6842 31.636 62.9365 31.2237 63.1196 30.8951C63.5037 31.0947 64.1563 31.364 64.8562 31.444C64.5148 32.2565 63.2163 33.9973 62.4651 34.4661ZM61.2615 15.6741C62.9669 13.5944 66.1594 13.7205 68.0194 15.0678C68.0981 15.1233 68.5458 15.45 68.6235 15.5122L70.9103 14.8277C70.9103 14.8277 68.2176 17.5128 68.1986 17.5128C67.1098 15.6355 63.6906 14.8362 62.6691 16.9084C62.1446 17.9732 62.2622 19.1651 63.5502 19.955V21.9811C63.3339 21.8851 63.1186 21.7928 62.9147 21.6846C59.7402 20.004 60.167 17.012 61.2615 15.6741ZM73.9682 18.1747V19.071H72.7655L72.7702 20.4879H70.9909V19.071H69.5018L72.7655 15.8285V18.1747H73.9682ZM62.0715 9.87645C62.2641 10.6777 63.0285 11.6144 66.0399 11.6144C69.3529 11.6144 71.9603 11.6304 72.554 11.6286C77.9925 11.622 78.5369 16.2908 78.5369 17.3067C78.5369 18.589 78.3349 21.2976 75.6261 22.5884C75.1604 22.8143 74.8246 22.9631 74.1977 23.1231C75.2344 23.7229 76.143 25.7574 77.0345 27.9002C77.6065 29.2786 78.1016 30.6409 78.6782 31.5457C79.0102 32.0559 79.4958 32.634 79.9625 32.8581C80.1778 32.9626 80.4832 32.9899 80.7269 33.0003C81.2865 33.0106 81.6422 32.7291 81.7996 32.4514C81.2713 32.7216 80.6662 32.393 80.486 31.9392C80.3077 31.5127 80.3646 31.1286 80.5866 30.7784C80.8512 30.3594 81.259 30.189 81.7835 30.2191C83.3295 30.3001 83.3523 32.0324 83.3523 32.0324C83.3276 33.0106 83.0203 33.6894 82.3403 34.1922C81.9002 34.5179 81.3909 34.7316 80.6444 34.7618C79.0102 34.8296 77.0431 33.8052 75.3226 28.6393C74.6909 26.7347 73.695 24.783 72.6498 23.9818C72.1642 23.6089 71.2764 23.061 70.0083 23.061L66.222 23.0544C66.222 23.0544 66.168 24.0966 66.1727 24.3574C66.1907 24.9477 65.9859 27.8588 65.8066 28.2175C65.3694 28.3032 64.2141 28.0593 64.0112 27.8277C64.271 26.8194 64.3374 25.5898 64.3754 23.4423C64.382 23.1523 64.382 23.0309 64.382 23.0309C64.382 23.0309 64.3678 16.5356 64.3678 16.5299C64.7035 16.368 65.836 16.5083 66.2012 16.8218C66.2031 16.8293 66.2087 21.2091 66.2087 21.2091C66.2087 21.2091 70.7642 21.2044 72.6782 21.2044C75.3928 21.2044 76.713 19.5672 76.713 17.3067C76.713 15.0452 75.2192 13.4739 72.5492 13.4739H66.0409L64.9833 13.4701C63.2476 13.4701 61.2938 11.8922 62.0715 9.87645ZM79.9293 24.9732L78.4762 26.4136L77.0241 24.9732L78.4762 23.5308L79.9293 24.9732ZM70.9805 33.793V24.0486C71.5088 24.0618 72.609 24.8536 72.7551 25.1671V30.4799L73.9653 29.303L74.7639 30.0732L70.9805 33.793ZM72.6678 41.5471C74.7478 40.6329 77.1114 40.5773 78.7883 41.3682C78.866 41.082 78.9381 40.7948 78.9381 40.7948C79.3602 40.0642 80.1152 39.6293 80.9603 39.6293C82.0595 39.6293 82.9378 40.4032 83.1787 41.4209C85.6988 40.9445 88.2483 38.0871 89.0934 35.5159C89.4775 34.3607 89.8351 32.3892 89.8351 30.9328C89.8351 30.7689 89.8332 30.6136 89.8246 30.4667C89.7734 29.6806 89.6444 29.0338 89.5002 28.5329C89.432 28.5386 89.3732 28.5762 89.3125 28.5762C88.0235 28.5762 86.9811 27.5406 86.9811 26.2668C86.9811 25.8243 87.1044 25.4128 87.3159 25.0635C86.7706 24.7754 86.2394 24.3763 85.7766 23.8792C84.2429 22.24 83.6454 19.7686 83.4149 17.9826C83.3276 17.3311 83.283 16.7126 83.283 16.1289C83.283 15.1742 83.4007 14.3099 83.6273 13.5464C83.817 12.9203 84.0608 12.3695 84.3425 11.8903C83.0668 11.6577 81.6858 10.8791 80.5885 9.34075V9.33793C79.547 7.86074 79.2606 6.37319 79.4275 5.16056C78.8603 5.18033 78.1945 5.07582 77.394 4.73218C76.4218 4.31416 75.848 3.94228 75.3965 3.64665C75.3965 3.64665 73.9245 2.79084 73.9188 2.78425C73.5821 2.61949 73.2805 2.52628 73.0026 2.45097C72.6574 3.23616 71.8692 3.78693 70.952 3.78693C70.401 3.78693 69.8992 3.57604 69.5047 3.23993C69.1139 3.57698 68.6141 3.78693 68.0469 3.78693C67.1278 3.78693 66.3425 3.23522 65.9963 2.44532C65.7355 2.51499 65.4566 2.5969 65.1588 2.74377C65.1588 2.74377 63.6033 3.64383 63.6583 3.60899C63.1272 3.95922 62.5761 4.31511 61.6058 4.73218C60.8044 5.07582 60.1376 5.18033 59.5723 5.16056C59.7402 6.37319 59.4547 7.86168 58.4076 9.34075C57.3159 10.881 55.934 11.6577 54.6574 11.8903C54.941 12.3714 55.1819 12.9203 55.3725 13.5464C55.7386 14.775 55.8117 16.2673 55.5869 17.9808C55.3545 19.7686 54.7532 22.24 53.2214 23.882C52.7576 24.3763 52.2321 24.7754 51.6839 25.0635C51.8973 25.4128 52.0168 25.8243 52.0168 26.2668C52.0168 27.5406 50.9735 28.5762 49.6921 28.5762C49.6258 28.5762 49.567 28.5386 49.4996 28.5329C49.3526 29.0338 49.2302 29.6806 49.1771 30.4658C49.1686 30.6136 49.1648 30.7689 49.1648 30.9309C49.1648 32.3892 49.5243 34.3607 49.9046 35.5159C50.7544 38.0871 53.302 40.9445 55.8173 41.4209C56.0602 40.4032 56.9403 39.6293 58.0387 39.6293C58.8856 39.6293 59.6387 40.0642 60.0608 40.7948C60.0608 40.7948 60.1348 41.0801 60.2106 41.371C61.8866 40.5773 64.253 40.6329 66.3339 41.5471C67.6646 42.1308 68.7962 43.1683 69.5047 44.4478C70.2151 43.1683 71.3333 42.1308 72.6678 41.5471ZM92.302 30.3086C92.1835 28.5141 91.7092 26.6302 90.738 25.7489C90.4013 25.4448 89.8673 25.1709 89.266 25.2208C88.6599 25.2744 88.2634 25.7066 88.2634 26.2668C88.2634 26.8401 88.7329 27.3033 89.3125 27.3033C89.6577 27.3033 89.9612 27.1367 90.1518 26.8815C90.6327 27.5293 91.0007 28.8219 91.1051 30.3839C91.2084 32.0315 90.7826 34.4859 90.314 35.9113C89.2423 39.1623 85.8913 42.7023 82.6106 42.7917C82.2065 42.8049 81.9125 42.755 81.6934 42.6787C81.8879 42.4895 82.0055 42.2306 82.0055 41.9425C82.0055 41.3663 81.5369 40.9031 80.9603 40.9031C80.5638 40.9031 80.2337 41.1093 80.0535 41.4256C79.9577 41.5932 79.9169 41.8681 79.9112 42.0121C79.9112 42.1487 79.9112 42.3021 79.9871 42.5394C80.0611 42.7804 80.2129 43.0506 80.4917 43.317C80.9754 43.7878 81.702 44.0109 82.6447 43.9846C86.5505 43.8782 90.259 39.9032 91.455 36.2832C91.9549 34.7721 92.4177 32.1642 92.302 30.3086ZM58.0387 40.9031C57.4629 40.9031 56.9934 41.3663 56.9934 41.9425C56.9934 42.2306 57.1139 42.4895 57.3026 42.6787C57.0892 42.755 56.7933 42.8049 56.3893 42.7917C53.1104 42.7023 49.7576 39.1623 48.6858 35.9113C48.2163 34.4859 47.7905 32.0315 47.8976 30.3839C48.0001 28.8219 48.3681 27.5293 48.849 26.8815C49.0387 27.1367 49.3431 27.3033 49.6921 27.3033C50.2641 27.3033 50.7355 26.8401 50.7355 26.2668C50.7355 25.7066 50.3381 25.2744 49.7339 25.2208C49.1307 25.1709 48.5976 25.4448 48.2581 25.7489C47.2906 26.6302 46.8154 28.5141 46.6978 30.3086C46.5802 32.1642 47.0459 34.7721 47.5429 36.2832C48.7399 39.9032 52.4493 43.8782 56.3551 43.9846C57.2979 44.0109 58.0254 43.7878 58.511 43.317C58.787 43.0506 58.9388 42.7804 59.0137 42.5394C59.0896 42.3021 59.0896 42.1487 59.0877 42.0121C59.0848 41.8681 59.0412 41.5932 58.9463 41.4256C58.7652 41.1093 58.4351 40.9031 58.0387 40.9031ZM48.6669 23.7257C48.7892 23.8942 48.9552 24.0317 49.1657 24.1221C49.4029 24.2313 49.658 24.2896 49.9463 24.268C50.1882 24.2539 50.45 24.2058 50.7061 24.107C51.2467 23.9046 51.7996 23.528 52.2815 23.013C53.5818 21.6215 54.1054 19.4203 54.315 17.8188C54.5179 16.2795 54.4582 14.9633 54.1433 13.9079C53.6757 12.3441 52.8648 11.3584 51.9723 11.2011C51.7494 11.1597 51.5606 11.1465 51.2894 11.2444C50.9337 11.3762 50.6141 11.7594 50.6141 12.1982C50.6141 12.7517 51.0703 13.2027 51.6318 13.2027C51.9599 13.2027 52.2511 13.0464 52.4342 12.8035C52.6884 13.15 52.9274 13.6405 53.1 14.2186C53.3713 15.1252 53.4168 16.2908 53.2366 17.6795C53.0459 19.1265 52.5907 21.0971 51.4838 22.2767C51.149 22.6345 50.8113 22.868 50.5097 23.013V23.0083C50.5097 22.4359 50.0431 21.9679 49.4655 21.9679C48.9571 21.9679 48.3548 22.3643 48.4525 23.2182C48.4848 23.4141 48.5587 23.5741 48.6669 23.7257ZM65.8142 42.7088C64.0197 41.9218 61.9198 41.8737 60.5957 42.5893C59.8768 42.98 59.4187 43.4912 59.2356 44.0825C59.173 44.2802 59.1332 44.5014 59.1351 44.7142C59.1332 44.7264 59.1398 45.1718 59.4158 45.4683C59.6027 45.6726 59.8787 45.8205 60.1784 45.8205C60.756 45.8205 61.2236 45.3582 61.2236 44.7858C61.2236 44.3847 60.9979 44.042 60.6659 43.8669C60.7845 43.7643 60.9343 43.6597 61.1231 43.5562C62.1474 43.0035 63.8935 43.0704 65.3665 43.7162C66.351 44.1512 67.1923 45.0127 67.6096 46.0182C67.751 46.3599 67.8249 46.7083 67.8534 47.0171C67.7946 47.0077 67.7377 46.9992 67.6751 46.9992C67.0984 46.9992 66.6308 47.4652 66.6308 48.0395C66.6308 48.6138 67.0984 49.0827 67.6751 49.0808C68.2318 49.0752 68.5714 48.7146 68.6956 48.5404C69.1661 47.8456 69.0228 46.5087 68.6463 45.5992C68.1009 44.3197 67.0775 43.2634 65.8142 42.7088ZM58.6684 3.59769C59.0772 3.88296 59.8265 4.10704 61.0984 3.56474C61.9577 3.19568 62.4424 2.88122 62.9555 2.54794L64.5091 1.64411C65.5685 1.12724 66.6062 0.955888 67.272 1.04345C67.1667 1.19314 67.0918 1.36732 67.0918 1.56597C67.0918 2.08849 67.5176 2.51405 68.0469 2.51405C68.5875 2.51405 69.0077 2.08849 69.0143 1.56597C69.0181 1.3033 68.9735 1.07452 68.8682 0.875862C68.7601 0.670618 68.5979 0.488912 68.3068 0.325094C67.3877 -0.225675 65.6823 -0.0684469 64.0548 0.733698L62.3912 1.69684C61.897 2.016 61.4683 2.29656 60.6925 2.63173C60.2941 2.80026 59.9527 2.87369 59.6786 2.86993C59.8142 2.70517 59.8939 2.5357 59.8939 2.30786C59.8939 1.78628 59.4756 1.42286 58.9492 1.42286C58.4854 1.42286 58.0254 1.78816 58.0074 2.44532C57.9969 2.89535 58.2729 3.3209 58.6684 3.59769ZM52.5451 10.3293C52.7026 10.4489 52.8847 10.5393 53.1351 10.6127C54.2571 10.9337 56.0592 10.4413 57.3596 8.60733C58.6058 6.84299 58.5394 5.01275 57.8262 4.1108C57.6583 3.90085 57.4278 3.72385 57.1898 3.63253C56.9109 3.52708 56.6179 3.53556 56.4092 3.63253C56.0298 3.80953 55.8041 4.13811 55.8041 4.55989C55.8041 5.07582 56.2271 5.49573 56.7468 5.49573C56.946 5.49573 57.1196 5.42323 57.2732 5.31967C57.407 5.98153 57.2676 6.98421 56.5287 8.0302C55.6988 9.20141 54.6982 9.63355 53.9792 9.68816C54.0058 9.60154 54.0333 9.44996 54.0333 9.35393C54.0333 8.80975 53.578 8.3955 53.0289 8.39738C52.8335 8.40021 52.5783 8.4614 52.3659 8.65817C52.2084 8.80787 52.0756 9.06489 52.0737 9.38406C52.0719 9.6119 52.1828 9.92541 52.2995 10.077C52.3678 10.1768 52.4541 10.2578 52.5451 10.3293ZM84.8566 13.9079C84.5417 14.9633 84.4829 16.2795 84.6868 17.8188C84.8926 19.4203 85.4171 21.6215 86.7184 23.013C87.2012 23.528 87.7541 23.9046 88.2928 24.107C88.5489 24.2058 88.8117 24.2539 89.0535 24.268C89.34 24.2896 89.5951 24.2313 89.8351 24.1221C90.0447 24.0317 90.2106 23.8942 90.3321 23.7257C90.4411 23.5741 90.5151 23.4141 90.5483 23.2182C90.6431 22.3643 90.0428 21.9679 89.5363 21.9679C88.9568 21.9679 88.4873 22.4359 88.4873 23.0083L88.4901 23.013C88.1885 22.868 87.849 22.6345 87.5142 22.2767C86.413 21.0971 85.953 19.1265 85.7661 17.6795C85.5821 16.2908 85.6286 15.1252 85.8999 14.2186C86.0744 13.6405 86.3106 13.15 86.5609 12.8035C86.7487 13.0464 87.0399 13.2027 87.3671 13.2027C87.9296 13.2027 88.3858 12.7517 88.3858 12.1982C88.3858 11.7594 88.0652 11.3762 87.7095 11.2444C87.4392 11.1465 87.2495 11.1597 87.0304 11.2011C86.1303 11.3584 85.3251 12.3441 84.8566 13.9079ZM81.6422 8.60733C82.9407 10.4413 84.7408 10.9337 85.8657 10.6127C86.118 10.5393 86.2982 10.4489 86.4538 10.3293C86.5439 10.2578 86.6311 10.1768 86.7023 10.077C86.8161 9.92541 86.9271 9.6119 86.9233 9.38406C86.9214 9.06489 86.7876 8.80787 86.634 8.65817C86.4196 8.4614 86.1673 8.40021 85.9701 8.39738C85.4209 8.3955 84.9647 8.80975 84.9647 9.35393C84.9647 9.44996 84.996 9.60154 85.0187 9.68816C84.2998 9.63355 83.3039 9.20141 82.4712 8.0302C81.7295 6.98421 81.5938 5.98153 81.7276 5.31967C81.8803 5.42323 82.0548 5.49573 82.2502 5.49573C82.7699 5.49573 83.1958 5.07582 83.1958 4.55989C83.1958 4.13811 82.9682 3.80953 82.5878 3.63253C82.382 3.53556 82.0899 3.52708 81.812 3.63253C81.573 3.72385 81.3434 3.90085 81.1718 4.1108C80.4623 5.01275 80.3959 6.84299 81.6422 8.60733ZM78.4032 42.5893C77.081 41.8737 74.9802 41.9218 73.1857 42.7088C71.9204 43.2634 70.898 44.3197 70.3649 45.5992C69.9912 46.5087 69.8452 47.8456 70.3204 48.5404C70.4399 48.7146 70.769 49.0752 71.3267 49.0808C71.9033 49.0827 72.369 48.6138 72.369 48.0395C72.369 47.4652 71.9033 46.9992 71.3267 46.9992C71.2622 46.9992 71.2072 47.0077 71.1455 47.0171C71.1759 46.7083 71.248 46.3599 71.3902 46.0182C71.8085 45.0127 72.6469 44.1512 73.6343 43.7162C75.1092 43.0704 76.8486 43.0035 77.8749 43.5562C78.0655 43.6597 78.2135 43.7643 78.3349 43.8669C78.0029 44.042 77.7744 44.3847 77.7744 44.7858C77.7744 45.3582 78.2429 45.8205 78.8196 45.8205C79.1212 45.8205 79.3991 45.6726 79.584 45.4683C79.861 45.1718 79.8657 44.7264 79.8657 44.7142C79.8657 44.5014 79.8268 44.2802 79.768 44.0825C79.5821 43.4912 79.1212 42.98 78.4032 42.5893ZM70.952 2.51405C71.4813 2.51405 71.91 2.08849 71.91 1.56597C71.91 1.36732 71.8332 1.19314 71.7307 1.04345C72.3928 0.955888 73.4361 1.12724 74.4908 1.64411L76.0434 2.54794C76.5594 2.88122 77.0459 3.19568 77.9024 3.56474C79.1724 4.10704 79.9217 3.88296 80.3305 3.59769C80.725 3.3209 81.0039 2.89535 80.9906 2.44532C80.9726 1.78816 80.5154 1.42286 80.0507 1.42286C79.5233 1.42286 79.1079 1.78628 79.1079 2.30786C79.1079 2.5357 79.1876 2.70517 79.3213 2.86993C79.0481 2.87369 78.7029 2.80026 78.3093 2.63173C77.5296 2.29656 77.1028 2.016 76.6077 1.69684L74.946 0.733698C73.3166 -0.0684469 71.6141 -0.225675 70.694 0.325094C70.4171 0.488912 70.2502 0.670618 70.1439 0.875862C70.0425 1.07452 69.9931 1.3033 69.9988 1.56597C70.0064 2.08849 70.4266 2.51405 70.952 2.51405Z" fill="#7A634E"/>
</svg>
