<svg width="160" height="120" viewBox="0 0 160 120" fill="none" xmlns="http://www.w3.org/2000/svg">
<path d="M114.81 108.9C115.698 108.9 116.403 108.229 116.403 107.266C116.403 106.458 115.902 105.937 115.082 105.456C114.397 105.051 113.931 104.81 113.931 104.087C113.931 103.478 114.353 103.133 114.81 103.133C115.211 103.133 115.542 103.279 115.902 103.593L116.261 103.171C115.862 102.786 115.375 102.592 114.796 102.592C113.965 102.592 113.331 103.201 113.331 104.107C113.331 104.986 113.917 105.456 114.741 105.937C115.46 106.355 115.805 106.655 115.805 107.303C115.805 107.939 115.426 108.358 114.826 108.358C114.288 108.358 113.944 108.175 113.583 107.852L113.229 108.267C113.686 108.689 114.152 108.9 114.81 108.9ZM112.459 103.229V102.693H109.271V103.229H110.564V108.798H111.15V103.229H112.459ZM107.621 104.394C107.621 105.19 107.083 105.722 106.225 105.722H105.203L107.867 108.802H108.6L106.249 106.11H106.562C107.479 106.11 108.241 105.344 108.241 104.435C108.241 103.419 107.479 102.693 106.405 102.693H104.48V108.802H105.053V103.229H106.252C107.199 103.229 107.621 103.906 107.621 104.394ZM102.58 105.716C102.58 104.243 101.517 103.164 100.035 103.164C98.5635 103.164 97.5381 104.216 97.5381 105.739C97.5381 107.18 98.6797 108.349 100.072 108.349C101.326 108.349 102.58 107.445 102.58 105.716ZM103.196 105.756C103.196 107.523 101.824 108.911 100.072 108.911C98.2773 108.911 96.9248 107.541 96.9248 105.739C96.9248 103.943 98.2598 102.585 100.024 102.585C101.857 102.585 103.196 103.924 103.196 105.756ZM94.459 108.9C95.3574 108.9 96.0596 108.229 96.0596 107.266C96.0596 106.458 95.5625 105.937 94.7383 105.456C94.0537 105.051 93.5791 104.81 93.5791 104.087C93.5791 103.478 94.002 103.133 94.459 103.133C94.8672 103.133 95.1943 103.279 95.5625 103.593L95.9199 103.171C95.5146 102.786 95.0303 102.592 94.4521 102.592C93.6172 102.592 92.9932 103.201 92.9932 104.107C92.9932 104.986 93.5654 105.456 94.3906 105.937C95.1123 106.355 95.46 106.655 95.46 107.303C95.46 107.939 95.082 108.358 94.4756 108.358C93.9404 108.358 93.5996 108.175 93.2461 107.852L92.8877 108.267C93.3447 108.689 93.8115 108.9 94.459 108.9ZM91.8418 108.798V108.26H89.0283V106.124H91.5967V105.589H89.0283V103.229H91.6855V102.697H88.4561V108.798H91.8418ZM86.2627 104.394C86.2627 105.19 85.7168 105.722 84.8584 105.722H83.8369L86.4971 108.802H87.2334L84.8789 106.11H85.1963C86.1055 106.11 86.876 105.344 86.876 104.435C86.876 103.419 86.1055 102.693 85.0361 102.693H83.1074V108.802H83.6865V103.229H84.8857C85.833 103.229 86.2627 103.906 86.2627 104.394ZM76.3154 105.831C75.8223 106.188 75.3594 106.646 75.3594 107.259C75.3594 107.882 75.8223 108.379 76.4551 108.379C77.0576 108.379 77.5703 108.117 77.999 107.756L76.3154 105.831ZM76.499 103.093C76.0664 103.093 75.6895 103.419 75.6895 103.886C75.6895 104.216 75.8057 104.451 76.0918 104.765L76.4229 105.136C76.7988 104.87 77.3008 104.441 77.3008 103.924C77.3008 103.43 76.9951 103.093 76.499 103.093ZM78.8926 108.798L78.3135 108.145C77.7871 108.58 77.207 108.9 76.4551 108.9C75.5234 108.9 74.7656 108.205 74.7656 107.31C74.7656 106.492 75.373 105.852 75.9834 105.437L75.6104 105.021C75.3379 104.7 75.1143 104.329 75.1143 103.906C75.1143 103.177 75.7568 102.592 76.4883 102.592C77.3135 102.592 77.8633 103.164 77.8633 103.896C77.8633 104.602 77.2773 105.108 76.7441 105.511L78.3965 107.374L78.9453 106.744L79.333 107.108L78.7383 107.779L79.6328 108.798H78.8926ZM69.4951 108.9C70.3945 108.9 71.0889 108.229 71.0889 107.266C71.0889 106.458 70.5977 105.937 69.7773 105.456C69.0898 105.051 68.6201 104.81 68.6201 104.087C68.6201 103.478 69.0352 103.133 69.4951 103.133C69.8955 103.133 70.2275 103.279 70.5977 103.593L70.9502 103.171C70.5508 102.786 70.0645 102.592 69.4922 102.592C68.6533 102.592 68.0264 103.201 68.0264 104.107C68.0264 104.986 68.6064 105.456 69.4287 105.937C70.1504 106.355 70.4902 106.655 70.4902 107.303C70.4902 107.939 70.1152 108.358 69.5156 108.358C68.9756 108.358 68.6367 108.175 68.2773 107.852L67.9277 108.267C68.374 108.689 68.8467 108.9 69.4951 108.9ZM67.3115 108.798V108.26H64.8486V102.697H64.2627V108.798H67.3115ZM62.8672 108.798V108.26H60.0557V106.124H62.6221V105.589H60.0557V103.229H62.7109V102.697H59.4834V108.798H62.8672ZM57.9941 103.229V102.693H54.8027V103.229H56.1035V108.798H56.6865V103.229H57.9941ZM53.6582 105.716C53.6582 104.243 52.5898 103.164 51.1113 103.164C49.6436 103.164 48.6211 104.216 48.6211 105.739C48.6211 107.18 49.7539 108.349 51.1455 108.349C52.4023 108.349 53.6582 107.445 53.6582 105.716ZM54.2715 105.756C54.2715 107.523 52.9082 108.911 51.1455 108.911C49.3574 108.911 48.0029 107.541 48.0029 105.739C48.0029 103.943 49.3398 102.585 51.1045 102.585C52.9395 102.585 54.2715 103.924 54.2715 105.756ZM46.835 108.798V102.697H46.252V105.416H42.9834V102.697H42.4111V108.798H42.9834V105.95H46.252V108.798" fill="black"/>
<path d="M114.247 80.6768H113.968V81.1943H114.217L114.51 80.915L114.247 80.6768ZM114.592 82.0537L113.968 81.3242V82.0537H113.733V80.4551H114.265L114.755 80.9258L114.306 81.3789L114.891 82.0537H114.592ZM114.21 80.1113C113.559 80.1113 113.038 80.6426 113.038 81.29C113.038 81.9336 113.559 82.4619 114.21 82.4619C114.86 82.4619 115.382 81.9336 115.382 81.29C115.382 80.6426 114.86 80.1113 114.21 80.1113ZM114.21 82.6562C113.453 82.6562 112.841 82.0469 112.841 81.2832C112.841 80.5273 113.453 79.9141 114.21 79.9141C114.966 79.9141 115.579 80.5273 115.579 81.2832C115.579 82.0469 114.966 82.6562 114.21 82.6562Z" fill="black"/>
<path d="M108.65 82.5918L111.314 89.2617H105.959L108.65 82.5918ZM103.237 92.7051H104.546L105.51 90.3516H111.768L112.752 92.7051H114.061L108.65 79.7842L103.237 92.7051ZM100.972 80.1318H99.7871V92.7051H100.972V80.1318ZM95.1807 83.627C95.1807 85.2793 94.0635 86.3662 92.3027 86.3662H90.1865L95.6787 92.7051H97.1836L92.3428 87.1729H92.9941C94.874 87.1729 96.4619 85.5928 96.4619 83.7119C96.4619 81.6309 94.874 80.1318 92.666 80.1318H88.6973V92.7051H89.8936V81.2285H92.3604C94.3018 81.2285 95.1807 82.6289 95.1807 83.627ZM84.8174 86.3457C84.8174 89.9189 82.2285 91.7822 79.6436 91.7822C76.7852 91.7822 74.4414 89.3672 74.4414 86.3994C74.4414 83.2627 76.5449 81.0928 79.5781 81.0928C82.6309 81.0928 84.8174 83.3135 84.8174 86.3457ZM86.0889 86.4336C86.0889 82.6631 83.3535 79.9033 79.5586 79.9033C75.9238 79.9033 73.168 82.6934 73.168 86.3994C73.168 90.127 75.959 92.9336 79.6436 92.9336C83.2647 92.9336 86.0889 90.0889 86.0889 86.4336ZM72.2344 81.2285V80.1318H65.6543V81.2285H68.3408V92.7051H69.5479V81.2285H72.2344ZM60.2295 92.9199C62.0684 92.9199 63.5166 91.5342 63.5166 89.5615C63.5166 87.8848 62.4785 86.8154 60.7949 85.8145C59.3828 84.9893 58.417 84.4922 58.417 82.9902C58.417 81.7461 59.2773 81.0244 60.2295 81.0244C61.0508 81.0244 61.7402 81.3379 62.4785 81.9922L63.2275 81.1133C62.3965 80.3193 61.3975 79.9209 60.2129 79.9209C58.4854 79.9209 57.1924 81.1807 57.1924 83.041C57.1924 84.8496 58.3848 85.8145 60.082 86.8154C61.5703 87.6807 62.2822 88.3008 62.2822 89.626C62.2822 90.9375 61.4961 91.7988 60.2617 91.7988C59.1563 91.7988 58.4541 91.418 57.7119 90.7676L56.9834 91.626C57.9209 92.4844 58.8799 92.9199 60.2295 92.9199ZM50.1553 82.5918L52.832 89.2617H47.4736L50.1553 82.5918ZM44.7451 92.7051H46.0615L47.0273 90.3516H53.2822L54.2578 92.7051H55.5693L50.1553 79.7842" fill="black"/>
<path d="M120.866 61.1777V60.0723H114.128V72.6543H115.313V67.1729H119.579V66.0732H115.313V61.1777H120.866ZM109.516 63.5762C109.516 65.2275 108.398 66.3145 106.647 66.3145H104.525L110.02 72.6543H111.516L106.675 67.126H107.336C109.209 67.126 110.793 65.541 110.793 63.6641C110.793 61.5791 109.209 60.0791 106.998 60.0791H103.036V72.6543H104.229V61.1807H106.691C108.634 61.1807 109.516 62.5781 109.516 63.5762ZM99.0908 66.3008C99.0908 69.8643 96.5088 71.7275 93.9209 71.7275C91.0654 71.7275 88.7188 69.3164 88.7188 66.3525C88.7188 63.2148 90.8203 61.0469 93.8594 61.0469C96.9043 61.0469 99.0908 63.2676 99.0908 66.3008ZM100.372 66.3828C100.372 62.6084 97.627 59.8525 93.8389 59.8525C90.2002 59.8525 87.4473 62.6475 87.4473 66.3525C87.4473 70.0762 90.2344 72.8828 93.9209 72.8828C97.5381 72.8828 100.372 70.0381 100.372 66.3828ZM78.9688 61.1475C82.0381 61.1475 84.2256 63.251 84.2256 66.3008C84.2256 69.2451 82.209 71.5879 78.8125 71.5879H76.8486V61.1475H78.9688ZM78.7949 72.6543C82.7432 72.6543 85.4824 70.0762 85.4824 66.2803C85.4824 62.5254 82.7803 60.0791 78.8682 60.0791H75.6631V72.6543H78.7949ZM73.3359 72.6543V71.5547H68.25V60.0791H67.0596V72.6543H73.3359ZM59.4453 62.542L62.1133 69.2109H56.748L59.4453 62.542ZM54.0342 72.6543H55.3428L56.3086 70.2969H62.5635L63.5439 72.6543H64.8516L59.4453 59.7295L54.0342 72.6543ZM43.0068 72.998L46.3154 65.0068L49.625 72.998L54.6865 60.0791H53.3818L49.5703 70.0381L46.2979 62.2324L43.0928 70.0762L39.248 60.0791H37.9434" fill="black"/>
<path d="M71.0723 36.6455L70.5449 37.7441L57.4531 9.41797H58.4678L71.0723 36.6455ZM70.001 9.41797H71.0098L83.6191 36.6455L83.0879 37.7441L70.001 9.41797ZM83.8604 12.1973L84.3818 11.0791L98.3897 41.4023H97.3779L83.8604 12.1973ZM60.6279 8.88477H53.2822V9.41797H54.5898L69.875 41.8457L76.21 28.667L82.4199 41.8457L88.7354 28.71L94.5195 41.4023H93.4434V41.9336H100.788V41.4023H99.4873L84.1807 8.95508L78.5586 20.8682L79.1563 22.1592L82.5156 15.0488L86.6299 24.084H80.0557L80.4912 25.0361H87.0664L87.4746 25.9404H80.9141L81.3574 26.8887H87.9043L88.1016 27.3193L84.0723 35.7002L72.1016 9.41797H73.3008V8.88477H65.9541V9.41797H67.2617L75.5508 27.335L71.5254 35.7002L59.5527 9.41797H60.6279V8.88477ZM91.1201 21.1611L96.6621 9.41797H93.4297V8.88477H100.781V9.41797H97.8613L91.7266 22.4463" fill="black"/>
</svg>
